<?xml version="1.0" standalone="no"?>
<!DOCTYPE svg PUBLIC "-//W3C//DTD SVG 1.1//EN" "http://www.w3.org/Graphics/SVG/1.1/DTD/svg11.dtd" >
<svg xmlns="http://www.w3.org/2000/svg" xmlns:xlink="http://www.w3.org/1999/xlink" version="1.1">
<metadata>
Created by FontForge 20170731 at Sat Oct 17 03:40:37 2015
 By Aleksey,,,
Copyright (c) 2011-2015, Tim Larson.
</metadata>
<defs>
<font id="Marapfhont" horiz-adv-x="506" >
  <font-face 
    font-family="Marapfhont"
    font-weight="400"
    font-stretch="normal"
    units-per-em="2401"
    panose-1="4 0 5 3 2 11 0 2 0 0"
    ascent="2058"
    descent="-343"
    x-height="1372"
    cap-height="1715"
    bbox="-2976 -588 3197 2232"
    underline-thickness="57"
    underline-position="-284"
    unicode-range="U+0020-1F6E2"
  />
<missing-glyph horiz-adv-x="880" 
d="M80 0v1600h640v-1600h-640zM160 80h480v1440h-480v-1440z" />
    <glyph glyph-name=".notdef" horiz-adv-x="880" 
d="M80 0v1600h640v-1600h-640zM160 80h480v1440h-480v-1440z" />
    <glyph glyph-name="uni0000" horiz-adv-x="234" 
 />
    <glyph glyph-name="nonmarkingreturn" horiz-adv-x="800" 
 />
    <glyph glyph-name="space" unicode=" " horiz-adv-x="234" 
 />
    <glyph glyph-name="exclam" unicode="!" horiz-adv-x="266" 
d="M70 352v1363h126v-1363h-126zM70 172h126v-172h-126v172z" />
    <glyph glyph-name="quotedbl" unicode="&#x22;" horiz-adv-x="478" 
d="M305 1715h117v-399h-117v399zM56 1715h117v-399h-117v399z" />
    <glyph glyph-name="numbersign" unicode="#" horiz-adv-x="571" 
d="M493 1061v-117h-437v117h437zM515 1361v-117h-438v117h438zM398 635l-117 8l78 1076l116 -8zM215 635l-116 8l77 1076l117 -8z" />
    <glyph glyph-name="dollar" unicode="$" horiz-adv-x="492" 
d="M312 727l-249 249v441q0 76 53.5 129t129.5 53t129.5 -53.5t53.5 -128.5v-338h-117v338q0 27 -19 46.5t-47 19.5q-27 0 -46.5 -19.5t-19.5 -46.5v-392l249 -250v-477q0 -76 -53.5 -129t-129.5 -53t-129.5 53.5t-53.5 128.5v339h117v-339q0 -27 19.5 -46.5t46.5 -19.5
q28 0 47 19.5t19 46.5v429zM188 1960h117v-280h-117v280zM188 35h117v-280h-117v280z" />
    <glyph glyph-name="percent" unicode="%" horiz-adv-x="712" 
d="M466 150q0 -14 10 -23.5t23 -9.5t23 9.5t10 23.5v400q0 14 -10 23.5t-23 9.5t-23 -9.5t-10 -23.5v-400zM499 700q62 0 106 -44t44 -106v-400q0 -62 -44 -106t-106 -44t-106 44t-44 106v400q0 62 44 106t106 44zM245 1565q0 14 -9.5 23.5t-22.5 9.5q-14 0 -23.5 -9.5
t-9.5 -23.5v-400q0 -14 9.5 -23.5t23.5 -9.5q13 0 22.5 9.5t9.5 23.5v400zM362 1598v-433q0 -62 -43.5 -106t-105.5 -44t-106 44t-44 106v400q0 62 44 106t106 44h397v-495l-430 -826v-395h-117v424l431 825v350h-132z" />
    <glyph glyph-name="ampersand" unicode="&#x26;" horiz-adv-x="555" 
d="M499 549h-63v-373q0 -76 -53.5 -129.5t-129.5 -53.5t-129.5 53.5t-53.5 129.5v640q0 73 49 125q-49 51 -49 124v475q0 76 53.5 129.5t129.5 53.5h139v-117h-139q-28 0 -47 -19t-19 -47v-475q0 -27 19 -46.5t47 -19.5h83v-117h-83q-28 0 -47 -19t-19 -47v-640
q0 -28 19 -47t47 -19q27 0 46.5 19t19.5 47v490h180v-117z" />
    <glyph glyph-name="quotesingle" unicode="'" horiz-adv-x="229" 
d="M56 1715h117v-399h-117v399z" />
    <glyph glyph-name="parenleft" unicode="(" horiz-adv-x="309" 
d="M70 1581q0 76 53.5 129.5t129.5 53.5v-117q-28 0 -47 -19t-19 -47v-1594q0 -28 19 -47t47 -19v-117q-76 0 -129.5 53.5t-53.5 129.5v1594z" />
    <glyph glyph-name="parenright" unicode=")" horiz-adv-x="309" 
d="M239 -13q0 -76 -53.5 -129.5t-129.5 -53.5v117q27 0 46.5 19t19.5 47v1594q0 28 -19.5 47t-46.5 19v117q76 0 129.5 -53.5t53.5 -129.5v-1594z" />
    <glyph glyph-name="asterisk" unicode="*" horiz-adv-x="509" 
d="M386 1675l61 -76l-82 -66l102 -23l-21 -96l-103 23l46 -94l-89 -43l-45 95l-46 -95l-88 43l45 94l-102 -23l-22 96l102 23l-82 66l61 76l83 -65v105h98v-105z" />
    <glyph glyph-name="plus" unicode="+" horiz-adv-x="397" 
d="M257 421h-117v320h-98v116h98v319h117v-319h98v-116h-98v-320z" />
    <glyph glyph-name="comma" unicode="," horiz-adv-x="362" 
d="M147 -205l-105 50l173 360l105 -50z" />
    <glyph glyph-name="hyphen" unicode="-" horiz-adv-x="323" 
d="M42 956h239v-117h-239v117z" />
    <glyph glyph-name="period" unicode="." horiz-adv-x="201" 
d="M42 172h117v-172h-117v172z" />
    <glyph glyph-name="slash" unicode="/" horiz-adv-x="491" 
d="M312 1109v605h116v-633l-248 -478v-604h-117v633z" />
    <glyph glyph-name="zero" unicode="0" 
d="M319 1539q0 28 -19.5 47t-46.5 19q-28 0 -47 -19t-19 -47v-1363q0 -28 19 -47t47 -19q27 0 46.5 19t19.5 47v1363zM70 1539q0 76 53.5 129.5t129.5 53.5t129.5 -53.5t53.5 -129.5v-1363q0 -76 -53.5 -129.5t-129.5 -53.5t-129.5 53.5t-53.5 129.5v1363z" />
    <glyph glyph-name="one" unicode="1" horiz-adv-x="344" 
d="M42 1537l232 185v-1722h-117v1480l-42 -34z" />
    <glyph glyph-name="two" unicode="2" horiz-adv-x="523" 
d="M312 1539q0 28 -19 47t-47 19q-27 0 -46.5 -19t-19.5 -47v-189h-117v189q0 76 53.5 129.5t129.5 53.5t129.5 -53.5t53.5 -129.5v-621l-207 -323v-478h238v-117h-354v630l206 322v587z" />
    <glyph glyph-name="three" unicode="3" horiz-adv-x="499" 
d="M246 961q28 0 47 19t19 47v512q0 28 -19 47t-47 19q-27 0 -46.5 -19t-19.5 -47v-189h-117v189q0 76 53.5 129.5t129.5 53.5t129.5 -53.5t53.5 -129.5v-512q0 -73 -49 -125q49 -52 49 -124v-602q0 -76 -53.5 -129.5t-129.5 -53.5t-129.5 53.5t-53.5 129.5v196h117v-196
q0 -28 19.5 -47t46.5 -19q28 0 47 19t19 47v602q0 27 -19 46.5t-47 19.5h-83v117h83z" />
    <glyph glyph-name="four" unicode="4" horiz-adv-x="566" 
d="M429 1715v-966h74v-117h-74v-632h-117v632h-249v675l249 408h117zM312 1491l-132 -217v-525h132v742z" />
    <glyph glyph-name="five" unicode="5" horiz-adv-x="492" 
d="M246 961q76 0 129.5 -53.5t53.5 -129.5v-602q0 -76 -53.5 -129.5t-129.5 -53.5t-129.5 53.5t-53.5 129.5v196h117v-196q0 -28 19.5 -47t46.5 -19q28 0 47 19t19 47v602q0 27 -19 46.5t-47 19.5h-144v871h327v-117h-210v-637h27z" />
    <glyph glyph-name="six" unicode="6" 
d="M319 1539q0 28 -19.5 47t-46.5 19q-28 0 -47 -19t-19 -47v-578h66q76 0 129.5 -53.5t53.5 -129.5v-602q0 -76 -53.5 -129.5t-129.5 -53.5t-129.5 53.5t-53.5 129.5v1363q0 76 53.5 129.5t129.5 53.5t129.5 -53.5t53.5 -129.5v-196h-117v196zM187 844v-668q0 -28 19.5 -47
t46.5 -19q28 0 47 19t19 47v602q0 27 -19 46.5t-47 19.5h-66z" />
    <glyph glyph-name="seven" unicode="7" horiz-adv-x="459" 
d="M279 1598h-237v117h354v-568l-163 -395v-752h-117v775l163 396v427z" />
    <glyph glyph-name="eight" unicode="8" 
d="M319 1539q0 28 -19.5 47t-46.5 19q-28 0 -47 -19t-19 -47v-512q0 -28 19 -47t47 -19q27 0 46.5 19t19.5 47v512zM70 1539q0 76 53.5 129.5t129.5 53.5t129.5 -53.5t53.5 -129.5v-512q0 -71 -49 -125q49 -54 49 -124v-602q0 -76 -53.5 -129.5t-129.5 -53.5t-129.5 53.5
t-53.5 129.5v602q0 72 49 124q-49 52 -49 125v512zM253 844q-28 0 -47 -19.5t-19 -46.5v-602q0 -28 19 -47t47 -19q27 0 46.5 19t19.5 47v602q0 27 -19.5 46.5t-46.5 19.5z" />
    <glyph glyph-name="nine" unicode="9" horiz-adv-x="499" 
d="M246 117q28 0 47 19t19 47v571h-66q-76 0 -129.5 53.5t-53.5 129.5v602q0 76 53.5 129.5t129.5 53.5t129.5 -53.5t53.5 -129.5v-1356q0 -76 -53.5 -129.5t-129.5 -53.5h-78v117h78zM312 871v668q0 28 -19.5 47t-46.5 19q-28 0 -47 -19t-19 -47v-602q0 -27 19 -46.5
t47 -19.5h66z" />
    <glyph glyph-name="colon" unicode=":" horiz-adv-x="229" 
d="M56 172h117v-172h-117v172zM56 1068h117v-172h-117v172z" />
    <glyph glyph-name="semicolon" unicode=";" horiz-adv-x="390" 
d="M137 1068h117v-172h-117v172zM161 -205l-105 50l173 360l105 -50z" />
    <glyph glyph-name="less" unicode="&#x3c;" horiz-adv-x="356" 
d="M300 706l-82 -82l-176 175l176 176l82 -82l-93 -94z" />
    <glyph glyph-name="equal" unicode="=" horiz-adv-x="425" 
d="M56 889v117h313v-117h-313zM56 592v117h313v-117h-313z" />
    <glyph glyph-name="greater" unicode="&#x3e;" horiz-adv-x="356" 
d="M56 893l82 82l176 -176l-176 -175l-82 82l93 93z" />
    <glyph glyph-name="question" unicode="?" horiz-adv-x="485" 
d="M171 172h126v-172h-126v172zM305 1539q0 28 -19.5 47t-46.5 19q-28 0 -47 -19t-19 -47v-197h-117v197q0 76 53.5 129.5t129.5 53.5t129.5 -53.5t53.5 -129.5l-1 -662l-124 -124v-401h-126v449l134 125v613z" />
    <glyph glyph-name="at" unicode="@" horiz-adv-x="754" 
d="M501 1255q-27 0 -46.5 -19t-19.5 -47v-1006q0 -28 19.5 -47t46.5 -19h65v1138h-65zM475 -350h-98q-127 0 -217 90t-90 217v1458q0 127 90 217t217 90t217 -90t90 -217l-1 -1415h-182q-76 0 -129.5 53.5t-53.5 129.5v1006q0 76 53.5 129.5t129.5 53.5h5h4h5h5h5h5h5h5h6h6
h6h8l1 43q0 79 -55.5 134.5t-134.5 55.5t-134.5 -55.5t-55.5 -134.5v-1458q0 -79 55.5 -134.5t134.5 -55.5h98v-117z" />
    <glyph glyph-name="A" unicode="A" 
d="M319 1539q0 28 -19.5 47t-46.5 19q-28 0 -47 -19t-19 -47v-705h132v705zM436 0h-117v717h-132v-717h-117v1539q0 76 53.5 129.5t129.5 53.5t129.5 -53.5t53.5 -129.5v-1539z" />
    <glyph glyph-name="B" unicode="B" 
d="M187 117h66q27 0 46.5 19t19.5 47v591q0 27 -19.5 46.5t-46.5 19.5h-66v-723zM70 0v1715h183q76 0 129.5 -53.5t53.5 -129.5v-509q0 -71 -49 -125q49 -54 49 -124v-591q0 -76 -53.5 -129.5t-129.5 -53.5h-183zM253 957q27 0 46.5 19t19.5 47v509q0 28 -19.5 47t-46.5 19
h-66v-641h66z" />
    <glyph glyph-name="C" unicode="C" horiz-adv-x="492" 
d="M253 1598q-28 0 -47 -19t-19 -47v-1356q0 -28 19 -47t47 -19q27 0 46.5 19t19.5 47v196h117v-196q0 -76 -53.5 -129.5t-129.5 -53.5t-129.5 53.5t-53.5 129.5v1356q0 76 53.5 129.5t129.5 53.5h183v-365h-117v248h-66z" />
    <glyph glyph-name="D" unicode="D" 
d="M253 117q28 0 47 19t19 47v1349q0 28 -19 47t-47 19h-66v-1481h66zM70 0v1715h183q76 0 129.5 -53.5t53.5 -129.5v-1349q0 -76 -53.5 -129.5t-129.5 -53.5h-183z" />
    <glyph glyph-name="E" unicode="E" horiz-adv-x="398" 
d="M70 0v1715h272v-117h-155v-682h155v-117h-155v-682h155v-117h-272z" />
    <glyph glyph-name="F" unicode="F" horiz-adv-x="406" 
d="M70 0v1715h280v-117h-163v-682h155v-117h-155v-799h-117z" />
    <glyph glyph-name="G" unicode="G" horiz-adv-x="499" 
d="M253 0q-76 0 -129.5 53.5t-53.5 129.5v1349q0 76 53.5 129.5t129.5 53.5h183v-365h-117v248h-66q-28 0 -47 -19t-19 -47v-1349q0 -28 19 -47t47 -19h66v608h-49v117h166v-842h-183z" />
    <glyph glyph-name="H" unicode="H" 
d="M187 839v-839h-117v1715h117v-759h132v759h117v-1715h-117v839h-132z" />
    <glyph glyph-name="I" unicode="I" horiz-adv-x="257" 
d="M187 0h-117v1715h117v-1715z" />
    <glyph glyph-name="J" unicode="J" horiz-adv-x="492" 
d="M173 507v-331q0 -28 19 -47t47 -19q27 0 46.5 19t19.5 47v1539h117v-1539q0 -76 -53.5 -129.5t-129.5 -53.5t-129.5 53.5t-53.5 129.5v331h117z" />
    <glyph glyph-name="K" unicode="K" 
d="M187 0h-117v1715h117v-708l132 200v508h117v-543l-179 -271l179 -271v-630h-117v595l-132 200v-795z" />
    <glyph glyph-name="L" unicode="L" horiz-adv-x="417" 
d="M187 117h188v-117h-305v1715h117v-1598z" />
    <glyph glyph-name="M" unicode="M" horiz-adv-x="755" 
d="M187 0h-117v1539q0 76 53.5 129.5t129.5 53.5q73 0 124 -49q52 49 125 49q76 0 129.5 -53.5t53.5 -129.5v-1539h-117v1539q0 28 -19.5 47t-46.5 19q-28 0 -47 -19t-19 -47v-1539h-117v1539q0 28 -19.5 47t-46.5 19q-28 0 -47 -19t-19 -47v-1539z" />
    <glyph glyph-name="N" unicode="N" 
d="M187 0h-117v1722q152 0 259 -107t107 -259v-1356h-117v1356q0 71 -36 130t-96 90v-1576z" />
    <glyph glyph-name="O" unicode="O" 
d="M319 1539q0 28 -19.5 47t-46.5 19q-28 0 -47 -19t-19 -47v-1363q0 -28 19 -47t47 -19q27 0 46.5 19t19.5 47v1363zM70 1539q0 76 53.5 129.5t129.5 53.5t129.5 -53.5t53.5 -129.5v-1363q0 -76 -53.5 -129.5t-129.5 -53.5t-129.5 53.5t-53.5 129.5v1363z" />
    <glyph glyph-name="P" unicode="P" horiz-adv-x="499" 
d="M253 792q28 0 47 19.5t19 46.5v674q0 28 -19 47t-47 19h-66v-806h66zM187 675v-675h-117v1715h183q76 0 129.5 -53.5t53.5 -129.5v-674q0 -76 -53.5 -129.5t-129.5 -53.5h-66z" />
    <glyph glyph-name="Q" unicode="Q" 
d="M70 1539q0 76 53.5 129.5t129.5 53.5t129.5 -53.5t53.5 -129.5v-1363q0 -68 -46 -121l87 -87l-83 -83l-110 110q-20 -2 -31 -2q-76 0 -129.5 53.5t-53.5 129.5v1363zM319 1539q0 28 -19.5 47t-46.5 19q-28 0 -47 -19t-19 -47v-1363q0 -28 19 -47t47 -19q27 0 46.5 19
t19.5 47v1363z" />
    <glyph glyph-name="R" unicode="R" 
d="M253 757h-66v-757h-117v1715h183q76 0 129.5 -53.5t53.5 -129.5v-592q0 -71 -49 -125q49 -52 49 -124v-691h-117v691q0 27 -19.5 46.5t-46.5 19.5zM253 874q27 0 46.5 19t19.5 47v592q0 28 -19.5 47t-46.5 19h-66v-724h66z" />
    <glyph glyph-name="S" unicode="S" horiz-adv-x="492" 
d="M429 176q0 -76 -53.5 -129.5t-129.5 -53.5t-129.5 53.5t-53.5 129.5v337h117v-337q0 -28 19.5 -47t46.5 -19q28 0 47 19t19 47v479l-249 409v475q0 76 53.5 129.5t129.5 53.5t129.5 -53.5t53.5 -129.5v-336h-117v336q0 28 -19 47t-47 19q-27 0 -46.5 -19t-19.5 -47v-443
l249 -408v-512z" />
    <glyph glyph-name="T" unicode="T" horiz-adv-x="446" 
d="M49 1715h348v-117h-116v-1598h-117v1598h-115v117z" />
    <glyph glyph-name="U" unicode="U" 
d="M436 176q0 -76 -53.5 -129.5t-129.5 -53.5t-129.5 53.5t-53.5 129.5v1539h117v-1539q0 -28 19 -47t47 -19q27 0 46.5 19t19.5 47v1539h117v-1539z" />
    <glyph glyph-name="V" unicode="V" 
d="M187 1715v-1576q60 31 96 90t36 130v1356h117v-1356q0 -151 -107 -258.5t-259 -107.5v1722h117z" />
    <glyph glyph-name="W" unicode="W" horiz-adv-x="755" 
d="M568 1715h117v-1539q0 -76 -53.5 -129.5t-129.5 -53.5q-73 0 -125 49q-51 -49 -124 -49q-76 0 -129.5 53.5t-53.5 129.5v1539h117v-1539q0 -28 19 -47t47 -19q27 0 46.5 19t19.5 47v1539h117v-1539q0 -28 19 -47t47 -19q27 0 46.5 19t19.5 47v1539z" />
    <glyph glyph-name="X" unicode="X" 
d="M70 1715h117v-664l66 -66l66 66v664h117v-713l-101 -100l101 -100v-802h-117v753l-66 67l-66 -67v-753h-117v802l100 100l-100 100v713z" />
    <glyph glyph-name="Y" unicode="Y" horiz-adv-x="492" 
d="M180 1121l66 -118l66 118v594h117v-624l-125 -224v-867h-116v867l-125 224v624h117v-594z" />
    <glyph glyph-name="Z" unicode="Z" horiz-adv-x="440" 
d="M260 1598h-197v117h314v-656l-197 -387v-555h197v-117h-314v700l197 387v511z" />
    <glyph glyph-name="bracketleft" unicode="[" horiz-adv-x="325" 
d="M70 1764h199v-117h-82v-1726h82v-117h-199v1960z" />
    <glyph glyph-name="backslash" unicode="\" horiz-adv-x="491" 
d="M180 1110l248 -477v-633h-116v605l-249 477v633h117v-605z" />
    <glyph glyph-name="bracketright" unicode="]" horiz-adv-x="325" 
d="M255 -196h-199v117h82v1726h-82v117h199v-1960z" />
    <glyph glyph-name="asciicircum" unicode="^" horiz-adv-x="435" 
d="M124 1465l-82 82l176 176l175 -176l-82 -82l-93 93z" />
    <glyph glyph-name="underscore" unicode="_" horiz-adv-x="234" 
d="M241 -14v-116h-248v116h248z" />
    <glyph glyph-name="grave" unicode="`" horiz-adv-x="494" 
d="M452 1542l-50 -106l-360 174l50 105z" />
    <glyph glyph-name="a" unicode="a" horiz-adv-x="499" 
d="M312 799h-66q-27 0 -46.5 -19.5t-19.5 -46.5v-550q0 -28 19.5 -47t46.5 -19h66v682zM246 1372q76 0 129.5 -53.5t53.5 -129.5v-1189h-183q-76 0 -129.5 53.5t-53.5 129.5v550q0 76 53.5 129.5t129.5 53.5h66v273q0 28 -19.5 47t-46.5 19h-97v117h97z" />
    <glyph glyph-name="b" unicode="b" 
d="M187 117h66q27 0 46.5 19t19.5 47v1006q0 27 -19.5 46.5t-46.5 19.5h-66v-1138zM436 1189v-1006q0 -76 -53.5 -129.5t-129.5 -53.5h-183v1715h117v-343h66q76 0 129.5 -53.5t53.5 -129.5z" />
    <glyph glyph-name="c" unicode="c" horiz-adv-x="492" 
d="M253 1255q-28 0 -47 -19t-19 -47v-1013q0 -28 19 -47t47 -19q27 0 46.5 19t19.5 47v147h117v-147q0 -76 -53.5 -129.5t-129.5 -53.5t-129.5 53.5t-53.5 129.5v1013q0 76 53.5 129.5t129.5 53.5h183v-316h-117v199h-66z" />
    <glyph glyph-name="d" unicode="d" 
d="M319 1255h-66q-27 0 -46.5 -19.5t-19.5 -46.5v-1006q0 -28 19.5 -47t46.5 -19h66v1138zM436 1715v-1715h-183q-76 0 -129.5 53.5t-53.5 129.5v1006q0 76 53.5 129.5t129.5 53.5h66v343h117z" />
    <glyph glyph-name="e" unicode="e" 
d="M319 1196q0 28 -19 47t-47 19t-47 -19t-19 -47v-623h132v623zM253 -7q-76 0 -129.5 53.5t-53.5 129.5v1020q0 76 53.5 129.5t129.5 53.5t129.5 -53.5t53.5 -129.5v-740h-249v-280q0 -28 19 -47t47 -19q27 0 46.5 19t19.5 47v148h117v-148q0 -76 -53.5 -129.5
t-129.5 -53.5z" />
    <glyph glyph-name="f" unicode="f" horiz-adv-x="406" 
d="M187 916h155v-117h-155v-799h-117v1532q0 76 53.5 129.5t129.5 53.5h97v-117h-97q-28 0 -47 -19t-19 -47v-616z" />
    <glyph glyph-name="g" unicode="g" 
d="M319 1196q0 28 -19.5 47t-46.5 19q-28 0 -47 -19t-19 -47v-922q0 -28 19 -47t47 -19q27 0 46.5 19t19.5 47v922zM70 274v922q0 76 53.5 129.5t129.5 53.5t129.5 -53.5t53.5 -129.5v-922q0 -76 -53.5 -129.5t-129.5 -53.5q-16 0 -26.5 -11t-10.5 -26.5t11 -26.5t26 -11
q76 0 129.5 -53.5t53.5 -129.5t-53.5 -129.5t-129.5 -53.5t-129.5 53.5t-53.5 129.5q0 78 56 132q-28 40 -28 88.5t28 88.5q-56 54 -56 132zM253 -101q-28 0 -47 -19t-19 -47t19 -47t47 -19q27 0 46.5 19t19.5 47t-19.5 47t-46.5 19z" />
    <glyph glyph-name="h" unicode="h" 
d="M319 0v1189q0 27 -19.5 46.5t-46.5 19.5h-66v-1255h-117v1715h117v-343h66q76 0 129.5 -53.5t53.5 -129.5v-1189h-117z" />
    <glyph glyph-name="i" unicode="i" horiz-adv-x="257" 
d="M187 0h-117v1372h117v-1372zM70 1715h112v-172h-112v172z" />
    <glyph glyph-name="j" unicode="j" horiz-adv-x="257" 
d="M70 -160v1532h117v-1532q0 -76 -53.5 -129.5t-129.5 -53.5h-97v117h97q28 0 47 19t19 47zM70 1715h117v-172h-117v172z" />
    <glyph glyph-name="k" unicode="k" 
d="M187 0h-117v1715h117v-785l132 200v242h117v-277l-179 -271l179 -271v-553h-117v518l-132 200v-718z" />
    <glyph glyph-name="l" unicode="l" horiz-adv-x="302" 
d="M253 0q-76 0 -129.5 53.5t-53.5 129.5v1532h117v-1532q0 -28 19 -47t47 -19v-117z" />
    <glyph glyph-name="m" unicode="m" horiz-adv-x="755" 
d="M187 0h-117v1196q0 76 53.5 129.5t129.5 53.5q73 0 124 -49q52 49 125 49q76 0 129.5 -53.5t53.5 -129.5v-1196h-117v1196q0 28 -19.5 47t-46.5 19q-28 0 -47 -19t-19 -47v-1196h-117v1196q0 28 -19.5 47t-46.5 19q-28 0 -47 -19t-19 -47v-1196z" />
    <glyph glyph-name="n" unicode="n" 
d="M187 0h-117v1379q152 0 259 -107.5t107 -258.5v-1013h-117v1013q0 71 -36 130t-96 90v-1233z" />
    <glyph glyph-name="o" unicode="o" 
d="M319 1196q0 28 -19.5 47t-46.5 19q-28 0 -47 -19t-19 -47v-1020q0 -28 19 -47t47 -19q27 0 46.5 19t19.5 47v1020zM70 1196q0 76 53.5 129.5t129.5 53.5t129.5 -53.5t53.5 -129.5v-1020q0 -76 -53.5 -129.5t-129.5 -53.5t-129.5 53.5t-53.5 129.5v1020z" />
    <glyph glyph-name="p" unicode="p" 
d="M187 117h66q27 0 46.5 19.5t19.5 46.5v1006q0 28 -19.5 47t-46.5 19h-66v-1138zM70 -343v1715h183q76 0 129.5 -53.5t53.5 -129.5v-1006q0 -76 -53.5 -129.5t-129.5 -53.5h-66v-343h-117z" />
    <glyph glyph-name="q" unicode="q" 
d="M319 1255h-66q-27 0 -46.5 -19t-19.5 -47v-1006q0 -27 19.5 -46.5t46.5 -19.5h66v1138zM70 183v1006q0 76 53.5 129.5t129.5 53.5h183v-1715h-117v343h-66q-76 0 -129.5 53.5t-53.5 129.5z" />
    <glyph glyph-name="r" unicode="r" horiz-adv-x="493" 
d="M253 1255q-28 0 -47 -19t-19 -47v-1189h-117v1189q0 76 53.5 129.5t129.5 53.5h184v-316h-117v199h-67z" />
    <glyph glyph-name="s" unicode="s" horiz-adv-x="492" 
d="M429 176q0 -76 -53.5 -129.5t-129.5 -53.5t-129.5 53.5t-53.5 129.5v147h117v-147q0 -28 19.5 -47t46.5 -19q28 0 47 19t19 47v308l-249 408v304q0 76 53.5 129.5t129.5 53.5t129.5 -53.5t53.5 -129.5v-140h-117v140q0 28 -19 47t-47 19q-27 0 -46.5 -19t-19.5 -47v-272
l249 -408v-340z" />
    <glyph glyph-name="t" unicode="t" horiz-adv-x="446" 
d="M281 1715v-343h116v-117h-116v-1255h-117v1255h-115v117h115v343h117z" />
    <glyph glyph-name="u" unicode="u" 
d="M436 176q0 -76 -53.5 -129.5t-129.5 -53.5t-129.5 53.5t-53.5 129.5v1196h117v-1196q0 -28 19 -47t47 -19q27 0 46.5 19t19.5 47v1196h117v-1196z" />
    <glyph glyph-name="v" unicode="v" 
d="M187 1372v-1233q60 31 96 90t36 130v1013h117v-1013q0 -151 -107 -258.5t-259 -107.5v1379h117z" />
    <glyph glyph-name="w" unicode="w" horiz-adv-x="755" 
d="M568 1372h117v-1196q0 -76 -53.5 -129.5t-129.5 -53.5q-73 0 -125 49q-51 -49 -124 -49q-76 0 -129.5 53.5t-53.5 129.5v1196h117v-1196q0 -28 19 -47t47 -19q27 0 46.5 19t19.5 47v1196h117v-1196q0 -28 19 -47t47 -19q27 0 46.5 19t19.5 47v1196z" />
    <glyph glyph-name="x" unicode="x" 
d="M70 1372h117v-501l66 -66l66 66v501h117v-550l-101 -100l101 -100v-622h-117v573l-66 67l-66 -67v-573h-117v622l100 100l-100 100v550z" />
    <glyph glyph-name="y" unicode="y" 
d="M319 19q-110 37 -179.5 132.5t-69.5 214.5v1006h117v-1006q0 -71 36 -130t96 -90v1226h117v-1532q0 -76 -53.5 -129.5t-129.5 -53.5h-97v117h97q27 0 46.5 19t19.5 47v179z" />
    <glyph glyph-name="z" unicode="z" horiz-adv-x="440" 
d="M260 1255h-197v117h314v-489l-197 -387v-379h197v-117h-314v524l197 387v344z" />
    <glyph glyph-name="braceleft" unicode="{" horiz-adv-x="436" 
d="M314 647v-660q0 -28 19 -47t47 -19v-117q-76 0 -129.5 53.5t-53.5 129.5v612l-141 141l141 141v700q0 76 53.5 129.5t129.5 53.5v-117q-28 0 -47 -19t-19 -47v-748l-93 -93z" />
    <glyph glyph-name="bar" unicode="|" horiz-adv-x="257" 
d="M187 -49h-117v1813h117v-1813z" />
    <glyph glyph-name="braceright" unicode="}" horiz-adv-x="436" 
d="M122 921v660q0 28 -19.5 47t-46.5 19v117q76 0 129.5 -53.5t53.5 -129.5v-612l141 -141l-141 -141v-700q0 -76 -53.5 -129.5t-129.5 -53.5v117q27 0 46.5 19t19.5 47v748l92 93z" />
    <glyph glyph-name="asciitilde" unicode="~" horiz-adv-x="529" 
d="M124 1475l-82 83l165 165l114 -114l83 82l83 -82l-166 -165l-114 114z" />
    <glyph glyph-name="uni00A0" unicode="&#xa0;" horiz-adv-x="234" 
 />
    <glyph glyph-name="exclamdown" unicode="&#xa1;" horiz-adv-x="238" 
d="M182 1020v-1363h-126v1363h126zM182 1200h-126v172h126v-172z" />
    <glyph glyph-name="cent" unicode="&#xa2;" horiz-adv-x="492" 
d="M188 1736h116v-280h-116v280zM188 260h116v-280h-116v280zM246 1258q-28 0 -47 -19t-19 -47v-670q0 -27 19 -46.5t47 -19.5q27 0 46.5 19.5t19.5 46.5v196h117v-196q0 -75 -53.5 -128.5t-129.5 -53.5t-129.5 53.5t-53.5 128.5v670q0 76 53.5 130t129.5 54h183v-366h-117
v248h-66z" />
    <glyph glyph-name="sterling" unicode="&#xa3;" horiz-adv-x="494" 
d="M134 916v624q0 76 53.5 129.5t128.5 53.5h90v-117h-90q-27 0 -46.5 -19t-19.5 -47v-624h156v-117h-156v-682h188v-117h-304v799h-78v117h78z" />
    <glyph glyph-name="currency" unicode="&#xa4;" horiz-adv-x="564" 
d="M346 1196q0 28 -19 47t-47 19q-27 0 -46.5 -19t-19.5 -47v-677q0 -28 19.5 -47t46.5 -19q28 0 47 19t19 47v677zM421 1415l80 -86l-56 -53q18 -38 18 -80v-677q0 -42 -18 -80l56 -53l-80 -86l-58 55q-39 -19 -83 -19q-41 0 -77 17l-59 -53l-79 86l53 48q-21 40 -21 85
v677q0 43 19 81l-53 54l83 82l53 -53q38 19 81 19q44 0 83 -19z" />
    <glyph glyph-name="yen" unicode="&#xa5;" horiz-adv-x="492" 
d="M63.4814 889v117h365.994v-117h-365.994zM63.4814 592v117h365.994v-117h-365.994zM180 1121l66 -118l66 118v594h117v-624l-125 -224v-867h-116v867l-125 224v624h117v-594z" />
    <glyph glyph-name="brokenbar" unicode="&#xa6;" horiz-adv-x="257" 
d="M70 1077v981h117v-981h-117zM187 881v-881h-117v881h117z" />
    <glyph glyph-name="section" unicode="&#xa7;" horiz-adv-x="492" 
d="M429 -167q0 -76 -53.5 -129.5t-129.5 -53.5t-129.5 53.5t-53.5 129.5v264h117v-264q0 -28 19.5 -47t46.5 -19q28 0 47 19t19 47v345l-249 327v1034q0 76 53.5 129.5t129.5 53.5t129.5 -53.5t53.5 -129.5v-263h-117v263q0 28 -19 47t-47 19q-27 0 -46.5 -19t-19.5 -47
v-316l249 -326v-1064zM312 364v500l-132 173v-500z" />
    <glyph glyph-name="dieresis" unicode="&#xa8;" horiz-adv-x="450" 
d="M291 1715h117v-172h-117v172zM42 1715h117v-172h-117v172z" />
    <glyph glyph-name="copyright" unicode="&#xa9;" horiz-adv-x="989" 
d="M180 869q0 -131 92 -223t223 -92q130 0 222 92.5t92 222.5v663q0 130 -92 222.5t-222 92.5q-131 0 -223 -92.5t-92 -222.5v-663zM926 869q0 -179 -126.5 -305.5t-304.5 -126.5q-117 0 -216.5 58t-157.5 157.5t-58 216.5v663q0 178 126.5 305t305.5 127
q178 0 304.5 -126.5t126.5 -305.5v-663zM495 1598q-28 0 -47 -19t-19 -47v-671q0 -28 19 -47t47 -19q27 0 46.5 19t19.5 47v197h117v-197q0 -76 -53.5 -129.5t-129.5 -53.5t-129.5 53.5t-53.5 129.5v671q0 76 53.5 129.5t129.5 53.5h183v-365h-117v248h-66z" />
    <glyph glyph-name="ordfeminine" unicode="&#xaa;" horiz-adv-x="464" 
d="M298 1362h-66q-27 0 -46.5 -19t-19.5 -47v-182q0 -28 19.5 -47t46.5 -19h66v314zM232 1715q76 0 129.5 -53.5t53.5 -129.5v-601h-183q-76 0 -129.5 53.5t-53.5 129.5v182q0 76 53.5 130t129.5 54h66v52q0 28 -19.5 47t-46.5 19h-97v117h97z" />
    <glyph glyph-name="guillemotleft" unicode="&#xab;" horiz-adv-x="614" 
d="M300 706l-82 -82l-176 175l176 176l82 -82l-93 -94zM558 706l-82 -82l-176 175l176 176l82 -82l-93 -94z" />
    <glyph glyph-name="logicalnot" unicode="&#xac;" horiz-adv-x="348" 
d="M42 741v116h250v-250h-117v133z" />
    <glyph glyph-name="uni00AD" unicode="&#xad;" horiz-adv-x="263" 
d="M42 1054h179v-117h-179v117z" />
    <glyph glyph-name="registered" unicode="&#xae;" horiz-adv-x="989" 
d="M180 869q0 -131 92 -223t223 -92q130 0 222 92.5t92 222.5v663q0 130 -92 222.5t-222 92.5q-131 0 -223 -92.5t-92 -222.5v-663zM926 869q0 -179 -126.5 -305.5t-304.5 -126.5q-117 0 -216.5 58t-157.5 157.5t-58 216.5v663q0 178 126.5 305t305.5 127
q178 0 304.5 -126.5t126.5 -305.5v-663zM495 1117h-66v-431h-117v1029h183q76 0 129.5 -53.5t53.5 -129.5v-232q0 -71 -49 -125q49 -54 49 -124v-365h-117v365q0 27 -19.5 46.5t-46.5 19.5zM495 1234q27 0 46.5 19t19.5 47v232q0 28 -19.5 47t-46.5 19h-66v-364h66z" />
    <glyph glyph-name="macron" unicode="&#xaf;" horiz-adv-x="318" 
d="M56 1846h206v-117h-206v117z" />
    <glyph glyph-name="degree" unicode="&#xb0;" horiz-adv-x="450" 
d="M225 1722q76 0 129.5 -53.5t53.5 -129.5t-53.5 -129.5t-129.5 -53.5t-129.5 53.5t-53.5 129.5t53.5 129.5t129.5 53.5zM159 1539q0 -27 19 -46.5t47 -19.5q27 0 46.5 19.5t19.5 46.5q0 28 -19.5 47t-46.5 19q-28 0 -47 -19t-19 -47z" />
    <glyph glyph-name="plusminus" unicode="&#xb1;" horiz-adv-x="425" 
d="M56 244v117h313v-117h-313zM271 512h-117v319h-98v117h98v319h117v-319h98v-117h-98v-319z" />
    <glyph glyph-name="uni00B2" unicode="&#xb2;" horiz-adv-x="509" 
d="M305 1882q0 28 -19 47t-47 19q-27 0 -46.5 -19t-19.5 -47v-91h-117v91q0 76 53.5 129.5t129.5 53.5t129.5 -53.5t53.5 -129.5v-278l-207 -323v-135h238v-117h-354v287l206 322v244z" />
    <glyph glyph-name="uni00B3" unicode="&#xb3;" horiz-adv-x="478" 
d="M239 1647q28 0 47 19t19 47v169q0 28 -19 47t-47 19q-27 0 -46.5 -19t-19.5 -47v-91h-117v91q0 76 53.5 129.5t129.5 53.5t129.5 -53.5t53.5 -129.5v-169q0 -73 -49 -125q49 -52 49 -124v-259q0 -76 -53.5 -129.5t-129.5 -53.5t-129.5 53.5t-53.5 129.5v98h117v-98
q0 -28 19.5 -47t46.5 -19q28 0 47 19t19 47v259q0 27 -19 46.5t-47 19.5h-83v117h83z" />
    <glyph glyph-name="acute" unicode="&#xb4;" horiz-adv-x="494" 
d="M42 1542l360 173l50 -105l-360 -174z" />
    <glyph glyph-name="uni00B5" unicode="&#xb5;" 
d="M187 -343h-117v1715h117v-1013q0 -71 36 -130t96 -90v1233h117v-1379q-144 0 -249 98v-434z" />
    <glyph glyph-name="paragraph" unicode="&#xb6;" horiz-adv-x="681" 
d="M246 971q-76 0 -129.5 53.5t-53.5 129.5v378q0 76 53.5 129.5t129.5 53.5h365v-1715h-117v1598h-132v-1598h-116v971z" />
    <glyph glyph-name="periodcentered" unicode="&#xb7;" horiz-adv-x="201" 
d="M42 857h117v-172h-117v172z" />
    <glyph glyph-name="uni00B9" unicode="&#xb9;" horiz-adv-x="344" 
d="M56 1880l232 185v-1036h-117v794l-42 -34z" />
    <glyph glyph-name="ordmasculine" unicode="&#xba;" horiz-adv-x="464" 
d="M298 1539q0 28 -19.5 47t-46.5 19q-28 0 -47 -19t-19 -47v-432q0 -28 19 -47t47 -19q27 0 46.5 19t19.5 47v432zM49 1539q0 76 53.5 129.5t129.5 53.5t129.5 -53.5t53.5 -129.5v-432q0 -76 -53.5 -129.5t-129.5 -53.5t-129.5 53.5t-53.5 129.5v432z" />
    <glyph glyph-name="guillemotright" unicode="&#xbb;" horiz-adv-x="614" 
d="M56 893l82 82l176 -176l-176 -175l-82 82l93 93zM314 893l82 82l176 -176l-176 -175l-82 82l93 93z" />
    <glyph glyph-name="onehalf" unicode="&#xbd;" horiz-adv-x="1219" 
d="M1015 853q0 28 -19 47t-47 19q-27 0 -46.5 -19t-19.5 -47v-91h-117v91q0 76 53.5 129.5t129.5 53.5t129.5 -53.5t53.5 -129.5v-278l-207 -323v-135h238v-117h-354v287l206 322v244zM56 1537l232 185v-1036h-117v794l-42 -34zM351 245v511l249 249v465h117v-513l-249 -249
v-463h-117z" />
    <glyph glyph-name="questiondown" unicode="&#xbf;" horiz-adv-x="485" 
d="M314 1551h-126v172h126v-172zM180 184q0 -28 19.5 -47t46.5 -19q28 0 47 19t19 47v197h117v-197q0 -76 -53.5 -129.5t-129.5 -53.5t-129.5 53.5t-53.5 129.5l1 662l124 124v401h126v-449l-134 -125v-613z" />
    <glyph glyph-name="Agrave" unicode="&#xc0;" 
d="M458 1972l-50 -106l-360 174l50 105zM319 1539q0 28 -19.5 47t-46.5 19q-28 0 -47 -19t-19 -47v-705h132v705zM436 0h-117v717h-132v-717h-117v1539q0 76 53.5 129.5t129.5 53.5t129.5 -53.5t53.5 -129.5v-1539z" />
    <glyph glyph-name="Aacute" unicode="&#xc1;" 
d="M48 1972l360 173l50 -105l-360 -174zM319 1539q0 28 -19.5 47t-46.5 19q-28 0 -47 -19t-19 -47v-705h132v705zM436 0h-117v717h-132v-717h-117v1539q0 76 53.5 129.5t129.5 53.5t129.5 -53.5t53.5 -129.5v-1539z" />
    <glyph glyph-name="Acircumflex" unicode="&#xc2;" 
d="M160 1866l-82 82l176 176l175 -176l-82 -82l-93 93zM319 1539q0 28 -19.5 47t-46.5 19q-28 0 -47 -19t-19 -47v-705h132v705zM436 0h-117v717h-132v-717h-117v1539q0 76 53.5 129.5t129.5 53.5t129.5 -53.5t53.5 -129.5v-1539z" />
    <glyph glyph-name="Atilde" unicode="&#xc3;" 
d="M112 1897l-82 83l165 165l114 -114l83 82l83 -82l-166 -165l-114 114zM319 1539q0 28 -19.5 47t-46.5 19q-28 0 -47 -19t-19 -47v-705h132v705zM436 0h-117v717h-132v-717h-117v1539q0 76 53.5 129.5t129.5 53.5t129.5 -53.5t53.5 -129.5v-1539z" />
    <glyph glyph-name="Adieresis" unicode="&#xc4;" 
d="M319 2038h117v-172h-117v172zM70 2038h117v-172h-117v172zM319 1539q0 28 -19.5 47t-46.5 19q-28 0 -47 -19t-19 -47v-705h132v705zM436 0h-117v717h-132v-717h-117v1539q0 76 53.5 129.5t129.5 53.5t129.5 -53.5t53.5 -129.5v-1539z" />
    <glyph glyph-name="Aring" unicode="&#xc5;" 
d="M253 2076q76 0 129.5 -53.5t53.5 -129.5t-53.5 -129.5t-129.5 -53.5t-129.5 53.5t-53.5 129.5t53.5 129.5t129.5 53.5zM187 1893q0 -27 19 -46.5t47 -19.5q27 0 46.5 19.5t19.5 46.5q0 28 -19.5 47t-46.5 19q-28 0 -47 -19t-19 -47zM319 1539q0 28 -19.5 47t-46.5 19
q-28 0 -47 -19t-19 -47v-705h132v705zM436 0h-117v717h-132v-717h-117v1539q0 76 53.5 129.5t129.5 53.5t129.5 -53.5t53.5 -129.5v-1539z" />
    <glyph glyph-name="AE" unicode="&#xc6;" horiz-adv-x="647" 
d="M436 117h155v-117h-155h-117v717h-132v-717h-117v1540q0 76 53.5 129.5t129.5 53.5q27 0 54 -8h284v-117h-155v-58v-624h155v-117h-155v-682zM319 834v706q0 28 -19.5 47t-46.5 19q-28 0 -47 -19t-19 -47v-706h132z" />
    <glyph glyph-name="Egrave" unicode="&#xc8;" horiz-adv-x="398" 
d="M411 1972l-50 -106l-360 174l50 105zM70 0v1715h272v-117h-155v-682h155v-117h-155v-682h155v-117h-272z" />
    <glyph glyph-name="Eacute" unicode="&#xc9;" horiz-adv-x="398" 
d="M1 1972l360 173l50 -105l-360 -174zM70 0v1715h272v-117h-155v-682h155v-117h-155v-682h155v-117h-272z" />
    <glyph glyph-name="Ecircumflex" unicode="&#xca;" horiz-adv-x="398" 
d="M112 1866l-82 82l176 176l175 -176l-82 -82l-93 93zM70 0v1715h272v-117h-155v-682h155v-117h-155v-682h155v-117h-272z" />
    <glyph glyph-name="Edieresis" unicode="&#xcb;" horiz-adv-x="398" 
d="M272 2038h117v-172h-117v172zM23 2038h117v-172h-117v172zM70 0v1715h272v-117h-155v-682h155v-117h-155v-682h155v-117h-272z" />
    <glyph glyph-name="Igrave" unicode="&#xcc;" horiz-adv-x="257" 
d="M334 1972l-50 -106l-360 174l50 105zM187 0h-117v1715h117v-1715z" />
    <glyph glyph-name="Iacute" unicode="&#xcd;" horiz-adv-x="257" 
d="M-76 1972l360 173l50 -105l-360 -174zM187 0h-117v1715h117v-1715z" />
    <glyph glyph-name="Icircumflex" unicode="&#xce;" horiz-adv-x="257" 
d="M35 1866l-82 82l176 176l175 -176l-82 -82l-93 93zM187 0h-117v1715h117v-1715z" />
    <glyph glyph-name="Idieresis" unicode="&#xcf;" horiz-adv-x="257" 
d="M195 2038h117v-172h-117v172zM-54 2038h117v-172h-117v172zM187 0h-117v1715h117v-1715z" />
    <glyph glyph-name="Eth" unicode="&#xd0;" 
d="M253 117q28 0 47 19t19 47v1349q0 28 -19 47t-47 19h-66v-642h14v-117h-14v-722h66zM70 839h-14v117h14v759h183q76 0 129.5 -53.5t53.5 -129.5v-1349q0 -76 -53.5 -129.5t-129.5 -53.5h-183v839z" />
    <glyph glyph-name="Ntilde" unicode="&#xd1;" 
d="M112 1897l-82 83l165 165l114 -114l83 82l83 -82l-166 -165l-114 114zM187 0h-117v1722q152 0 259 -107t107 -259v-1356h-117v1356q0 71 -36 130t-96 90v-1576z" />
    <glyph glyph-name="Ograve" unicode="&#xd2;" 
d="M458 1972l-50 -106l-360 174l50 105zM319 1539q0 28 -19.5 47t-46.5 19q-28 0 -47 -19t-19 -47v-1363q0 -28 19 -47t47 -19q27 0 46.5 19t19.5 47v1363zM70 1539q0 76 53.5 129.5t129.5 53.5t129.5 -53.5t53.5 -129.5v-1363q0 -76 -53.5 -129.5t-129.5 -53.5t-129.5 53.5
t-53.5 129.5v1363z" />
    <glyph glyph-name="Oacute" unicode="&#xd3;" 
d="M48 1972l360 173l50 -105l-360 -174zM319 1539q0 28 -19.5 47t-46.5 19q-28 0 -47 -19t-19 -47v-1363q0 -28 19 -47t47 -19q27 0 46.5 19t19.5 47v1363zM70 1539q0 76 53.5 129.5t129.5 53.5t129.5 -53.5t53.5 -129.5v-1363q0 -76 -53.5 -129.5t-129.5 -53.5t-129.5 53.5
t-53.5 129.5v1363z" />
    <glyph glyph-name="Ocircumflex" unicode="&#xd4;" 
d="M160 1866l-82 82l176 176l175 -176l-82 -82l-93 93zM319 1539q0 28 -19.5 47t-46.5 19q-28 0 -47 -19t-19 -47v-1363q0 -28 19 -47t47 -19q27 0 46.5 19t19.5 47v1363zM70 1539q0 76 53.5 129.5t129.5 53.5t129.5 -53.5t53.5 -129.5v-1363q0 -76 -53.5 -129.5
t-129.5 -53.5t-129.5 53.5t-53.5 129.5v1363z" />
    <glyph glyph-name="Otilde" unicode="&#xd5;" 
d="M112 1897l-82 83l165 165l114 -114l83 82l83 -82l-166 -165l-114 114zM319 1539q0 28 -19.5 47t-46.5 19q-28 0 -47 -19t-19 -47v-1363q0 -28 19 -47t47 -19q27 0 46.5 19t19.5 47v1363zM70 1539q0 76 53.5 129.5t129.5 53.5t129.5 -53.5t53.5 -129.5v-1363
q0 -76 -53.5 -129.5t-129.5 -53.5t-129.5 53.5t-53.5 129.5v1363z" />
    <glyph glyph-name="Odieresis" unicode="&#xd6;" 
d="M319 2038h117v-172h-117v172zM70 2038h117v-172h-117v172zM319 1539q0 28 -19.5 47t-46.5 19q-28 0 -47 -19t-19 -47v-1363q0 -28 19 -47t47 -19q27 0 46.5 19t19.5 47v1363zM70 1539q0 76 53.5 129.5t129.5 53.5t129.5 -53.5t53.5 -129.5v-1363q0 -76 -53.5 -129.5
t-129.5 -53.5t-129.5 53.5t-53.5 129.5v1363z" />
    <glyph glyph-name="multiply" unicode="&#xd7;" horiz-adv-x="443" 
d="M388 716l-83 -83l-83 83l-83 -83l-83 83l83 83l-83 83l83 83l83 -83l83 83l83 -83l-83 -83z" />
    <glyph glyph-name="Ugrave" unicode="&#xd9;" 
d="M458 1972l-50 -106l-360 174l50 105zM436 176q0 -76 -53.5 -129.5t-129.5 -53.5t-129.5 53.5t-53.5 129.5v1539h117v-1539q0 -28 19 -47t47 -19q27 0 46.5 19t19.5 47v1539h117v-1539z" />
    <glyph glyph-name="Uacute" unicode="&#xda;" 
d="M48 1972l360 173l50 -105l-360 -174zM436 176q0 -76 -53.5 -129.5t-129.5 -53.5t-129.5 53.5t-53.5 129.5v1539h117v-1539q0 -28 19 -47t47 -19q27 0 46.5 19t19.5 47v1539h117v-1539z" />
    <glyph glyph-name="Ucircumflex" unicode="&#xdb;" 
d="M160 1866l-82 82l176 176l175 -176l-82 -82l-93 93zM436 176q0 -76 -53.5 -129.5t-129.5 -53.5t-129.5 53.5t-53.5 129.5v1539h117v-1539q0 -28 19 -47t47 -19q27 0 46.5 19t19.5 47v1539h117v-1539z" />
    <glyph glyph-name="Udieresis" unicode="&#xdc;" 
d="M319 2038h117v-172h-117v172zM70 2038h117v-172h-117v172zM436 176q0 -76 -53.5 -129.5t-129.5 -53.5t-129.5 53.5t-53.5 129.5v1539h117v-1539q0 -28 19 -47t47 -19q27 0 46.5 19t19.5 47v1539h117v-1539z" />
    <glyph glyph-name="Yacute" unicode="&#xdd;" horiz-adv-x="492" 
d="M41 1972l360 173l50 -105l-360 -174zM180 1121l66 -118l66 118v594h117v-624l-125 -224v-867h-116v867l-125 224v624h117v-594z" />
    <glyph glyph-name="Thorn" unicode="&#xde;" horiz-adv-x="497" 
d="M251 460q28 0 47 19.5t19 46.5v663q0 28 -19 47t-47 19h-64v-795h64zM187 343v-343h-117v1715h117v-343h64q76 0 129.5 -53.5t53.5 -129.5v-663q0 -76 -53.5 -129.5t-129.5 -53.5h-64z" />
    <glyph glyph-name="germandbls" unicode="&#xdf;" 
d="M70 1532q0 76 53.5 129.5t129.5 53.5t129.5 -53.5t53.5 -129.5v-509q0 -71 -49 -125q49 -54 49 -124v-591q0 -76 -53.5 -129.5t-129.5 -53.5v117q27 0 46.5 19t19.5 47v591q0 27 -19.5 46.5t-46.5 19.5h-66v-1183h-117v1875zM187 957h66q27 0 46.5 19t19.5 47v509
q0 28 -19 47t-47 19t-47 -19t-19 -47v-575z" />
    <glyph glyph-name="agrave" unicode="&#xe0;" horiz-adv-x="499" 
d="M451 1629l-50 -106l-360 174l50 105zM312 799h-66q-27 0 -46.5 -19.5t-19.5 -46.5v-550q0 -28 19.5 -47t46.5 -19h66v682zM246 1372q76 0 129.5 -53.5t53.5 -129.5v-1189h-183q-76 0 -129.5 53.5t-53.5 129.5v550q0 76 53.5 129.5t129.5 53.5h66v273q0 28 -19.5 47
t-46.5 19h-97v117h97z" />
    <glyph glyph-name="aacute" unicode="&#xe1;" horiz-adv-x="499" 
d="M41 1629l360 173l50 -105l-360 -174zM312 799h-66q-27 0 -46.5 -19.5t-19.5 -46.5v-550q0 -28 19.5 -47t46.5 -19h66v682zM246 1372q76 0 129.5 -53.5t53.5 -129.5v-1189h-183q-76 0 -129.5 53.5t-53.5 129.5v550q0 76 53.5 129.5t129.5 53.5h66v273q0 28 -19.5 47
t-46.5 19h-97v117h97z" />
    <glyph glyph-name="acircumflex" unicode="&#xe2;" horiz-adv-x="499" 
d="M152 1523l-82 82l176 176l175 -176l-82 -82l-93 93zM312 799h-66q-27 0 -46.5 -19.5t-19.5 -46.5v-550q0 -28 19.5 -47t46.5 -19h66v682zM246 1372q76 0 129.5 -53.5t53.5 -129.5v-1189h-183q-76 0 -129.5 53.5t-53.5 129.5v550q0 76 53.5 129.5t129.5 53.5h66v273
q0 28 -19.5 47t-46.5 19h-97v117h97z" />
    <glyph glyph-name="atilde" unicode="&#xe3;" horiz-adv-x="499" 
d="M106 1554l-82 83l165 165l114 -114l83 82l83 -82l-166 -165l-114 114zM312 799h-66q-27 0 -46.5 -19.5t-19.5 -46.5v-550q0 -28 19.5 -47t46.5 -19h66v682zM246 1372q76 0 129.5 -53.5t53.5 -129.5v-1189h-183q-76 0 -129.5 53.5t-53.5 129.5v550q0 76 53.5 129.5
t129.5 53.5h66v273q0 28 -19.5 47t-46.5 19h-97v117h97z" />
    <glyph glyph-name="adieresis" unicode="&#xe4;" horiz-adv-x="499" 
d="M312 1695h117v-172h-117v172zM63 1695h117v-172h-117v172zM312 799h-66q-27 0 -46.5 -19.5t-19.5 -46.5v-550q0 -28 19.5 -47t46.5 -19h66v682zM246 1372q76 0 129.5 -53.5t53.5 -129.5v-1189h-183q-76 0 -129.5 53.5t-53.5 129.5v550q0 76 53.5 129.5t129.5 53.5h66v273
q0 28 -19.5 47t-46.5 19h-97v117h97z" />
    <glyph glyph-name="aring" unicode="&#xe5;" horiz-adv-x="499" 
d="M246 1889q76 0 129.5 -53.5t53.5 -129.5t-53.5 -129.5t-129.5 -53.5t-129.5 53.5t-53.5 129.5t53.5 129.5t129.5 53.5zM180 1706q0 -27 19 -46.5t47 -19.5q27 0 46.5 19.5t19.5 46.5q0 28 -19.5 47t-46.5 19q-28 0 -47 -19t-19 -47zM312 799h-66q-27 0 -46.5 -19.5
t-19.5 -46.5v-550q0 -28 19.5 -47t46.5 -19h66v682zM246 1372q76 0 129.5 -53.5t53.5 -129.5v-1189h-183q-76 0 -129.5 53.5t-53.5 129.5v550q0 76 53.5 129.5t129.5 53.5h66v273q0 28 -19.5 47t-46.5 19h-97v117h97z" />
    <glyph glyph-name="ae" unicode="&#xe6;" horiz-adv-x="748" 
d="M180 176q0 -28 19.5 -47t46.5 -19t46.5 19t19.5 47v623h-66q-27 0 -46.5 -19.5t-19.5 -46.5v-557zM561 1196q0 28 -19 47t-47 19t-47 -19t-19 -47v-623h132v623zM429 176q0 -28 19 -47t47 -19q27 0 46.5 19t19.5 47v147h117v-147q0 -76 -53.5 -129.5t-129.5 -53.5
q-72 0 -125 49q-52 -49 -124 -49q-76 0 -129.5 53.5t-53.5 129.5v557q0 76 53.5 129.5t129.5 53.5h66v273q0 28 -19.5 47t-46.5 19h-97v117h97q69 0 121 -46q53 53 128 53q76 0 129.5 -53.5t53.5 -129.5v-740h-249v-280z" />
    <glyph glyph-name="egrave" unicode="&#xe8;" 
d="M458 1629l-50 -106l-360 174l50 105zM319 1196q0 28 -19 47t-47 19t-47 -19t-19 -47v-623h132v623zM253 -7q-76 0 -129.5 53.5t-53.5 129.5v1020q0 76 53.5 129.5t129.5 53.5t129.5 -53.5t53.5 -129.5v-740h-249v-280q0 -28 19 -47t47 -19q27 0 46.5 19t19.5 47v148h117
v-148q0 -76 -53.5 -129.5t-129.5 -53.5z" />
    <glyph glyph-name="eacute" unicode="&#xe9;" 
d="M48 1629l360 173l50 -105l-360 -174zM319 1196q0 28 -19 47t-47 19t-47 -19t-19 -47v-623h132v623zM253 -7q-76 0 -129.5 53.5t-53.5 129.5v1020q0 76 53.5 129.5t129.5 53.5t129.5 -53.5t53.5 -129.5v-740h-249v-280q0 -28 19 -47t47 -19q27 0 46.5 19t19.5 47v148h117
v-148q0 -76 -53.5 -129.5t-129.5 -53.5z" />
    <glyph glyph-name="ecircumflex" unicode="&#xea;" 
d="M160 1523l-82 82l176 176l175 -176l-82 -82l-93 93zM319 1196q0 28 -19 47t-47 19t-47 -19t-19 -47v-623h132v623zM253 -7q-76 0 -129.5 53.5t-53.5 129.5v1020q0 76 53.5 129.5t129.5 53.5t129.5 -53.5t53.5 -129.5v-740h-249v-280q0 -28 19 -47t47 -19q27 0 46.5 19
t19.5 47v148h117v-148q0 -76 -53.5 -129.5t-129.5 -53.5z" />
    <glyph glyph-name="edieresis" unicode="&#xeb;" 
d="M319 1695h117v-172h-117v172zM70 1695h117v-172h-117v172zM319 1196q0 28 -19 47t-47 19t-47 -19t-19 -47v-623h132v623zM253 -7q-76 0 -129.5 53.5t-53.5 129.5v1020q0 76 53.5 129.5t129.5 53.5t129.5 -53.5t53.5 -129.5v-740h-249v-280q0 -28 19 -47t47 -19
q27 0 46.5 19t19.5 47v148h117v-148q0 -76 -53.5 -129.5t-129.5 -53.5z" />
    <glyph glyph-name="igrave" unicode="&#xec;" horiz-adv-x="257" 
d="M334 1629l-50 -106l-360 174l50 105zM187 0h-117v1372h117v-1372z" />
    <glyph glyph-name="iacute" unicode="&#xed;" horiz-adv-x="257" 
d="M-76 1629l360 173l50 -105l-360 -174zM187 0h-117v1372h117v-1372z" />
    <glyph glyph-name="icircumflex" unicode="&#xee;" horiz-adv-x="257" 
d="M35 1523l-82 82l176 176l175 -176l-82 -82l-93 93zM187 0h-117v1372h117v-1372z" />
    <glyph glyph-name="idieresis" unicode="&#xef;" horiz-adv-x="257" 
d="M195 1695h117v-172h-117v172zM-54 1695h117v-172h-117v172zM187 0h-117v1372h117v-1372z" />
    <glyph glyph-name="eth" unicode="&#xf0;" 
d="M70 1196q0 76 53.5 129.5t129.5 53.5q34 0 66 -12v8q0 71 -36 130t-96 90v127q110 -37 179.5 -132.5t69.5 -214.5v-179v-1020q0 -76 -53.5 -129.5t-129.5 -53.5t-129.5 53.5t-53.5 129.5v1020zM319 1196q0 28 -19.5 47t-46.5 19q-28 0 -47 -19t-19 -47v-1020
q0 -28 19 -47t47 -19q27 0 46.5 19t19.5 47v1020z" />
    <glyph glyph-name="ntilde" unicode="&#xf1;" 
d="M112 1554l-82 83l165 165l114 -114l83 82l83 -82l-166 -165l-114 114zM187 0h-117v1379q152 0 259 -107.5t107 -258.5v-1013h-117v1013q0 71 -36 130t-96 90v-1233z" />
    <glyph glyph-name="ograve" unicode="&#xf2;" 
d="M458 1629l-50 -106l-360 174l50 105zM319 1196q0 28 -19.5 47t-46.5 19q-28 0 -47 -19t-19 -47v-1020q0 -28 19 -47t47 -19q27 0 46.5 19t19.5 47v1020zM70 1196q0 76 53.5 129.5t129.5 53.5t129.5 -53.5t53.5 -129.5v-1020q0 -76 -53.5 -129.5t-129.5 -53.5t-129.5 53.5
t-53.5 129.5v1020z" />
    <glyph glyph-name="oacute" unicode="&#xf3;" 
d="M48 1629l360 173l50 -105l-360 -174zM319 1196q0 28 -19.5 47t-46.5 19q-28 0 -47 -19t-19 -47v-1020q0 -28 19 -47t47 -19q27 0 46.5 19t19.5 47v1020zM70 1196q0 76 53.5 129.5t129.5 53.5t129.5 -53.5t53.5 -129.5v-1020q0 -76 -53.5 -129.5t-129.5 -53.5t-129.5 53.5
t-53.5 129.5v1020z" />
    <glyph glyph-name="ocircumflex" unicode="&#xf4;" 
d="M160 1523l-82 82l176 176l175 -176l-82 -82l-93 93zM319 1196q0 28 -19.5 47t-46.5 19q-28 0 -47 -19t-19 -47v-1020q0 -28 19 -47t47 -19q27 0 46.5 19t19.5 47v1020zM70 1196q0 76 53.5 129.5t129.5 53.5t129.5 -53.5t53.5 -129.5v-1020q0 -76 -53.5 -129.5
t-129.5 -53.5t-129.5 53.5t-53.5 129.5v1020z" />
    <glyph glyph-name="otilde" unicode="&#xf5;" 
d="M112 1554l-82 83l165 165l114 -114l83 82l83 -82l-166 -165l-114 114zM319 1196q0 28 -19.5 47t-46.5 19q-28 0 -47 -19t-19 -47v-1020q0 -28 19 -47t47 -19q27 0 46.5 19t19.5 47v1020zM70 1196q0 76 53.5 129.5t129.5 53.5t129.5 -53.5t53.5 -129.5v-1020
q0 -76 -53.5 -129.5t-129.5 -53.5t-129.5 53.5t-53.5 129.5v1020z" />
    <glyph glyph-name="odieresis" unicode="&#xf6;" 
d="M319 1695h117v-172h-117v172zM70 1695h117v-172h-117v172zM319 1196q0 28 -19.5 47t-46.5 19q-28 0 -47 -19t-19 -47v-1020q0 -28 19 -47t47 -19q27 0 46.5 19t19.5 47v1020zM70 1196q0 76 53.5 129.5t129.5 53.5t129.5 -53.5t53.5 -129.5v-1020q0 -76 -53.5 -129.5
t-129.5 -53.5t-129.5 53.5t-53.5 129.5v1020z" />
    <glyph glyph-name="divide" unicode="&#xf7;" horiz-adv-x="397" 
d="M140 1176h117v-171h-117v171zM257 593v-172h-117v172h117zM42 741v116h313v-116h-313z" />
    <glyph glyph-name="ugrave" unicode="&#xf9;" 
d="M458 1629l-50 -106l-360 174l50 105zM436 176q0 -76 -53.5 -129.5t-129.5 -53.5t-129.5 53.5t-53.5 129.5v1196h117v-1196q0 -28 19 -47t47 -19q27 0 46.5 19t19.5 47v1196h117v-1196z" />
    <glyph glyph-name="uacute" unicode="&#xfa;" 
d="M48 1629l360 173l50 -105l-360 -174zM436 176q0 -76 -53.5 -129.5t-129.5 -53.5t-129.5 53.5t-53.5 129.5v1196h117v-1196q0 -28 19 -47t47 -19q27 0 46.5 19t19.5 47v1196h117v-1196z" />
    <glyph glyph-name="ucircumflex" unicode="&#xfb;" 
d="M160 1523l-82 82l176 176l175 -176l-82 -82l-93 93zM436 176q0 -76 -53.5 -129.5t-129.5 -53.5t-129.5 53.5t-53.5 129.5v1196h117v-1196q0 -28 19 -47t47 -19q27 0 46.5 19t19.5 47v1196h117v-1196z" />
    <glyph glyph-name="udieresis" unicode="&#xfc;" 
d="M319 1695h117v-172h-117v172zM70 1695h117v-172h-117v172zM436 176q0 -76 -53.5 -129.5t-129.5 -53.5t-129.5 53.5t-53.5 129.5v1196h117v-1196q0 -28 19 -47t47 -19q27 0 46.5 19t19.5 47v1196h117v-1196z" />
    <glyph glyph-name="yacute" unicode="&#xfd;" 
d="M48 1629l360 173l50 -105l-360 -174zM319 19q-110 37 -179.5 132.5t-69.5 214.5v1006h117v-1006q0 -71 36 -130t96 -90v1226h117v-1532q0 -76 -53.5 -129.5t-129.5 -53.5h-97v117h97q27 0 46.5 19t19.5 47v179z" />
    <glyph glyph-name="thorn" unicode="&#xfe;" horiz-adv-x="497" 
d="M251 117q28 0 47 19.5t19 46.5v1006q0 28 -19 47t-47 19h-64v-1138h64zM187 0v-343h-117v2058h117v-343h64q76 0 129.5 -53.5t53.5 -129.5v-1006q0 -76 -53.5 -129.5t-129.5 -53.5h-64z" />
    <glyph glyph-name="ydieresis" unicode="&#xff;" 
d="M319 1695h117v-172h-117v172zM70 1695h117v-172h-117v172zM319 19q-110 37 -179.5 132.5t-69.5 214.5v1006h117v-1006q0 -71 36 -130t96 -90v1226h117v-1532q0 -76 -53.5 -129.5t-129.5 -53.5h-97v117h97q27 0 46.5 19t19.5 47v179z" />
    <glyph glyph-name="Amacron" unicode="&#x100;" 
d="M150 1983h206v-117h-206v117zM319 1539q0 28 -19.5 47t-46.5 19q-28 0 -47 -19t-19 -47v-705h132v705zM436 0h-117v717h-132v-717h-117v1539q0 76 53.5 129.5t129.5 53.5t129.5 -53.5t53.5 -129.5v-1539z" />
    <glyph glyph-name="amacron" unicode="&#x101;" horiz-adv-x="499" 
d="M143 1640h206v-117h-206v117zM312 799h-66q-27 0 -46.5 -19.5t-19.5 -46.5v-550q0 -28 19.5 -47t46.5 -19h66v682zM246 1372q76 0 129.5 -53.5t53.5 -129.5v-1189h-183q-76 0 -129.5 53.5t-53.5 129.5v550q0 76 53.5 129.5t129.5 53.5h66v273q0 28 -19.5 47t-46.5 19h-97
v117h97z" />
    <glyph glyph-name="Abreve" unicode="&#x102;" 
d="M436 2049q0 -76 -53.5 -129.5t-129.5 -53.5t-129.5 53.5t-53.5 129.5h117q0 -28 19 -47t47 -19q27 0 46.5 19.5t19.5 46.5h117zM319 1539q0 28 -19.5 47t-46.5 19q-28 0 -47 -19t-19 -47v-705h132v705zM436 0h-117v717h-132v-717h-117v1539q0 76 53.5 129.5t129.5 53.5
t129.5 -53.5t53.5 -129.5v-1539z" />
    <glyph glyph-name="abreve" unicode="&#x103;" horiz-adv-x="499" 
d="M429 1706q0 -76 -53.5 -129.5t-129.5 -53.5t-129.5 53.5t-53.5 129.5h117q0 -28 19 -47t47 -19q27 0 46.5 19.5t19.5 46.5h117zM312 799h-66q-27 0 -46.5 -19.5t-19.5 -46.5v-550q0 -28 19.5 -47t46.5 -19h66v682zM246 1372q76 0 129.5 -53.5t53.5 -129.5v-1189h-183
q-76 0 -129.5 53.5t-53.5 129.5v550q0 76 53.5 129.5t129.5 53.5h66v273q0 28 -19.5 47t-46.5 19h-97v117h97z" />
    <glyph glyph-name="Cacute" unicode="&#x106;" horiz-adv-x="492" 
d="M48 1972l360 173l50 -105l-360 -174zM253 1598q-28 0 -47 -19t-19 -47v-1356q0 -28 19 -47t47 -19q27 0 46.5 19t19.5 47v196h117v-196q0 -76 -53.5 -129.5t-129.5 -53.5t-129.5 53.5t-53.5 129.5v1356q0 76 53.5 129.5t129.5 53.5h183v-365h-117v248h-66z" />
    <glyph glyph-name="cacute" unicode="&#x107;" horiz-adv-x="492" 
d="M48 1629l360 173l50 -105l-360 -174zM253 1255q-28 0 -47 -19t-19 -47v-1013q0 -28 19 -47t47 -19q27 0 46.5 19t19.5 47v147h117v-147q0 -76 -53.5 -129.5t-129.5 -53.5t-129.5 53.5t-53.5 129.5v1013q0 76 53.5 129.5t129.5 53.5h183v-316h-117v199h-66z" />
    <glyph glyph-name="Ccircumflex" unicode="&#x108;" horiz-adv-x="492" 
d="M160 1866l-82 82l176 176l175 -176l-82 -82l-93 93zM253 1598q-28 0 -47 -19t-19 -47v-1356q0 -28 19 -47t47 -19q27 0 46.5 19t19.5 47v196h117v-196q0 -76 -53.5 -129.5t-129.5 -53.5t-129.5 53.5t-53.5 129.5v1356q0 76 53.5 129.5t129.5 53.5h183v-365h-117v248h-66z
" />
    <glyph glyph-name="ccircumflex" unicode="&#x109;" horiz-adv-x="492" 
d="M160 1523l-82 82l176 176l175 -176l-82 -82l-93 93zM253 1255q-28 0 -47 -19t-19 -47v-1013q0 -28 19 -47t47 -19q27 0 46.5 19t19.5 47v147h117v-147q0 -76 -53.5 -129.5t-129.5 -53.5t-129.5 53.5t-53.5 129.5v1013q0 76 53.5 129.5t129.5 53.5h183v-316h-117v199h-66z
" />
    <glyph glyph-name="Cdotaccent" unicode="&#x10a;" horiz-adv-x="492" 
d="M194 2038h117v-172h-117v172zM253 1598q-28 0 -47 -19t-19 -47v-1356q0 -28 19 -47t47 -19q27 0 46.5 19t19.5 47v196h117v-196q0 -76 -53.5 -129.5t-129.5 -53.5t-129.5 53.5t-53.5 129.5v1356q0 76 53.5 129.5t129.5 53.5h183v-365h-117v248h-66z" />
    <glyph glyph-name="cdotaccent" unicode="&#x10b;" horiz-adv-x="492" 
d="M194 1695h117v-172h-117v172zM253 1255q-28 0 -47 -19t-19 -47v-1013q0 -28 19 -47t47 -19q27 0 46.5 19t19.5 47v147h117v-147q0 -76 -53.5 -129.5t-129.5 -53.5t-129.5 53.5t-53.5 129.5v1013q0 76 53.5 129.5t129.5 53.5h183v-316h-117v199h-66z" />
    <glyph glyph-name="Ccaron" unicode="&#x10c;" horiz-adv-x="492" 
d="M347 2124l82 -82l-175 -176l-176 176l82 82l94 -93zM253 1598q-28 0 -47 -19t-19 -47v-1356q0 -28 19 -47t47 -19q27 0 46.5 19t19.5 47v196h117v-196q0 -76 -53.5 -129.5t-129.5 -53.5t-129.5 53.5t-53.5 129.5v1356q0 76 53.5 129.5t129.5 53.5h183v-365h-117v248h-66z
" />
    <glyph glyph-name="ccaron" unicode="&#x10d;" horiz-adv-x="492" 
d="M347 1781l82 -82l-175 -176l-176 176l82 82l94 -93zM253 1255q-28 0 -47 -19t-19 -47v-1013q0 -28 19 -47t47 -19q27 0 46.5 19t19.5 47v147h117v-147q0 -76 -53.5 -129.5t-129.5 -53.5t-129.5 53.5t-53.5 129.5v1013q0 76 53.5 129.5t129.5 53.5h183v-316h-117v199h-66z
" />
    <glyph glyph-name="Dcaron" unicode="&#x10e;" 
d="M347 2124l82 -82l-175 -176l-176 176l82 82l94 -93zM253 117q28 0 47 19t19 47v1349q0 28 -19 47t-47 19h-66v-1481h66zM70 0v1715h183q76 0 129.5 -53.5t53.5 -129.5v-1349q0 -76 -53.5 -129.5t-129.5 -53.5h-183z" />
    <glyph glyph-name="dcaron" unicode="&#x10f;" horiz-adv-x="763" 
d="M625 1305l-105 50l173 360l105 -50zM319 1255h-66q-27 0 -46.5 -19.5t-19.5 -46.5v-1006q0 -28 19.5 -47t46.5 -19h66v1138zM436 1715v-1715h-183q-76 0 -129.5 53.5t-53.5 129.5v1006q0 76 53.5 129.5t129.5 53.5h66v343h117z" />
    <glyph glyph-name="Dcroat" unicode="&#x110;" 
d="M4 916h249v-117h-249v117zM253 117q28 0 47 19t19 47v1349q0 28 -19 47t-47 19h-66v-1481h66zM70 0v1715h183q76 0 129.5 -53.5t53.5 -129.5v-1349q0 -76 -53.5 -129.5t-129.5 -53.5h-183z" />
    <glyph glyph-name="dcroat" unicode="&#x111;" 
d="M319 1255h-66q-27 0 -46.5 -19.5t-19.5 -46.5v-1006q0 -28 19.5 -47t46.5 -19h66v1138zM436 1715v-1715h-183q-76 0 -129.5 53.5t-53.5 129.5v1006q0 76 53.5 129.5t129.5 53.5h66v343h117zM253 744h249v-117h-249v117z" />
    <glyph glyph-name="Emacron" unicode="&#x112;" horiz-adv-x="398" 
d="M103 1983h206v-117h-206v117zM70 0v1715h272v-117h-155v-682h155v-117h-155v-682h155v-117h-272z" />
    <glyph glyph-name="emacron" unicode="&#x113;" 
d="M150 1640h206v-117h-206v117zM319 1196q0 28 -19 47t-47 19t-47 -19t-19 -47v-623h132v623zM253 -7q-76 0 -129.5 53.5t-53.5 129.5v1020q0 76 53.5 129.5t129.5 53.5t129.5 -53.5t53.5 -129.5v-740h-249v-280q0 -28 19 -47t47 -19q27 0 46.5 19t19.5 47v148h117v-148
q0 -76 -53.5 -129.5t-129.5 -53.5z" />
    <glyph glyph-name="Ebreve" unicode="&#x114;" horiz-adv-x="398" 
d="M389 2049q0 -76 -53.5 -129.5t-129.5 -53.5t-129.5 53.5t-53.5 129.5h117q0 -28 19 -47t47 -19q27 0 46.5 19.5t19.5 46.5h117zM70 0v1715h272v-117h-155v-682h155v-117h-155v-682h155v-117h-272z" />
    <glyph glyph-name="ebreve" unicode="&#x115;" 
d="M436 1706q0 -76 -53.5 -129.5t-129.5 -53.5t-129.5 53.5t-53.5 129.5h117q0 -28 19 -47t47 -19q27 0 46.5 19.5t19.5 46.5h117zM319 1196q0 28 -19 47t-47 19t-47 -19t-19 -47v-623h132v623zM253 -7q-76 0 -129.5 53.5t-53.5 129.5v1020q0 76 53.5 129.5t129.5 53.5
t129.5 -53.5t53.5 -129.5v-740h-249v-280q0 -28 19 -47t47 -19q27 0 46.5 19t19.5 47v148h117v-148q0 -76 -53.5 -129.5t-129.5 -53.5z" />
    <glyph glyph-name="Edotaccent" unicode="&#x116;" horiz-adv-x="398" 
d="M148 2038h117v-172h-117v172zM70 0v1715h272v-117h-155v-682h155v-117h-155v-682h155v-117h-272z" />
    <glyph glyph-name="edotaccent" unicode="&#x117;" 
d="M194 1695h117v-172h-117v172zM319 1196q0 28 -19 47t-47 19t-47 -19t-19 -47v-623h132v623zM253 -7q-76 0 -129.5 53.5t-53.5 129.5v1020q0 76 53.5 129.5t129.5 53.5t129.5 -53.5t53.5 -129.5v-740h-249v-280q0 -28 19 -47t47 -19q27 0 46.5 19t19.5 47v148h117v-148
q0 -76 -53.5 -129.5t-129.5 -53.5z" />
    <glyph glyph-name="Ecaron" unicode="&#x11a;" horiz-adv-x="398" 
d="M299 2124l82 -82l-175 -176l-176 176l82 82l94 -93zM70 0v1715h272v-117h-155v-682h155v-117h-155v-682h155v-117h-272z" />
    <glyph glyph-name="ecaron" unicode="&#x11b;" 
d="M347 1781l82 -82l-175 -176l-176 176l82 82l94 -93zM319 1196q0 28 -19 47t-47 19t-47 -19t-19 -47v-623h132v623zM253 -7q-76 0 -129.5 53.5t-53.5 129.5v1020q0 76 53.5 129.5t129.5 53.5t129.5 -53.5t53.5 -129.5v-740h-249v-280q0 -28 19 -47t47 -19q27 0 46.5 19
t19.5 47v148h117v-148q0 -76 -53.5 -129.5t-129.5 -53.5z" />
    <glyph glyph-name="Gcircumflex" unicode="&#x11c;" horiz-adv-x="499" 
d="M160 1866l-82 82l176 176l175 -176l-82 -82l-93 93zM253 0q-76 0 -129.5 53.5t-53.5 129.5v1349q0 76 53.5 129.5t129.5 53.5h183v-365h-117v248h-66q-28 0 -47 -19t-19 -47v-1349q0 -28 19 -47t47 -19h66v608h-49v117h166v-842h-183z" />
    <glyph glyph-name="gcircumflex" unicode="&#x11d;" 
d="M160 1523l-82 82l176 176l175 -176l-82 -82l-93 93zM319 1196q0 28 -19.5 47t-46.5 19q-28 0 -47 -19t-19 -47v-922q0 -28 19 -47t47 -19q27 0 46.5 19t19.5 47v922zM70 274v922q0 76 53.5 129.5t129.5 53.5t129.5 -53.5t53.5 -129.5v-922q0 -76 -53.5 -129.5
t-129.5 -53.5q-16 0 -26.5 -11t-10.5 -26.5t11 -26.5t26 -11q76 0 129.5 -53.5t53.5 -129.5t-53.5 -129.5t-129.5 -53.5t-129.5 53.5t-53.5 129.5q0 78 56 132q-28 40 -28 88.5t28 88.5q-56 54 -56 132zM253 -101q-28 0 -47 -19t-19 -47t19 -47t47 -19q27 0 46.5 19t19.5 47
t-19.5 47t-46.5 19z" />
    <glyph glyph-name="Gbreve" unicode="&#x11e;" horiz-adv-x="499" 
d="M436 2049q0 -76 -53.5 -129.5t-129.5 -53.5t-129.5 53.5t-53.5 129.5h117q0 -28 19 -47t47 -19q27 0 46.5 19.5t19.5 46.5h117zM253 0q-76 0 -129.5 53.5t-53.5 129.5v1349q0 76 53.5 129.5t129.5 53.5h183v-365h-117v248h-66q-28 0 -47 -19t-19 -47v-1349q0 -28 19 -47
t47 -19h66v608h-49v117h166v-842h-183z" />
    <glyph glyph-name="gbreve" unicode="&#x11f;" 
d="M436 1706q0 -76 -53.5 -129.5t-129.5 -53.5t-129.5 53.5t-53.5 129.5h117q0 -28 19 -47t47 -19q27 0 46.5 19.5t19.5 46.5h117zM319 1196q0 28 -19.5 47t-46.5 19q-28 0 -47 -19t-19 -47v-922q0 -28 19 -47t47 -19q27 0 46.5 19t19.5 47v922zM70 274v922q0 76 53.5 129.5
t129.5 53.5t129.5 -53.5t53.5 -129.5v-922q0 -76 -53.5 -129.5t-129.5 -53.5q-16 0 -26.5 -11t-10.5 -26.5t11 -26.5t26 -11q76 0 129.5 -53.5t53.5 -129.5t-53.5 -129.5t-129.5 -53.5t-129.5 53.5t-53.5 129.5q0 78 56 132q-28 40 -28 88.5t28 88.5q-56 54 -56 132z
M253 -101q-28 0 -47 -19t-19 -47t19 -47t47 -19q27 0 46.5 19t19.5 47t-19.5 47t-46.5 19z" />
    <glyph glyph-name="Gdotaccent" unicode="&#x120;" horiz-adv-x="499" 
d="M194 2038h117v-172h-117v172zM253 0q-76 0 -129.5 53.5t-53.5 129.5v1349q0 76 53.5 129.5t129.5 53.5h183v-365h-117v248h-66q-28 0 -47 -19t-19 -47v-1349q0 -28 19 -47t47 -19h66v608h-49v117h166v-842h-183z" />
    <glyph glyph-name="gdotaccent" unicode="&#x121;" 
d="M194 1695h117v-172h-117v172zM319 1196q0 28 -19.5 47t-46.5 19q-28 0 -47 -19t-19 -47v-922q0 -28 19 -47t47 -19q27 0 46.5 19t19.5 47v922zM70 274v922q0 76 53.5 129.5t129.5 53.5t129.5 -53.5t53.5 -129.5v-922q0 -76 -53.5 -129.5t-129.5 -53.5q-16 0 -26.5 -11
t-10.5 -26.5t11 -26.5t26 -11q76 0 129.5 -53.5t53.5 -129.5t-53.5 -129.5t-129.5 -53.5t-129.5 53.5t-53.5 129.5q0 78 56 132q-28 40 -28 88.5t28 88.5q-56 54 -56 132zM253 -101q-28 0 -47 -19t-19 -47t19 -47t47 -19q27 0 46.5 19t19.5 47t-19.5 47t-46.5 19z" />
    <glyph glyph-name="Gcommaaccent" unicode="&#x122;" horiz-adv-x="499" 
d="M219 -554l-105 50l173 360l105 -50zM253 0q-76 0 -129.5 53.5t-53.5 129.5v1349q0 76 53.5 129.5t129.5 53.5h183v-365h-117v248h-66q-28 0 -47 -19t-19 -47v-1349q0 -28 19 -47t47 -19h66v608h-49v117h166v-842h-183z" />
    <glyph glyph-name="Hcircumflex" unicode="&#x124;" 
d="M160 1866l-82 82l176 176l175 -176l-82 -82l-93 93zM187 839v-839h-117v1715h117v-759h132v759h117v-1715h-117v839h-132z" />
    <glyph glyph-name="hcircumflex" unicode="&#x125;" 
d="M160 1859l-82 82l176 176l175 -176l-82 -82l-93 93zM319 0v1189q0 27 -19.5 46.5t-46.5 19.5h-66v-1255h-117v1715h117v-343h66q76 0 129.5 -53.5t53.5 -129.5v-1189h-117z" />
    <glyph glyph-name="Hbar" unicode="&#x126;" 
d="M187 839v-839h-117v1255h-14v117h14v343h117v-343h132v343h117v-343h14v-117h-14v-1255h-117v839h-132zM319 1255h-132v-299h132v299z" />
    <glyph glyph-name="hbar" unicode="&#x127;" 
d="M319 0v1189q0 27 -19.5 46.5t-46.5 19.5h-66v-1255h-117v1485h-14v117h14v113h117v-113h249v-117h-249v-113h66q76 0 129.5 -53.5t53.5 -129.5v-1189h-117z" />
    <glyph glyph-name="Itilde" unicode="&#x128;" horiz-adv-x="257" 
d="M-12 1897l-82 83l165 165l114 -114l83 82l83 -82l-166 -165l-114 114zM187 0h-117v1715h117v-1715z" />
    <glyph glyph-name="itilde" unicode="&#x129;" horiz-adv-x="257" 
d="M-12 1554l-82 83l165 165l114 -114l83 82l83 -82l-166 -165l-114 114zM187 0h-117v1372h117v-1372z" />
    <glyph glyph-name="Imacron" unicode="&#x12a;" horiz-adv-x="257" 
d="M26 1983h206v-117h-206v117zM187 0h-117v1715h117v-1715z" />
    <glyph glyph-name="imacron" unicode="&#x12b;" horiz-adv-x="257" 
d="M26 1640h206v-117h-206v117zM187 0h-117v1372h117v-1372z" />
    <glyph glyph-name="Ibreve" unicode="&#x12c;" horiz-adv-x="257" 
d="M312 2049q0 -76 -53.5 -129.5t-129.5 -53.5t-129.5 53.5t-53.5 129.5h117q0 -28 19 -47t47 -19q27 0 46.5 19.5t19.5 46.5h117zM187 0h-117v1715h117v-1715z" />
    <glyph glyph-name="ibreve" unicode="&#x12d;" horiz-adv-x="257" 
d="M312 1706q0 -76 -53.5 -129.5t-129.5 -53.5t-129.5 53.5t-53.5 129.5h117q0 -28 19 -47t47 -19q27 0 46.5 19.5t19.5 46.5h117zM187 0h-117v1372h117v-1372z" />
    <glyph glyph-name="Idotaccent" unicode="&#x130;" horiz-adv-x="257" 
d="M70 2038h117v-172h-117v172zM187 0h-117v1715h117v-1715z" />
    <glyph glyph-name="dotlessi" unicode="&#x131;" horiz-adv-x="257" 
d="M187 0h-117v1372h117v-1372z" />
    <glyph glyph-name="IJ" unicode="&#x132;" 
d="M70 1715h117v-1028h-117v1028zM187 507v-332q0 -28 19 -47t47 -19q27 0 46.5 19t19.5 47v1540h117v-1540q0 -76 -53.5 -129.5t-129.5 -53.5t-129.5 53.5t-53.5 129.5v332h117z" />
    <glyph glyph-name="ij" unicode="&#x133;" 
d="M70 1568h117v-932h-117v932zM187 456v-281q0 -28 19 -47t47 -19q27 0 46.5 19t19.5 47v1393h117v-1393q0 -76 -53.5 -129.5t-129.5 -53.5t-129.5 53.5t-53.5 129.5v281h117z" />
    <glyph glyph-name="Jcircumflex" unicode="&#x134;" horiz-adv-x="492" 
d="M270 1866l-82 82l176 176l175 -176l-82 -82l-93 93zM173 507v-331q0 -28 19 -47t47 -19q27 0 46.5 19t19.5 47v1539h117v-1539q0 -76 -53.5 -129.5t-129.5 -53.5t-129.5 53.5t-53.5 129.5v331h117z" />
    <glyph glyph-name="jcircumflex" unicode="&#x135;" horiz-adv-x="257" 
d="M34 1523l-82 82l176 176l175 -176l-82 -82l-93 93zM70 -160v1532h117v-1532q0 -76 -53.5 -129.5t-129.5 -53.5h-97v117h97q28 0 47 19t19 47z" />
    <glyph glyph-name="Kcommaaccent" unicode="&#x136;" 
d="M219 -554l-105 50l173 360l105 -50zM187 0h-117v1715h117v-708l132 200v508h117v-543l-179 -271l179 -271v-630h-117v595l-132 200v-795z" />
    <glyph glyph-name="kcommaaccent" unicode="&#x137;" 
d="M219 -554l-105 50l173 360l105 -50zM187 0h-117v1715h117v-785l132 200v242h117v-277l-179 -271l179 -271v-553h-117v518l-132 200v-718z" />
    <glyph glyph-name="kgreenlandic" unicode="&#x138;" 
d="M187 0h-117v1372h117v-526l132 200v326h117v-361l-179 -271l179 -271v-469h-117v434l-132 200v-634z" />
    <glyph glyph-name="Lacute" unicode="&#x139;" horiz-adv-x="417" 
d="M18 1972l360 173l50 -105l-360 -174zM187 117h188v-117h-305v1715h117v-1598z" />
    <glyph glyph-name="lacute" unicode="&#x13a;" horiz-adv-x="302" 
d="M-77 1965l360 173l50 -105l-360 -174zM253 0q-76 0 -129.5 53.5t-53.5 129.5v1532h117v-1532q0 -28 19 -47t47 -19v-117z" />
    <glyph glyph-name="Lcommaaccent" unicode="&#x13b;" horiz-adv-x="417" 
d="M189 -554l-105 50l173 360l105 -50zM187 117h188v-117h-305v1715h117v-1598z" />
    <glyph glyph-name="lcommaaccent" unicode="&#x13c;" horiz-adv-x="302" 
d="M219 -554l-105 50l173 360l105 -50zM253 0q-76 0 -129.5 53.5t-53.5 129.5v1532h117v-1532q0 -28 19 -47t47 -19v-117z" />
    <glyph glyph-name="Lcaron" unicode="&#x13d;" horiz-adv-x="514" 
d="M376 1313l-105 50l173 360l105 -50zM187 117h188v-117h-305v1715h117v-1598z" />
    <glyph glyph-name="lcaron" unicode="&#x13e;" horiz-adv-x="514" 
d="M376 1305l-105 50l173 360l105 -50zM253 0q-76 0 -129.5 53.5t-53.5 129.5v1532h117v-1532q0 -28 19 -47t47 -19v-117z" />
    <glyph glyph-name="Ldot" unicode="&#x13f;" horiz-adv-x="458" 
d="M299 947h117v-172h-117v172zM187 117h188v-117h-305v1715h117v-1598z" />
    <glyph glyph-name="ldot" unicode="&#x140;" horiz-adv-x="458" 
d="M299 857h117v-172h-117v172zM253 0q-76 0 -129.5 53.5t-53.5 129.5v1532h117v-1532q0 -28 19 -47t47 -19v-117z" />
    <glyph glyph-name="Nacute" unicode="&#x143;" 
d="M48 1972l360 173l50 -105l-360 -174zM187 0h-117v1722q152 0 259 -107t107 -259v-1356h-117v1356q0 71 -36 130t-96 90v-1576z" />
    <glyph glyph-name="nacute" unicode="&#x144;" 
d="M48 1629l360 173l50 -105l-360 -174zM187 0h-117v1379q152 0 259 -107.5t107 -258.5v-1013h-117v1013q0 71 -36 130t-96 90v-1233z" />
    <glyph glyph-name="Ncommaaccent" unicode="&#x145;" 
d="M219 -554l-105 50l173 360l105 -50zM187 0h-117v1722q152 0 259 -107t107 -259v-1356h-117v1356q0 71 -36 130t-96 90v-1576z" />
    <glyph glyph-name="ncommaaccent" unicode="&#x146;" 
d="M219 -554l-105 50l173 360l105 -50zM187 0h-117v1379q152 0 259 -107.5t107 -258.5v-1013h-117v1013q0 71 -36 130t-96 90v-1233z" />
    <glyph glyph-name="Ncaron" unicode="&#x147;" 
d="M347 2124l82 -82l-175 -176l-176 176l82 82l94 -93zM187 0h-117v1722q152 0 259 -107t107 -259v-1356h-117v1356q0 71 -36 130t-96 90v-1576z" />
    <glyph glyph-name="ncaron" unicode="&#x148;" 
d="M347 1781l82 -82l-175 -176l-176 176l82 82l94 -93zM187 0h-117v1379q152 0 259 -107.5t107 -258.5v-1013h-117v1013q0 71 -36 130t-96 90v-1233z" />
    <glyph glyph-name="Eng" unicode="&#x14a;" 
d="M70 82v1640q152 0 259 -107t107 -259v-1274h-117v1274q0 71 -36 130t-96 90v-1494q0 -28 19 -47t47 -19q76 0 129.5 -53.5t53.5 -129.5t-53.5 -129.5t-129.5 -53.5t-129.5 53.5t-53.5 129.5q0 72 49 125q-49 52 -49 124zM253 -101q-28 0 -47 -19t-19 -47t19 -47t47 -19
q27 0 46.5 19t19.5 47t-19.5 47t-46.5 19z" />
    <glyph glyph-name="eng" unicode="&#x14b;" 
d="M70 82v1297q152 0 259 -107.5t107 -258.5v-931h-117v931q0 71 -36 130t-96 90v-1151q0 -28 19 -47t47 -19q76 0 129.5 -53.5t53.5 -129.5t-53.5 -129.5t-129.5 -53.5t-129.5 53.5t-53.5 129.5q0 72 49 125q-49 52 -49 124zM253 -101q-28 0 -47 -19t-19 -47t19 -47t47 -19
q27 0 46.5 19t19.5 47t-19.5 47t-46.5 19z" />
    <glyph glyph-name="Omacron" unicode="&#x14c;" 
d="M150 1983h206v-117h-206v117zM319 1539q0 28 -19.5 47t-46.5 19q-28 0 -47 -19t-19 -47v-1363q0 -28 19 -47t47 -19q27 0 46.5 19t19.5 47v1363zM70 1539q0 76 53.5 129.5t129.5 53.5t129.5 -53.5t53.5 -129.5v-1363q0 -76 -53.5 -129.5t-129.5 -53.5t-129.5 53.5
t-53.5 129.5v1363z" />
    <glyph glyph-name="omacron" unicode="&#x14d;" 
d="M150 1640h206v-117h-206v117zM319 1196q0 28 -19.5 47t-46.5 19q-28 0 -47 -19t-19 -47v-1020q0 -28 19 -47t47 -19q27 0 46.5 19t19.5 47v1020zM70 1196q0 76 53.5 129.5t129.5 53.5t129.5 -53.5t53.5 -129.5v-1020q0 -76 -53.5 -129.5t-129.5 -53.5t-129.5 53.5
t-53.5 129.5v1020z" />
    <glyph glyph-name="Obreve" unicode="&#x14e;" 
d="M436 2049q0 -76 -53.5 -129.5t-129.5 -53.5t-129.5 53.5t-53.5 129.5h117q0 -28 19 -47t47 -19q27 0 46.5 19.5t19.5 46.5h117zM319 1539q0 28 -19.5 47t-46.5 19q-28 0 -47 -19t-19 -47v-1363q0 -28 19 -47t47 -19q27 0 46.5 19t19.5 47v1363zM70 1539q0 76 53.5 129.5
t129.5 53.5t129.5 -53.5t53.5 -129.5v-1363q0 -76 -53.5 -129.5t-129.5 -53.5t-129.5 53.5t-53.5 129.5v1363z" />
    <glyph glyph-name="obreve" unicode="&#x14f;" 
d="M436 1706q0 -76 -53.5 -129.5t-129.5 -53.5t-129.5 53.5t-53.5 129.5h117q0 -28 19 -47t47 -19q27 0 46.5 19.5t19.5 46.5h117zM319 1196q0 28 -19.5 47t-46.5 19q-28 0 -47 -19t-19 -47v-1020q0 -28 19 -47t47 -19q27 0 46.5 19t19.5 47v1020zM70 1196q0 76 53.5 129.5
t129.5 53.5t129.5 -53.5t53.5 -129.5v-1020q0 -76 -53.5 -129.5t-129.5 -53.5t-129.5 53.5t-53.5 129.5v1020z" />
    <glyph glyph-name="OE" unicode="&#x152;" horiz-adv-x="647" 
d="M74 1540q0 76 53.5 129.5t129.5 53.5q27 0 54 -8h284v-117h-155v-58v-624h155v-117h-155v-624v-58h155v-117h-284q-27 -8 -54 -8q-76 0 -129.5 53.5t-53.5 129.5v1365zM323 175v1365q0 28 -19.5 47t-46.5 19q-28 0 -47 -19t-19 -47v-1365q0 -28 19 -47t47 -19
q27 0 46.5 19t19.5 47z" />
    <glyph glyph-name="oe" unicode="&#x153;" horiz-adv-x="755" 
d="M568 1196q0 28 -19 47t-47 19t-47 -19t-19 -47v-623h132v623zM70 1196q0 76 53.5 129.5t129.5 53.5q72 0 125 -49q52 49 124 49q76 0 129.5 -53.5t53.5 -129.5v-740h-249v-273q0 -28 19.5 -47t46.5 -19h97v-117h-97q-69 0 -121 46q-53 -53 -128 -53q-76 0 -129.5 53.5
t-53.5 129.5v1020zM319 183v1013q0 28 -19.5 47t-46.5 19q-28 0 -47 -19t-19 -47v-1020q0 -28 19 -47t47 -19q27 0 46.5 19t19.5 47v7z" />
    <glyph glyph-name="Racute" unicode="&#x154;" 
d="M48 1972l360 173l50 -105l-360 -174zM253 757h-66v-757h-117v1715h183q76 0 129.5 -53.5t53.5 -129.5v-592q0 -71 -49 -125q49 -52 49 -124v-691h-117v691q0 27 -19.5 46.5t-46.5 19.5zM253 874q27 0 46.5 19t19.5 47v592q0 28 -19.5 47t-46.5 19h-66v-724h66z" />
    <glyph glyph-name="racute" unicode="&#x155;" horiz-adv-x="493" 
d="M48 1629l360 173l50 -105l-360 -174zM253 1255q-28 0 -47 -19t-19 -47v-1189h-117v1189q0 76 53.5 129.5t129.5 53.5h184v-316h-117v199h-67z" />
    <glyph glyph-name="Rcommaaccent" unicode="&#x156;" 
d="M219 -554l-105 50l173 360l105 -50zM253 757h-66v-757h-117v1715h183q76 0 129.5 -53.5t53.5 -129.5v-592q0 -71 -49 -125q49 -52 49 -124v-691h-117v691q0 27 -19.5 46.5t-46.5 19.5zM253 874q27 0 46.5 19t19.5 47v592q0 28 -19.5 47t-46.5 19h-66v-724h66z" />
    <glyph glyph-name="rcommaaccent" unicode="&#x157;" horiz-adv-x="493" 
d="M219 -554l-105 50l173 360l105 -50zM253 1255q-28 0 -47 -19t-19 -47v-1189h-117v1189q0 76 53.5 129.5t129.5 53.5h184v-316h-117v199h-67z" />
    <glyph glyph-name="Rcaron" unicode="&#x158;" 
d="M347 2124l82 -82l-175 -176l-176 176l82 82l94 -93zM253 757h-66v-757h-117v1715h183q76 0 129.5 -53.5t53.5 -129.5v-592q0 -71 -49 -125q49 -52 49 -124v-691h-117v691q0 27 -19.5 46.5t-46.5 19.5zM253 874q27 0 46.5 19t19.5 47v592q0 28 -19.5 47t-46.5 19h-66v-724
h66z" />
    <glyph glyph-name="rcaron" unicode="&#x159;" horiz-adv-x="493" 
d="M347 1781l82 -82l-175 -176l-176 176l82 82l94 -93zM253 1255q-28 0 -47 -19t-19 -47v-1189h-117v1189q0 76 53.5 129.5t129.5 53.5h184v-316h-117v199h-67z" />
    <glyph glyph-name="Sacute" unicode="&#x15a;" horiz-adv-x="492" 
d="M41 1972l360 173l50 -105l-360 -174zM429 176q0 -76 -53.5 -129.5t-129.5 -53.5t-129.5 53.5t-53.5 129.5v337h117v-337q0 -28 19.5 -47t46.5 -19q28 0 47 19t19 47v479l-249 409v475q0 76 53.5 129.5t129.5 53.5t129.5 -53.5t53.5 -129.5v-336h-117v336q0 28 -19 47
t-47 19q-27 0 -46.5 -19t-19.5 -47v-443l249 -408v-512z" />
    <glyph glyph-name="sacute" unicode="&#x15b;" horiz-adv-x="492" 
d="M41 1629l360 173l50 -105l-360 -174zM429 176q0 -76 -53.5 -129.5t-129.5 -53.5t-129.5 53.5t-53.5 129.5v147h117v-147q0 -28 19.5 -47t46.5 -19q28 0 47 19t19 47v308l-249 408v304q0 76 53.5 129.5t129.5 53.5t129.5 -53.5t53.5 -129.5v-140h-117v140q0 28 -19 47
t-47 19q-27 0 -46.5 -19t-19.5 -47v-272l249 -408v-340z" />
    <glyph glyph-name="Scircumflex" unicode="&#x15c;" horiz-adv-x="492" 
d="M152 1866l-82 82l176 176l175 -176l-82 -82l-93 93zM429 176q0 -76 -53.5 -129.5t-129.5 -53.5t-129.5 53.5t-53.5 129.5v337h117v-337q0 -28 19.5 -47t46.5 -19q28 0 47 19t19 47v479l-249 409v475q0 76 53.5 129.5t129.5 53.5t129.5 -53.5t53.5 -129.5v-336h-117v336
q0 28 -19 47t-47 19q-27 0 -46.5 -19t-19.5 -47v-443l249 -408v-512z" />
    <glyph glyph-name="scircumflex" unicode="&#x15d;" horiz-adv-x="492" 
d="M152 1523l-82 82l176 176l175 -176l-82 -82l-93 93zM429 176q0 -76 -53.5 -129.5t-129.5 -53.5t-129.5 53.5t-53.5 129.5v147h117v-147q0 -28 19.5 -47t46.5 -19q28 0 47 19t19 47v308l-249 408v304q0 76 53.5 129.5t129.5 53.5t129.5 -53.5t53.5 -129.5v-140h-117v140
q0 28 -19 47t-47 19q-27 0 -46.5 -19t-19.5 -47v-272l249 -408v-340z" />
    <glyph glyph-name="Scaron" unicode="&#x160;" horiz-adv-x="492" 
d="M339 2124l82 -82l-175 -176l-176 176l82 82l94 -93zM429 176q0 -76 -53.5 -129.5t-129.5 -53.5t-129.5 53.5t-53.5 129.5v337h117v-337q0 -28 19.5 -47t46.5 -19q28 0 47 19t19 47v479l-249 409v475q0 76 53.5 129.5t129.5 53.5t129.5 -53.5t53.5 -129.5v-336h-117v336
q0 28 -19 47t-47 19q-27 0 -46.5 -19t-19.5 -47v-443l249 -408v-512z" />
    <glyph glyph-name="scaron" unicode="&#x161;" horiz-adv-x="492" 
d="M339 1781l82 -82l-175 -176l-176 176l82 82l94 -93zM429 176q0 -76 -53.5 -129.5t-129.5 -53.5t-129.5 53.5t-53.5 129.5v147h117v-147q0 -28 19.5 -47t46.5 -19q28 0 47 19t19 47v308l-249 408v304q0 76 53.5 129.5t129.5 53.5t129.5 -53.5t53.5 -129.5v-140h-117v140
q0 28 -19 47t-47 19q-27 0 -46.5 -19t-19.5 -47v-272l249 -408v-340z" />
    <glyph glyph-name="Tcaron" unicode="&#x164;" horiz-adv-x="446" 
d="M317 2124l82 -82l-175 -176l-176 176l82 82l94 -93zM49 1715h348v-117h-116v-1598h-117v1598h-115v117z" />
    <glyph glyph-name="tcaron" unicode="&#x165;" horiz-adv-x="666" 
d="M528 1305l-105 50l173 360l105 -50zM281 1715v-343h116v-117h-116v-1255h-117v1255h-115v117h115v343h117z" />
    <glyph glyph-name="Tbar" unicode="&#x166;" horiz-adv-x="446" 
d="M98 916h249v-117h-249v117zM49 1715h348v-117h-116v-1598h-117v1598h-115v117z" />
    <glyph glyph-name="tbar" unicode="&#x167;" horiz-adv-x="446" 
d="M98 744h249v-117h-249v117zM281 1715v-343h116v-117h-116v-1255h-117v1255h-115v117h115v343h117z" />
    <glyph glyph-name="Utilde" unicode="&#x168;" 
d="M112 1897l-82 83l165 165l114 -114l83 82l83 -82l-166 -165l-114 114zM436 176q0 -76 -53.5 -129.5t-129.5 -53.5t-129.5 53.5t-53.5 129.5v1539h117v-1539q0 -28 19 -47t47 -19q27 0 46.5 19t19.5 47v1539h117v-1539z" />
    <glyph glyph-name="utilde" unicode="&#x169;" 
d="M112 1554l-82 83l165 165l114 -114l83 82l83 -82l-166 -165l-114 114zM436 176q0 -76 -53.5 -129.5t-129.5 -53.5t-129.5 53.5t-53.5 129.5v1196h117v-1196q0 -28 19 -47t47 -19q27 0 46.5 19t19.5 47v1196h117v-1196z" />
    <glyph glyph-name="Umacron" unicode="&#x16a;" 
d="M150 1983h206v-117h-206v117zM436 176q0 -76 -53.5 -129.5t-129.5 -53.5t-129.5 53.5t-53.5 129.5v1539h117v-1539q0 -28 19 -47t47 -19q27 0 46.5 19t19.5 47v1539h117v-1539z" />
    <glyph glyph-name="umacron" unicode="&#x16b;" 
d="M150 1640h206v-117h-206v117zM436 176q0 -76 -53.5 -129.5t-129.5 -53.5t-129.5 53.5t-53.5 129.5v1196h117v-1196q0 -28 19 -47t47 -19q27 0 46.5 19t19.5 47v1196h117v-1196z" />
    <glyph glyph-name="Ubreve" unicode="&#x16c;" 
d="M436 2049q0 -76 -53.5 -129.5t-129.5 -53.5t-129.5 53.5t-53.5 129.5h117q0 -28 19 -47t47 -19q27 0 46.5 19.5t19.5 46.5h117zM436 176q0 -76 -53.5 -129.5t-129.5 -53.5t-129.5 53.5t-53.5 129.5v1539h117v-1539q0 -28 19 -47t47 -19q27 0 46.5 19t19.5 47v1539h117
v-1539z" />
    <glyph glyph-name="ubreve" unicode="&#x16d;" 
d="M436 1706q0 -76 -53.5 -129.5t-129.5 -53.5t-129.5 53.5t-53.5 129.5h117q0 -28 19 -47t47 -19q27 0 46.5 19.5t19.5 46.5h117zM436 176q0 -76 -53.5 -129.5t-129.5 -53.5t-129.5 53.5t-53.5 129.5v1196h117v-1196q0 -28 19 -47t47 -19q27 0 46.5 19t19.5 47v1196h117
v-1196z" />
    <glyph glyph-name="Uring" unicode="&#x16e;" 
d="M253 2232q76 0 129.5 -53.5t53.5 -129.5t-53.5 -129.5t-129.5 -53.5t-129.5 53.5t-53.5 129.5t53.5 129.5t129.5 53.5zM187 2049q0 -27 19 -46.5t47 -19.5q27 0 46.5 19.5t19.5 46.5q0 28 -19.5 47t-46.5 19q-28 0 -47 -19t-19 -47zM436 176q0 -76 -53.5 -129.5
t-129.5 -53.5t-129.5 53.5t-53.5 129.5v1539h117v-1539q0 -28 19 -47t47 -19q27 0 46.5 19t19.5 47v1539h117v-1539z" />
    <glyph glyph-name="uring" unicode="&#x16f;" 
d="M253 1889q76 0 129.5 -53.5t53.5 -129.5t-53.5 -129.5t-129.5 -53.5t-129.5 53.5t-53.5 129.5t53.5 129.5t129.5 53.5zM187 1706q0 -27 19 -46.5t47 -19.5q27 0 46.5 19.5t19.5 46.5q0 28 -19.5 47t-46.5 19q-28 0 -47 -19t-19 -47zM436 176q0 -76 -53.5 -129.5
t-129.5 -53.5t-129.5 53.5t-53.5 129.5v1196h117v-1196q0 -28 19 -47t47 -19q27 0 46.5 19t19.5 47v1196h117v-1196z" />
    <glyph glyph-name="Wcircumflex" unicode="&#x174;" horiz-adv-x="755" 
d="M284 1866l-82 82l176 176l175 -176l-82 -82l-93 93zM568 1715h117v-1539q0 -76 -53.5 -129.5t-129.5 -53.5q-73 0 -125 49q-51 -49 -124 -49q-76 0 -129.5 53.5t-53.5 129.5v1539h117v-1539q0 -28 19 -47t47 -19q27 0 46.5 19t19.5 47v1539h117v-1539q0 -28 19 -47
t47 -19q27 0 46.5 19t19.5 47v1539z" />
    <glyph glyph-name="wcircumflex" unicode="&#x175;" horiz-adv-x="755" 
d="M284 1523l-82 82l176 176l175 -176l-82 -82l-93 93zM568 1372h117v-1196q0 -76 -53.5 -129.5t-129.5 -53.5q-73 0 -125 49q-51 -49 -124 -49q-76 0 -129.5 53.5t-53.5 129.5v1196h117v-1196q0 -28 19 -47t47 -19q27 0 46.5 19t19.5 47v1196h117v-1196q0 -28 19 -47
t47 -19q27 0 46.5 19t19.5 47v1196z" />
    <glyph glyph-name="Ycircumflex" unicode="&#x176;" horiz-adv-x="492" 
d="M152 1866l-82 82l176 176l175 -176l-82 -82l-93 93zM180 1121l66 -118l66 118v594h117v-624l-125 -224v-867h-116v867l-125 224v624h117v-594z" />
    <glyph glyph-name="ycircumflex" unicode="&#x177;" 
d="M160 1523l-82 82l176 176l175 -176l-82 -82l-93 93zM319 19q-110 37 -179.5 132.5t-69.5 214.5v1006h117v-1006q0 -71 36 -130t96 -90v1226h117v-1532q0 -76 -53.5 -129.5t-129.5 -53.5h-97v117h97q27 0 46.5 19t19.5 47v179z" />
    <glyph glyph-name="Ydieresis" unicode="&#x178;" horiz-adv-x="492" 
d="M312 2038h117v-172h-117v172zM63 2038h117v-172h-117v172zM180 1121l66 -118l66 118v594h117v-624l-125 -224v-867h-116v867l-125 224v624h117v-594z" />
    <glyph glyph-name="Zacute" unicode="&#x179;" horiz-adv-x="440" 
d="M15 1972l360 173l50 -105l-360 -174zM260 1598h-197v117h314v-656l-197 -387v-555h197v-117h-314v700l197 387v511z" />
    <glyph glyph-name="zacute" unicode="&#x17a;" horiz-adv-x="440" 
d="M15 1629l360 173l50 -105l-360 -174zM260 1255h-197v117h314v-489l-197 -387v-379h197v-117h-314v524l197 387v344z" />
    <glyph glyph-name="Zdotaccent" unicode="&#x17b;" horiz-adv-x="440" 
d="M162 2038h117v-172h-117v172zM260 1598h-197v117h314v-656l-197 -387v-555h197v-117h-314v700l197 387v511z" />
    <glyph glyph-name="zdotaccent" unicode="&#x17c;" horiz-adv-x="440" 
d="M162 1695h117v-172h-117v172zM260 1255h-197v117h314v-489l-197 -387v-379h197v-117h-314v524l197 387v344z" />
    <glyph glyph-name="Zcaron" unicode="&#x17d;" horiz-adv-x="440" 
d="M313 2124l82 -82l-175 -176l-176 176l82 82l94 -93zM260 1598h-197v117h314v-656l-197 -387v-555h197v-117h-314v700l197 387v511z" />
    <glyph glyph-name="zcaron" unicode="&#x17e;" horiz-adv-x="440" 
d="M313 1781l82 -82l-175 -176l-176 176l82 82l94 -93zM260 1255h-197v117h314v-489l-197 -387v-379h197v-117h-314v524l197 387v344z" />
    <glyph glyph-name="longs" unicode="&#x17f;" horiz-adv-x="347" 
d="M49 110q28 0 47 19t19 47v1356q0 76 53.5 129.5t129.5 53.5v-117q-27 0 -46.5 -19t-19.5 -47v-1356q0 -76 -53.5 -129.5t-129.5 -53.5v117z" />
    <glyph glyph-name="uni0180" unicode="&#x180;" 
d="M4 744h249v-117h-249v117zM187 117h66q27 0 46.5 19t19.5 47v1006q0 27 -19.5 46.5t-46.5 19.5h-66v-1138zM436 1189v-1006q0 -76 -53.5 -129.5t-129.5 -53.5h-183v1715h117v-343h66q76 0 129.5 -53.5t53.5 -129.5z" />
    <glyph glyph-name="florin" unicode="&#x192;" horiz-adv-x="451" 
d="M49 -233q28 0 47 19t19 47v1699q0 76 53.5 129.5t129.5 53.5h97v-117h-97q-27 0 -46.5 -19t-19.5 -47v-616h155v-117h-155v-966q0 -76 -53.5 -129.5t-129.5 -53.5v117z" />
    <glyph glyph-name="uni0197" unicode="&#x197;" horiz-adv-x="257" 
d="M4 916h249v-117h-249v117zM187 0h-117v1715h117v-1715z" />
    <glyph glyph-name="uni01B5" unicode="&#x1b5;" horiz-adv-x="440" 
d="M96 916h249v-117h-249v117zM260 1598h-197v117h314v-656l-197 -387v-555h197v-117h-314v700l197 387v511z" />
    <glyph glyph-name="uni01B6" unicode="&#x1b6;" horiz-adv-x="440" 
d="M96 744h249v-117h-249v117zM260 1255h-197v117h314v-489l-197 -387v-379h197v-117h-314v524l197 387v344z" />
    <glyph glyph-name="uni01BF" unicode="&#x1bf;" 
d="M319 1233q-60 -31 -96 -90t-36 -130v-867q60 31 96 90t36 130v867zM70 1013q0 151 107 258.5t259 107.5v-1013q0 -119 -69.5 -214.5t-179.5 -132.5v-362h-117v1356z" />
    <glyph glyph-name="uni01C0" unicode="&#x1c0;" horiz-adv-x="257" 
d="M187 0h-117v1715h117v-1715z" />
    <glyph glyph-name="uni01C1" unicode="&#x1c1;" 
d="M436 0h-117v1715h117v-1715zM187 0h-117v1715h117v-1715z" />
    <glyph glyph-name="uni01C2" unicode="&#x1c2;" horiz-adv-x="361" 
d="M56 1040h249v-117h-249v117zM56 791h249v-117h-249v117zM239 0h-117v1715h117v-1715z" />
    <glyph glyph-name="uni01C3" unicode="&#x1c3;" horiz-adv-x="266" 
d="M70 352v1363h126v-1363h-126zM70 172h126v-172h-126v172z" />
    <glyph glyph-name="uni01F7" unicode="&#x1f7;" 
d="M187 146q60 31 96 90t36 130v1210q-60 -31 -96 -90t-36 -130v-1210zM436 366q0 -119 -69.5 -214.5t-179.5 -132.5v-362h-117v1699q0 152 107 259t259 107v-1356z" />
    <glyph glyph-name="uni0237" unicode="&#x237;" horiz-adv-x="257" 
d="M70 -160v1532h117v-1532q0 -76 -53.5 -129.5t-129.5 -53.5h-97v117h97q28 0 47 19t19 47z" />
    <glyph glyph-name="uni0238" unicode="&#x238;" horiz-adv-x="755" 
d="M436 117h66q27 0 46.5 19t19.5 47v1006q0 27 -19.5 46.5t-46.5 19.5h-66v-1138zM685 1189v-1006q0 -76 -53.5 -129.5t-129.5 -53.5h-183v1715h117v-343h66q76 0 129.5 -53.5t53.5 -129.5zM319 1255h-66q-27 0 -46.5 -19.5t-19.5 -46.5v-1006q0 -28 19.5 -47t46.5 -19h66
v1138zM436 1715v-1715h-183q-76 0 -129.5 53.5t-53.5 129.5v1006q0 76 53.5 129.5t129.5 53.5h66v343h117z" />
    <glyph glyph-name="uni0239" unicode="&#x239;" horiz-adv-x="755" 
d="M436 117h66q27 0 46.5 19.5t19.5 46.5v1006q0 28 -19.5 47t-46.5 19h-66v-1138zM319 -343v1715h183q76 0 129.5 -53.5t53.5 -129.5v-1006q0 -76 -53.5 -129.5t-129.5 -53.5h-66v-343h-117zM319 1255h-66q-27 0 -46.5 -19t-19.5 -47v-1006q0 -27 19.5 -46.5t46.5 -19.5h66
v1138zM70 183v1006q0 76 53.5 129.5t129.5 53.5h183v-1715h-117v343h-66q-76 0 -129.5 53.5t-53.5 129.5z" />
    <glyph glyph-name="uni0241" unicode="&#x241;" horiz-adv-x="485" 
d="M305 1539q0 28 -19.5 47t-46.5 19q-28 0 -47 -19t-19 -47v-197h-117v197q0 76 53.5 129.5t129.5 53.5t129.5 -53.5t53.5 -129.5l-1 -662l-124 -124v-753h-126v801l134 125v613z" />
    <glyph glyph-name="uni0242" unicode="&#x242;" horiz-adv-x="485" 
d="M305 1196q0 28 -19.5 47t-46.5 19q-28 0 -47 -19t-19 -47v-197h-117v197q0 76 53.5 129.5t129.5 53.5t129.5 -53.5t53.5 -129.5l-1 -490l-124 -124v-582h-126v630l134 124v442z" />
    <glyph glyph-name="uni0248" unicode="&#x248;" horiz-adv-x="492" 
d="M239 916h249v-117h-249v117zM173 507v-331q0 -28 19 -47t47 -19q27 0 46.5 19t19.5 47v1539h117v-1539q0 -76 -53.5 -129.5t-129.5 -53.5t-129.5 53.5t-53.5 129.5v331h117z" />
    <glyph glyph-name="uni0249" unicode="&#x249;" horiz-adv-x="257" 
d="M4 744h249v-117h-249v117zM70 -160v1532h117v-1532q0 -76 -53.5 -129.5t-129.5 -53.5h-97v117h97q28 0 47 19t19 47zM70 1715h117v-172h-117v172z" />
    <glyph glyph-name="uni024A" unicode="&#x24a;" horiz-adv-x="537" 
d="M502 -343q-76 0 -129.5 53.5t-53.5 129.5v165q-32 -12 -66 -12q-76 0 -129.5 53.5t-53.5 129.5v1363q0 76 53.5 129.5t129.5 53.5t129.5 -53.5t53.5 -129.5v-1699q0 -28 19 -47t47 -19v-117zM319 1539q0 28 -19.5 47t-46.5 19q-28 0 -47 -19t-19 -47v-1363q0 -28 19 -47
t47 -19q27 0 46.5 19t19.5 47v1363z" />
    <glyph glyph-name="uni024B" unicode="&#x24b;" horiz-adv-x="537" 
d="M70 183v1006q0 76 53.5 129.5t129.5 53.5h183v-1532q0 -28 19 -47t47 -19v-117q-76 0 -129.5 53.5t-53.5 129.5v160h-66q-76 0 -129.5 53.5t-53.5 129.5zM319 117v1138h-66q-27 0 -46.5 -19t-19.5 -47v-1006q0 -27 19.5 -46.5t46.5 -19.5h66z" />
    <glyph glyph-name="uni024D" unicode="&#x24d;" horiz-adv-x="493" 
d="M4 744h249v-117h-249v117zM253 1255q-28 0 -47 -19t-19 -47v-1189h-117v1189q0 76 53.5 129.5t129.5 53.5h184v-316h-117v199h-67z" />
    <glyph glyph-name="uni0259" unicode="&#x259;" 
d="M187 176q0 -28 19 -47t47 -19t47 19t19 47v623h-132v-623zM253 1379q76 0 129.5 -53.5t53.5 -129.5v-1020q0 -76 -53.5 -129.5t-129.5 -53.5t-129.5 53.5t-53.5 129.5v740h249v280q0 28 -19 47t-47 19q-27 0 -46.5 -19t-19.5 -47v-148h-117v148q0 76 53.5 129.5
t129.5 53.5z" />
    <glyph glyph-name="uni0279" unicode="&#x279;" horiz-adv-x="493" 
d="M240 117q28 0 47 19t19 47v1189h117v-1189q0 -76 -53.5 -129.5t-129.5 -53.5h-184v316h117v-199h67z" />
    <glyph glyph-name="uni0280" unicode="&#x280;" 
d="M253 594h-66v-594h-117v1372h183q76 0 129.5 -53.5t53.5 -129.5v-412q0 -71 -49 -125q49 -52 49 -124v-528h-117v528q0 27 -19.5 46.5t-46.5 19.5zM253 711q27 0 46.5 19t19.5 47v412q0 28 -19.5 47t-46.5 19h-66v-544h66z" />
    <glyph glyph-name="uni0299" unicode="&#x299;" 
d="M187 117h66q27 0 46.5 19t19.5 47v411q0 27 -19.5 46.5t-46.5 19.5h-66v-543zM70 0v1372h183q76 0 129.5 -53.5t53.5 -129.5v-346q0 -71 -49 -125q49 -54 49 -124v-411q0 -76 -53.5 -129.5t-129.5 -53.5h-183zM253 777q27 0 46.5 19.5t19.5 46.5v346q0 28 -19.5 47
t-46.5 19h-66v-478h66z" />
    <glyph glyph-name="uni029C" unicode="&#x29c;" 
d="M187 660v-660h-117v1372h117v-596h132v596h117v-1372h-117v660h-132z" />
    <glyph glyph-name="circumflex" unicode="&#x2c6;" horiz-adv-x="435" 
d="M124 1465l-82 82l176 176l175 -176l-82 -82l-93 93z" />
    <glyph glyph-name="caron" unicode="&#x2c7;" horiz-adv-x="435" 
d="M311 1723l82 -82l-175 -176l-176 176l82 82l94 -93z" />
    <glyph glyph-name="uni02CA" unicode="&#x2ca;" horiz-adv-x="494" 
d="M42 1542l360 173l50 -105l-360 -174z" />
    <glyph glyph-name="uni02CB" unicode="&#x2cb;" horiz-adv-x="494" 
d="M452 1542l-50 -106l-360 174l50 105z" />
    <glyph glyph-name="breve" unicode="&#x2d8;" horiz-adv-x="450" 
d="M408 1715q0 -76 -53.5 -129.5t-129.5 -53.5t-129.5 53.5t-53.5 129.5h117q0 -28 19 -47t47 -19q27 0 46.5 19.5t19.5 46.5h117z" />
    <glyph glyph-name="gravecomb" unicode="&#x300;" horiz-adv-x="494" 
d="M452 1542l-50 -106l-360 174l50 105z" />
    <glyph glyph-name="acutecomb" unicode="&#x301;" horiz-adv-x="494" 
d="M42 1542l360 173l50 -105l-360 -174z" />
    <glyph glyph-name="uni0302" unicode="&#x302;" horiz-adv-x="435" 
d="M124 1465l-82 82l176 176l175 -176l-82 -82l-93 93z" />
    <glyph glyph-name="tildecomb" unicode="&#x303;" horiz-adv-x="529" 
d="M124 1475l-82 83l165 165l114 -114l83 82l83 -82l-166 -165l-114 114z" />
    <glyph glyph-name="uni0306" unicode="&#x306;" horiz-adv-x="450" 
d="M408 1715q0 -76 -53.5 -129.5t-129.5 -53.5t-129.5 53.5t-53.5 129.5h117q0 -28 19 -47t47 -19q27 0 46.5 19.5t19.5 46.5h117z" />
    <glyph glyph-name="uni0308" unicode="&#x308;" horiz-adv-x="450" 
d="M291 1715h117v-172h-117v172zM42 1715h117v-172h-117v172z" />
    <glyph glyph-name="uni030C" unicode="&#x30c;" horiz-adv-x="435" 
d="M311 1723l82 -82l-175 -176l-176 176l82 82l94 -93z" />
    <glyph glyph-name="uni0324" unicode="&#x324;" horiz-adv-x="450" 
d="M291 0h117v-172h-117v172zM42 0h117v-172h-117v172z" />
    <glyph glyph-name="uni032C" unicode="&#x32c;" horiz-adv-x="435" 
d="M311 8l82 -82l-175 -176l-176 176l82 82l94 -93z" />
    <glyph glyph-name="uni0335" unicode="&#x335;" horiz-adv-x="249" 
d="M0 830h249v-117h-249v117z" />
    <glyph glyph-name="uni0336" unicode="&#x336;" horiz-adv-x="343" 
d="M0 830h343v-117h-343v117z" />
    <glyph glyph-name="uni0337" unicode="&#x337;" horiz-adv-x="449" 
d="M42 632l249 477l116 -28l-248 -478z" />
    <glyph glyph-name="uni0338" unicode="&#x338;" horiz-adv-x="491" 
d="M312 1109v605h116v-633l-248 -478v-604h-117v633z" />
    <glyph glyph-name="uni035D" unicode="&#x35d;" horiz-adv-x="900" 
d="M225 1532q-76 0 -129.5 53.5t-53.5 129.5h117q0 -28 19 -47t47 -19h450q27 0 46.5 19.5t19.5 46.5h117q0 -76 -53.5 -129.5t-129.5 -53.5h-450z" />
    <glyph glyph-name="uni035E" unicode="&#x35e;" horiz-adv-x="900" 
d="M675 1715q76 0 129.5 -53.5t53.5 -129.5h-117q0 28 -19 47t-47 19h-450q-27 0 -46.5 -19.5t-19.5 -46.5h-117q0 76 53.5 129.5t129.5 53.5h450z" />
    <glyph glyph-name="uni0361" unicode="&#x361;" horiz-adv-x="900" 
d="M225 -183q-76 0 -129.5 53.5t-53.5 129.5h117q0 -28 19 -47t47 -19h450q27 0 46.5 19.5t19.5 46.5h117q0 -76 -53.5 -129.5t-129.5 -53.5h-450z" />
    <glyph glyph-name="uni0370" unicode="&#x370;" horiz-adv-x="368" 
d="M319 839h-132v-839h-117v1715h117v-759h132v-117z" />
    <glyph glyph-name="uni037E" unicode="&#x37e;" horiz-adv-x="243" 
d="M63 1068h117v-172h-117v172zM180 -172h-117v344h117v-344z" />
    <glyph glyph-name="uni037F" unicode="&#x37f;" horiz-adv-x="492" 
d="M173 507v-331q0 -28 19 -47t47 -19q27 0 46.5 19t19.5 47v1539h117v-1539q0 -76 -53.5 -129.5t-129.5 -53.5t-129.5 53.5t-53.5 129.5v331h117z" />
    <glyph glyph-name="Alpha" unicode="&#x391;" 
d="M319 1539q0 28 -19.5 47t-46.5 19q-28 0 -47 -19t-19 -47v-705h132v705zM436 0h-117v717h-132v-717h-117v1539q0 76 53.5 129.5t129.5 53.5t129.5 -53.5t53.5 -129.5v-1539z" />
    <glyph glyph-name="Beta" unicode="&#x392;" 
d="M187 117h66q27 0 46.5 19t19.5 47v591q0 27 -19.5 46.5t-46.5 19.5h-66v-723zM70 0v1715h183q76 0 129.5 -53.5t53.5 -129.5v-509q0 -71 -49 -125q49 -54 49 -124v-591q0 -76 -53.5 -129.5t-129.5 -53.5h-183zM253 957q27 0 46.5 19t19.5 47v509q0 28 -19.5 47t-46.5 19
h-66v-641h66z" />
    <glyph glyph-name="Gamma" unicode="&#x393;" horiz-adv-x="417" 
d="M187 1598v-1598h-117v1715h305v-117h-188z" />
    <glyph glyph-name="Delta" unicode="&#x394;" 
d="M319 117v1422q0 28 -19.5 47t-46.5 19q-28 0 -47 -19t-19 -47v-1422h132zM70 0v1539q0 76 53.5 129.5t129.5 53.5t129.5 -53.5t53.5 -129.5v-1539h-366z" />
    <glyph glyph-name="Epsilon" unicode="&#x395;" horiz-adv-x="398" 
d="M70 0v1715h272v-117h-155v-682h155v-117h-155v-682h155v-117h-272z" />
    <glyph glyph-name="Zeta" unicode="&#x396;" horiz-adv-x="440" 
d="M260 1598h-197v117h314v-656l-197 -387v-555h197v-117h-314v700l197 387v511z" />
    <glyph glyph-name="Eta" unicode="&#x397;" 
d="M187 839v-839h-117v1715h117v-759h132v759h117v-1715h-117v839h-132z" />
    <glyph glyph-name="Theta" unicode="&#x398;" 
d="M70 1539q0 76 53.5 129.5t129.5 53.5t129.5 -53.5t53.5 -129.5v-1363q0 -76 -53.5 -129.5t-129.5 -53.5t-129.5 53.5t-53.5 129.5v1363zM319 1539q0 28 -19.5 47t-46.5 19q-28 0 -47 -19t-19 -47v-623h132v623zM319 799h-132v-623q0 -28 19 -47t47 -19q27 0 46.5 19
t19.5 47v623z" />
    <glyph glyph-name="Iota" unicode="&#x399;" horiz-adv-x="257" 
d="M187 0h-117v1715h117v-1715z" />
    <glyph glyph-name="Kappa" unicode="&#x39a;" 
d="M187 0h-117v1715h117v-708l132 200v508h117v-543l-179 -271l179 -271v-630h-117v595l-132 200v-795z" />
    <glyph glyph-name="Lambda" unicode="&#x39b;" 
d="M319 0v1576q-60 -31 -96 -90t-36 -130v-1356h-117v1356q0 152 107 259t259 107v-1722h-117z" />
    <glyph glyph-name="Mu" unicode="&#x39c;" horiz-adv-x="638" 
d="M319 976l-132 200v-1176h-117v1715h117v-327l132 -200l132 200v327h117v-1715h-117v1176z" />
    <glyph glyph-name="Nu" unicode="&#x39d;" 
d="M187 0h-117v1722q144 0 249 -98v91h117v-1715h-117v1356q0 71 -36 130t-96 90v-1576z" />
    <glyph glyph-name="Xi" unicode="&#x39e;" horiz-adv-x="384" 
d="M56 1715h272v-117h-272v117zM56 916h272v-117h-272v117zM56 117h272v-117h-272v117z" />
    <glyph glyph-name="Omicron" unicode="&#x39f;" 
d="M319 1539q0 28 -19.5 47t-46.5 19q-28 0 -47 -19t-19 -47v-1363q0 -28 19 -47t47 -19q27 0 46.5 19t19.5 47v1363zM70 1539q0 76 53.5 129.5t129.5 53.5t129.5 -53.5t53.5 -129.5v-1363q0 -76 -53.5 -129.5t-129.5 -53.5t-129.5 53.5t-53.5 129.5v1363z" />
    <glyph glyph-name="Pi" unicode="&#x3a0;" 
d="M187 1598v-1598h-117v1715h366v-1715h-117v1598h-132z" />
    <glyph glyph-name="Rho" unicode="&#x3a1;" horiz-adv-x="499" 
d="M253 792q28 0 47 19.5t19 46.5v674q0 28 -19 47t-47 19h-66v-806h66zM187 675v-675h-117v1715h183q76 0 129.5 -53.5t53.5 -129.5v-674q0 -76 -53.5 -129.5t-129.5 -53.5h-66z" />
    <glyph glyph-name="Sigma" unicode="&#x3a3;" horiz-adv-x="398" 
d="M70 1082v633h272v-117h-155v-488l132 -252l-132 -253v-488h155v-117h-272v633l117 225z" />
    <glyph glyph-name="Tau" unicode="&#x3a4;" horiz-adv-x="446" 
d="M49 1715h348v-117h-116v-1598h-117v1598h-115v117z" />
    <glyph glyph-name="Upsilon" unicode="&#x3a5;" horiz-adv-x="492" 
d="M180 1121l66 -118l66 118v594h117v-624l-125 -224v-867h-116v867l-125 224v624h117v-594z" />
    <glyph glyph-name="Phi" unicode="&#x3a6;" horiz-adv-x="755" 
d="M319 1715h117v-152q32 12 66 12q76 0 129.5 -53.5t53.5 -129.5v-1069q0 -76 -53.5 -129.5t-129.5 -53.5q-34 0 -66 12v-152h-117v152q-32 -12 -66 -12q-76 0 -129.5 53.5t-53.5 129.5v1069q0 76 53.5 129.5t129.5 53.5q34 0 66 -12v152zM568 1392q0 28 -19.5 47t-46.5 19
q-28 0 -47 -19t-19 -47v-1069q0 -28 19 -47t47 -19q27 0 46.5 19t19.5 47v1069zM319 323v1069q0 28 -19.5 47t-46.5 19q-28 0 -47 -19t-19 -47v-1069q0 -28 19 -47t47 -19q27 0 46.5 19t19.5 47z" />
    <glyph glyph-name="Chi" unicode="&#x3a7;" 
d="M70 1715h117v-664l66 -66l66 66v664h117v-713l-101 -100l101 -100v-802h-117v753l-66 67l-66 -67v-753h-117v802l100 100l-100 100v713z" />
    <glyph glyph-name="Psi" unicode="&#x3a8;" horiz-adv-x="741" 
d="M312 1715h117v-961q58 18 95 68t37 113v731h117v-731q0 -111 -71 -196t-178 -106v-633h-117v633q-107 21 -178 106t-71 196v731h117v-731q0 -63 37 -113t95 -68v961z" />
    <glyph glyph-name="Omega" unicode="&#x3a9;" 
d="M70 1539q0 76 53.5 129.5t129.5 53.5t129.5 -53.5t53.5 -129.5v-1216q0 -58 -34 -106v-100h34v-117h-150v266q33 18 33 57v1216q0 28 -19.5 47t-46.5 19q-28 0 -47 -19t-19 -47v-1216q0 -39 33 -58v-265h-150v117h34v100q-34 48 -34 106v1216z" />
    <glyph glyph-name="alpha" unicode="&#x3b1;" horiz-adv-x="551" 
d="M70 1196q0 76 53.5 129.5t129.5 53.5q72 0 125 -49q52 49 124 49v-117q-28 0 -47 -19t-19 -47v-1020q0 -28 19 -47t47 -19v-117q-72 0 -124 49q-53 -49 -125 -49q-76 0 -129.5 53.5t-53.5 129.5v1020zM319 1196q0 28 -19.5 47t-46.5 19q-28 0 -47 -19t-19 -47v-1020
q0 -28 19 -47t47 -19q27 0 46.5 19t19.5 47v1020z" />
    <glyph glyph-name="beta" unicode="&#x3b2;" 
d="M436 183q0 -76 -53.5 -129.5t-129.5 -53.5h-66v-343h-117v1882q0 76 53.5 129.5t129.5 53.5t129.5 -53.5t53.5 -129.5v-516q0 -71 -49 -125q49 -54 49 -124v-591zM187 840v-723h66q27 0 46.5 19.5t19.5 46.5v591q0 27 -19.5 46.5t-46.5 19.5h-66zM187 957h66
q27 0 46.5 19t19.5 47v516q0 28 -19.5 47t-46.5 19t-46.5 -19t-19.5 -47v-582z" />
    <glyph glyph-name="gamma" unicode="&#x3b3;" horiz-adv-x="492" 
d="M180 435l66 -118l66 118v937h117v-967l-125 -224v-524h-116v524l-125 224v967h117v-937z" />
    <glyph glyph-name="delta" unicode="&#x3b4;" 
d="M253 1722h97v-117h-97q-28 0 -47 -19t-19 -47v-94q0 -28 19 -47t47 -19q76 0 129.5 -53.5t53.5 -129.5v-1020q0 -76 -53.5 -129.5t-129.5 -53.5t-129.5 53.5t-53.5 129.5v1020q0 72 49 124q-49 53 -49 125v94q0 76 53.5 129.5t129.5 53.5zM253 1262q-28 0 -47 -19
t-19 -47v-1020q0 -28 19 -47t47 -19q27 0 46.5 19t19.5 47v1020q0 28 -19.5 47t-46.5 19z" />
    <glyph glyph-name="epsilon" unicode="&#x3b5;" horiz-adv-x="499" 
d="M187 176q0 -28 19 -47t47 -19q27 0 46.5 19t19.5 47v148h117v-148q0 -76 -53.5 -129.5t-129.5 -53.5t-129.5 53.5t-53.5 129.5v410q0 72 49 124q-49 53 -49 125v361q0 76 53.5 129.5t129.5 53.5t129.5 -53.5t53.5 -129.5v-140h-117v140q0 28 -19 47t-47 19t-47 -19
t-19 -47v-361q0 -28 19 -47t47 -19h49v-117h-49q-28 0 -47 -19t-19 -47v-410z" />
    <glyph glyph-name="zeta" unicode="&#x3b6;" horiz-adv-x="492" 
d="M91 1605v117h345v-117l-248 -488l-1 -934q0 -28 19 -47t47 -19q76 0 129.5 -53.5t53.5 -129.5v-94q0 -76 -53.5 -129.5t-129.5 -53.5h-97v117h97q28 0 47 19t19 47v94q0 28 -19 47t-47 19q-76 0 -129.5 53.5t-53.5 129.5l1 962l234 460h-214z" />
    <glyph glyph-name="eta" unicode="&#x3b7;" 
d="M187 0h-117v1379q152 0 259 -107.5t107 -258.5v-1356h-117v1356q0 71 -36 130t-96 90v-1233z" />
    <glyph glyph-name="theta" unicode="&#x3b8;" 
d="M70 1539q0 76 53.5 129.5t129.5 53.5t129.5 -53.5t53.5 -129.5v-1363q0 -76 -53.5 -129.5t-129.5 -53.5t-129.5 53.5t-53.5 129.5v1363zM319 1539q0 28 -19.5 47t-46.5 19q-28 0 -47 -19t-19 -47v-623h132v623zM319 799h-132v-623q0 -28 19 -47t47 -19q27 0 46.5 19
t19.5 47v623z" />
    <glyph glyph-name="iota" unicode="&#x3b9;" horiz-adv-x="302" 
d="M253 0q-76 0 -129.5 53.5t-53.5 129.5v1189h117v-1189q0 -28 19 -47t47 -19v-117z" />
    <glyph glyph-name="kappa" unicode="&#x3ba;" 
d="M187 0h-117v1372h117v-540l132 200v340h117v-375l-179 -271l179 -271v-455h-117v420l-132 200v-620z" />
    <glyph glyph-name="lambda" unicode="&#x3bb;" 
d="M319 1356q0 103 -73 176t-176 73v117q152 0 259 -107t107 -259v-1356h-117v1226q-60 -31 -96 -90t-36 -130v-1006h-117v1006q0 119 69.5 214.5t179.5 135.5z" />
    <glyph glyph-name="mu" unicode="&#x3bc;" 
d="M187 -343h-117v1715h117v-1013q0 -71 36 -130t96 -90v1233h117v-1379q-144 0 -249 98v-434z" />
    <glyph glyph-name="nu" unicode="&#x3bd;" 
d="M187 1372v-1233q60 31 96 90t36 130v1013h117v-1013q0 -151 -107 -258.5t-259 -107.5v1379h117z" />
    <glyph glyph-name="xi" unicode="&#x3be;" horiz-adv-x="485" 
d="M253 0q-76 0 -129.5 53.5t-53.5 129.5v550q0 72 49 124q-49 53 -49 125v550q0 76 53.5 129.5t129.5 53.5h103v-117h-103q-28 0 -47 -19t-19 -47v-550q0 -28 19 -47t47 -19h89v-117h-89q-28 0 -47 -19t-19 -47v-550q0 -28 19 -47t47 -19q76 0 129.5 -53.5t53.5 -129.5
v-101q0 -76 -53.5 -129.5t-129.5 -53.5h-97v117h97q28 0 47 19t19 47v101q0 28 -19 47t-47 19z" />
    <glyph glyph-name="omicron" unicode="&#x3bf;" 
d="M319 1196q0 28 -19.5 47t-46.5 19q-28 0 -47 -19t-19 -47v-1020q0 -28 19 -47t47 -19q27 0 46.5 19t19.5 47v1020zM70 1196q0 76 53.5 129.5t129.5 53.5t129.5 -53.5t53.5 -129.5v-1020q0 -76 -53.5 -129.5t-129.5 -53.5t-129.5 53.5t-53.5 129.5v1020z" />
    <glyph glyph-name="pi" unicode="&#x3c0;" 
d="M187 1255v-1255h-117v1372h366v-1372h-117v1255h-132z" />
    <glyph glyph-name="rho" unicode="&#x3c1;" 
d="M187 117h66q27 0 46.5 19.5t19.5 46.5v1006q0 28 -19.5 47t-46.5 19t-46.5 -19t-19.5 -47v-1072zM70 1189q0 76 53.5 129.5t129.5 53.5t129.5 -53.5t53.5 -129.5v-1006q0 -76 -53.5 -129.5t-129.5 -53.5h-66v-343h-117v1532z" />
    <glyph glyph-name="sigma1" unicode="&#x3c2;" horiz-adv-x="492" 
d="M319 1196q0 28 -19 47t-47 19q-27 0 -46.5 -19t-19.5 -47v-1013q0 -28 19 -47t47 -19q76 0 129.5 -53.5t53.5 -129.5v-94q0 -76 -53.5 -129.5t-129.5 -53.5h-97v117h97q28 0 47 19t19 47v94q0 28 -19 47t-47 19q-76 0 -129.5 53.5t-53.5 129.5v1013q0 76 53.5 129.5
t129.5 53.5t129.5 -53.5t53.5 -129.5v-140h-117v140z" />
    <glyph glyph-name="sigma" unicode="&#x3c3;" 
d="M253 1255q-28 0 -47 -19t-19 -47v-1013q0 -28 19 -47t47 -19q27 0 46.5 19t19.5 47v1013q0 28 -19.5 47t-46.5 19zM424 1255q12 -32 12 -66v-1013q0 -76 -53.5 -129.5t-129.5 -53.5t-129.5 53.5t-53.5 129.5v1013q0 76 53.5 129.5t129.5 53.5h204v-117h-33z" />
    <glyph glyph-name="tau" unicode="&#x3c4;" horiz-adv-x="446" 
d="M164 1255h-115v117h348v-117h-116v-1079q0 -28 19 -47t47 -19v-117q-76 0 -129.5 53.5t-53.5 129.5v1079z" />
    <glyph glyph-name="upsilon" unicode="&#x3c5;" 
d="M436 176q0 -76 -53.5 -129.5t-129.5 -53.5t-129.5 53.5t-53.5 129.5v1196h117v-1196q0 -28 19 -47t47 -19q27 0 46.5 19t19.5 47v1196h117v-1196z" />
    <glyph glyph-name="phi" unicode="&#x3c6;" horiz-adv-x="754" 
d="M436 126q58 19 95 68.5t37 112.5v889q0 28 -19.5 47t-46.5 19q-28 0 -47 -19t-19 -47v-1070zM187 307q0 -62 37 -112t95 -69v1070q0 76 53.5 129.5t129.5 53.5t129.5 -53.5t53.5 -129.5l-1 -889q0 -111 -70.5 -196t-177.5 -105v-349h-117v348q-107 21 -178 105.5
t-71 196.5v889q0 76 53.5 129.5t129.5 53.5v-117q-28 0 -47 -19t-19 -47v-889z" />
    <glyph glyph-name="chi" unicode="&#x3c7;" 
d="M70 1372h117v-664l66 -66l66 66v664h117v-713l-101 -100l101 -100v-802h-117v753l-66 67l-66 -67v-753h-117v802l100 100l-100 100v713z" />
    <glyph glyph-name="psi" unicode="&#x3c8;" horiz-adv-x="741" 
d="M312 1372h117v-1247q58 19 95 69t37 113v722h117v-722q0 -112 -71 -196.5t-178 -105.5v-348h-117v348q-107 21 -178 105.5t-71 196.5v722h117v-722q0 -63 37 -113t95 -69v1247z" />
    <glyph glyph-name="omega" unicode="&#x3c9;" horiz-adv-x="755" 
d="M70 1189q0 76 53.5 129.5t129.5 53.5v-117q-27 0 -46.5 -19t-19.5 -47v-1013q0 -28 19 -47t47 -19q27 0 46.5 19t19.5 47v510h117v-510q0 -28 19 -47t47 -19q27 0 46.5 19t19.5 47v1013q0 28 -19.5 47t-46.5 19v117q76 0 129.5 -53.5t53.5 -129.5v-1013
q0 -76 -53.5 -129.5t-129.5 -53.5q-73 0 -125 49q-51 -49 -124 -49q-76 0 -129.5 53.5t-53.5 129.5v1013z" />
    <glyph glyph-name="phi1" unicode="&#x3d5;" horiz-adv-x="754" 
d="M436 1246v-1120q58 19 95 68.5t37 112.5l-1 758q0 63 -36.5 112.5t-94.5 68.5zM319 126v1120q-59 -19 -96 -68.5t-37 -112.5l1 -758q0 -62 37 -112t95 -69zM319 1715h117v-349q107 -20 177.5 -105t70.5 -196v-758q0 -74 -32.5 -138t-89 -107t-126.5 -56v-349h-117v348
q-107 21 -178 105.5t-71 196.5v758q0 112 71 196.5t178 105.5v348z" />
    <glyph glyph-name="uni03D8" unicode="&#x3d8;" horiz-adv-x="499" 
d="M246 792h66v806h-66q-28 0 -47 -19t-19 -47v-674q0 -27 19 -46.5t47 -19.5zM312 675h-66q-76 0 -129.5 53.5t-53.5 129.5v674q0 76 53.5 129.5t129.5 53.5h183v-1715h-117v675z" />
    <glyph glyph-name="uni03D9" unicode="&#x3d9;" 
d="M70 1196q0 76 53.5 129.5t129.5 53.5t129.5 -53.5t53.5 -129.5v-677q0 -60 -35 -107.5t-89 -65.5v-346h-118v346q-54 18 -89 65.5t-35 107.5v677zM319 1196q0 28 -19.5 47t-46.5 19q-28 0 -47 -19t-19 -47v-677q0 -28 19 -47t47 -19q27 0 46.5 19t19.5 47v677z" />
    <glyph glyph-name="uni03DC" unicode="&#x3dc;" horiz-adv-x="485" 
d="M319 1532q0 28 -19 47t-47 19h-66v-682h155v-117h-155v-799h-117v1715h183q76 0 129.5 -53.5t53.5 -129.5v-182h-117v182z" />
    <glyph glyph-name="uni03DD" unicode="&#x3dd;" horiz-adv-x="406" 
d="M187 573h155v-117h-155v-799h-117v1532q0 76 53.5 129.5t129.5 53.5h97v-117h-97q-28 0 -47 -19t-19 -47v-616z" />
    <glyph glyph-name="uni03DE" unicode="&#x3de;" horiz-adv-x="492" 
d="M312 839h-249v876h117v-759h249v-956h-117v839z" />
    <glyph glyph-name="uni03DF" unicode="&#x3df;" horiz-adv-x="492" 
d="M312 668h-249v704h117v-588h249v-784h-117v668z" />
    <glyph glyph-name="uni03F1" unicode="&#x3f1;" 
d="M187 117h66q27 0 46.5 19.5t19.5 46.5v1006q0 28 -19.5 47t-46.5 19t-46.5 -19t-19.5 -47v-1072zM70 1189q0 76 53.5 129.5t129.5 53.5t129.5 -53.5t53.5 -129.5v-1006q0 -76 -53.5 -129.5t-129.5 -53.5h-66v-160q0 -28 19 -47t47 -19h66v-117h-66q-76 0 -129.5 53.5
t-53.5 129.5v1349z" />
    <glyph glyph-name="uni03F2" unicode="&#x3f2;" horiz-adv-x="492" 
d="M253 1255q-28 0 -47 -19t-19 -47v-1013q0 -28 19 -47t47 -19q27 0 46.5 19t19.5 47v147h117v-147q0 -76 -53.5 -129.5t-129.5 -53.5t-129.5 53.5t-53.5 129.5v1013q0 76 53.5 129.5t129.5 53.5h183v-316h-117v199h-66z" />
    <glyph glyph-name="uni03F3" unicode="&#x3f3;" horiz-adv-x="257" 
d="M70 -160v1532h117v-1532q0 -76 -53.5 -129.5t-129.5 -53.5h-97v117h97q28 0 47 19t19 47zM70 1715h117v-172h-117v172z" />
    <glyph glyph-name="uni03F4" unicode="&#x3f4;" 
d="M70 1539q0 76 53.5 129.5t129.5 53.5t129.5 -53.5t53.5 -129.5v-1363q0 -76 -53.5 -129.5t-129.5 -53.5t-129.5 53.5t-53.5 129.5v1363zM319 1539q0 28 -19.5 47t-46.5 19q-28 0 -47 -19t-19 -47v-623h132v623zM319 799h-132v-623q0 -28 19 -47t47 -19q27 0 46.5 19
t19.5 47v623z" />
    <glyph glyph-name="uni03F5" unicode="&#x3f5;" horiz-adv-x="398" 
d="M70 1189q0 76 53.5 129.5t129.5 53.5h89v-117h-89q-28 0 -47 -19t-19 -47v-445h115v-116h-115v-445q0 -28 19 -47t47 -19h89v-117h-89q-76 0 -129.5 53.5t-53.5 129.5v1006z" />
    <glyph glyph-name="uni03F7" unicode="&#x3f7;" horiz-adv-x="497" 
d="M251 460q28 0 47 19.5t19 46.5v663q0 28 -19 47t-47 19h-64v-795h64zM187 343v-343h-117v1715h117v-343h64q76 0 129.5 -53.5t53.5 -129.5v-663q0 -76 -53.5 -129.5t-129.5 -53.5h-64z" />
    <glyph glyph-name="uni03F8" unicode="&#x3f8;" horiz-adv-x="497" 
d="M251 117q28 0 47 19.5t19 46.5v1006q0 28 -19 47t-47 19h-64v-1138h64zM187 0v-343h-117v2058h117v-343h64q76 0 129.5 -53.5t53.5 -129.5v-1006q0 -76 -53.5 -129.5t-129.5 -53.5h-64z" />
    <glyph glyph-name="uni03F9" unicode="&#x3f9;" horiz-adv-x="492" 
d="M253 1722q76 0 129.5 -53.5t53.5 -129.5v-196h-117v196q0 28 -19.5 47t-46.5 19q-28 0 -47 -19t-19 -47v-1363q0 -28 19 -47t47 -19q27 0 46.5 19t19.5 47v196h117v-196q0 -76 -53.5 -129.5t-129.5 -53.5t-129.5 53.5t-53.5 129.5v1363q0 76 53.5 129.5t129.5 53.5z" />
    <glyph glyph-name="uni03FA" unicode="&#x3fa;" horiz-adv-x="755" 
d="M568 0v1576q-60 -31 -96 -90t-36 -130h-117q0 71 -36 130t-96 90v-1576h-117v1722q95 0 176.5 -45.5t131.5 -122.5q49 77 130.5 122.5t176.5 45.5v-1722h-117z" />
    <glyph glyph-name="uni03FB" unicode="&#x3fb;" horiz-adv-x="755" 
d="M568 0v1233q-60 -31 -96 -90t-36 -130h-117q0 71 -36 130t-96 90v-1233h-117v1379q95 0 176.5 -45.5t131.5 -122.5q49 77 130.5 122.5t176.5 45.5v-1379h-117z" />
    <glyph glyph-name="uni0400" unicode="&#x400;" horiz-adv-x="398" 
d="M411 1972l-50 -106l-360 174l50 105zM70 0v1715h272v-117h-155v-682h155v-117h-155v-682h155v-117h-272z" />
    <glyph glyph-name="afii10023" unicode="&#x401;" horiz-adv-x="398" 
d="M272 2038h117v-172h-117v172zM23 2038h117v-172h-117v172zM70 0v1715h272v-117h-155v-682h155v-117h-155v-682h155v-117h-272z" />
    <glyph glyph-name="afii10051" unicode="&#x402;" horiz-adv-x="600" 
d="M281 1372h66q76 0 129.5 -53.5t53.5 -129.5v-1006q0 -76 -53.5 -129.5t-129.5 -53.5v117q27 0 46.5 19t19.5 47v1006q0 27 -19.5 46.5t-46.5 19.5h-66v-1255h-117v1598h-115v117h348v-117h-116v-226z" />
    <glyph glyph-name="afii10052" unicode="&#x403;" horiz-adv-x="417" 
d="M18 1972l360 173l50 -105l-360 -174zM187 1598v-1598h-117v1715h305v-117h-188z" />
    <glyph glyph-name="afii10053" unicode="&#x404;" horiz-adv-x="398" 
d="M187 1532v-616h155v-117h-155v-616q0 -28 19 -47t47 -19h89v-117h-89q-76 0 -129.5 53.5t-53.5 129.5v1349q0 76 53.5 129.5t129.5 53.5h89v-117h-89q-28 0 -47 -19t-19 -47z" />
    <glyph glyph-name="afii10054" unicode="&#x405;" horiz-adv-x="492" 
d="M429 176q0 -76 -53.5 -129.5t-129.5 -53.5t-129.5 53.5t-53.5 129.5v337h117v-337q0 -28 19.5 -47t46.5 -19q28 0 47 19t19 47v479l-249 409v475q0 76 53.5 129.5t129.5 53.5t129.5 -53.5t53.5 -129.5v-336h-117v336q0 28 -19 47t-47 19q-27 0 -46.5 -19t-19.5 -47v-443
l249 -408v-512z" />
    <glyph glyph-name="afii10055" unicode="&#x406;" horiz-adv-x="257" 
d="M187 0h-117v1715h117v-1715z" />
    <glyph glyph-name="afii10056" unicode="&#x407;" horiz-adv-x="257" 
d="M195 2038h117v-172h-117v172zM-54 2038h117v-172h-117v172zM187 0h-117v1715h117v-1715z" />
    <glyph glyph-name="afii10057" unicode="&#x408;" horiz-adv-x="492" 
d="M173 507v-331q0 -28 19 -47t47 -19q27 0 46.5 19t19.5 47v1539h117v-1539q0 -76 -53.5 -129.5t-129.5 -53.5t-129.5 53.5t-53.5 129.5v331h117z" />
    <glyph glyph-name="afii10058" unicode="&#x409;" horiz-adv-x="800" 
d="M232 176q0 -76 -53.5 -129.5t-129.5 -53.5v117q28 0 47 19t19 47v1539h366v-343h66q76 0 129.5 -53.5t53.5 -129.5v-1006q0 -76 -53.5 -129.5t-129.5 -53.5h-183v1598h-132v-1422zM481 1255v-1138h66q27 0 46.5 19t19.5 47v1006q0 27 -19.5 46.5t-46.5 19.5h-66z" />
    <glyph glyph-name="afii10059" unicode="&#x40a;" horiz-adv-x="755" 
d="M187 839v-839h-117v1715h117v-759h132v759h117v-343h66q76 0 129.5 -53.5t53.5 -129.5v-1006q0 -76 -53.5 -129.5t-129.5 -53.5h-183v839h-132zM436 1255v-1138h66q27 0 46.5 19t19.5 47v1006q0 27 -19.5 46.5t-46.5 19.5h-66z" />
    <glyph glyph-name="afii10060" unicode="&#x40b;" horiz-adv-x="600" 
d="M413 0v1189q0 27 -19.5 46.5t-46.5 19.5h-66v-1255h-117v1598h-115v117h348v-117h-116v-226h66q76 0 129.5 -53.5t53.5 -129.5v-1189h-117z" />
    <glyph glyph-name="afii10061" unicode="&#x40c;" 
d="M48 1972l360 173l50 -105l-360 -174zM70 0v1715h117v-708q60 31 96 90t36 130v488h117v-488q0 -105 -54.5 -192.5t-145.5 -133.5q91 -46 145.5 -133.5t54.5 -192.5v-575h-117v575q0 71 -36 130t-96 90v-795h-117z" />
    <glyph glyph-name="uni040D" unicode="&#x40d;" 
d="M458 1972l-50 -106l-360 174l50 105zM436 0h-117v1221l-132 -132v-1089h-117v1715h117v-460l132 132v328h117v-1715z" />
    <glyph glyph-name="afii10062" unicode="&#x40e;" 
d="M436 2049q0 -76 -53.5 -129.5t-129.5 -53.5t-129.5 53.5t-53.5 129.5h117q0 -28 19 -47t47 -19q27 0 46.5 19.5t19.5 46.5h117zM319 1715h117v-1356q0 -151 -107 -258.5t-259 -107.5v117q102 0 174.5 71.5t74.5 173.5q-110 37 -179.5 132.5t-69.5 214.5v1013h117v-1013
q0 -71 36 -130t96 -90v1233z" />
    <glyph glyph-name="afii10145" unicode="&#x40f;" 
d="M70 0v1715h117v-1598h132v1598h117v-1715h-124v-249h-118v249h-124z" />
    <glyph glyph-name="afii10017" unicode="&#x410;" 
d="M319 1539q0 28 -19.5 47t-46.5 19q-28 0 -47 -19t-19 -47v-705h132v705zM436 0h-117v717h-132v-717h-117v1539q0 76 53.5 129.5t129.5 53.5t129.5 -53.5t53.5 -129.5v-1539z" />
    <glyph glyph-name="afii10018" unicode="&#x411;" horiz-adv-x="499" 
d="M429 1598h-242v-641h66q76 0 129.5 -53.5t53.5 -129.5v-591q0 -76 -53.5 -129.5t-129.5 -53.5h-183v1715h359v-117zM187 117h66q27 0 46.5 19t19.5 47v591q0 27 -19.5 46.5t-46.5 19.5h-66v-723z" />
    <glyph glyph-name="afii10019" unicode="&#x412;" 
d="M187 117h66q27 0 46.5 19t19.5 47v591q0 27 -19.5 46.5t-46.5 19.5h-66v-723zM70 0v1715h183q76 0 129.5 -53.5t53.5 -129.5v-509q0 -71 -49 -125q49 -54 49 -124v-591q0 -76 -53.5 -129.5t-129.5 -53.5h-183zM253 957q27 0 46.5 19t19.5 47v509q0 28 -19.5 47t-46.5 19
h-66v-641h66z" />
    <glyph glyph-name="afii10020" unicode="&#x413;" horiz-adv-x="417" 
d="M187 1598v-1598h-117v1715h305v-117h-188z" />
    <glyph glyph-name="afii10021" unicode="&#x414;" horiz-adv-x="551" 
d="M166 -249h-117v366q28 0 47 19t19 47v1532h366v-1964h-117v249h-198v-249zM220 117h144v1481h-132v-1415q0 -34 -12 -66z" />
    <glyph glyph-name="afii10022" unicode="&#x415;" horiz-adv-x="398" 
d="M70 0v1715h272v-117h-155v-682h155v-117h-155v-682h155v-117h-272z" />
    <glyph glyph-name="afii10024" unicode="&#x416;" horiz-adv-x="755" 
d="M436 1007q60 31 96 90t36 130v488h117v-488q0 -105 -54.5 -192.5t-145.5 -133.5q91 -46 145.5 -133.5t54.5 -192.5v-575h-117v575q0 71 -36 130t-96 90v-795h-117v795q-60 -31 -96 -90t-36 -130v-575h-117v575q0 105 54.5 192.5t145.5 133.5q-91 46 -145.5 133.5
t-54.5 192.5v488h117v-488q0 -71 36 -130t96 -90v708h117v-708z" />
    <glyph glyph-name="afii10025" unicode="&#x417;" horiz-adv-x="398" 
d="M279 858q49 -53 49 -125v-550q0 -76 -53.5 -129.5t-129.5 -53.5h-89v117h89q28 0 47 19t19 47v550q0 28 -19 47t-47 19h-89v117h89q28 0 47 19t19 47v550q0 28 -19 47t-47 19h-89v117h89q76 0 129.5 -53.5t53.5 -129.5v-550q0 -72 -49 -124z" />
    <glyph glyph-name="afii10026" unicode="&#x418;" 
d="M436 0h-117v1221l-132 -132v-1089h-117v1715h117v-460l132 132v328h117v-1715z" />
    <glyph glyph-name="afii10027" unicode="&#x419;" 
d="M436 2049q0 -76 -53.5 -129.5t-129.5 -53.5t-129.5 53.5t-53.5 129.5h117q0 -28 19 -47t47 -19q27 0 46.5 19.5t19.5 46.5h117zM436 0h-117v1221l-132 -132v-1089h-117v1715h117v-460l132 132v328h117v-1715z" />
    <glyph glyph-name="afii10028" unicode="&#x41a;" 
d="M70 0v1715h117v-708q60 31 96 90t36 130v488h117v-488q0 -105 -54.5 -192.5t-145.5 -133.5q91 -46 145.5 -133.5t54.5 -192.5v-575h-117v575q0 71 -36 130t-96 90v-795h-117z" />
    <glyph glyph-name="afii10029" unicode="&#x41b;" horiz-adv-x="551" 
d="M232 176q0 -76 -53.5 -129.5t-129.5 -53.5v117q28 0 47 19t19 47v1539h366v-1715h-117v1598h-132v-1422z" />
    <glyph glyph-name="afii10030" unicode="&#x41c;" horiz-adv-x="755" 
d="M187 0h-117v1539q0 76 53.5 129.5t129.5 53.5q73 0 124 -49q52 49 125 49q76 0 129.5 -53.5t53.5 -129.5v-1539h-117v1539q0 28 -19.5 47t-46.5 19q-28 0 -47 -19t-19 -47v-1539h-117v1539q0 28 -19.5 47t-46.5 19q-28 0 -47 -19t-19 -47v-1539z" />
    <glyph glyph-name="afii10031" unicode="&#x41d;" 
d="M187 839v-839h-117v1715h117v-759h132v759h117v-1715h-117v839h-132z" />
    <glyph glyph-name="afii10032" unicode="&#x41e;" 
d="M319 1539q0 28 -19.5 47t-46.5 19q-28 0 -47 -19t-19 -47v-1363q0 -28 19 -47t47 -19q27 0 46.5 19t19.5 47v1363zM70 1539q0 76 53.5 129.5t129.5 53.5t129.5 -53.5t53.5 -129.5v-1363q0 -76 -53.5 -129.5t-129.5 -53.5t-129.5 53.5t-53.5 129.5v1363z" />
    <glyph glyph-name="afii10033" unicode="&#x41f;" 
d="M187 1598v-1598h-117v1715h366v-1715h-117v1598h-132z" />
    <glyph glyph-name="afii10034" unicode="&#x420;" horiz-adv-x="499" 
d="M253 792q28 0 47 19.5t19 46.5v674q0 28 -19 47t-47 19h-66v-806h66zM187 675v-675h-117v1715h183q76 0 129.5 -53.5t53.5 -129.5v-674q0 -76 -53.5 -129.5t-129.5 -53.5h-66z" />
    <glyph glyph-name="afii10035" unicode="&#x421;" horiz-adv-x="492" 
d="M253 1598q-28 0 -47 -19t-19 -47v-1356q0 -28 19 -47t47 -19q27 0 46.5 19t19.5 47v196h117v-196q0 -76 -53.5 -129.5t-129.5 -53.5t-129.5 53.5t-53.5 129.5v1356q0 76 53.5 129.5t129.5 53.5h183v-365h-117v248h-66z" />
    <glyph glyph-name="afii10036" unicode="&#x422;" horiz-adv-x="446" 
d="M49 1715h348v-117h-116v-1598h-117v1598h-115v117z" />
    <glyph glyph-name="afii10037" unicode="&#x423;" 
d="M319 1715h117v-1356q0 -151 -107 -258.5t-259 -107.5v117q102 0 174.5 71.5t74.5 173.5q-110 37 -179.5 132.5t-69.5 214.5v1013h117v-1013q0 -71 36 -130t96 -90v1233z" />
    <glyph glyph-name="afii10038" unicode="&#x424;" horiz-adv-x="755" 
d="M319 1715h117v-152q32 12 66 12q76 0 129.5 -53.5t53.5 -129.5v-1069q0 -76 -53.5 -129.5t-129.5 -53.5q-34 0 -66 12v-152h-117v152q-32 -12 -66 -12q-76 0 -129.5 53.5t-53.5 129.5v1069q0 76 53.5 129.5t129.5 53.5q34 0 66 -12v152zM568 1392q0 28 -19.5 47t-46.5 19
q-28 0 -47 -19t-19 -47v-1069q0 -28 19 -47t47 -19q27 0 46.5 19t19.5 47v1069zM319 323v1069q0 28 -19.5 47t-46.5 19q-28 0 -47 -19t-19 -47v-1069q0 -28 19 -47t47 -19q27 0 46.5 19t19.5 47z" />
    <glyph glyph-name="afii10039" unicode="&#x425;" 
d="M70 1715h117v-664l66 -66l66 66v664h117v-713l-101 -100l101 -100v-802h-117v753l-66 67l-66 -67v-753h-117v802l100 100l-100 100v713z" />
    <glyph glyph-name="afii10040" unicode="&#x426;" 
d="M70 0v1715h117v-1598h132v1598h117v-1715v-249h-117v249h-249z" />
    <glyph glyph-name="afii10041" unicode="&#x427;" 
d="M187 1715v-1189q0 -27 19.5 -46.5t46.5 -19.5h66v1255h117v-1715h-117v343h-66q-76 0 -129.5 53.5t-53.5 129.5v1189h117z" />
    <glyph glyph-name="afii10042" unicode="&#x428;" horiz-adv-x="755" 
d="M568 117v1598h117v-1715h-615v1715h117v-1598h132v1598h117v-1598h132z" />
    <glyph glyph-name="afii10043" unicode="&#x429;" horiz-adv-x="755" 
d="M568 117v1598h117v-1964h-117v249h-498v1715h117v-1598h132v1598h117v-1598h132z" />
    <glyph glyph-name="afii10044" unicode="&#x42a;" horiz-adv-x="617" 
d="M547 1189v-1006q0 -76 -53.5 -129.5t-129.5 -53.5h-183v1598h-132v117h249v-343h66q76 0 129.5 -53.5t53.5 -129.5zM298 117h66q27 0 46.5 19t19.5 47v1006q0 27 -19.5 46.5t-46.5 19.5h-66v-1138z" />
    <glyph glyph-name="afii10045" unicode="&#x42b;" horiz-adv-x="763" 
d="M693 0h-117v1715h117v-1715zM187 117h66q27 0 46.5 19t19.5 47v1006q0 27 -19.5 46.5t-46.5 19.5h-66v-1138zM436 1189v-1006q0 -76 -53.5 -129.5t-129.5 -53.5h-183v1715h117v-343h66q76 0 129.5 -53.5t53.5 -129.5z" />
    <glyph glyph-name="afii10046" unicode="&#x42c;" 
d="M187 117h66q27 0 46.5 19t19.5 47v1006q0 27 -19.5 46.5t-46.5 19.5h-66v-1138zM436 1189v-1006q0 -76 -53.5 -129.5t-129.5 -53.5h-183v1715h117v-343h66q76 0 129.5 -53.5t53.5 -129.5z" />
    <glyph glyph-name="afii10047" unicode="&#x42d;" horiz-adv-x="398" 
d="M211 1532q0 28 -19 47t-47 19h-89v117h89q76 0 129.5 -53.5t53.5 -129.5v-1349q0 -76 -53.5 -129.5t-129.5 -53.5h-89v117h89q28 0 47 19t19 47v616h-155v117h155v616z" />
    <glyph glyph-name="afii10048" unicode="&#x42e;" horiz-adv-x="755" 
d="M187 839v-839h-117v1715h117v-759h132v583q0 76 53.5 129.5t129.5 53.5t129.5 -53.5t53.5 -129.5v-1363q0 -76 -53.5 -129.5t-129.5 -53.5t-129.5 53.5t-53.5 129.5v663h-132zM568 1539q0 28 -19.5 47t-46.5 19q-28 0 -47 -19t-19 -47v-1363q0 -28 19 -47t47 -19
q27 0 46.5 19t19.5 47v1363z" />
    <glyph glyph-name="afii10049" unicode="&#x42f;" 
d="M253 757q-27 0 -46.5 -19.5t-19.5 -46.5v-691h-117v691q0 72 49 124q-49 54 -49 125v592q0 76 53.5 129.5t129.5 53.5h183v-1715h-117v757h-66zM253 874h66v724h-66q-27 0 -46.5 -19t-19.5 -47v-592q0 -28 19.5 -47t46.5 -19z" />
    <glyph glyph-name="afii10065" unicode="&#x430;" horiz-adv-x="499" 
d="M312 799h-66q-27 0 -46.5 -19.5t-19.5 -46.5v-550q0 -28 19.5 -47t46.5 -19h66v682zM246 1372q76 0 129.5 -53.5t53.5 -129.5v-1189h-183q-76 0 -129.5 53.5t-53.5 129.5v550q0 76 53.5 129.5t129.5 53.5h66v273q0 28 -19.5 47t-46.5 19h-97v117h97z" />
    <glyph glyph-name="afii10066" unicode="&#x431;" 
d="M319 1196q0 28 -19.5 47t-46.5 19q-28 0 -47 -19t-19 -47v-1020q0 -28 19 -47t47 -19q27 0 46.5 19t19.5 47v1020zM70 1356q0 152 107 259t259 107v-117q-100 0 -172.5 -69.5t-76.5 -168.5q32 12 66 12q76 0 129.5 -53.5t53.5 -129.5v-1020q0 -76 -53.5 -129.5
t-129.5 -53.5t-129.5 53.5t-53.5 129.5v1180z" />
    <glyph glyph-name="afii10067" unicode="&#x432;" 
d="M187 117h66q27 0 46.5 19t19.5 47v411q0 27 -19.5 46.5t-46.5 19.5h-66v-543zM70 0v1372h183q76 0 129.5 -53.5t53.5 -129.5v-346q0 -71 -49 -125q49 -54 49 -124v-411q0 -76 -53.5 -129.5t-129.5 -53.5h-183zM253 777q27 0 46.5 19.5t19.5 46.5v346q0 28 -19.5 47
t-46.5 19h-66v-478h66z" />
    <glyph glyph-name="afii10068" unicode="&#x433;" horiz-adv-x="417" 
d="M187 1255v-1255h-117v1372h305v-117h-188z" />
    <glyph glyph-name="afii10069" unicode="&#x434;" horiz-adv-x="551" 
d="M166 -249h-117v366q28 0 47 19t19 47v1189h366v-1621h-117v249h-198v-249zM220 117h144v1138h-132v-1072q0 -34 -12 -66z" />
    <glyph glyph-name="afii10070" unicode="&#x435;" 
d="M319 1196q0 28 -19 47t-47 19t-47 -19t-19 -47v-623h132v623zM253 -7q-76 0 -129.5 53.5t-53.5 129.5v1020q0 76 53.5 129.5t129.5 53.5t129.5 -53.5t53.5 -129.5v-740h-249v-280q0 -28 19 -47t47 -19q27 0 46.5 19t19.5 47v148h117v-148q0 -76 -53.5 -129.5
t-129.5 -53.5z" />
    <glyph glyph-name="afii10072" unicode="&#x436;" horiz-adv-x="755" 
d="M436 827q60 31 96 90t36 130v325h117v-325q0 -105 -54.5 -192.5t-145.5 -133.5q91 -46 145.5 -133.5t54.5 -192.5v-395h-117v395q0 71 -36 129.5t-96 90.5v-615h-117v615q-60 -32 -96 -90.5t-36 -129.5v-395h-117v395q0 105 54.5 192.5t145.5 133.5q-91 46 -145.5 133.5
t-54.5 192.5v325h117v-325q0 -71 36 -130t96 -90v545h117v-545z" />
    <glyph glyph-name="afii10073" unicode="&#x437;" horiz-adv-x="398" 
d="M279 686q49 -53 49 -124v-379q0 -76 -53.5 -129.5t-129.5 -53.5h-89v117h89q28 0 47 19t19 47v379q0 27 -19 46.5t-47 19.5h-89v116h89q28 0 47 19.5t19 46.5v379q0 28 -19 47t-47 19h-89v117h89q76 0 129.5 -53.5t53.5 -129.5v-379q0 -71 -49 -124z" />
    <glyph glyph-name="afii10074" unicode="&#x438;" 
d="M436 0h-117v944l-132 -132v-812h-117v1372h117v-394l132 132v262h117v-1372z" />
    <glyph glyph-name="afii10075" unicode="&#x439;" 
d="M436 1706q0 -76 -53.5 -129.5t-129.5 -53.5t-129.5 53.5t-53.5 129.5h117q0 -28 19 -47t47 -19q27 0 46.5 19.5t19.5 46.5h117zM436 0h-117v944l-132 -132v-812h-117v1372h117v-394l132 132v262h117v-1372z" />
    <glyph glyph-name="afii10076" unicode="&#x43a;" 
d="M70 0v1372h117v-545q60 31 96 90t36 130v325h117v-325q0 -105 -54.5 -192.5t-145.5 -133.5q91 -46 145.5 -133.5t54.5 -192.5v-395h-117v395q0 71 -36 129.5t-96 90.5v-615h-117z" />
    <glyph glyph-name="afii10077" unicode="&#x43b;" horiz-adv-x="551" 
d="M232 176q0 -76 -53.5 -129.5t-129.5 -53.5v117q28 0 47 19t19 47v1196h366v-1372h-117v1255h-132v-1079z" />
    <glyph glyph-name="afii10078" unicode="&#x43c;" horiz-adv-x="755" 
d="M187 0h-117v1196q0 76 53.5 129.5t129.5 53.5q73 0 124 -49q52 49 125 49q76 0 129.5 -53.5t53.5 -129.5v-1196h-117v1196q0 28 -19.5 47t-46.5 19q-28 0 -47 -19t-19 -47v-1196h-117v1196q0 28 -19.5 47t-46.5 19q-28 0 -47 -19t-19 -47v-1196z" />
    <glyph glyph-name="afii10079" unicode="&#x43d;" 
d="M187 660v-660h-117v1372h117v-596h132v596h117v-1372h-117v660h-132z" />
    <glyph glyph-name="afii10080" unicode="&#x43e;" 
d="M319 1196q0 28 -19.5 47t-46.5 19q-28 0 -47 -19t-19 -47v-1020q0 -28 19 -47t47 -19q27 0 46.5 19t19.5 47v1020zM70 1196q0 76 53.5 129.5t129.5 53.5t129.5 -53.5t53.5 -129.5v-1020q0 -76 -53.5 -129.5t-129.5 -53.5t-129.5 53.5t-53.5 129.5v1020z" />
    <glyph glyph-name="afii10081" unicode="&#x43f;" 
d="M187 1255v-1255h-117v1372h366v-1372h-117v1255h-132z" />
    <glyph glyph-name="afii10082" unicode="&#x440;" 
d="M187 117h66q27 0 46.5 19.5t19.5 46.5v1006q0 28 -19.5 47t-46.5 19h-66v-1138zM70 -343v1715h183q76 0 129.5 -53.5t53.5 -129.5v-1006q0 -76 -53.5 -129.5t-129.5 -53.5h-66v-343h-117z" />
    <glyph glyph-name="afii10083" unicode="&#x441;" horiz-adv-x="492" 
d="M253 1255q-28 0 -47 -19t-19 -47v-1013q0 -28 19 -47t47 -19q27 0 46.5 19t19.5 47v147h117v-147q0 -76 -53.5 -129.5t-129.5 -53.5t-129.5 53.5t-53.5 129.5v1013q0 76 53.5 129.5t129.5 53.5h183v-316h-117v199h-66z" />
    <glyph glyph-name="afii10084" unicode="&#x442;" horiz-adv-x="446" 
d="M49 1372h348v-117h-116v-1255h-117v1255h-115v117z" />
    <glyph glyph-name="afii10085" unicode="&#x443;" 
d="M319 19q-110 37 -179.5 132.5t-69.5 214.5v1006h117v-1006q0 -71 36 -130t96 -90v1226h117v-1532q0 -76 -53.5 -129.5t-129.5 -53.5h-97v117h97q27 0 46.5 19t19.5 47v179z" />
    <glyph glyph-name="afii10086" unicode="&#x444;" horiz-adv-x="755" 
d="M319 1715h117v-348q32 12 66 12q76 0 129.5 -53.5t53.5 -129.5v-1020q0 -76 -53.5 -129.5t-129.5 -53.5q-34 0 -66 12v-348h-117v348q-32 -12 -66 -12q-76 0 -129.5 53.5t-53.5 129.5v1020q0 76 53.5 129.5t129.5 53.5q34 0 66 -12v348zM568 1196q0 28 -19.5 47t-46.5 19
q-28 0 -47 -19t-19 -47v-1020q0 -28 19 -47t47 -19q27 0 46.5 19t19.5 47v1020zM319 176v1020q0 28 -19.5 47t-46.5 19q-28 0 -47 -19t-19 -47v-1020q0 -28 19 -47t47 -19q27 0 46.5 19t19.5 47z" />
    <glyph glyph-name="afii10087" unicode="&#x445;" 
d="M70 1372h117v-501l66 -66l66 66v501h117v-550l-101 -100l101 -100v-622h-117v573l-66 67l-66 -67v-573h-117v622l100 100l-100 100v550z" />
    <glyph glyph-name="afii10088" unicode="&#x446;" 
d="M70 0v1372h117v-1255h132v1255h117v-1372v-249h-117v249h-249z" />
    <glyph glyph-name="afii10089" unicode="&#x447;" 
d="M187 1372v-846q0 -27 19.5 -46.5t46.5 -19.5h66v912h117v-1372h-117v343h-66q-76 0 -129.5 53.5t-53.5 129.5v846h117z" />
    <glyph glyph-name="afii10090" unicode="&#x448;" horiz-adv-x="755" 
d="M568 117v1255h117v-1372h-615v1372h117v-1255h132v1255h117v-1255h132z" />
    <glyph glyph-name="afii10091" unicode="&#x449;" horiz-adv-x="755" 
d="M568 117v1255h117v-1372v-249h-117v249h-498v1372h117v-1255h132v1255h117v-1255h132z" />
    <glyph glyph-name="afii10092" unicode="&#x44a;" horiz-adv-x="610" 
d="M181 1255h-132v117h249v-343h66q76 0 129.5 -53.5t53.5 -129.5v-663q0 -76 -53.5 -129.5t-129.5 -53.5t-129.5 53.5t-53.5 129.5v1072zM298 183q0 -27 19 -46.5t47 -19.5q27 0 46.5 19t19.5 47v663q0 27 -19.5 46.5t-46.5 19.5h-66v-729z" />
    <glyph glyph-name="afii10093" unicode="&#x44b;" horiz-adv-x="756" 
d="M686 0h-117v1372h117v-1372zM187 117h66q27 0 46.5 19t19.5 47v663q0 27 -19.5 46.5t-46.5 19.5h-66v-795zM436 846v-663q0 -76 -53.5 -129.5t-129.5 -53.5h-183v1372h117v-343h66q76 0 129.5 -53.5t53.5 -129.5z" />
    <glyph glyph-name="afii10094" unicode="&#x44c;" horiz-adv-x="499" 
d="M187 117h66q27 0 46.5 19t19.5 47v663q0 27 -19.5 46.5t-46.5 19.5h-66v-795zM436 846v-663q0 -76 -53.5 -129.5t-129.5 -53.5h-183v1372h117v-343h66q76 0 129.5 -53.5t53.5 -129.5z" />
    <glyph glyph-name="afii10095" unicode="&#x44d;" horiz-adv-x="398" 
d="M211 1189q0 28 -19 47t-47 19h-89v117h89q76 0 129.5 -53.5t53.5 -129.5v-1006q0 -76 -53.5 -129.5t-129.5 -53.5h-89v117h89q28 0 47 19t19 47v445h-155v116h155v445z" />
    <glyph glyph-name="afii10096" unicode="&#x44e;" horiz-adv-x="755" 
d="M187 660v-660h-117v1372h117v-596h132v420q0 76 53.5 129.5t129.5 53.5t129.5 -53.5t53.5 -129.5v-1020q0 -76 -53.5 -129.5t-129.5 -53.5t-129.5 53.5t-53.5 129.5v484h-132zM568 1196q0 28 -19.5 47t-46.5 19q-28 0 -47 -19t-19 -47v-1020q0 -28 19 -47t47 -19
q27 0 46.5 19t19.5 47v1020z" />
    <glyph glyph-name="afii10097" unicode="&#x44f;" 
d="M253 594q-27 0 -46.5 -19.5t-19.5 -46.5v-528h-117v528q0 72 49 124q-49 54 -49 125v412q0 76 53.5 129.5t129.5 53.5h183v-1372h-117v594h-66zM253 711h66v544h-66q-27 0 -46.5 -19t-19.5 -47v-412q0 -28 19.5 -47t46.5 -19z" />
    <glyph glyph-name="uni0450" unicode="&#x450;" 
d="M458 1629l-50 -106l-360 174l50 105zM319 1196q0 28 -19 47t-47 19t-47 -19t-19 -47v-623h132v623zM253 -7q-76 0 -129.5 53.5t-53.5 129.5v1020q0 76 53.5 129.5t129.5 53.5t129.5 -53.5t53.5 -129.5v-740h-249v-280q0 -28 19 -47t47 -19q27 0 46.5 19t19.5 47v148h117
v-148q0 -76 -53.5 -129.5t-129.5 -53.5z" />
    <glyph glyph-name="afii10071" unicode="&#x451;" 
d="M319 1695h117v-172h-117v172zM70 1695h117v-172h-117v172zM319 1196q0 28 -19 47t-47 19t-47 -19t-19 -47v-623h132v623zM253 -7q-76 0 -129.5 53.5t-53.5 129.5v1020q0 76 53.5 129.5t129.5 53.5t129.5 -53.5t53.5 -129.5v-740h-249v-280q0 -28 19 -47t47 -19
q27 0 46.5 19t19.5 47v148h117v-148q0 -76 -53.5 -129.5t-129.5 -53.5z" />
    <glyph glyph-name="afii10099" unicode="&#x452;" 
d="M436 1189v-1349q0 -76 -53.5 -129.5t-129.5 -53.5h-97v117h97q28 0 47 19t19 47v1349q0 27 -19.5 46.5t-46.5 19.5h-66v-1255h-117v1485h-14v117h14v113h117v-113h249v-117h-249v-113h66q76 0 129.5 -53.5t53.5 -129.5z" />
    <glyph glyph-name="afii10100" unicode="&#x453;" horiz-adv-x="417" 
d="M18 1629l360 173l50 -105l-360 -174zM187 1255v-1255h-117v1372h305v-117h-188z" />
    <glyph glyph-name="afii10101" unicode="&#x454;" horiz-adv-x="398" 
d="M187 1189v-445h155v-116h-155v-445q0 -28 19 -47t47 -19h89v-117h-89q-76 0 -129.5 53.5t-53.5 129.5v1006q0 76 53.5 129.5t129.5 53.5h89v-117h-89q-28 0 -47 -19t-19 -47z" />
    <glyph glyph-name="afii10102" unicode="&#x455;" horiz-adv-x="492" 
d="M429 176q0 -76 -53.5 -129.5t-129.5 -53.5t-129.5 53.5t-53.5 129.5v147h117v-147q0 -28 19.5 -47t46.5 -19q28 0 47 19t19 47v308l-249 408v304q0 76 53.5 129.5t129.5 53.5t129.5 -53.5t53.5 -129.5v-140h-117v140q0 28 -19 47t-47 19q-27 0 -46.5 -19t-19.5 -47v-272
l249 -408v-340z" />
    <glyph glyph-name="afii10103" unicode="&#x456;" horiz-adv-x="257" 
d="M187 0h-117v1372h117v-1372zM70 1715h112v-172h-112v172z" />
    <glyph glyph-name="afii10104" unicode="&#x457;" horiz-adv-x="257" 
d="M194 1695h117v-172h-117v172zM-55 1695h117v-172h-117v172zM187 0h-117v1372h117v-1372z" />
    <glyph glyph-name="afii10105" unicode="&#x458;" horiz-adv-x="257" 
d="M70 -160v1532h117v-1532q0 -76 -53.5 -129.5t-129.5 -53.5h-97v117h97q28 0 47 19t19 47zM70 1715h117v-172h-117v172z" />
    <glyph glyph-name="afii10106" unicode="&#x459;" horiz-adv-x="793" 
d="M730 846v-663q0 -76 -53.5 -129.5t-129.5 -53.5h-183v1255h-132v-1079q0 -76 -53.5 -129.5t-129.5 -53.5v117q28 0 47 19t19 47v1196h366v-343h66q76 0 129.5 -53.5t53.5 -129.5zM481 912v-795h66q27 0 46.5 19t19.5 47v663q0 27 -19.5 46.5t-46.5 19.5h-66z" />
    <glyph glyph-name="afii10107" unicode="&#x45a;" horiz-adv-x="748" 
d="M685 846v-663q0 -76 -53.5 -129.5t-129.5 -53.5h-183v912h-132v-912h-117v1372h117v-343h132v343h117v-343h66q76 0 129.5 -53.5t53.5 -129.5zM436 117h66q27 0 46.5 19t19.5 47v663q0 27 -19.5 46.5t-46.5 19.5h-66v-795z" />
    <glyph glyph-name="afii10108" unicode="&#x45b;" 
d="M319 0v1189q0 27 -19.5 46.5t-46.5 19.5h-66v-1255h-117v1485h-14v117h14v113h117v-113h249v-117h-249v-113h66q76 0 129.5 -53.5t53.5 -129.5v-1189h-117z" />
    <glyph glyph-name="afii10109" unicode="&#x45c;" 
d="M48 1629l360 173l50 -105l-360 -174zM70 0v1372h117v-545q60 31 96 90t36 130v325h117v-325q0 -105 -54.5 -192.5t-145.5 -133.5q91 -46 145.5 -133.5t54.5 -192.5v-395h-117v395q0 71 -36 129.5t-96 90.5v-615h-117z" />
    <glyph glyph-name="uni045D" unicode="&#x45d;" 
d="M458 1629l-50 -106l-360 174l50 105zM436 0h-117v944l-132 -132v-812h-117v1372h117v-394l132 132v262h117v-1372z" />
    <glyph glyph-name="afii10110" unicode="&#x45e;" 
d="M436 1706q0 -76 -53.5 -129.5t-129.5 -53.5t-129.5 53.5t-53.5 129.5h117q0 -28 19 -47t47 -19q27 0 46.5 19.5t19.5 46.5h117zM319 19q-110 37 -179.5 132.5t-69.5 214.5v1006h117v-1006q0 -71 36 -130t96 -90v1226h117v-1532q0 -76 -53.5 -129.5t-129.5 -53.5h-97v117
h97q27 0 46.5 19t19.5 47v179z" />
    <glyph glyph-name="afii10193" unicode="&#x45f;" 
d="M70 0v1372h117v-1255h132v1255h117v-1372h-124v-249h-118v249h-124z" />
    <glyph glyph-name="afii10147" unicode="&#x472;" 
d="M70 1539q0 76 53.5 129.5t129.5 53.5t129.5 -53.5t53.5 -129.5v-1363q0 -76 -53.5 -129.5t-129.5 -53.5t-129.5 53.5t-53.5 129.5v1363zM319 1539q0 28 -19.5 47t-46.5 19q-28 0 -47 -19t-19 -47v-623h132v623zM319 799h-132v-623q0 -28 19 -47t47 -19q27 0 46.5 19
t19.5 47v623z" />
    <glyph glyph-name="uni04AE" unicode="&#x4ae;" horiz-adv-x="492" 
d="M180 1121l66 -118l66 118v594h117v-624l-125 -224v-867h-116v867l-125 224v624h117v-594z" />
    <glyph glyph-name="uni04D0" unicode="&#x4d0;" 
d="M436 2049q0 -76 -53.5 -129.5t-129.5 -53.5t-129.5 53.5t-53.5 129.5h117q0 -28 19 -47t47 -19q27 0 46.5 19.5t19.5 46.5h117zM319 1539q0 28 -19.5 47t-46.5 19q-28 0 -47 -19t-19 -47v-705h132v705zM436 0h-117v717h-132v-717h-117v1539q0 76 53.5 129.5t129.5 53.5
t129.5 -53.5t53.5 -129.5v-1539z" />
    <glyph glyph-name="uni04D1" unicode="&#x4d1;" horiz-adv-x="499" 
d="M432 1706q0 -76 -53.5 -129.5t-129.5 -53.5t-129.5 53.5t-53.5 129.5h117q0 -28 19 -47t47 -19q27 0 46.5 19.5t19.5 46.5h117zM312 799h-66q-27 0 -46.5 -19.5t-19.5 -46.5v-550q0 -28 19.5 -47t46.5 -19h66v682zM246 1372q76 0 129.5 -53.5t53.5 -129.5v-1189h-183
q-76 0 -129.5 53.5t-53.5 129.5v550q0 76 53.5 129.5t129.5 53.5h66v273q0 28 -19.5 47t-46.5 19h-97v117h97z" />
    <glyph glyph-name="uni04D2" unicode="&#x4d2;" 
d="M319 2038h117v-172h-117v172zM70 2038h117v-172h-117v172zM319 1539q0 28 -19.5 47t-46.5 19q-28 0 -47 -19t-19 -47v-705h132v705zM436 0h-117v717h-132v-717h-117v1539q0 76 53.5 129.5t129.5 53.5t129.5 -53.5t53.5 -129.5v-1539z" />
    <glyph glyph-name="uni04D3" unicode="&#x4d3;" horiz-adv-x="499" 
d="M315 1695h117v-172h-117v172zM66 1695h117v-172h-117v172zM312 799h-66q-27 0 -46.5 -19.5t-19.5 -46.5v-550q0 -28 19.5 -47t46.5 -19h66v682zM246 1372q76 0 129.5 -53.5t53.5 -129.5v-1189h-183q-76 0 -129.5 53.5t-53.5 129.5v550q0 76 53.5 129.5t129.5 53.5h66v273
q0 28 -19.5 47t-46.5 19h-97v117h97z" />
    <glyph glyph-name="uni04D4" unicode="&#x4d4;" horiz-adv-x="647" 
d="M436 117h155v-117h-155h-117v717h-132v-717h-117v1540q0 76 53.5 129.5t129.5 53.5q27 0 54 -8h284v-117h-155v-58v-624h155v-117h-155v-682zM319 834v706q0 28 -19.5 47t-46.5 19q-28 0 -47 -19t-19 -47v-706h132z" />
    <glyph glyph-name="uni04D5" unicode="&#x4d5;" horiz-adv-x="748" 
d="M180 176q0 -28 19.5 -47t46.5 -19t46.5 19t19.5 47v623h-66q-27 0 -46.5 -19.5t-19.5 -46.5v-557zM561 1196q0 28 -19 47t-47 19t-47 -19t-19 -47v-623h132v623zM429 176q0 -28 19 -47t47 -19q27 0 46.5 19t19.5 47v147h117v-147q0 -76 -53.5 -129.5t-129.5 -53.5
q-72 0 -125 49q-52 -49 -124 -49q-76 0 -129.5 53.5t-53.5 129.5v557q0 76 53.5 129.5t129.5 53.5h66v273q0 28 -19.5 47t-46.5 19h-97v117h97q69 0 121 -46q53 53 128 53q76 0 129.5 -53.5t53.5 -129.5v-740h-249v-280z" />
    <glyph glyph-name="uni04D6" unicode="&#x4d6;" horiz-adv-x="398" 
d="M389 2049q0 -76 -53.5 -129.5t-129.5 -53.5t-129.5 53.5t-53.5 129.5h117q0 -28 19 -47t47 -19q27 0 46.5 19.5t19.5 46.5h117zM70 0v1715h272v-117h-155v-682h155v-117h-155v-682h155v-117h-272z" />
    <glyph glyph-name="uni04D7" unicode="&#x4d7;" 
d="M436 1706q0 -76 -53.5 -129.5t-129.5 -53.5t-129.5 53.5t-53.5 129.5h117q0 -28 19 -47t47 -19q27 0 46.5 19.5t19.5 46.5h117zM319 1196q0 28 -19 47t-47 19t-47 -19t-19 -47v-623h132v623zM253 -7q-76 0 -129.5 53.5t-53.5 129.5v1020q0 76 53.5 129.5t129.5 53.5
t129.5 -53.5t53.5 -129.5v-740h-249v-280q0 -28 19 -47t47 -19q27 0 46.5 19t19.5 47v148h117v-148q0 -76 -53.5 -129.5t-129.5 -53.5z" />
    <glyph glyph-name="afii10846" unicode="&#x4d9;" 
d="M187 176q0 -28 19 -47t47 -19t47 19t19 47v623h-132v-623zM253 1379q76 0 129.5 -53.5t53.5 -129.5v-1020q0 -76 -53.5 -129.5t-129.5 -53.5t-129.5 53.5t-53.5 129.5v740h249v280q0 28 -19 47t-47 19q-27 0 -46.5 -19t-19.5 -47v-148h-117v148q0 76 53.5 129.5
t129.5 53.5z" />
    <glyph glyph-name="uni04DB" unicode="&#x4db;" 
d="M319 1695h117v-172h-117v172zM70 1695h117v-172h-117v172zM187 176q0 -28 19 -47t47 -19t47 19t19 47v623h-132v-623zM253 1379q76 0 129.5 -53.5t53.5 -129.5v-1020q0 -76 -53.5 -129.5t-129.5 -53.5t-129.5 53.5t-53.5 129.5v740h249v280q0 28 -19 47t-47 19
q-27 0 -46.5 -19t-19.5 -47v-148h-117v148q0 76 53.5 129.5t129.5 53.5z" />
    <glyph glyph-name="uni04DC" unicode="&#x4dc;" horiz-adv-x="755" 
d="M443 2038h117v-172h-117v172zM194 2038h117v-172h-117v172zM436 1007q60 31 96 90t36 130v488h117v-488q0 -105 -54.5 -192.5t-145.5 -133.5q91 -46 145.5 -133.5t54.5 -192.5v-575h-117v575q0 71 -36 130t-96 90v-795h-117v795q-60 -31 -96 -90t-36 -130v-575h-117v575
q0 105 54.5 192.5t145.5 133.5q-91 46 -145.5 133.5t-54.5 192.5v488h117v-488q0 -71 36 -130t96 -90v708h117v-708z" />
    <glyph glyph-name="uni04DD" unicode="&#x4dd;" horiz-adv-x="755" 
d="M443 1695h117v-172h-117v172zM194 1695h117v-172h-117v172zM436 827q60 31 96 90t36 130v325h117v-325q0 -105 -54.5 -192.5t-145.5 -133.5q91 -46 145.5 -133.5t54.5 -192.5v-395h-117v395q0 71 -36 129.5t-96 90.5v-615h-117v615q-60 -32 -96 -90.5t-36 -129.5v-395
h-117v395q0 105 54.5 192.5t145.5 133.5q-91 46 -145.5 133.5t-54.5 192.5v325h117v-325q0 -71 36 -130t96 -90v545h117v-545z" />
    <glyph glyph-name="uni04DE" unicode="&#x4de;" horiz-adv-x="398" 
d="M265 2038h117v-172h-117v172zM16 2038h117v-172h-117v172zM279 858q49 -53 49 -125v-550q0 -76 -53.5 -129.5t-129.5 -53.5h-89v117h89q28 0 47 19t19 47v550q0 28 -19 47t-47 19h-89v117h89q28 0 47 19t19 47v550q0 28 -19 47t-47 19h-89v117h89q76 0 129.5 -53.5
t53.5 -129.5v-550q0 -72 -49 -124z" />
    <glyph glyph-name="uni04DF" unicode="&#x4df;" horiz-adv-x="398" 
d="M265 1695h117v-172h-117v172zM16 1695h117v-172h-117v172zM279 686q49 -53 49 -124v-379q0 -76 -53.5 -129.5t-129.5 -53.5h-89v117h89q28 0 47 19t19 47v379q0 27 -19 46.5t-47 19.5h-89v116h89q28 0 47 19.5t19 46.5v379q0 28 -19 47t-47 19h-89v117h89
q76 0 129.5 -53.5t53.5 -129.5v-379q0 -71 -49 -124z" />
    <glyph glyph-name="uni04E2" unicode="&#x4e2;" 
d="M150 1983h206v-117h-206v117zM436 0h-117v1221l-132 -132v-1089h-117v1715h117v-460l132 132v328h117v-1715z" />
    <glyph glyph-name="uni04E3" unicode="&#x4e3;" 
d="M150 1640h206v-117h-206v117zM436 0h-117v944l-132 -132v-812h-117v1372h117v-394l132 132v262h117v-1372z" />
    <glyph glyph-name="uni04E4" unicode="&#x4e4;" 
d="M319 2038h117v-172h-117v172zM70 2038h117v-172h-117v172zM436 0h-117v1221l-132 -132v-1089h-117v1715h117v-460l132 132v328h117v-1715z" />
    <glyph glyph-name="uni04E5" unicode="&#x4e5;" 
d="M319 1695h117v-172h-117v172zM70 1695h117v-172h-117v172zM436 0h-117v944l-132 -132v-812h-117v1372h117v-394l132 132v262h117v-1372z" />
    <glyph glyph-name="uni04E6" unicode="&#x4e6;" 
d="M319 2038h117v-172h-117v172zM70 2038h117v-172h-117v172zM319 1539q0 28 -19.5 47t-46.5 19q-28 0 -47 -19t-19 -47v-1363q0 -28 19 -47t47 -19q27 0 46.5 19t19.5 47v1363zM70 1539q0 76 53.5 129.5t129.5 53.5t129.5 -53.5t53.5 -129.5v-1363q0 -76 -53.5 -129.5
t-129.5 -53.5t-129.5 53.5t-53.5 129.5v1363z" />
    <glyph glyph-name="uni04E7" unicode="&#x4e7;" 
d="M319 1695h117v-172h-117v172zM70 1695h117v-172h-117v172zM319 1196q0 28 -19.5 47t-46.5 19q-28 0 -47 -19t-19 -47v-1020q0 -28 19 -47t47 -19q27 0 46.5 19t19.5 47v1020zM70 1196q0 76 53.5 129.5t129.5 53.5t129.5 -53.5t53.5 -129.5v-1020q0 -76 -53.5 -129.5
t-129.5 -53.5t-129.5 53.5t-53.5 129.5v1020z" />
    <glyph glyph-name="uni04EC" unicode="&#x4ec;" horiz-adv-x="398" 
d="M265 2038h117v-172h-117v172zM16 2038h117v-172h-117v172zM211 1532q0 28 -19 47t-47 19h-89v117h89q76 0 129.5 -53.5t53.5 -129.5v-1349q0 -76 -53.5 -129.5t-129.5 -53.5h-89v117h89q28 0 47 19t19 47v616h-155v117h155v616z" />
    <glyph glyph-name="uni04ED" unicode="&#x4ed;" horiz-adv-x="398" 
d="M265 1695h117v-172h-117v172zM16 1695h117v-172h-117v172zM211 1189q0 28 -19 47t-47 19h-89v117h89q76 0 129.5 -53.5t53.5 -129.5v-1006q0 -76 -53.5 -129.5t-129.5 -53.5h-89v117h89q28 0 47 19t19 47v445h-155v116h155v445z" />
    <glyph glyph-name="uni04EE" unicode="&#x4ee;" 
d="M150 1983h206v-117h-206v117zM319 1715h117v-1356q0 -151 -107 -258.5t-259 -107.5v117q102 0 174.5 71.5t74.5 173.5q-110 37 -179.5 132.5t-69.5 214.5v1013h117v-1013q0 -71 36 -130t96 -90v1233z" />
    <glyph glyph-name="uni04EF" unicode="&#x4ef;" 
d="M150 1640h206v-117h-206v117zM319 19q-110 37 -179.5 132.5t-69.5 214.5v1006h117v-1006q0 -71 36 -130t96 -90v1226h117v-1532q0 -76 -53.5 -129.5t-129.5 -53.5h-97v117h97q27 0 46.5 19t19.5 47v179z" />
    <glyph glyph-name="uni04F0" unicode="&#x4f0;" 
d="M319 2038h117v-172h-117v172zM70 2038h117v-172h-117v172zM319 1715h117v-1356q0 -151 -107 -258.5t-259 -107.5v117q102 0 174.5 71.5t74.5 173.5q-110 37 -179.5 132.5t-69.5 214.5v1013h117v-1013q0 -71 36 -130t96 -90v1233z" />
    <glyph glyph-name="uni04F1" unicode="&#x4f1;" 
d="M319 1695h117v-172h-117v172zM70 1695h117v-172h-117v172zM319 19q-110 37 -179.5 132.5t-69.5 214.5v1006h117v-1006q0 -71 36 -130t96 -90v1226h117v-1532q0 -76 -53.5 -129.5t-129.5 -53.5h-97v117h97q27 0 46.5 19t19.5 47v179z" />
    <glyph glyph-name="uni0500" unicode="&#x500;" 
d="M319 1255h-66q-27 0 -46.5 -19.5t-19.5 -46.5v-1006q0 -28 19.5 -47t46.5 -19h66v1138zM436 1715v-1715h-183q-76 0 -129.5 53.5t-53.5 129.5v1006q0 76 53.5 129.5t129.5 53.5h66v343h117z" />
    <glyph glyph-name="uni0501" unicode="&#x501;" 
d="M319 1255h-66q-27 0 -46.5 -19.5t-19.5 -46.5v-1006q0 -28 19.5 -47t46.5 -19h66v1138zM436 1715v-1715h-183q-76 0 -129.5 53.5t-53.5 129.5v1006q0 76 53.5 129.5t129.5 53.5h66v343h117z" />
    <glyph glyph-name="uni051A" unicode="&#x51a;" 
d="M70 1539q0 76 53.5 129.5t129.5 53.5t129.5 -53.5t53.5 -129.5v-1363q0 -68 -46 -121l87 -87l-83 -83l-110 110q-20 -2 -31 -2q-76 0 -129.5 53.5t-53.5 129.5v1363zM319 1539q0 28 -19.5 47t-46.5 19q-28 0 -47 -19t-19 -47v-1363q0 -28 19 -47t47 -19q27 0 46.5 19
t19.5 47v1363z" />
    <glyph glyph-name="uni051B" unicode="&#x51b;" 
d="M319 1255h-66q-27 0 -46.5 -19t-19.5 -47v-1006q0 -27 19.5 -46.5t46.5 -19.5h66v1138zM70 183v1006q0 76 53.5 129.5t129.5 53.5h183v-1715h-117v343h-66q-76 0 -129.5 53.5t-53.5 129.5z" />
    <glyph glyph-name="uni051C" unicode="&#x51c;" horiz-adv-x="755" 
d="M568 1715h117v-1539q0 -76 -53.5 -129.5t-129.5 -53.5q-73 0 -125 49q-51 -49 -124 -49q-76 0 -129.5 53.5t-53.5 129.5v1539h117v-1539q0 -28 19 -47t47 -19q27 0 46.5 19t19.5 47v1539h117v-1539q0 -28 19 -47t47 -19q27 0 46.5 19t19.5 47v1539z" />
    <glyph glyph-name="uni051D" unicode="&#x51d;" horiz-adv-x="755" 
d="M568 1372h117v-1196q0 -76 -53.5 -129.5t-129.5 -53.5q-73 0 -125 49q-51 -49 -124 -49q-76 0 -129.5 53.5t-53.5 129.5v1196h117v-1196q0 -28 19 -47t47 -19q27 0 46.5 19t19.5 47v1196h117v-1196q0 -28 19 -47t47 -19q27 0 46.5 19t19.5 47v1196z" />
    <glyph glyph-name="afii57664" unicode="&#x5d0;" 
d="M436 882q0 -46 -21 -85.5t-58 -64.5l79 -130v-602h-117v569l-122 201q-10 -16 -10 -35v-735h-117v735q0 84 64 139l-64 104v566h117v-534l109 -178q23 20 23 50v668q48 0 82.5 -34t34.5 -82v-552z" />
    <glyph glyph-name="afii57665" unicode="&#x5d1;" horiz-adv-x="492" 
d="M56 1544h183q76 0 129.5 -54t53.5 -130v-1243h14v-117h-380v117h249v1243q0 28 -19 47t-47 19h-183v118z" />
    <glyph glyph-name="afii57666" unicode="&#x5d2;" horiz-adv-x="499" 
d="M180 594v-594h-117v627l249 409v168q0 71 -36 129.5t-96 90.5v126q110 -37 179.5 -132t69.5 -214v-1204h-117v811z" />
    <glyph glyph-name="afii57667" unicode="&#x5d3;" horiz-adv-x="478" 
d="M291 0v1426h-249v118h380v-118h-14v-1426h-117z" />
    <glyph glyph-name="afii57668" unicode="&#x5d4;" 
d="M187 0h-117v1029h117v-1029zM319 0v1360q0 28 -19 47t-47 19h-183v118h183q76 0 129.5 -54t53.5 -130v-1360h-117z" />
    <glyph glyph-name="afii57669" unicode="&#x5d5;" horiz-adv-x="361" 
d="M42 1550q110 -37 179.5 -132t69.5 -214v-1204h-117v1204q0 71 -36 129.5t-96 90.5v126z" />
    <glyph glyph-name="afii57670" unicode="&#x5d6;" horiz-adv-x="464" 
d="M42 1426v118h380v-127q-60 -32 -96 -90.5t-36 -129.5v-1197h-117v1197q0 129 81 229h-212z" />
    <glyph glyph-name="afii57671" unicode="&#x5d7;" 
d="M319 0v1360q0 28 -19 47t-47 19h-66v-1426h-117v1544h183q76 0 129.5 -54t53.5 -130v-1360h-117z" />
    <glyph glyph-name="afii57672" unicode="&#x5d8;" 
d="M187 176q0 -28 19 -47t47 -19q27 0 46.5 19t19.5 47v1192q0 27 -19.5 46.5t-46.5 19.5v116q76 0 129.5 -53.5t53.5 -128.5v-1192q0 -76 -53.5 -129.5t-129.5 -53.5t-129.5 53.5t-53.5 129.5v1318q48 0 82.5 -34t34.5 -82v-1202z" />
    <glyph glyph-name="afii57673" unicode="&#x5d9;" horiz-adv-x="361" 
d="M188 1029v331q0 28 -19 47t-47 19h-66v118h66q76 0 129.5 -54t53.5 -130v-331h-117z" />
    <glyph glyph-name="afii57674" unicode="&#x5da;" horiz-adv-x="478" 
d="M291 -343v1703q0 28 -19 47t-47 19h-183v118h183q76 0 129.5 -54t53.5 -130v-1703h-117z" />
    <glyph glyph-name="afii57675" unicode="&#x5db;" horiz-adv-x="492" 
d="M239 117q28 0 47 19t19 47v1177q0 28 -19 47t-47 19h-183v118h183q76 0 129.5 -54t53.5 -130v-1177q0 -76 -53.5 -129.5t-129.5 -53.5h-183v117h183z" />
    <glyph glyph-name="afii57676" unicode="&#x5dc;" horiz-adv-x="492" 
d="M187 640l125 224v562h-249v289h117v-171h249v-710l-125 -224v-610h-117v640z" />
    <glyph glyph-name="afii57677" unicode="&#x5dd;" 
d="M187 1426v-1309h132v1243q0 28 -19 47t-47 19h-66zM70 1426h-14v118h197q76 0 129.5 -54t53.5 -130v-1360h-366v1426z" />
    <glyph glyph-name="afii57678" unicode="&#x5de;" 
d="M70 1426h-14v118h14q43 0 76 -28q48 34 107 34q76 0 129.5 -53.5t53.5 -128.5l-2 -1368h-364v117h247l2 1251q0 27 -19.5 46.5t-46.5 19.5q-28 0 -47 -19.5t-19 -46.5v-908q0 -48 -34.5 -82.5t-82.5 -34.5v1083z" />
    <glyph glyph-name="afii57679" unicode="&#x5df;" horiz-adv-x="361" 
d="M42 1550q110 -37 179.5 -132t69.5 -214v-1547h-117v1547q0 71 -36 129.5t-96 90.5v126z" />
    <glyph glyph-name="afii57680" unicode="&#x5e0;" horiz-adv-x="478" 
d="M159 1550q110 -37 179.5 -132t69.5 -214v-1204h-366v117h249v1087q0 71 -36 129.5t-96 90.5v126z" />
    <glyph glyph-name="afii57681" unicode="&#x5e1;" 
d="M253 1544q76 0 129.5 -54t53.5 -130v-1184q0 -76 -53.5 -129.5t-129.5 -53.5t-129.5 53.5t-53.5 129.5v1250h-14v118h197zM187 1426v-1250q0 -28 19 -47t47 -19q27 0 46.5 19t19.5 47v1184q0 28 -19.5 47t-46.5 19h-66z" />
    <glyph glyph-name="afii57682" unicode="&#x5e2;" 
d="M436 366q0 -152 -107 -259t-259 -107h-14v117h14v1427h117v-1398q60 31 96 90t36 130v1184q48 0 82.5 -34t34.5 -82v-1068z" />
    <glyph glyph-name="afii57683" unicode="&#x5e3;" 
d="M253 343q-76 0 -129.5 53.5t-53.5 129.5v900h-14v118h197q76 0 129.5 -54t53.5 -130v-1703h-117v1703q0 28 -19 47t-47 19h-66v-900q0 -28 19 -47t47 -19v-117z" />
    <glyph glyph-name="afii57684" unicode="&#x5e4;" 
d="M253 117q28 0 47 19t19 47v1177q0 28 -19 47t-47 19h-66v-900q0 -28 19 -47t47 -19v-117q-76 0 -129.5 53.5t-53.5 129.5v900h-14v118h197q76 0 129.5 -54t53.5 -130v-1177q0 -76 -53.5 -129.5t-129.5 -53.5h-183v117h183z" />
    <glyph glyph-name="afii57685" unicode="&#x5e5;" 
d="M436 366q0 -119 -69.5 -214.5t-179.5 -132.5v-362h-117v1887h117v-1398q60 31 96 90t36 130v1184q48 0 82.5 -34t34.5 -82v-1068z" />
    <glyph glyph-name="afii57686" unicode="&#x5e6;" horiz-adv-x="499" 
d="M429 902q0 -79 -57 -133l57 -57v-712h-366v117h249v546l-249 249v632h117v-583l109 -109q23 20 23 50v648q48 0 82.5 -34t34.5 -82v-532z" />
    <glyph glyph-name="afii57687" unicode="&#x5e7;" 
d="M319 1360q0 28 -19.5 47t-46.5 19h-183v118h183q76 0 129.5 -54t53.5 -130v-1001q0 -100 -50 -184.5t-133 -132.5v148q66 71 66 169v1001zM187 -343h-117v1372h117v-1372z" />
    <glyph glyph-name="afii57688" unicode="&#x5e8;" horiz-adv-x="478" 
d="M291 0v1360q0 28 -19 47t-47 19h-183v118h183q76 0 129.5 -54t53.5 -130v-1360h-117z" />
    <glyph glyph-name="afii57689" unicode="&#x5e9;" horiz-adv-x="755" 
d="M685 306q0 -127 -89.5 -216.5t-215.5 -89.5h-310v1544h117v-1084h66q28 0 47 19t19 47v1018h117v-1018q0 -76 -53.5 -129.5t-129.5 -53.5h-66v-226h193q78 0 133 55t55 134v1244q48 0 82.5 -34t34.5 -82v-1128z" />
    <glyph glyph-name="afii57690" unicode="&#x5ea;" horiz-adv-x="558" 
d="M239 183q0 -76 -53.5 -129.5t-129.5 -53.5v117q28 0 47 19t19 47v1361h183q76 0 129.5 -54t53.5 -130v-1360h-117v1360q0 28 -19 47t-47 19h-66v-1243z" />
    <glyph glyph-name="afii57399" unicode="&#x667;" 
d="M319 1715h117v-1722q-152 0 -259 107.5t-107 258.5v1356h117v-1356q0 -71 36 -130t96 -90v1576z" />
    <glyph glyph-name="uni06F7" unicode="&#x6f7;" 
d="M319 1715h117v-1722q-152 0 -259 107.5t-107 258.5v1356h117v-1356q0 -71 36 -130t96 -90v1576z" />
    <glyph glyph-name="uni07C7" unicode="&#x7c7;" horiz-adv-x="499" 
d="M436 1029v-621l-249 -408h-117v1715h117v-1491l132 217v588h117z" />
    <glyph glyph-name="uni096D" unicode="&#x96d;" horiz-adv-x="754" 
d="M318 1539q0 76 53.5 129.5t129.5 53.5t129.5 -53.5t53.5 -129.5v-1239q0 -128 -90 -217.5t-217 -89.5t-217 90t-90 217v1415h117v-1415q0 -79 55.5 -134.5t134.5 -55.5t134.5 55.5t55.5 134.5v391q-32 -12 -66 -12q-76 0 -129.5 53.5t-53.5 129.5v677zM567 1539
q0 28 -19.5 47t-46.5 19q-28 0 -47 -19t-19 -47v-677q0 -28 19 -47t47 -19q27 0 46.5 19t19.5 47v677z" />
    <glyph glyph-name="uni09ED" unicode="&#x9ed;" horiz-adv-x="499" 
d="M312 0v754h-66q-76 0 -129.5 53.5t-53.5 129.5v602q0 76 53.5 129.5t129.5 53.5t129.5 -53.5t53.5 -129.5v-1539h-117zM312 871v668q0 28 -19.5 47t-46.5 19q-28 0 -47 -19t-19 -47v-602q0 -27 19 -46.5t47 -19.5h66z" />
    <glyph glyph-name="uni0A6D" unicode="&#xa6d;" horiz-adv-x="499" 
d="M246 1722q76 0 129.5 -53.5t53.5 -129.5v-1180q1 -151 -106.5 -258.5t-259.5 -107.5v117q103 0 176 73t73 176v1180q0 28 -19.5 47t-46.5 19t-46.5 -19t-19.5 -47v-196h-117v196q0 76 53.5 129.5t129.5 53.5z" />
    <glyph glyph-name="uni0AED" unicode="&#xaed;" horiz-adv-x="747" 
d="M311 1539q0 76 53.5 129.5t129.5 53.5t129.5 -53.5t53.5 -129.5v-1239q0 -128 -89.5 -217.5t-217.5 -89.5q-127 0 -217 90t-90 217v729h117v-729q0 -79 55.5 -134.5t134.5 -55.5t134.5 55.5t55.5 134.5v391q-32 -12 -66 -12q-76 0 -129.5 53.5t-53.5 129.5v677zM560 1539
q0 28 -19.5 47t-46.5 19q-28 0 -47 -19t-19 -47v-677q0 -28 19 -47t47 -19q27 0 46.5 19t19.5 47v677z" />
    <glyph glyph-name="uni0B6D" unicode="&#xb6d;" horiz-adv-x="755" 
d="M567 1415q0 79 -55.5 134.5t-134.5 55.5t-134.5 -55.5t-55.5 -134.5v-48q32 12 66 12q76 0 129.5 -53.5t53.5 -129.5v-677q0 -76 -53.5 -129.5t-129.5 -53.5t-129.5 53.5t-53.5 129.5v896q0 127 90 217t217 90t217 -90t90 -217l1 -807q0 -167 -82.5 -308.5t-224 -224
t-308.5 -82.5v117q101 0 193.5 39.5t159 106t106 159t39.5 193.5zM187 519q0 -28 19.5 -47t46.5 -19q28 0 47 19t19 47v677q0 28 -19 47t-47 19q-27 0 -46.5 -19t-19.5 -47v-677z" />
    <glyph glyph-name="uni0D6D" unicode="&#xd6d;" horiz-adv-x="755" 
d="M567 1415q0 79 -55.5 134.5t-134.5 55.5t-134.5 -55.5t-55.5 -134.5v-48q32 12 66 12q76 0 129.5 -53.5t53.5 -129.5v-677q0 -76 -53.5 -129.5t-129.5 -53.5t-129.5 53.5t-53.5 129.5v896q0 127 90 217t217 90t217 -90t90 -217l1 -807q0 -167 -82.5 -308.5t-224 -224
t-308.5 -82.5v117q101 0 193.5 39.5t159 106t106 159t39.5 193.5zM187 519q0 -28 19.5 -47t46.5 -19q28 0 47 19t19 47v677q0 28 -19 47t-47 19q-27 0 -46.5 -19t-19.5 -47v-677z" />
    <glyph glyph-name="uni1047" unicode="&#x1047;" horiz-adv-x="733" 
d="M553 513h117v-337q0 -76 -53.5 -129.5t-129.5 -53.5t-129.5 53.5t-53.5 129.5v512l249 408v319q0 79 -55.5 134.5t-134.5 55.5t-134.5 -55.5t-55.5 -134.5v-212h-117v212q0 127 90 217t217 90t217 -90t90 -217v-351l-249 -409v-479q0 -28 19.5 -47t46.5 -19q28 0 47 19
t19 47v337z" />
    <glyph glyph-name="uni1097" unicode="&#x1097;" horiz-adv-x="440" 
d="M260 1598h-197v117h314v-656l-197 -387v-555h197v-117h-314v700l197 387v511z" />
    <glyph glyph-name="uni1D79" unicode="&#x1d79;" horiz-adv-x="492" 
d="M49 1255v117h380v-117h-183q-28 0 -47 -19t-19 -47v-553q0 -28 19 -47t47 -19q76 0 129.5 -54t53.5 -130v-553q0 -76 -53.5 -129.5t-129.5 -53.5t-129.5 53.5t-53.5 129.5v147h117v-147q0 -28 19 -47t47 -19q27 0 46.5 19t19.5 47v553q0 28 -19.5 47t-46.5 19
q-76 0 -129.5 54t-53.5 130v553q0 34 12 66h-26z" />
    <glyph glyph-name="uni2002" unicode="&#x2002;" 
 />
    <glyph glyph-name="uni2003" unicode="&#x2003;" horiz-adv-x="755" 
 />
    <glyph glyph-name="uni2004" unicode="&#x2004;" horiz-adv-x="252" 
 />
    <glyph glyph-name="uni2005" unicode="&#x2005;" horiz-adv-x="189" 
 />
    <glyph glyph-name="uni2006" unicode="&#x2006;" horiz-adv-x="126" 
 />
    <glyph glyph-name="uni2007" unicode="&#x2007;" horiz-adv-x="493" 
 />
    <glyph glyph-name="uni2008" unicode="&#x2008;" horiz-adv-x="238" 
 />
    <glyph glyph-name="uni2009" unicode="&#x2009;" horiz-adv-x="151" 
 />
    <glyph glyph-name="uni200A" unicode="&#x200a;" horiz-adv-x="76" 
 />
    <glyph glyph-name="uni200B" unicode="&#x200b;" horiz-adv-x="1" 
 />
    <glyph glyph-name="afii61664" unicode="&#x200c;" horiz-adv-x="1" 
 />
    <glyph glyph-name="afii301" unicode="&#x200d;" horiz-adv-x="1" 
 />
    <glyph glyph-name="uni2010" unicode="&#x2010;" horiz-adv-x="263" 
d="M42 1054h179v-117h-179v117z" />
    <glyph glyph-name="uni2011" unicode="&#x2011;" horiz-adv-x="263" 
d="M42 1054h179v-117h-179v117z" />
    <glyph glyph-name="figuredash" unicode="&#x2012;" horiz-adv-x="465" 
d="M42 1054h381v-117h-381v117z" />
    <glyph glyph-name="endash" unicode="&#x2013;" horiz-adv-x="478" 
d="M42 1054h394v-117h-394v117z" />
    <glyph glyph-name="emdash" unicode="&#x2014;" horiz-adv-x="727" 
d="M42 1054h643v-117h-643v117z" />
    <glyph glyph-name="quoteleft" unicode="&#x2018;" horiz-adv-x="362" 
d="M215 1312l105 50l-173 360l-105 -50z" />
    <glyph glyph-name="quoteright" unicode="&#x2019;" horiz-adv-x="362" 
d="M147 1312l-105 50l173 360l105 -50z" />
    <glyph glyph-name="quotedblleft" unicode="&#x201c;" horiz-adv-x="620" 
d="M473 1312l105 50l-173 360l-105 -50zM215 1312l105 50l-173 360l-105 -50z" />
    <glyph glyph-name="quotedblright" unicode="&#x201d;" horiz-adv-x="620" 
d="M405 1312l-105 50l173 360l105 -50zM147 1312l-105 50l173 360l105 -50z" />
    <glyph glyph-name="dagger" unicode="&#x2020;" horiz-adv-x="432" 
d="M274 1715v-226h116v-117h-116v-1020h-117v1020h-115v117h115v226h117z" />
    <glyph glyph-name="daggerdbl" unicode="&#x2021;" horiz-adv-x="446" 
d="M281 352h-116h-1v226h-115v117h115v677h-115v117h115v226h1h116h1v-226h115v-117h-115v-677h115v-117h-115v-226h-1z" />
    <glyph glyph-name="bullet" unicode="&#x2022;" horiz-adv-x="478" 
d="M56.4434 857.079q0 37.1279 14.5098 71.0557q14.5098 33.9268 38.9414 58.3584q24.4316 24.4326 58.3594 38.9424q33.9268 14.5098 71.0547 14.5098t71.0547 -14.5098q33.9277 -14.5098 58.4668 -38.9424q24.5381 -24.4316 39.0479 -58.3584
q14.5098 -33.9277 14.5098 -71.0557q0 -35.8477 -13.4424 -68.708q-13.4434 -32.8604 -36.3818 -57.0791q-22.9385 -24.2178 -54.7314 -39.4746t-67.2148 -17.3906v142.323q38.1953 4.26758 64.0137 32.9678q25.8193 28.6992 25.8193 67.5342q0 41.8223 -29.6592 71.4824
q-29.6602 29.6592 -71.4824 29.6592t-71.2686 -29.5527q-29.4463 -29.5537 -29.873 -71.5889q0 -38.835 25.9258 -67.5342q25.9248 -28.7002 64.1201 -32.9678v-142.323q-35.4209 2.13379 -67.2148 17.3906q-31.793 15.2568 -54.7314 39.4746
q-22.9385 24.2188 -36.3809 57.0791t-13.4424 68.708zM155.451 917.252q0 34.7812 24.5381 59.3193t59.3193 24.5381t59.4258 -24.5381q24.6455 -24.5381 24.6455 -59.3193t-24.6455 -59.3193q-24.6445 -24.5381 -59.4258 -24.5381t-59.3193 24.5381t-24.5381 59.3193z" />
    <glyph glyph-name="ellipsis" unicode="&#x2026;" horiz-adv-x="603" 
d="M444 172h117v-172h-117v172zM243 172h117v-172h-117v172zM42 172h117v-172h-117v172z" />
    <glyph glyph-name="uni202F" unicode="&#x202f;" horiz-adv-x="151" 
 />
    <glyph glyph-name="perthousand" unicode="&#x2030;" horiz-adv-x="1071" 
d="M832 150q0 -14 10 -23.5t23 -9.5t23 9.5t10 23.5v400q0 14 -10 23.5t-23 9.5t-23 -9.5t-10 -23.5v-400zM865 700q62 0 106 -44t44 -106v-400q0 -62 -44 -106t-106 -44t-106 44t-44 106v400q0 62 44 106t106 44zM466 150q0 -14 10 -23.5t23 -9.5t23 9.5t10 23.5v400
q0 14 -10 23.5t-23 9.5t-23 -9.5t-10 -23.5v-400zM499 700q62 0 106 -44t44 -106v-400q0 -62 -44 -106t-106 -44t-106 44t-44 106v400q0 62 44 106t106 44zM245 1565q0 14 -9.5 23.5t-22.5 9.5q-14 0 -23.5 -9.5t-9.5 -23.5v-400q0 -14 9.5 -23.5t23.5 -9.5q13 0 22.5 9.5
t9.5 23.5v400zM362 1598v-433q0 -62 -43.5 -106t-105.5 -44t-106 44t-44 106v400q0 62 44 106t106 44h397v-495l-430 -826v-395h-117v424l431 825v350h-132z" />
    <glyph glyph-name="uni2031" unicode="&#x2031;" horiz-adv-x="1437" 
d="M1198 150q0 -14 10 -23.5t23 -9.5t23 9.5t10 23.5v400q0 14 -10 23.5t-23 9.5t-23 -9.5t-10 -23.5v-400zM1231 700q62 0 106 -44t44 -106v-400q0 -62 -44 -106t-106 -44t-106 44t-44 106v400q0 62 44 106t106 44zM832 150q0 -14 10 -23.5t23 -9.5t23 9.5t10 23.5v400
q0 14 -10 23.5t-23 9.5t-23 -9.5t-10 -23.5v-400zM865 700q62 0 106 -44t44 -106v-400q0 -62 -44 -106t-106 -44t-106 44t-44 106v400q0 62 44 106t106 44zM466 150q0 -14 10 -23.5t23 -9.5t23 9.5t10 23.5v400q0 14 -10 23.5t-23 9.5t-23 -9.5t-10 -23.5v-400zM499 700
q62 0 106 -44t44 -106v-400q0 -62 -44 -106t-106 -44t-106 44t-44 106v400q0 62 44 106t106 44zM245 1565q0 14 -9.5 23.5t-22.5 9.5q-14 0 -23.5 -9.5t-9.5 -23.5v-400q0 -14 9.5 -23.5t23.5 -9.5q13 0 22.5 9.5t9.5 23.5v400zM362 1598v-433q0 -62 -43.5 -106t-105.5 -44
t-106 44t-44 106v400q0 62 44 106t106 44h397v-495l-430 -826v-395h-117v424l431 825v350h-132z" />
    <glyph glyph-name="minute" unicode="&#x2032;" horiz-adv-x="362" 
d="M147 1510l-105 50l173 360l105 -50z" />
    <glyph glyph-name="second" unicode="&#x2033;" horiz-adv-x="620" 
d="M405 1510l-105 50l173 360l105 -50zM147 1510l-105 50l173 360l105 -50z" />
    <glyph glyph-name="uni2034" unicode="&#x2034;" horiz-adv-x="878" 
d="M663 1510l-105 50l173 360l105 -50zM147 1510l-105 50l173 360l105 -50zM405 1510l-105 50l173 360l105 -50z" />
    <glyph glyph-name="uni2035" unicode="&#x2035;" horiz-adv-x="362" 
d="M215 1510l105 50l-173 360l-105 -50z" />
    <glyph glyph-name="uni2036" unicode="&#x2036;" horiz-adv-x="620" 
d="M215 1510l105 50l-173 360l-105 -50zM473 1510l105 50l-173 360l-105 -50z" />
    <glyph glyph-name="uni2037" unicode="&#x2037;" horiz-adv-x="878" 
d="M215 1510l105 50l-173 360l-105 -50zM731 1510l105 50l-173 360l-105 -50zM473 1510l105 50l-173 360l-105 -50z" />
    <glyph glyph-name="guilsinglleft" unicode="&#x2039;" horiz-adv-x="356" 
d="M300 706l-82 -82l-176 175l176 176l82 -82l-93 -94z" />
    <glyph glyph-name="guilsinglright" unicode="&#x203a;" horiz-adv-x="356" 
d="M56 893l82 82l176 -175l-176 -176l-82 82l93 94z" />
    <glyph glyph-name="exclamdbl" unicode="&#x203c;" horiz-adv-x="532" 
d="M336 352v1363h126v-1363h-126zM336 172h126v-172h-126v172zM70 352v1363h126v-1363h-126zM70 172h126v-172h-126v172z" />
    <glyph glyph-name="uni203D" unicode="&#x203d;" horiz-adv-x="499" 
d="M319 1540q0 28 -19.5 47t-46.5 19q-28 0 -47 -19t-19 -47v-198h-117v198q0 76 53.5 129.5t129.5 53.5t129.5 -53.5t53.5 -129.5v-600l-249 -249v-339h-117v810h117v-301l132 132v547zM70 172h117v-172h-117v172z" />
    <glyph glyph-name="uni2042" unicode="&#x2042;" horiz-adv-x="951" 
d="M828 472l61 -76l-82 -66l102 -23l-21 -96l-103 23l46 -94l-89 -43l-45 95l-46 -95l-88 43l45 94l-102 -23l-22 96l102 23l-82 66l61 76l83 -65v105h98v-105zM386 472l61 -76l-82 -66l102 -23l-21 -96l-103 23l46 -94l-89 -43l-45 95l-46 -95l-88 43l45 94l-102 -23
l-22 96l102 23l-82 66l61 76l83 -65v105h98v-105zM607 1577l61 -76l-82 -66l102 -23l-21 -96l-103 23l46 -94l-89 -43l-45 95l-46 -95l-88 43l45 94l-102 -23l-22 96l102 23l-82 66l61 76l83 -65v105h98v-105z" />
    <glyph glyph-name="fraction" unicode="&#x2044;" horiz-adv-x="491" 
d="M63 245v511l249 249v465h117v-513l-249 -249v-463h-117z" />
    <glyph glyph-name="uni2047" unicode="&#x2047;" horiz-adv-x="963" 
d="M656 172h126v-172h-126v172zM790 1539q0 28 -19.5 47t-46.5 19q-28 0 -47 -19t-19 -47v-197h-117v197q0 76 53.5 129.5t129.5 53.5t129.5 -53.5t53.5 -129.5l-1 -662l-124 -124v-401h-126v449l134 125v613zM171 172h126v-172h-126v172zM305 1539q0 28 -19.5 47t-46.5 19
q-28 0 -47 -19t-19 -47v-197h-117v197q0 76 53.5 129.5t129.5 53.5t129.5 -53.5t53.5 -129.5l-1 -662l-124 -124v-401h-126v449l134 125v613z" />
    <glyph glyph-name="uni2048" unicode="&#x2048;" horiz-adv-x="751" 
d="M555 352v1363h126v-1363h-126zM555 172h126v-172h-126v172zM171 172h126v-172h-126v172zM305 1539q0 28 -19.5 47t-46.5 19q-28 0 -47 -19t-19 -47v-197h-117v197q0 76 53.5 129.5t129.5 53.5t129.5 -53.5t53.5 -129.5l-1 -662l-124 -124v-401h-126v449l134 125v613z" />
    <glyph glyph-name="uni2049" unicode="&#x2049;" horiz-adv-x="751" 
d="M437 172h126v-172h-126v172zM571 1539q0 28 -19.5 47t-46.5 19q-28 0 -47 -19t-19 -47v-197h-117v197q0 76 53.5 129.5t129.5 53.5t129.5 -53.5t53.5 -129.5l-1 -662l-124 -124v-401h-126v449l134 125v613zM70 352v1363h126v-1363h-126zM70 172h126v-172h-126v172z" />
    <glyph glyph-name="uni204B" unicode="&#x204b;" horiz-adv-x="681" 
d="M428 971q76 0 129.5 53.5t53.5 129.5v378q0 76 -53.5 129.5t-129.5 53.5h-365v-1715h117v1598h132v-1598h116v971z" />
    <glyph glyph-name="uni204E" unicode="&#x204e;" horiz-adv-x="509" 
d="M386 374l61 -76l-82 -66l102 -23l-21 -96l-103 23l46 -94l-89 -43l-45 95l-46 -95l-88 43l45 94l-102 -23l-22 96l102 23l-82 66l61 76l83 -65v105h98v-105z" />
    <glyph glyph-name="uni2051" unicode="&#x2051;" horiz-adv-x="537" 
d="M400 717l61 -76l-82 -66l102 -23l-21 -96l-103 23l46 -94l-89 -43l-45 95l-46 -95l-88 43l45 94l-102 -23l-22 96l102 23l-82 66l61 76l83 -65v105h98v-105zM400 1332l61 -76l-82 -66l102 -23l-21 -96l-103 23l46 -94l-89 -43l-45 95l-46 -95l-88 43l45 94l-102 -23
l-22 96l102 23l-82 66l61 76l83 -65v105h98v-105z" />
    <glyph glyph-name="uni2057" unicode="&#x2057;" horiz-adv-x="1136" 
d="M921 1510l-105 50l173 360l105 -50zM405 1510l-105 50l173 360l105 -50zM147 1510l-105 50l173 360l105 -50zM663 1510l-105 50l173 360l105 -50z" />
    <glyph glyph-name="uni205A" unicode="&#x205a;" horiz-adv-x="229" 
d="M56 1068h117v-172h-117v172zM56 172h117v-172h-117v172z" />
    <glyph glyph-name="uni205F" unicode="&#x205f;" horiz-adv-x="168" 
 />
    <glyph glyph-name="uni2070" unicode="&#x2070;" 
d="M319 1882q0 28 -19.5 47t-46.5 19q-28 0 -47 -19t-19 -47v-677q0 -28 19 -47t47 -19q27 0 46.5 19t19.5 47v677zM70 1882q0 76 53.5 129.5t129.5 53.5t129.5 -53.5t53.5 -129.5v-677q0 -76 -53.5 -129.5t-129.5 -53.5t-129.5 53.5t-53.5 129.5v677z" />
    <glyph glyph-name="uni2071" unicode="&#x2071;" horiz-adv-x="257" 
d="M187 1029h-117v784h117v-784zM70 2156h112v-172h-112v172z" />
    <glyph glyph-name="uni2077" unicode="&#x2077;" horiz-adv-x="466" 
d="M293 1941h-237v117h354v-225l-163 -395v-409h-117v432l163 396v84z" />
    <glyph glyph-name="uni207D" unicode="&#x207d;" horiz-adv-x="309" 
d="M70 1924q0 76 53.5 129.5t129.5 53.5v-117q-28 0 -47 -19t-19 -47v-908q0 -28 19 -47t47 -19v-117q-76 0 -129.5 53.5t-53.5 129.5v908z" />
    <glyph glyph-name="uni207E" unicode="&#x207e;" horiz-adv-x="309" 
d="M239 1016q0 -76 -53.5 -129.5t-129.5 -53.5v117q27 0 46.5 19t19.5 47v908q0 28 -19.5 47t-46.5 19v117q76 0 129.5 -53.5t53.5 -129.5v-908z" />
    <glyph glyph-name="uni207F" unicode="&#x207f;" 
d="M187 1029h-117v791q152 0 259 -107t107 -259v-425h-117v425q0 71 -36 130t-96 90v-645z" />
    <glyph glyph-name="uni2080" unicode="&#x2080;" 
d="M319 510q0 28 -19.5 47t-46.5 19q-28 0 -47 -19t-19 -47v-677q0 -28 19 -47t47 -19q27 0 46.5 19t19.5 47v677zM70 510q0 76 53.5 129.5t129.5 53.5t129.5 -53.5t53.5 -129.5v-677q0 -76 -53.5 -129.5t-129.5 -53.5t-129.5 53.5t-53.5 129.5v677z" />
    <glyph glyph-name="uni2081" unicode="&#x2081;" horiz-adv-x="344" 
d="M56 508l232 185v-1036h-117v794l-42 -34z" />
    <glyph glyph-name="uni2087" unicode="&#x2087;" horiz-adv-x="466" 
d="M293 569h-237v117h354v-225l-163 -395v-409h-117v432l163 396v84z" />
    <glyph glyph-name="uni208D" unicode="&#x208d;" horiz-adv-x="309" 
d="M70 552q0 76 53.5 129.5t129.5 53.5v-117q-28 0 -47 -19t-19 -47v-908q0 -28 19 -47t47 -19v-117q-76 0 -129.5 53.5t-53.5 129.5v908z" />
    <glyph glyph-name="uni208E" unicode="&#x208e;" horiz-adv-x="309" 
d="M239 -356q0 -76 -53.5 -129.5t-129.5 -53.5v117q27 0 46.5 19t19.5 47v908q0 28 -19.5 47t-46.5 19v117q76 0 129.5 -53.5t53.5 -129.5v-908z" />
    <glyph glyph-name="uni2090" unicode="&#x2090;" horiz-adv-x="464" 
d="M298 88h-66q-27 0 -46.5 -19t-19.5 -47v-182q0 -28 19.5 -47t46.5 -19h66v314zM232 441q76 0 129.5 -53.5t53.5 -129.5v-601h-183q-76 0 -129.5 53.5t-53.5 129.5v182q0 76 53.5 130t129.5 54h66v52q0 28 -19.5 47t-46.5 19h-97v117h97z" />
    <glyph glyph-name="uni2091" unicode="&#x2091;" horiz-adv-x="464" 
d="M298 265q0 28 -19 47t-47 19t-47 -19t-19 -47v-183h132v183zM232 -350q-76 0 -129.5 53.5t-53.5 129.5v432q0 76 53.5 129.5t129.5 53.5t129.5 -53.5t53.5 -129.5v-300h-249v-132q0 -28 19 -47t47 -19q27 0 46.5 19t19.5 47h117q0 -76 -53.5 -129.5t-129.5 -53.5z" />
    <glyph glyph-name="uni2092" unicode="&#x2092;" horiz-adv-x="464" 
d="M298 265q0 28 -19.5 47t-46.5 19q-28 0 -47 -19t-19 -47v-432q0 -28 19 -47t47 -19q27 0 46.5 19t19.5 47v432zM49 265q0 76 53.5 129.5t129.5 53.5t129.5 -53.5t53.5 -129.5v-432q0 -76 -53.5 -129.5t-129.5 -53.5t-129.5 53.5t-53.5 129.5v432z" />
    <glyph glyph-name="uni2093" unicode="&#x2093;" horiz-adv-x="464" 
d="M49 441h117v-230l66 -66l66 66v230h117v-279l-101 -100l101 -100v-305h-117v256l-66 67l-66 -67v-256h-117v305l100 100l-100 100v279z" />
    <glyph glyph-name="uni2094" unicode="&#x2094;" horiz-adv-x="464" 
d="M166 -167q0 -28 19 -47t47 -19t47 19t19 47v183h-132v-183zM232 448q76 0 129.5 -53.5t53.5 -129.5v-432q0 -76 -53.5 -129.5t-129.5 -53.5t-129.5 53.5t-53.5 129.5v300h249v132q0 28 -19 47t-47 19q-27 0 -46.5 -19t-19.5 -47h-117q0 76 53.5 129.5t129.5 53.5z" />
    <glyph glyph-name="uni2095" unicode="&#x2095;" horiz-adv-x="464" 
d="M298 -343v601q0 27 -19.5 46.5t-46.5 19.5h-66v-667h-117v1029h117v-245h66q76 0 129.5 -53.5t53.5 -129.5v-601h-117z" />
    <glyph glyph-name="uni2096" unicode="&#x2096;" horiz-adv-x="464" 
d="M166 -343h-117v1029h117v-429l132 200h117v-35l-179 -271l179 -271v-223h-117v188l-132 200v-388z" />
    <glyph glyph-name="uni2097" unicode="&#x2097;" horiz-adv-x="267" 
d="M232 -343q-76 0 -129.5 53.5t-53.5 129.5v846h117v-846q0 -28 19 -47t47 -19v-117z" />
    <glyph glyph-name="uni2098" unicode="&#x2098;" horiz-adv-x="713" 
d="M166 -343h-117v608q0 76 53.5 129.5t129.5 53.5q73 0 124 -49q52 49 125 49q76 0 129.5 -53.5t53.5 -129.5v-608h-117v608q0 28 -19.5 47t-46.5 19q-28 0 -47 -19t-19 -47v-608h-117v608q0 28 -19.5 47t-46.5 19q-28 0 -47 -19t-19 -47v-608z" />
    <glyph glyph-name="uni2099" unicode="&#x2099;" horiz-adv-x="464" 
d="M166 -343h-117v791q151 0 258.5 -107t107.5 -259v-425h-117v425q0 71 -36 130t-96 90v-645z" />
    <glyph glyph-name="uni209A" unicode="&#x209a;" horiz-adv-x="464" 
d="M166 -226h66q27 0 46.5 19.5t19.5 46.5v418q0 28 -19.5 47t-46.5 19h-66v-550zM49 -588v1029h183q76 0 129.5 -53.5t53.5 -129.5v-418q0 -76 -53.5 -129.5t-129.5 -53.5h-66v-245h-117z" />
    <glyph glyph-name="uni209C" unicode="&#x209c;" horiz-adv-x="418" 
d="M267 686v-245h116v-117h-116v-667h-117v667h-115v117h115v245h117z" />
    <glyph glyph-name="uni20A0" unicode="&#x20a0;" horiz-adv-x="647" 
d="M319 0v1029h272v-117h-155v-339h155v-117h-155v-339h155v-117h-272zM253 1598q-28 0 -47 -19t-19 -47v-670q0 -28 19 -47t47 -19q27 0 46.5 19t19.5 47v47h117v-47q0 -76 -53.5 -129.5t-129.5 -53.5t-129.5 53.5t-53.5 129.5v670q0 76 53.5 129.5t129.5 53.5h183v-219
h-117v102h-66z" />
    <glyph glyph-name="uni20A2" unicode="&#x20a2;" horiz-adv-x="741" 
d="M502 912q-28 0 -47 -19t-19 -47v-670q0 -76 -53.5 -129.5t-129.5 -53.5t-129.5 53.5t-53.5 129.5v1356q0 76 53.5 129.5t129.5 53.5h183v-365h-117v248h-66q-28 0 -47 -19t-19 -47v-1356q0 -28 19 -47t47 -19q27 0 46.5 19t19.5 47v670q0 76 53.5 129.5t129.5 53.5h183
v-316h-117v199h-66z" />
    <glyph glyph-name="franc" unicode="&#x20a3;" horiz-adv-x="406" 
d="M70 686v1029h280v-117h-163v-339h155v-117h-155v-456h-117z" />
    <glyph glyph-name="uni20A5" unicode="&#x20a5;" horiz-adv-x="741" 
d="M180 343h-117v853q0 76 53.5 129.5t129.5 53.5q73 0 124 -49q52 49 125 49q76 0 129.5 -53.5t53.5 -129.5v-853h-117v853q0 28 -19.5 47t-46.5 19q-28 0 -47 -19t-19 -47v-853h-117v853q0 28 -19.5 47t-46.5 19q-28 0 -47 -19t-19 -47v-853zM312 1736h116v-280h-116v280z
M312 260h116v-280h-116v280z" />
    <glyph glyph-name="uni20A8" unicode="&#x20a8;" horiz-adv-x="997" 
d="M319 691q0 27 -19.5 46.5t-46.5 19.5h-66v-757h-117v1715h183q76 0 129.5 -53.5t53.5 -129.5v-592q0 -71 -49 -125q49 -52 49 -124v-391q0 -79 56 -134.5t134.5 -55.5t134.5 55.5t56 134.5v184l-249 408v304q0 76 53.5 129.5t129.5 53.5t129.5 -53.5t53.5 -129.5v-140
h-117v140q0 28 -19 47t-47 19q-27 0 -46.5 -19t-19.5 -47v-272l249 -408v-216q0 -127 -90 -217t-218 -90q-126 0 -216.5 90t-90.5 217v391zM253 874q27 0 46.5 19t19.5 47v592q0 28 -19.5 47t-46.5 19h-66v-724h66z" />
    <glyph glyph-name="uni20A9" unicode="&#x20a9;" horiz-adv-x="755" 
d="M568 1715h117v-709h14v-117h-14v-180h14v-117h-14v-416q0 -76 -53.5 -129.5t-129.5 -53.5q-73 0 -125 49q-51 -49 -124 -49q-76 0 -129.5 53.5t-53.5 129.5v416h-14v117h14v180h-14v117h14v709h117v-709h132v709h117v-709h132v709zM568 709v180h-132v-180h132zM568 592
h-132v-416q0 -28 19 -47t47 -19q27 0 46.5 19t19.5 47v416zM187 889v-180h132v180h-132zM187 592v-416q0 -28 19 -47t47 -19q27 0 46.5 19t19.5 47v416h-132z" />
    <glyph glyph-name="afii57636" unicode="&#x20aa;" horiz-adv-x="1004" 
d="M187 0h-117v1716h366q103 0 176 -73t73 -177v-1217h-117v1217q0 55 -38.5 93.5t-93.5 38.5h-249v-1598zM319 1466h117v-1349h249q55 0 93.5 38.5t38.5 93.5v1467h117v-1467q0 -103 -73 -176t-176 -73h-366v1466z" />
    <glyph glyph-name="Euro" unicode="&#x20ac;" horiz-adv-x="517" 
d="M344 1532q0 28 -19.5 47t-46.5 19q-28 0 -47 -19t-19 -47v-464h132v-117h-132v-180h132v-117h-132v-478q0 -28 19 -47t47 -19q27 0 46.5 19t19.5 47v196h117v-196q0 -76 -53.5 -129.5t-129.5 -53.5t-129.5 53.5t-53.5 129.5v478h-39v117h39v180h-39v117h39v464
q0 76 53.5 129.5t129.5 53.5t129.5 -53.5t53.5 -129.5v-182h-117v182z" />
    <glyph glyph-name="uni20B7" unicode="&#x20b7;" horiz-adv-x="983" 
d="M737 117q28 0 47 19t19 47v472l-249 409v475q0 76 53.5 129.5t129.5 53.5t129.5 -53.5t53.5 -129.5v-336h-117v336q0 28 -19 47t-47 19q-27 0 -46.5 -19t-19.5 -47v-443l249 -408v-505q0 -76 -53.5 -129.5t-129.5 -53.5h-498q-76 0 -129.5 53.5t-53.5 129.5v425
q0 76 53.5 129.5t129.5 53.5q73 0 124 -49q52 49 125 49q76 0 129.5 -53.5t53.5 -129.5v-359h-117v359q0 28 -19.5 47t-46.5 19q-28 0 -47 -19t-19 -47v-359h-117v359q0 28 -19.5 47t-46.5 19q-28 0 -47 -19t-19 -47v-425q0 -28 19.5 -47t46.5 -19h498z" />
    <glyph glyph-name="uni20B8" unicode="&#x20b8;" horiz-adv-x="460" 
d="M56 1598v117h348v-117h-348zM56 1466h348v-117h-116v-1349h-117v1349h-115v117z" />
    <glyph glyph-name="uni20DD" unicode="&#x20dd;" horiz-adv-x="991" 
d="M70 1547q0 175 125 300t300 125q176 0 301 -124.5t125 -300.5v-1379q0 -176 -125 -300.5t-301 -124.5q-175 0 -300 124.5t-125 300.5v1379zM187 168q0 -128 90.5 -218t217.5 -90q128 0 218.5 90t90.5 218v1379q0 128 -90.5 218t-218.5 90q-127 0 -217.5 -90.5
t-90.5 -217.5v-1379z" />
    <glyph glyph-name="uni2103" unicode="&#x2103;" horiz-adv-x="956" 
d="M717 1598q-28 0 -47 -19t-19 -47v-1356q0 -28 19 -47t47 -19q27 0 46.5 19t19.5 47v196h117v-196q0 -76 -53.5 -129.5t-129.5 -53.5t-129.5 53.5t-53.5 129.5v1356q0 76 53.5 129.5t129.5 53.5h183v-365h-117v248h-66zM225 1722q76 0 129.5 -53.5t53.5 -129.5
t-53.5 -129.5t-129.5 -53.5t-129.5 53.5t-53.5 129.5t53.5 129.5t129.5 53.5zM159 1539q0 -27 19 -46.5t47 -19.5q27 0 46.5 19.5t19.5 46.5q0 28 -19.5 47t-46.5 19q-28 0 -47 -19t-19 -47z" />
    <glyph glyph-name="uni2109" unicode="&#x2109;" horiz-adv-x="870" 
d="M534 0v1715h280v-117h-163v-682h155v-117h-155v-799h-117zM225 1722q76 0 129.5 -53.5t53.5 -129.5t-53.5 -129.5t-129.5 -53.5t-129.5 53.5t-53.5 129.5t53.5 129.5t129.5 53.5zM159 1539q0 -27 19 -46.5t47 -19.5q27 0 46.5 19.5t19.5 46.5q0 28 -19.5 47t-46.5 19
q-28 0 -47 -19t-19 -47z" />
    <glyph glyph-name="afii61352" unicode="&#x2116;" horiz-adv-x="1012" 
d="M825 1196q0 28 -19.5 47t-46.5 19q-28 0 -47 -19t-19 -47v-677q0 -28 19 -47t47 -19q27 0 46.5 19t19.5 47v677zM576 1196q0 76 53.5 129.5t129.5 53.5t129.5 -53.5t53.5 -129.5v-677q0 -76 -53.5 -129.5t-129.5 -53.5t-129.5 53.5t-53.5 129.5v677zM883 116v-116h-248
v116h248zM187 0h-117v1722q152 0 259 -107t107 -259v-1356h-117v1356q0 71 -36 130t-96 90v-1576z" />
    <glyph glyph-name="uni2117" unicode="&#x2117;" horiz-adv-x="989" 
d="M495 1135q28 0 47 19.5t19 46.5v331q0 28 -19 47t-47 19h-66v-463h66zM429 1018v-332h-117v1029h183q76 0 129.5 -53.5t53.5 -129.5v-331q0 -76 -53.5 -129.5t-129.5 -53.5h-66zM180 869q0 -131 92 -223t223 -92q130 0 222 92.5t92 222.5v663q0 130 -92 222.5t-222 92.5
q-131 0 -223 -92.5t-92 -222.5v-663zM926 869q0 -179 -126.5 -305.5t-304.5 -126.5q-117 0 -216.5 58t-157.5 157.5t-58 216.5v663q0 178 126.5 305t305.5 127q178 0 304.5 -126.5t126.5 -305.5v-663z" />
    <glyph glyph-name="uni2121" unicode="&#x2121;" horiz-adv-x="1233" 
d="M42 1372h348v-117h-116v-912h-117v912h-115v117zM502 343v1029h272v-117h-155v-339h155v-117h-155v-339h155v-117h-272zM1003 460h188v-117h-305v1029h117v-912z" />
    <glyph glyph-name="trademark" unicode="&#x2122;" horiz-adv-x="1187" 
d="M42 2058h348v-117h-116v-912h-117v912h-115v117zM633 1029h-116v854q0 76 53.5 129.5t129.5 53.5q72 0 124 -49q52 49 125 49q76 0 129 -53.5t53 -129.5v-854h-116v854q0 28 -19.5 47t-46.5 19q-28 0 -47.5 -19t-19.5 -47v-854h-116v854q0 28 -19.5 47t-46.5 19
q-28 0 -47.5 -19t-19.5 -47v-854z" />
    <glyph glyph-name="uni2126" unicode="&#x2126;" 
d="M70 1539q0 76 53.5 129.5t129.5 53.5t129.5 -53.5t53.5 -129.5v-1216q0 -58 -34 -106v-100h34v-117h-150v266q33 18 33 57v1216q0 28 -19.5 47t-46.5 19q-28 0 -47 -19t-19 -47v-1216q0 -39 33 -58v-265h-150v117h34v100q-34 48 -34 106v1216z" />
    <glyph glyph-name="uni212A" unicode="&#x212a;" 
d="M187 0h-117v1715h117v-708l132 200v508h117v-543l-179 -271l179 -271v-630h-117v595l-132 200v-795z" />
    <glyph glyph-name="uni212B" unicode="&#x212b;" 
d="M253 2076q76 0 129.5 -53.5t53.5 -129.5t-53.5 -129.5t-129.5 -53.5t-129.5 53.5t-53.5 129.5t53.5 129.5t129.5 53.5zM187 1893q0 -27 19 -46.5t47 -19.5q27 0 46.5 19.5t19.5 46.5q0 28 -19.5 47t-46.5 19q-28 0 -47 -19t-19 -47zM319 1539q0 28 -19.5 47t-46.5 19
q-28 0 -47 -19t-19 -47v-705h132v705zM436 0h-117v717h-132v-717h-117v1539q0 76 53.5 129.5t129.5 53.5t129.5 -53.5t53.5 -129.5v-1539z" />
    <glyph glyph-name="aleph" unicode="&#x2135;" 
d="M436 882q0 -46 -21 -85.5t-58 -64.5l79 -130v-602h-117v569l-122 201q-10 -16 -10 -35v-735h-117v735q0 84 64 139l-64 104v566h117v-534l109 -178q23 20 23 50v668q48 0 82.5 -34t34.5 -82v-552z" />
    <glyph glyph-name="uni2136" unicode="&#x2136;" horiz-adv-x="492" 
d="M56 1544h183q76 0 129.5 -54t53.5 -130v-1243h14v-117h-380v117h249v1243q0 28 -19 47t-47 19h-183v118z" />
    <glyph glyph-name="uni2137" unicode="&#x2137;" horiz-adv-x="499" 
d="M180 594v-594h-117v627l249 409v168q0 71 -36 129.5t-96 90.5v126q110 -37 179.5 -132t69.5 -214v-1204h-117v811z" />
    <glyph glyph-name="uni2138" unicode="&#x2138;" horiz-adv-x="478" 
d="M291 0v1426h-249v118h380v-118h-14v-1426h-117z" />
    <glyph glyph-name="uni213B" unicode="&#x213b;" horiz-adv-x="1362" 
d="M697 1196q0 28 -19.5 47t-46.5 19q-28 0 -47 -19t-19 -47v-329h132v329zM814 343h-117v407h-132v-407h-117v853q0 76 53.5 129.5t129.5 53.5t129.5 -53.5t53.5 -129.5v-853zM940 1372h117v-339l66 -66l66 66v339h117v-388l-101 -100l101 -100v-441h-117v392l-66 67
l-66 -67v-392h-117v441l100 100l-100 100v388zM56 343v1029h280v-117h-163v-339h155v-117h-155v-456h-117z" />
    <glyph glyph-name="uni2141" unicode="&#x2141;" horiz-adv-x="499" 
d="M246 1715q76 0 129.5 -53.5t53.5 -129.5v-1349q0 -76 -53.5 -129.5t-129.5 -53.5h-183v365h117v-248h66q28 0 47 19t19 47v1349q0 28 -19 47t-47 19h-66v-608h49v-117h-166v842h183z" />
    <glyph glyph-name="uni2142" unicode="&#x2142;" horiz-adv-x="417" 
d="M230 1598h-188v117h305v-1715h-117v1598z" />
    <glyph glyph-name="uni2144" unicode="&#x2144;" horiz-adv-x="492" 
d="M312 594l-66 118l-66 -118v-594h-117v624l125 224v867h116v-867l125 -224v-624h-117v594z" />
    <glyph glyph-name="uni214A" unicode="&#x214a;" horiz-adv-x="680" 
d="M436 117h188v-117h-305v1029h117v-912zM253 1185q28 0 47 19t19 47v281q0 28 -19 47t-47 19h-66v-413h66zM187 1068v-382h-117v1029h183q76 0 129.5 -53.5t53.5 -129.5v-281q0 -76 -53.5 -129.5t-129.5 -53.5h-66z" />
    <glyph glyph-name="uni214B" unicode="&#x214b;" horiz-adv-x="555" 
d="M56 1174h63v373q0 76 53.5 129.5t129.5 53.5t129.5 -53.5t53.5 -129.5v-640q0 -73 -49 -125q49 -51 49 -124v-475q0 -76 -53.5 -129.5t-129.5 -53.5h-139v117h139q28 0 47 19t19 47v475q0 27 -19 46.5t-47 19.5h-83v117h83q28 0 47 19t19 47v640q0 28 -19 47t-47 19
q-27 0 -46.5 -19t-19.5 -47v-490h-180v117z" />
    <glyph glyph-name="uni2150" unicode="&#x2150;" horiz-adv-x="1190" 
d="M1017 912h-237v117h354v-225l-163 -395v-409h-117v432l163 396v84zM351 245v511l249 249v465h117v-513l-249 -249v-463h-117zM56 1537l232 185v-1036h-117v794l-42 -34z" />
    <glyph glyph-name="uni215F" unicode="&#x215f;" horiz-adv-x="780" 
d="M56 1537l232 185v-1036h-117v794l-42 -34zM351 245v511l249 249v465h117v-513l-249 -249v-463h-117z" />
    <glyph glyph-name="uni2166" unicode="&#x2166;" horiz-adv-x="1003" 
d="M933 0h-117v1715h117v-1715zM685 0h-117v1715h117v-1715zM187 1715v-1576q60 31 96 90t36 130v1356h117v-1356q0 -151 -107 -258.5t-259 -107.5v1722h117z" />
    <glyph glyph-name="uni2176" unicode="&#x2176;" horiz-adv-x="1003" 
d="M933 0h-117v1372h117v-1372zM816 1715h112v-172h-112v172zM685 0h-117v1372h117v-1372zM568 1715h112v-172h-112v172zM187 1372v-1233q60 31 96 90t36 130v1013h117v-1013q0 -151 -107 -258.5t-259 -107.5v1379h117z" />
    <glyph glyph-name="universal" unicode="&#x2200;" 
d="M187 183q0 -28 19.5 -47t46.5 -19q28 0 47 19t19 47v705h-132v-705zM70 1722h117v-717h132v717h117v-1539q0 -76 -53.5 -129.5t-129.5 -53.5t-129.5 53.5t-53.5 129.5v1539z" />
    <glyph glyph-name="existential" unicode="&#x2203;" horiz-adv-x="398" 
d="M328 1715v-1715h-272v117h155v682h-155v117h155v682h-155v117h272z" />
    <glyph glyph-name="emptyset" unicode="&#x2205;" 
d="M70 1539q0 76 53.5 129.5t129.5 53.5q34 0 66 -12v4h117v-1538q0 -76 -53.5 -129.5t-129.5 -53.5q-34 0 -66 12v-6h-117v1540zM319 856l-132 -253v-427q0 -28 19 -47t47 -19q27 0 46.5 19t19.5 47v680zM319 1109v430q0 28 -19.5 47t-46.5 19q-28 0 -47 -19t-19 -47v-683z
" />
    <glyph glyph-name="uni220E" unicode="&#x220e;" horiz-adv-x="477" 
d="M414 98h-351v1519h351v-1519z" />
    <glyph glyph-name="minus" unicode="&#x2212;" horiz-adv-x="397" 
d="M42 741v116h313v-116h-313z" />
    <glyph glyph-name="uni2213" unicode="&#x2213;" horiz-adv-x="425" 
d="M369 1267v-117h-313v117h313zM154 999h117v-319h98v-117h-98v-319h-117v319h-98v117h98v319z" />
    <glyph glyph-name="asteriskmath" unicode="&#x2217;" horiz-adv-x="509" 
d="M386 966l61 -76l-82 -66l102 -23l-21 -96l-103 23l46 -94l-89 -43l-45 95l-46 -95l-88 43l45 94l-102 -23l-22 96l102 23l-82 66l61 76l83 -65v105h98v-105z" />
    <glyph glyph-name="uni2218" unicode="&#x2218;" horiz-adv-x="450" 
d="M225 982q76 0 129.5 -53.5t53.5 -129.5t-53.5 -129.5t-129.5 -53.5t-129.5 53.5t-53.5 129.5t53.5 129.5t129.5 53.5zM159 799q0 -27 19 -46.5t47 -19.5q27 0 46.5 19.5t19.5 46.5q0 28 -19.5 47t-46.5 19q-28 0 -47 -19t-19 -47z" />
    <glyph glyph-name="infinity" unicode="&#x221e;" horiz-adv-x="727" 
d="M671 734q0 -76 -53.5 -129.5t-129.5 -53.5q-71 0 -125 49q-52 -49 -124 -49q-76 0 -129.5 53.5t-53.5 129.5v247q0 76 53.5 129.5t129.5 53.5q72 0 124 -49q54 49 125 49q76 0 129.5 -53.5t53.5 -129.5v-247zM554 981q0 27 -19.5 46.5t-46.5 19.5q-28 0 -47 -19.5
t-19 -46.5v-247q0 -27 19 -46.5t47 -19.5q27 0 46.5 19.5t19.5 46.5v247zM305 981q0 27 -19.5 46.5t-46.5 19.5q-28 0 -47 -19.5t-19 -46.5v-247q0 -27 19 -46.5t47 -19.5q27 0 46.5 19.5t19.5 46.5v247z" />
    <glyph glyph-name="integral" unicode="&#x222b;" horiz-adv-x="361" 
d="M56 -234q28 0 47 19t19 47v2051q0 76 53.5 129.5t129.5 53.5v-117q-27 0 -46.5 -19t-19.5 -47v-2051q0 -76 -53.5 -129.5t-129.5 -53.5v117z" />
    <glyph glyph-name="uni222C" unicode="&#x222c;" horiz-adv-x="610" 
d="M305 -234q28 0 47 19t19 47v2051q0 76 53.5 129.5t129.5 53.5v-117q-27 0 -46.5 -19t-19.5 -47v-2051q0 -76 -53.5 -129.5t-129.5 -53.5v117zM56 -234q28 0 47 19t19 47v2051q0 76 53.5 129.5t129.5 53.5v-117q-27 0 -46.5 -19t-19.5 -47v-2051q0 -76 -53.5 -129.5
t-129.5 -53.5v117z" />
    <glyph glyph-name="uni222D" unicode="&#x222d;" horiz-adv-x="858" 
d="M553 -234q28 0 47 19t19 47v2051q0 76 53.5 129.5t129.5 53.5v-117q-27 0 -46.5 -19t-19.5 -47v-2051q0 -76 -53.5 -129.5t-129.5 -53.5v117zM305 -234q28 0 47 19t19 47v2051q0 76 53.5 129.5t129.5 53.5v-117q-27 0 -46.5 -19t-19.5 -47v-2051q0 -76 -53.5 -129.5
t-129.5 -53.5v117zM56 -234q28 0 47 19t19 47v2051q0 76 53.5 129.5t129.5 53.5v-117q-27 0 -46.5 -19t-19.5 -47v-2051q0 -76 -53.5 -129.5t-129.5 -53.5v117z" />
    <glyph glyph-name="therefore" unicode="&#x2234;" horiz-adv-x="430" 
d="M156 1406h117v-172h-117v172zM271 481h117v-172h-117v172zM42 481h117v-172h-117v172z" />
    <glyph glyph-name="uni2235" unicode="&#x2235;" horiz-adv-x="430" 
d="M274 309h-117v172h117v-172zM159 1234h-117v172h117v-172zM388 1234h-117v172h117v-172z" />
    <glyph glyph-name="similar" unicode="&#x223c;" horiz-adv-x="529" 
d="M124 691l-82 83l165 165l114 -114l83 82l83 -82l-166 -165l-114 114z" />
    <glyph glyph-name="uni223F" unicode="&#x223f;" horiz-adv-x="439" 
d="M229 584l-23 113l-22 138l-44 303l-22 135l-8 41l-8 -41l-22 -135l-44 -303l-21 -138l-15 -72v736l9 45q1 6 3 15t10 33t18 42t29 33t41 15t41 -14t29.5 -34.5t17.5 -40.5t10 -35l3 -14l23 -112l22 -139l44 -303l22 -134l8 -42l8 42l21 134l44 303l22 139l14 67v-736
l-8 -41q-1 -6 -3 -15t-10 -32.5t-18 -41.5t-29 -33t-41 -15t-41 14t-29.5 34t-17.5 40.5t-10 34.5z" />
    <glyph glyph-name="approxequal" unicode="&#x2248;" horiz-adv-x="557" 
d="M138 839l-82 83l165 165l114 -114l83 82l83 -82l-166 -165l-114 114zM138 543l-82 83l165 165l114 -114l83 82l83 -82l-166 -165l-114 114z" />
    <glyph glyph-name="uni225E" unicode="&#x225e;" horiz-adv-x="713" 
d="M166 1138h-117v608q0 76 53.5 129.5t129.5 53.5q73 0 124 -49q52 49 125 49q76 0 129.5 -53.5t53.5 -129.5v-608h-117v608q0 28 -19.5 47t-46.5 19q-28 0 -47 -19t-19 -47v-608h-117v608q0 28 -19.5 47t-46.5 19q-28 0 -47 -19t-19 -47v-608zM200 889v117h313v-117h-313z
M200 592v117h313v-117h-313z" />
    <glyph glyph-name="equivalence" unicode="&#x2261;" horiz-adv-x="425" 
d="M56 1038v117h313v-117h-313zM56 443v117h313v-117h-313zM56 741v116h313v-116h-313z" />
    <glyph glyph-name="uni2263" unicode="&#x2263;" horiz-adv-x="425" 
d="M56 1187v117h313v-117h-313zM56 889v117h313v-117h-313zM56 294v117h313v-117h-313zM56 592v116h313v-116h-313z" />
    <glyph glyph-name="uni226A" unicode="&#x226a;" horiz-adv-x="614" 
d="M300 706l-82 -82l-176 175l176 176l82 -82l-93 -94zM558 706l-82 -82l-176 175l176 176l82 -82l-93 -94z" />
    <glyph glyph-name="uni226B" unicode="&#x226b;" horiz-adv-x="614" 
d="M314 893l82 82l176 -175l-176 -176l-82 82l93 94zM56 893l82 82l176 -175l-176 -176l-82 82l93 94z" />
    <glyph glyph-name="uni22D8" unicode="&#x22d8;" horiz-adv-x="872" 
d="M816 706l-82 -82l-176 175l176 176l82 -82l-93 -94zM558 706l-82 -82l-176 175l176 176l82 -82l-93 -94zM300 706l-82 -82l-176 175l176 176l82 -82l-93 -94z" />
    <glyph glyph-name="uni22D9" unicode="&#x22d9;" horiz-adv-x="872" 
d="M56 893l82 82l176 -175l-176 -176l-82 82l93 94zM314 893l82 82l176 -175l-176 -176l-82 82l93 94zM572 893l82 82l176 -175l-176 -176l-82 82l93 94z" />
    <glyph glyph-name="uni2318" unicode="&#x2318;" horiz-adv-x="777" 
d="M206 977q-14 0 -23.5 -9.5t-9.5 -23.5v-145q0 -14 9.5 -23.5t23.5 -9.5q13 0 22.5 9.5t9.5 23.5v178h-32zM571 1394q14 0 23.5 9.5t9.5 23.5v145q0 14 -10 23.5t-23 9.5t-23 -9.5t-10 -23.5v-178h33zM238 1572q0 14 -9.5 23.5t-22.5 9.5q-14 0 -23.5 -9.5t-9.5 -23.5
v-145q0 -14 9.5 -23.5t23.5 -9.5h32v178zM538 799q0 -13 10 -23t23 -10t23 10t10 23v145q0 14 -10 23.5t-23 9.5h-33v-178zM238 1094v183h-32q-62 0 -106 44t-44 106v145q0 62 44 106t106 44q61 0 105 -44t44 -106v-178h66v178q0 62 44 106t106 44t106 -44t44 -106v-145
q0 -62 -44 -106t-106 -44h-33v-183h33q62 0 106 -44t44 -106v-145q0 -62 -44 -106t-106 -44t-106 44t-44 106v178h-66v-178q0 -62 -43.5 -106t-105.5 -44t-106 44t-44 106v145q0 62 44 106t106 44h32zM421 1277h-66v-183h66v183z" />
    <glyph glyph-name="uni2325" unicode="&#x2325;" horiz-adv-x="599" 
d="M543 1120v-117h-126v117h126zM42 1120h158l249 -408h94v-117h-159l-249 408h-93v117z" />
    <glyph glyph-name="uni2400" unicode="&#x2400;" horiz-adv-x="464" 
d="M166 1323h-117v742q151 0 258.5 -107.5t107.5 -258.5v-376h-117v376q0 71 -36 130t-96 90v-596zM415 642q0 -76 -53.5 -130t-129.5 -54t-129.5 54t-53.5 130v608h117v-608q0 -28 19 -47t47 -19q27 0 46.5 19t19.5 47v608h117v-608zM196 -226h188v-117h-304v735h116v-618z
" />
    <glyph glyph-name="uni2404" unicode="&#x2404;" horiz-adv-x="464" 
d="M58 392h348v-117h-116v-618h-117v618h-115v117zM298 1049q0 28 -19.5 47t-46.5 19q-28 0 -47 -19t-19 -47v-383q0 -28 19 -47t47 -19q27 0 46.5 19t19.5 47v383zM96 1323v735h272v-117h-155v-192h155v-117h-155v-192h155v-117h-272zM415 666q0 -76 -53.5 -129.5
t-129.5 -53.5t-129.5 53.5t-53.5 129.5v383q0 76 53.5 129.5t129.5 53.5t129.5 -53.5t53.5 -129.5v-383z" />
    <glyph glyph-name="uni2405" unicode="&#x2405;" horiz-adv-x="464" 
d="M96 1323v735h272v-117h-155v-192h155v-117h-155v-192h155v-117h-272zM166 490h-117v742q151 0 258.5 -107t107.5 -259v-376h-117v376q0 71 -36 130t-96 90v-596zM49 216q0 76 53.5 129.5t129.5 53.5t129.5 -53.5t53.5 -129.5v-383q0 -68 -46 -121l87 -87l-83 -83
l-110 110q-20 -2 -31 -2q-76 0 -129.5 53.5t-53.5 129.5v383zM298 216q0 28 -19.5 47t-46.5 19q-28 0 -47 -19t-19 -47v-383q0 -28 19 -47t47 -19q27 0 46.5 19t19.5 47v383z" />
    <glyph glyph-name="uni2407" unicode="&#x2407;" horiz-adv-x="464" 
d="M166 1440h66q27 0 46.5 19t19.5 47v87q0 27 -19.5 46.5t-46.5 19.5h-66v-219zM49 1323v735h183q76 0 129.5 -53.5t53.5 -129.5v-33q0 -71 -49 -125q49 -54 49 -124v-87q0 -76 -53.5 -129.5t-129.5 -53.5h-183zM232 1776q27 0 46.5 19t19.5 47v33q0 28 -19.5 47t-46.5 19
h-66v-165h66zM80 490v735h272v-117h-156v-192h156v-117h-156v-192h156v-117h-272zM196 -226h188v-117h-304v735h116v-618z" />
    <glyph glyph-name="uni2409" unicode="&#x2409;" horiz-adv-x="464" 
d="M166 1329v-349h-117v735h117v-269h132v269h117v-735h-117v349h-132zM58 735h348v-117h-116v-618h-117v618h-115v117z" />
    <glyph glyph-name="uni240A" unicode="&#x240a;" horiz-adv-x="403" 
d="M72 0v735h280v-117h-164v-192h156v-117h-156v-309h-116zM166 1097h188v-117h-305v735h117v-618z" />
    <glyph glyph-name="uni240B" unicode="&#x240b;" horiz-adv-x="464" 
d="M58 735h348v-117h-116v-618h-117v618h-115v117zM166 1715v-596q60 31 96 90t36 130v376h117v-376q0 -151 -107.5 -258.5t-258.5 -107.5v742h117z" />
    <glyph glyph-name="uni240C" unicode="&#x240c;" horiz-adv-x="378" 
d="M49 980v735h280v-117h-163v-192h155v-117h-155v-309h-117zM49 0v735h280v-117h-163v-192h155v-117h-155v-309h-117z" />
    <glyph glyph-name="uni240D" unicode="&#x240d;" horiz-adv-x="464" 
d="M232 1598q-28 0 -47 -19t-19 -47v-376q0 -28 19 -47t47 -19q27 0 46.5 19t19.5 47v49h117v-49q0 -76 -53.5 -129.5t-129.5 -53.5t-129.5 53.5t-53.5 129.5v376q0 76 53.5 129.5t129.5 53.5h183v-218h-117v101h-66zM232 267h-66v-267h-117v735h183q76 0 129.5 -53.5
t53.5 -129.5v-102q0 -71 -49 -125q49 -52 49 -124v-201h-117v201q0 27 -19.5 46.5t-46.5 19.5zM232 384q27 0 46.5 19t19.5 47v102q0 28 -19.5 47t-46.5 19h-66v-234h66z" />
    <glyph glyph-name="uni2411" unicode="&#x2411;" horiz-adv-x="464" 
d="M232 1111q-28 0 -47 -19t-19 -47v-376q0 -27 19 -46.5t47 -19.5q27 0 46.5 19.5t19.5 46.5v49h117v-49q0 -75 -53.5 -129t-129.5 -54t-129.5 54t-53.5 129v376q0 76 53.5 129.5t129.5 53.5h183v-218h-117v101h-66zM232 1440q28 0 47 19t19 47v369q0 28 -19 47t-47 19h-66
v-501h66zM49 1323v735h183q76 0 129.5 -53.5t53.5 -129.5v-369q0 -76 -53.5 -129.5t-129.5 -53.5h-183zM58 210l232 186v-739h-117v497l-42 -34z" />
    <glyph glyph-name="uni2412" unicode="&#x2412;" horiz-adv-x="464" 
d="M232 1111q-28 0 -47 -19t-19 -47v-376q0 -27 19 -46.5t47 -19.5q27 0 46.5 19.5t19.5 46.5v49h117v-49q0 -75 -53.5 -129t-129.5 -54t-129.5 54t-53.5 129v376q0 76 53.5 129.5t129.5 53.5h183v-218h-117v101h-66zM232 1440q28 0 47 19t19 47v369q0 28 -19 47t-47 19h-66
v-501h66zM49 1323v735h183q76 0 129.5 -53.5t53.5 -129.5v-369q0 -76 -53.5 -129.5t-129.5 -53.5h-183zM291 212q0 28 -19 47t-47 19q-27 0 -46.5 -19t-19.5 -47v-62h-117v62q0 76 53.5 130t129.5 54t129.5 -54t53.5 -130v-86l-207 -323v-29h235v-117h-351v181l206 322v52z
" />
    <glyph glyph-name="uni2413" unicode="&#x2413;" horiz-adv-x="464" 
d="M232 1111q-28 0 -47 -19t-19 -47v-376q0 -27 19 -46.5t47 -19.5q27 0 46.5 19.5t19.5 46.5v49h117v-49q0 -75 -53.5 -129t-129.5 -54t-129.5 54t-53.5 129v376q0 76 53.5 129.5t129.5 53.5h183v-218h-117v101h-66zM232 1440q28 0 47 19t19 47v369q0 28 -19 47t-47 19h-66
v-501h66zM49 1323v735h183q76 0 129.5 -53.5t53.5 -129.5v-369q0 -76 -53.5 -129.5t-129.5 -53.5h-183zM232 96q28 0 47 19.5t19 46.5v50q0 28 -19 47t-47 19q-27 0 -46.5 -19t-19.5 -47v-34h-117v34q0 76 53.5 130t129.5 54t129.5 -54t53.5 -130v-50q0 -72 -49 -124
q49 -53 49 -124v-78q0 -75 -53.5 -128.5t-129.5 -53.5t-129.5 53.5t-53.5 128.5v42h117v-42q0 -27 19.5 -46.5t46.5 -19.5q28 0 47 19.5t19 46.5v78q0 27 -19 46.5t-47 19.5h-83v116h83z" />
    <glyph glyph-name="uni2419" unicode="&#x2419;" horiz-adv-x="713" 
d="M166 0h-117v559q0 76 53.5 129.5t129.5 53.5q73 0 124 -49q52 49 125 49q76 0 129.5 -53.5t53.5 -129.5v-559h-117v559q0 28 -19.5 47t-46.5 19q-28 0 -47 -19t-19 -47v-559h-117v559q0 28 -19.5 47t-46.5 19q-28 0 -47 -19t-19 -47v-559zM220 980v735h272v-117h-154
v-192h154v-117h-154v-192h154v-117h-272z" />
    <glyph glyph-name="uni2421" unicode="&#x2421;" horiz-adv-x="464" 
d="M232 1440q28 0 47 19t19 47v369q0 28 -19 47t-47 19h-66v-501h66zM49 1323v735h183q76 0 129.5 -53.5t53.5 -129.5v-369q0 -76 -53.5 -129.5t-129.5 -53.5h-183zM80 490v735h272v-117h-156v-192h156v-117h-156v-192h156v-117h-272zM196 -226h188v-117h-304v735h116v-618z
" />
    <glyph glyph-name="uni2422" unicode="&#x2422;" 
d="M187 117h66q27 0 46.5 19t19.5 47v1006q0 27 -19.5 46.5t-46.5 19.5h-66v-1138zM436 1189v-1006q0 -76 -53.5 -129.5t-129.5 -53.5h-183v1341l-49 49l49 49v276h117v-159l166 166l83 -82l-249 -249v-19h66q76 0 129.5 -53.5t53.5 -129.5z" />
    <glyph glyph-name="uni2423" unicode="&#x2423;" horiz-adv-x="234" 
d="M-58 -248v199h116v-82h118v82h116v-199h-350z" />
    <glyph glyph-name="uni2424" unicode="&#x2424;" horiz-adv-x="464" 
d="M166 980h-117v742q151 0 258.5 -107t107.5 -259v-376h-117v376q0 71 -36 130t-96 90v-596zM196 117h188v-117h-304v735h116v-618z" />
    <glyph glyph-name="uni2466" unicode="&#x2466;" horiz-adv-x="991" 
d="M70 1298q0 176 125 300.5t300 124.5q176 0 301 -124.5t125 -300.5v-881q0 -176 -125 -300.5t-301 -124.5q-175 0 -300 125t-125 300v881zM187 417q0 -127 90.5 -217.5t217.5 -90.5q128 0 218.5 90t90.5 218v881q0 128 -90.5 218t-218.5 90q-127 0 -217.5 -90t-90.5 -218
v-881zM556 1350h-238v116h354v-319l-162 -395v-503h-117v526l163 396v179z" />
    <glyph glyph-name="uni247A" unicode="&#x247a;" horiz-adv-x="1077" 
d="M1007 -13q0 -76 -53.5 -129.5t-129.5 -53.5v117q27 0 46.5 19t19.5 47v1594q0 28 -19.5 47t-46.5 19v117q76 0 129.5 -53.5t53.5 -129.5v-1594zM588 1598h-237v117h354v-568l-163 -395v-752h-117v775l163 396v427zM70 1581q0 76 53.5 129.5t129.5 53.5v-117
q-28 0 -47 -19t-19 -47v-1594q0 -28 19 -47t47 -19v-117q-76 0 -129.5 53.5t-53.5 129.5v1594z" />
    <glyph glyph-name="uni248E" unicode="&#x248e;" horiz-adv-x="660" 
d="M501 172h117v-172h-117v172zM279 1598h-237v117h354v-568l-163 -395v-752h-117v775l163 396v427z" />
    <glyph glyph-name="uni24FB" unicode="&#x24fb;" horiz-adv-x="1488" 
d="M70 1298q0 137 53.5 262t143.5 215t215 143.5t262 53.5t262 -53.5t215 -143.5t143.5 -215t53.5 -262v-881q0 -137 -53.5 -262t-143.5 -215t-215 -143.5t-262 -53.5t-262 53.5t-215 143.5t-143.5 215t-53.5 262v881zM187 417q0 -113 44 -216t119 -178t178 -119t216 -44
q151 0 279.5 74.5t203 203t74.5 279.5v881q0 151 -74.5 279.5t-203 203t-279.5 74.5q-113 0 -216 -44t-178 -119t-119 -178t-44 -216v-881zM315 1298q0 176 125 300.5t300 124.5q176 0 301 -124.5t125 -300.5v-881q0 -176 -125 -300.5t-301 -124.5q-175 0 -300 125t-125 300
v881zM432 417q0 -127 90.5 -217.5t217.5 -90.5q128 0 218.5 90t90.5 218v881q0 128 -90.5 218t-218.5 90q-127 0 -217.5 -90t-90.5 -218v-881zM801 1350h-238v116h354v-319l-162 -395v-503h-117v526l163 396v179z" />
    <glyph glyph-name="upblock" unicode="&#x2580;" horiz-adv-x="588" 
d="M0 858v857h588v-857h-588z" />
    <glyph glyph-name="dnblock" unicode="&#x2584;" horiz-adv-x="588" 
d="M0 0v858h588v-858h-588z" />
    <glyph glyph-name="block" unicode="&#x2588;" horiz-adv-x="588" 
d="M0 0v1715h588v-1715h-588z" />
    <glyph glyph-name="lfblock" unicode="&#x258c;" horiz-adv-x="588" 
d="M0 0v1715h294v-1715h-294z" />
    <glyph glyph-name="rtblock" unicode="&#x2590;" horiz-adv-x="588" 
d="M294 0v1715h294v-1715h-294z" />
    <glyph glyph-name="shade" unicode="&#x2592;" horiz-adv-x="588" 
d="M490 1225v245h98v-245h-98zM490 735v245h98v-245h-98zM490 245v245h98v-245h-98zM98 1225v245h98v-245h-98zM98 735v245h98v-245h-98zM98 245v245h98v-245h-98zM294 1225v245h98v-245h-98zM294 735v245h98v-245h-98zM294 245v245h98v-245h-98zM392 1470v245h98v-245h-98z
M392 980v245h98v-245h-98zM392 490v245h98v-245h-98zM392 0v245h98v-245h-98zM196 1470v245h98v-245h-98zM196 980v245h98v-245h-98zM196 490v245h98v-245h-98zM196 0v245h98v-245h-98zM0 1470v245h98v-245h-98zM0 980v245h98v-245h-98zM0 490v245h98v-245h-98zM0 0v245h98
v-245h-98z" />
    <glyph glyph-name="uni2605" unicode="&#x2605;" horiz-adv-x="1116" 
d="M905 936l155 -194l-224 -107l-55 -242l-223 108l-224 -108l-55 242l-223 107l154 194l-55 242h248l155 194l154 -194h249z" />
    <glyph glyph-name="uni2606" unicode="&#x2606;" horiz-adv-x="1116" 
d="M905 936l155 -194l-224 -107l-55 -242l-223 108l-224 -108l-55 242l-223 107l154 194l-55 242h248l155 194l154 -194h249zM558 1185l-99 -124h-157l35 -154l-99 -123l143 -68l35 -154l142 68l142 -68l35 154l142 68l-98 123l35 154h-158z" />
    <glyph glyph-name="uni2609" unicode="&#x2609;" horiz-adv-x="754" 
d="M318 944h118v-172h-118v172zM684 496q0 -128 -90 -217.5t-217 -89.5t-217 90t-90 217v723q0 127 90 217t217 90t217 -90t90 -217v-723zM187 496q0 -79 55.5 -134.5t134.5 -55.5t135 55.5t56 134.5l-1 723q0 79 -55.5 134.5t-134.5 55.5t-135 -55.5t-56 -134.5z" />
    <glyph glyph-name="uni2620" unicode="&#x2620;" horiz-adv-x="1419" 
d="M833 437q0 -26 -5 -35q-2 -3 -3 -4q-2 -2 -4 -3q-24 -16 -111 -16q-88 0 -111 16q-3 2 -4 3q-3 3 -3 4q-5 9 -5 35q0 53 13.5 118t33.5 83q3 2 7 2q22 0 32 -12.5t10.5 -27.5t6.5 -27.5t20 -12.5t19.5 12.5t6.5 27.5t11 27.5t32 12.5q4 0 6 -2q21 -18 34.5 -83t13.5 -118
zM368 954q-23 -1 -42 -12t-32 -31t-21 -39t-16 -44q-1 -37 17 -77.5t36 -62.5l19 -22q72 -34 156 3q80 60 117 144q10 23 -2.5 51.5t-39.5 44.5q-48 29 -90.5 38t-101.5 7zM311 1103q0 -13 -1 -25q-2 -23 -11.5 -42t-25.5 -42.5t-25 -40.5q-8 -16 -16 -38.5t-16 -38
t-23 -29.5q-23 -20 -45 -28.5t-60 -13.5q-10 -1 -9 -11t11 -9q44 6 68.5 16t48.5 32q16 15 25.5 32t18 41t15.5 37q8 16 25 40.5t26.5 45.5t12.5 47q1 14 1 27q0 40 -16.5 105.5t-17.5 74.5q-2 10 -12 8t-8 -12q3 -16 18.5 -77t15.5 -99zM710 910q31 0 47.5 -13.5t19 -30
t5 -40t7.5 -33.5q4 -9 -5 -13t-13 5q-6 13 -8.5 34.5t-3.5 35t-13 24.5t-36 11t-36 -11t-13 -24.5t-3.5 -35t-8.5 -34.5q-4 -9 -13 -5t-5 13q5 10 7 33.5t5 40t19.5 30t47.5 13.5zM1052 954q23 -1 41.5 -12t32 -31t21.5 -39t16 -44q1 -37 -17 -77.5t-36 -62.5l-19 -22
q-73 -34 -156 3q-81 60 -117 144q-10 23 2.5 51.5t39.5 44.5q47 29 90 38t102 7zM1109 1103q0 -12 1 -25q2 -23 11 -42t25.5 -42.5t25.5 -40.5q7 -16 15 -38.5t16.5 -38t23.5 -29.5q22 -20 44.5 -28.5t60.5 -13.5q10 -1 9 -11t-11 -9q-44 6 -68.5 16t-48.5 32
q-17 15 -26.5 32t-17.5 41t-15 37q-8 16 -25 40.5t-27 45.5t-12 47q-1 14 -1 27q0 40 16 105.5t18 74.5q2 10 11.5 8t8.5 -12q-3 -16 -18.5 -77t-15.5 -99zM441 94l-20 4l30 129l20 -4zM473 72l-19 6l39 126l19 -6zM512 42l-19 6l39 135l19 -6zM567 25l-20 4l33 129l20 -4z
M636 11l-20 2l15 132l20 -2zM999 98l-20 -4l-30 129l20 4zM965 78l-19 -6l-39 126l19 6zM926 48l-19 -6l-39 135l19 6zM873 29l-20 -4l-33 129l20 4zM804 13l-20 -2l-15 132l20 2zM720 0h-20v129h20v-129zM1029 142q0 -38 -27 -60q-65 -54 -131 -75.5t-161 -21.5t-161 21.5
t-131 75.5q-27 22 -27 60q0 13 6 45.5t6 46.5q0 6 4.5 10.5t10.5 4.5t10.5 -4.5t4.5 -10.5q0 -20 -6 -50t-6 -42q0 -24 17 -38q60 -50 121 -69.5t151 -19.5t151 19.5t121 69.5q17 14 17 38q0 12 -6 42t-6 50q0 6 4.5 10.5t10.5 4.5t10.5 -4.5t4.5 -10.5q0 -14 6 -46.5
t6 -45.5zM404 255q0 11 6.5 33t6.5 34q0 15 6 27q-31 -12 -62 -12h-3q-5 0 -24 0.5t-24.5 0.5t-22 1t-23 2.5t-20.5 4t-22 6.5t-19.5 9.5t-21 13t-19.5 16.5q-26 26 -35 57.5t-12 72.5t-10 65q-4 12 -21.5 50t-19.5 69q-1 13 -1 25q0 32 9 82.5t10 82.5q1 21 1 38
q0 18 -2 55.5t-2 79.5q0 33 1 75q1 63 92 157q235 246 538 246t538 -246q90 -94 92 -157q1 -42 1 -75q0 -42 -2 -79.5t-2 -55.5q0 -17 1 -38q1 -32 10 -82.5t9 -82.5q0 -13 -1 -25q-2 -31 -19.5 -69t-21.5 -50q-7 -24 -10 -65t-12.5 -72.5t-35.5 -57.5q-10 -10 -22.5 -18.5
t-21 -14t-25 -9.5t-22.5 -6t-26.5 -3.5t-23.5 -1.5t-27.5 -0.5t-26 -0.5h-3.5q-31 0 -62 12q6 -12 6 -27q0 -12 6 -34t6 -33q0 -26 -21 -35q-32 -13 -85.5 -44t-99 -47.5t-99.5 -16.5q-42 0 -82.5 11.5t-67 26.5t-66 36.5t-68.5 33.5q-22 9 -22 35zM438 248q32 -14 84 -44
t95 -46t93 -16t93 16t95 46t84 44q3 1 3 6.5t-6 30t-6 37.5q0 12 -8.5 21.5t-24.5 21t-25 21.5q-7 9 -0.5 18.5t17.5 5.5q9 -3 53.5 -22t73.5 -21h3q4 0 23.5 0.5t24 0.5t20 1t21 2t18 3.5t18.5 5.5t16 7.5t17.5 11t15.5 14.5q22 22 29 49t10 65.5t12 66.5q4 13 20.5 50.5
t18.5 62.5q1 11 1 23q0 27 -9 80.5t-10 82.5q-1 23 -1 40q0 20 2 57t2 78q0 32 -1 75q-1 50 -84 137q-226 236 -516 236t-516 -236q-83 -87 -84 -137q-1 -43 -1 -75q0 -41 2 -78t2 -57q0 -17 -1 -40q-1 -29 -10 -82.5t-9 -80.5q0 -11 1 -23q2 -25 18.5 -62.5t20.5 -50.5
q9 -28 11.5 -66.5t9.5 -65.5t29 -49q33 -33 69 -40t106 -6h2h1q22 0 41.5 7t43.5 18.5t42 17.5q11 4 17.5 -5.5t-1.5 -18.5q-9 -10 -24.5 -21.5t-24 -21t-8.5 -21.5q0 -13 -6.5 -37.5t-6.5 -30t4 -6.5z" />
    <glyph glyph-name="uni2621" unicode="&#x2621;" horiz-adv-x="440" 
d="M63 1598v117h131q76 0 129.5 -53.5t53.5 -129.5v-473l-197 -387v-489q0 -28 19.5 -47t46.5 -19h131v-117h-131q-76 0 -129.5 53.5t-53.5 129.5v517l197 387v445q0 28 -19.5 47t-46.5 19h-131z" />
    <glyph glyph-name="uni262E" unicode="&#x262e;" horiz-adv-x="754" 
d="M70 1245q0 127 90 217t217 90t217 -90t90 -217v-775q0 -127 -90 -217t-217 -90t-217 90t-90 217v775zM435 871l132 -274v648q0 62 -37 112t-95 69v-555zM318 871v555q-58 -19 -94.5 -69t-36.5 -112v-648zM435 602v-313q72 24 108 89zM211 378q36 -66 107 -89v313z" />
    <glyph glyph-name="uni2639" unicode="&#x2639;" horiz-adv-x="1003" 
d="M70 1292q0 178 126 304.5t305 126.5t305.5 -126.5t126.5 -304.5v-869q0 -178 -126.5 -304.5t-305.5 -126.5q-88 0 -167.5 34t-137.5 92t-92 137.5t-34 167.5v869zM187 423q0 -130 92 -222t222 -92t222.5 92t92.5 222v869q0 130 -92.5 222t-222.5 92t-222 -92t-92 -222
v-869zM319 247v289q0 76 53 129.5t129 53.5t129.5 -53.5t53.5 -129.5v-289h-117v289q0 27 -19.5 46.5t-46.5 19.5q-28 0 -47 -19.5t-19 -46.5v-289h-116zM568 1292h116v-400h-116v400zM319 1292h117v-400h-117v400z" />
    <glyph glyph-name="smileface" unicode="&#x263a;" horiz-adv-x="1003" 
d="M70 1292q0 178 126 304.5t305 126.5t305.5 -126.5t126.5 -304.5v-869q0 -178 -126.5 -304.5t-305.5 -126.5q-88 0 -167.5 34t-137.5 92t-92 137.5t-34 167.5v869zM187 423q0 -130 92 -222t222 -92t222.5 92t92.5 222v869q0 130 -92.5 222t-222.5 92t-222 -92t-92 -222
v-869zM684 712v-289q0 -76 -53.5 -129.5t-129.5 -53.5t-129 53.5t-53 129.5v289h117v-289q0 -27 19 -46.5t46 -19.5q28 0 47.5 19.5t19.5 46.5v289h116zM568 1292h116v-400h-116v400zM319 1292h117v-400h-117v400z" />
    <glyph glyph-name="invsmileface" unicode="&#x263b;" horiz-adv-x="1003" 
d="M70 1292q0 178 126 304.5t305 126.5t305.5 -126.5t126.5 -304.5v-869q0 -178 -126.5 -304.5t-305.5 -126.5q-88 0 -167.5 34t-137.5 92t-92 137.5t-34 167.5v869zM684 712h-116v-289q0 -27 -19.5 -46.5t-47.5 -19.5q-27 0 -46 19.5t-19 46.5v289h-117v-289
q0 -76 53 -129.5t129 -53.5t129.5 53.5t53.5 129.5v289zM568 1292v-400h116v400h-116zM319 1292v-400h117v400h-117z" />
    <glyph glyph-name="uni263F" unicode="&#x263f;" horiz-adv-x="754" 
d="M187 196v117h131v176q-106 20 -177 105t-71 196v552q0 85 42.5 156.5t114.5 111.5q-33 47 -33 105h117q0 -28 19 -47t47 -19q27 0 46.5 19t19.5 47h117q0 -58 -33 -105q71 -40 114 -111.5t43 -156.5v-552q0 -112 -70.5 -196.5t-177.5 -104.5v-176h131v-117h-131v-196
h-118v196h-131zM187 790q0 -79 55.5 -134.5t134.5 -55.5t135 55.5t56 134.5l-1 552q0 79 -55.5 134.5t-134.5 55.5t-135 -55.5t-56 -134.5z" />
    <glyph glyph-name="female" unicode="&#x2640;" horiz-adv-x="754" 
d="M187 790q0 -79 55.5 -134.5t134.5 -55.5t135 55.5t56 134.5l-1 625q0 79 -55.5 134.5t-134.5 55.5t-135 -55.5t-56 -134.5zM187 196v117h131v176q-106 20 -177 105t-71 196v625q0 127 90 217t217 90t217 -90t90 -217v-625q0 -112 -70.5 -196.5t-177.5 -104.5v-176h131
v-117h-131v-196h-118v196h-131z" />
    <glyph glyph-name="uni2641" unicode="&#x2641;" horiz-adv-x="754" 
d="M684 496q0 -128 -90 -217.5t-217 -89.5t-217 90t-90 217v723q0 127 90 217t217 90t217 -90t90 -217v-723zM318 1400q-58 -19 -95 -69t-37 -112v-303h132v484zM318 315v484h-131v-303q0 -63 36.5 -112.5t94.5 -68.5zM435 315q59 19 96 68.5t37 112.5v303h-133v-484z
M435 1400v-484h132v303q0 63 -37 112.5t-95 68.5z" />
    <glyph glyph-name="male" unicode="&#x2642;" horiz-adv-x="754" 
d="M318 1314q0 84 36 158.5t99 125.5h-135v117h366v-343h-116v163l-1 -1q-60 -31 -96 -90t-36 -130v-87q107 -21 178 -105.5t71 -196.5v-625q0 -128 -90 -217.5t-217 -89.5t-217 90t-90 217v625q0 111 70.5 196t177.5 105v88zM187 300q0 -79 55.5 -134.5t134.5 -55.5
t135 55.5t56 134.5l-1 625q0 79 -55.5 134.5t-134.5 55.5t-135 -55.5t-56 -134.5z" />
    <glyph glyph-name="uni2643" unicode="&#x2643;" horiz-adv-x="550" 
d="M364 483h-66q-76 0 -130 53.5t-54 129.5l1 873q0 28 -19 47t-47 19v117q76 0 129.5 -53.5t53.5 -129.5v-873q-1 -28 18.5 -47t47.5 -19h66v1115h116v-1715h-116v483z" />
    <glyph glyph-name="uni2644" unicode="&#x2644;" horiz-adv-x="661" 
d="M430 866q0 71 -36.5 130t-95.5 90v-1086h-118v1402h-131v117h131v196h118v-196h131v-117h-131v-189q110 -37 179.5 -132.5t68.5 -214.5v-690q0 -28 19 -47t47 -19v-117q-76 0 -129.5 53.5t-53.5 129.5z" />
    <glyph glyph-name="uni2646" unicode="&#x2646;" horiz-adv-x="754" 
d="M186 1715l1 -925q0 -63 37 -112.5t94 -68.5v1106h118v-1106q58 19 95 68.5t37 112.5l-1 925h117v-925q0 -112 -70.5 -196.5t-177.5 -104.5v-176h131v-117h-131v-196h-118v196h-131v117h131v176q-106 20 -177 105t-71 196v925h116z" />
    <glyph glyph-name="uni2647" unicode="&#x2647;" horiz-adv-x="499" 
d="M253 792q28 0 47 19.5t19 46.5v674q0 28 -19 47t-47 19h-66v-806h66zM436 0h-366v1715h183q76 0 129.5 -53.5t53.5 -129.5v-674q0 -76 -53.5 -129.5t-129.5 -53.5h-66v-558h249v-117z" />
    <glyph glyph-name="spade" unicode="&#x2660;" horiz-adv-x="741" 
d="M429 0h-117v152q-32 -12 -66 -12q-76 0 -129.5 53.5t-53.5 129.5v795l307 604l308 -604v-795q0 -76 -53.5 -129.5t-129.5 -53.5q-34 0 -66 12v-152z" />
    <glyph glyph-name="uni2661" unicode="&#x2661;" horiz-adv-x="741" 
d="M429 1539q0 -25 -17 -42t-42 -17q-24 0 -41 17.5t-17 41.5q0 28 -19.5 47t-46.5 19q-28 0 -47 -19t-19 -47v-914l190 -374l191 374v914q0 28 -19.5 47t-46.5 19q-28 0 -47 -19t-19 -47zM63 597v942q0 76 53.5 129.5t129.5 53.5q72 0 124 -49q53 49 125 49
q76 0 129.5 -53.5t53.5 -129.5v-942l-308 -604z" />
    <glyph glyph-name="uni2662" unicode="&#x2662;" horiz-adv-x="741" 
d="M180 625l190 -374l191 374v465l-190 374l-191 -374v-465zM678 597l-308 -604l-307 604v521l308 604l307 -604v-521z" />
    <glyph glyph-name="club" unicode="&#x2663;" horiz-adv-x="990" 
d="M63 1000q0 76 53.5 129.5t129.5 53.5q34 0 66 -12v368q0 76 53.5 129.5t129.5 53.5t129.5 -53.5t53.5 -129.5v-368q32 12 66 12q76 0 129.5 -53.5t53.5 -129.5v-677q0 -76 -53.5 -129.5t-129.5 -53.5q-48 0 -89.5 23.5t-65.5 62.5q-35 -59 -35 -128v-98h-118v98
q0 69 -35 128q-24 -39 -65.5 -62.5t-89.5 -23.5q-76 0 -129.5 53.5t-53.5 129.5v677zM429 373q38 -34 66 -77q28 43 66 77v318q-32 -12 -66 -12t-66 12v-318z" />
    <glyph glyph-name="uni2664" unicode="&#x2664;" horiz-adv-x="741" 
d="M429 0h-117v152q-32 -12 -66 -12q-76 0 -129.5 53.5t-53.5 129.5v795l307 604l308 -604v-795q0 -76 -53.5 -129.5t-129.5 -53.5q-34 0 -66 12v-152zM312 323q0 25 17 42t41 17q25 0 42 -17.5t17 -41.5q0 -28 19.5 -47t46.5 -19q28 0 47 19t19 47v767l-191 374l-190 -374
v-767q0 -28 19.5 -47t46.5 -19q28 0 47 19t19 47z" />
    <glyph glyph-name="heart" unicode="&#x2665;" horiz-adv-x="741" 
d="M63 597v942q0 76 53.5 129.5t129.5 53.5q72 0 124 -49q53 49 125 49q76 0 129.5 -53.5t53.5 -129.5v-942l-308 -604z" />
    <glyph glyph-name="diamond" unicode="&#x2666;" horiz-adv-x="741" 
d="M678 597l-308 -604l-307 604v521l308 604l307 -604v-521z" />
    <glyph glyph-name="uni2667" unicode="&#x2667;" horiz-adv-x="990" 
d="M63 1000q0 76 53.5 129.5t129.5 53.5q34 0 66 -12v368q0 76 53.5 129.5t129.5 53.5t129.5 -53.5t53.5 -129.5v-368q32 12 66 12q76 0 129.5 -53.5t53.5 -129.5v-677q0 -76 -53.5 -129.5t-129.5 -53.5q-48 0 -89.5 23.5t-65.5 62.5q-35 -59 -35 -128v-98h-118v98
q0 69 -35 128q-24 -39 -65.5 -62.5t-89.5 -23.5q-76 0 -129.5 53.5t-53.5 129.5v677zM810 1000q0 28 -19.5 47t-46.5 19q-28 0 -47 -19t-19 -47v-138v-539q0 -28 19 -47t47 -19q27 0 46.5 19t19.5 47v677zM561 1539q0 28 -19.5 47t-46.5 19q-28 0 -47 -19t-19 -47v-539v-138
q0 -28 19 -47t47 -19q27 0 46.5 19t19.5 47v138v539zM429 373q38 -34 66 -77q28 43 66 77v318q-32 -12 -66 -12t-66 12v-318zM312 1000q0 28 -19.5 47t-46.5 19q-28 0 -47 -19t-19 -47v-677q0 -28 19 -47t47 -19q27 0 46.5 19t19.5 47v539v138z" />
    <glyph glyph-name="uni267F" unicode="&#x267f;" horiz-adv-x="922" 
d="M602 924q68 -79 75 -180h182v-572h-117v456h-65v-329q0 -127 -89.5 -217t-217.5 -90q-127 0 -217 90t-90 217v423q0 111 71 196t178 105v344q-55 18 -90 66t-35 107q0 76 53.5 129.5t129.5 53.5t129.5 -53.5t53.5 -129.5q0 -59 -34.5 -107t-89.5 -66v-338h248v-105h-75z
M180 722v-423q0 -79 55.5 -134.5t134.5 -55.5t135 55.5t56 134.5v329h-249v275q-59 -19 -95.5 -68.5t-36.5 -112.5zM429 903v-159h130q-7 56 -42.5 99t-87.5 60zM436 1540q0 28 -19 47t-47 19q-27 0 -46.5 -19t-19.5 -47q0 -27 19.5 -46.5t46.5 -19.5q28 0 47 19.5t19 46.5z
" />
    <glyph glyph-name="uni2683" unicode="&#x2683;" horiz-adv-x="754" 
d="M70 1102v313q0 127 90 217t217 90t217 -90t90 -217v-625q0 -112 -70.5 -196.5t-177.5 -104.5v-176h131v-117h-131v-196h-118v196h-131v117h131v287h59q79 0 135 55.5t56 134.5l-1 625q0 79 -55.5 134.5t-134.5 55.5t-135 -55.5t-56 -134.5l1 -313h-117z" />
    <glyph glyph-name="uni2694" unicode="&#x2694;" horiz-adv-x="1123" 
d="M851 360q0 11 -10 11q-1 0 -2.5 -0.5t-2.5 -0.5l-81 -39l3 -6l38 18l3 -7l-38 -18l3 -7l81 39q6 3 6 10zM842 357l-37 -18l-3 7l37 18q3 1 5 -3q2 -3 -2 -4zM745 352l83 39q0 -9 -8 -12l-72 -34l3 -7l72 35q7 3 10.5 11t-0.5 17l-91 -43zM738 365l81 39q7 4 5.5 12.5
t-9.5 8.5q-1 0 -3 -1h-2l-81 -39l3 -6l38 18l3 -7l-38 -18zM816 411l-37 -18l-3 7l37 18q3 1 5 -3q2 -3 -2 -4zM807 453l-6 -3l3 -6l-84 -40l3 -7l84 41l3 -6l6 3zM792 469q3 -8 0 -9l-31 -15q-4 -2 -7 5zM748 447q4 -6 0 -8l-37 -18l3 -6l37 18q3 2 5 5q5 0 8 1l31 15
q10 4 0 24l-90 -44l3 -6zM773 500l-72 -34q-6 -3 -6 -10q0 -5 5.5 -8.5t9.5 -0.5l72 34q8 4 6 12.5t-10 8.5q-3 0 -5 -2zM779 487l-71 -34q-2 -1 -4 0t-2.5 3t2.5 4l72 34q4 2 6 -2q1 -3 -3 -5zM779 512q-1 1 -2.5 4t-2 4.5t-2 3t-3.5 2.5t-4 1q-3 0 -5 -1l-71 -34
q-6 -3 -6 -10q0 -17 25 -4l-3 6q-13 -7 -15 -4q-1 4 2 6l71 34q4 2 7 -5l-13 -7l3 -6zM439 495l-84 40l-3 -6l90 -43l8 16l-6 3zM438 478l-81 39q-5 2 -10 -1t-5 -9q0 -7 6 -9l81 -39l3 6l-38 18l4 7l37 -18zM354 511l37 -18l-3 -7l-37 18q-4 2 -1 6q2 2 4 1zM406 411
l-83 40q7 6 15 1l71 -34l3 6l-71 34q-19 9 -29 -10l91 -43zM400 397l-81 39q-5 3 -10.5 0t-5.5 -9q0 -7 6 -10l81 -39l3 6l-37 18l3 7l38 -18zM316 430l37 -18l-4 -7l-37 18q-2 1 -2 3t2 3.5t4 0.5zM334 388q4 -2 0 -9l-38 19q4 6 7 5zM340 376q5 7 7 6l37 -18l3 6l-37 18
q-3 2 -8 0q-2 5 -5 6l-31 15q-11 5 -19 -14l90 -44l3 6zM364 348l-81 39l-3 -6l81 -39q4 -2 1 -6q-2 -2 -4 -1l-81 39l-3 -6l81 -39q6 -3 10.5 0.5t4.5 9.5t-6 9zM351 297q10 19 0 24l-71 34q-10 4 -19 -14zM270 344q4 6 7 5l71 -34q3 -2 0 -9zM416 432q9 18 0 23l-71 35
q-11 5 -19 -15zM335 478q2 7 7 5l71 -34q3 -1 0 -8zM117 -141q-26 0 -46.5 19t-20.5 47q0 34 27 53l122 253l-58 28l51 105l58 -28l246 512l-447 930l27 78l78 -27l407 -846l407 846l78 27l28 -78l-448 -930l247 -512l58 28l50 -105l-58 -28l122 -253q27 -18 27 -52
q0 -27 -18.5 -47t-47.5 -20q-27 0 -47 20t-19 49l-122 252l-58 -28l-50 106l58 27l-207 429l-206 -429l58 -27l-51 -106l-58 28l-121 -252q1 -29 -19.5 -49t-46.5 -20z" />
    <glyph glyph-name="uni269C" unicode="&#x269c;" horiz-adv-x="727" 
d="M455 646v-116h-33v-191q0 -13 10 -23t23 -10t23 10t10 23v98h117v-98q0 -62 -44 -106t-106 -44q-17 0 -33 4v-193h-117v192q-16 -3 -32 -3q-62 0 -106 44t-44 106v98h117v-98q0 -14 9.5 -23.5t23.5 -9.5q13 0 22.5 9.5t9.5 23.5v191h-32v116h32v424q0 28 -19.5 47
t-46.5 19q-28 0 -47 -19t-19 -47v-392h-117v392q0 76 53.5 129.5t129.5 53.5q34 0 66 -12v474h117v-474q32 12 66 12q76 0 129.5 -53.5t53.5 -129.5v-392h-117v392q0 28 -19.5 47t-46.5 19q-28 0 -47 -19t-19 -47v-424h33z" />
    <glyph glyph-name="uni26BE" unicode="&#x26be;" 
d="M70 1539q0 76 53.5 129.5t129.5 53.5t129.5 -53.5t53.5 -129.5v-526v-677v-160q0 -76 -53.5 -129.5t-129.5 -53.5t-129.5 53.5t-53.5 129.5v526v677v160zM319 1539q0 28 -19.5 47t-46.5 19q-28 0 -47 -19t-19 -47v-179q74 -25 132 -79v258zM187 1233v-531q0 -71 36 -130
t96 -90v531q0 71 -36 130t-96 90zM187 434v-258q0 -28 19 -47t47 -19q27 0 46.5 19t19.5 47v179q-74 25 -132 79z" />
    <glyph glyph-name="uni26E2" unicode="&#x26e2;" horiz-adv-x="754" 
d="M567 925q0 79 -55.5 134.5t-134.5 55.5t-135 -55.5t-56 -134.5l1 -625q0 -79 55.5 -134.5t134.5 -55.5t135 55.5t56 134.5zM318 1715h118v-489q106 -20 177 -105t71 -196v-625q0 -128 -90 -217.5t-217 -89.5t-217 90t-90 217v625q0 112 70.5 196.5t177.5 104.5v489z
M318 698h118v-172h-118v172z" />
    <glyph glyph-name="uni271D" unicode="&#x271d;" horiz-adv-x="698" 
d="M407 0h-116v1314h-249v116h249v285h116v-285h249v-116h-249v-1314z" />
    <glyph glyph-name="uni2721" unicode="&#x2721;" horiz-adv-x="726" 
d="M403 460q-22 24 -40 50q-17 -26 -39 -50h79zM324 1255q22 -24 39 -50q18 26 40 50h-79zM305 1715h117v-343h249v-117q-103 0 -176 -73t-73 -176v-297q0 -103 73 -176t176 -73v-117h-249v-343h-117v343h-249v117q103 0 176 73t73 176v297q0 103 -73 176t-176 73v117h249
v343z" />
    <glyph glyph-name="uni272A" unicode="&#x272a;" horiz-adv-x="1141" 
d="M56 858q0 104 40.5 199.5t109.5 164t164 109.5t200 41q140 0 258.5 -69t187.5 -187.5t69 -257.5q0 -140 -69 -258.5t-187.5 -187.5t-258.5 -69q-105 0 -200 41t-164 110t-109.5 164t-40.5 200zM725 1178l-155 194l-154 -194h-249l56 -242l-155 -194l223 -108l56 -242
l223 108l224 -108l55 242l224 108l-155 194l55 242h-248z" />
    <glyph glyph-name="uni272B" unicode="&#x272b;" horiz-adv-x="1116" 
d="M905 936l155 -194l-224 -107l-55 -242l-223 108l-224 -108l-55 242l-223 107l154 194l-55 242h248l155 194l154 -194h249zM605 954h-94l-59 -73l21 -92l85 -40l84 40l21 92z" />
    <glyph glyph-name="uni272C" unicode="&#x272c;" horiz-adv-x="1116" 
d="M905 936l155 -194l-224 -107l-55 -242l-223 108l-224 -108l-55 242l-223 107l154 194l-55 242h248l155 194l154 -194h249zM558 1185l-99 -124h-157l35 -154l-99 -123l143 -68l35 -154l142 68l142 -68l35 154l142 68l-98 123l35 154h-158zM605 954l58 -73l-21 -92l-84 -40
l-85 40l-21 92l59 73h94z" />
    <glyph glyph-name="uni2786" unicode="&#x2786;" horiz-adv-x="991" 
d="M70 1298q0 176 125 300.5t300 124.5q176 0 301 -124.5t125 -300.5v-881q0 -176 -125 -300.5t-301 -124.5q-175 0 -300 125t-125 300v881zM187 417q0 -127 90.5 -217.5t217.5 -90.5q128 0 218.5 90t90.5 218v881q0 128 -90.5 218t-218.5 90q-127 0 -217.5 -90t-90.5 -218
v-881zM556 1350h-238v116h354v-319l-162 -395v-503h-117v526l163 396v179z" />
    <glyph glyph-name="uni2790" unicode="&#x2790;" horiz-adv-x="991" 
d="M70 1298q0 176 125 300.5t300 124.5q176 0 301 -124.5t125 -300.5v-881q0 -176 -125 -300.5t-301 -124.5q-175 0 -300 125t-125 300v881zM556 1350v-179l-163 -396v-526h117v503l162 395v319h-354v-116h238z" />
    <glyph glyph-name="uni2B50" unicode="&#x2b50;" horiz-adv-x="754" 
d="M191 708l-149 72l103 130l-37 161h166l103 129l103 -129h165l-36 -161l103 -130l-149 -72l-37 -161l-149 72l-149 -72zM224 822l68 -33l17 -73l68 33l68 -33l16 73l68 33l-47 59l17 73h-75l-47 59l-47 -59h-75l16 -73z" />
    <glyph glyph-name="uni2B51" unicode="&#x2b51;" horiz-adv-x="754" 
d="M480 1071h165l-36 -161l103 -130l-149 -72l-37 -161l-149 72l-149 -72l-37 161l-149 72l103 130l-37 161h166l103 129z" />
    <glyph glyph-name="uni2B52" unicode="&#x2b52;" horiz-adv-x="754" 
d="M191 708l-149 72l103 130l-37 161h166l103 129l103 -129h165l-36 -161l103 -130l-149 -72l-37 -161l-149 72l-149 -72zM224 822l68 -33l17 -73l68 33l68 -33l16 73l68 33l-47 59l17 73h-75l-47 59l-47 -59h-75l16 -73z" />
    <glyph glyph-name="uni2C6F" unicode="&#x2c6f;" 
d="M187 183q0 -28 19.5 -47t46.5 -19q28 0 47 19t19 47v705h-132v-705zM70 1722h117v-717h132v717h117v-1539q0 -76 -53.5 -129.5t-129.5 -53.5t-129.5 53.5t-53.5 129.5v1539z" />
    <glyph glyph-name="uni2C75" unicode="&#x2c75;" horiz-adv-x="368" 
d="M319 839h-132v-839h-117v1715h117v-759h132v-117z" />
    <glyph glyph-name="uni2E17" unicode="&#x2e17;" horiz-adv-x="291" 
d="M56 775v118l179 23v-118zM56 1075v118l179 23v-118z" />
    <glyph glyph-name="uni2E18" unicode="&#x2e18;" horiz-adv-x="499" 
d="M180 183q0 -28 19.5 -47t46.5 -19q28 0 47 19t19 47v198h117v-198q0 -76 -53.5 -129.5t-129.5 -53.5t-129.5 53.5t-53.5 129.5v600l249 249v339h117v-810h-117v301l-132 -132v-547zM429 1551h-117v172h117v-172z" />
    <glyph glyph-name="uni2E19" unicode="&#x2e19;" horiz-adv-x="1026" 
d="M572 0h-117v172l-399 398l83 83l316 -316v80l-364 364l82 83l282 -282v80l-295 295l83 82l212 -212v80l-226 225l83 83l143 -143v80l-156 156l82 83l74 -74v80l-87 87l83 82l4 -4v153h117v-153l4 4l83 -82l-87 -87v-80l73 74l83 -83l-156 -156v-80l142 143l83 -83
l-225 -225v-80l212 212l82 -82l-294 -295v-80l281 282l83 -83l-364 -364v-80l316 316l82 -83l-398 -398v-172z" />
    <glyph glyph-name="uni2E28" unicode="&#x2e28;" horiz-adv-x="566" 
d="M327 1581q0 76 53.5 129.5t129.5 53.5v-117q-28 0 -47 -19t-19 -47v-1594q0 -28 19 -47t47 -19v-117q-76 0 -129.5 53.5t-53.5 129.5v1594zM70 1581q0 76 53.5 129.5t129.5 53.5v-117q-28 0 -47 -19t-19 -47v-1594q0 -28 19 -47t47 -19v-117q-76 0 -129.5 53.5
t-53.5 129.5v1594z" />
    </font>
</defs>
</svg>
