<?xml version="1.0" encoding="UTF-8" ?>
<!DOCTYPE svg PUBLIC "-//W3C//DTD SVG 1.1//EN" "http://www.w3.org/Graphics/SVG/1.1/DTD/svg11.dtd">
<svg width="683pt" height="341pt" viewBox="0 0 683 341" version="1.1" xmlns="http://www.w3.org/2000/svg">
<g id="#fdfdfdfe">
<path fill="#fdfdfd" opacity="1.00" d=" M 511.80 0.11 C 515.20 0.11 518.60 0.11 522.00 0.12 C 522.00 1.00 522.00 2.78 522.00 3.67 C 518.60 3.67 515.20 3.67 511.80 3.67 C 511.80 2.78 511.80 1.00 511.80 0.11 Z" />
<path fill="#fdfdfd" opacity="1.00" d=" M 214.34 8.73 C 216.15 8.73 217.96 8.72 219.78 8.72 C 219.81 24.79 219.78 40.86 219.80 56.92 C 217.97 56.92 216.15 56.92 214.33 56.92 C 214.34 47.78 214.33 38.64 214.34 29.50 C 211.62 29.49 208.92 29.49 206.21 29.50 C 206.21 38.64 206.21 47.77 206.21 56.91 C 204.41 56.92 202.61 56.92 200.81 56.93 C 200.81 40.86 200.81 24.79 200.81 8.73 C 202.61 8.73 204.41 8.73 206.21 8.73 C 206.21 13.79 206.23 18.84 206.19 23.90 C 208.91 23.93 211.62 23.92 214.34 23.90 C 214.34 18.84 214.33 13.79 214.34 8.73 Z" />
<path fill="#fdfdfd" opacity="1.00" d=" M 232.59 8.75 C 235.36 7.97 238.29 8.25 241.13 8.32 C 244.64 8.27 247.65 11.52 247.45 15.00 C 247.48 26.98 247.53 38.95 247.43 50.92 C 247.47 54.39 244.45 57.35 240.99 57.29 C 237.47 57.32 233.29 58.08 230.45 55.46 C 228.50 53.54 228.43 50.58 228.43 48.02 C 228.49 37.14 228.37 26.25 228.49 15.37 C 228.47 12.62 229.90 9.75 232.59 8.75 M 233.93 17.98 C 234.03 28.72 233.82 39.47 234.03 50.21 C 234.73 53.28 239.07 51.34 241.31 51.86 C 241.79 50.63 242.26 49.36 242.16 48.02 C 242.15 39.34 242.14 30.67 242.16 22.00 C 242.12 19.23 242.47 16.35 241.38 13.72 C 239.13 13.68 236.88 13.67 234.63 13.69 C 234.13 15.07 233.83 16.51 233.93 17.98 Z" />
<path fill="#fdfdfd" opacity="1.00" d=" M 310.33 8.61 C 313.19 8.02 316.16 8.20 319.06 8.39 C 322.36 8.63 324.78 11.77 324.73 14.99 C 324.81 26.70 324.76 38.41 324.75 50.12 C 324.97 53.49 322.57 56.89 319.08 57.20 C 315.67 57.37 311.91 57.94 308.77 56.26 C 306.22 54.82 305.66 51.63 305.72 48.95 C 305.74 37.96 305.71 26.97 305.74 15.99 C 305.54 12.89 307.12 9.44 310.33 8.61 M 311.66 13.77 C 310.83 17.80 311.38 21.94 311.24 26.02 C 311.34 34.33 311.02 42.66 311.39 50.96 C 312.93 52.70 315.85 51.69 317.94 51.78 C 319.76 51.41 319.23 49.38 319.38 48.03 C 319.27 36.98 319.58 25.93 319.23 14.89 C 317.52 12.56 314.11 14.08 311.66 13.77 Z" />
<path fill="#fdfdfd" opacity="1.00" d=" M 333.74 15.01 C 333.58 11.55 336.46 8.33 339.96 8.32 C 344.09 8.21 349.88 7.34 351.94 12.00 C 353.30 16.23 352.39 20.82 352.59 25.19 C 350.80 25.18 349.01 25.19 347.22 25.19 C 347.10 21.80 347.31 18.39 347.09 15.00 C 345.63 12.49 342.08 14.11 339.70 13.74 C 339.30 15.11 339.03 16.52 339.09 17.95 C 339.12 27.96 339.11 37.96 339.09 47.97 C 339.22 49.19 338.81 50.84 340.00 51.67 C 342.03 52.04 344.11 51.85 346.16 51.87 C 346.42 51.48 346.94 50.70 347.20 50.32 C 347.15 45.61 347.18 40.91 347.18 36.20 C 348.99 36.20 350.81 36.20 352.63 36.20 C 352.56 41.15 352.77 46.10 352.55 51.03 C 352.47 54.48 349.46 57.39 346.00 57.30 C 342.96 57.36 339.68 57.80 336.88 56.38 C 334.56 55.19 333.65 52.43 333.71 49.98 C 333.72 38.32 333.68 26.66 333.74 15.01 Z" />
<path fill="#fdfdfd" opacity="1.00" d=" M 417.56 8.76 C 420.64 7.93 423.92 8.20 427.07 8.43 C 430.41 8.79 432.61 12.14 432.51 15.35 C 432.61 26.59 432.52 37.84 432.55 49.08 C 432.64 52.05 431.71 55.60 428.61 56.72 C 425.54 57.75 422.17 57.42 419.00 57.18 C 415.94 56.81 413.57 54.01 413.57 50.95 C 413.44 39.30 413.56 27.64 413.52 15.98 C 413.27 13.04 414.67 9.86 417.56 8.76 M 418.84 21.97 C 418.86 30.66 418.84 39.35 418.84 48.04 C 418.74 49.37 419.22 50.63 419.65 51.86 C 421.90 51.32 426.24 53.31 426.97 50.19 C 427.18 40.46 426.97 30.72 427.06 20.98 C 427.03 18.54 427.34 16.01 426.37 13.70 C 424.10 13.67 421.84 13.67 419.58 13.72 C 418.55 16.35 418.86 19.21 418.84 21.97 Z" />
<path fill="#fdfdfd" opacity="1.00" d=" M 507.55 8.75 C 509.31 8.73 511.06 8.71 512.83 8.66 C 513.51 14.93 512.93 21.25 513.18 27.54 C 515.58 24.83 518.24 22.36 520.61 19.61 C 521.09 16.02 520.69 12.36 520.81 8.74 C 522.61 8.73 524.42 8.73 526.24 8.72 C 526.24 24.79 526.24 40.86 526.24 56.93 C 524.42 56.92 522.61 56.91 520.81 56.89 C 520.79 46.76 520.86 36.62 520.77 26.49 C 518.24 29.05 515.70 31.60 513.15 34.13 C 513.13 41.71 513.13 49.28 513.15 56.85 C 511.28 56.90 509.41 56.93 507.56 56.95 C 507.55 40.88 507.55 24.82 507.55 8.75 Z" />
<path fill="#fdfdfd" opacity="1.00" d=" M 7.09 8.73 C 8.90 8.73 10.71 8.73 12.52 8.73 C 12.52 13.97 12.52 19.20 12.52 24.44 C 13.98 24.44 15.44 24.45 16.91 24.46 C 18.70 19.22 20.39 13.94 22.23 8.71 C 24.16 8.72 26.08 8.73 28.02 8.74 C 26.09 14.78 23.85 20.74 22.10 26.84 C 24.05 36.90 26.35 46.89 28.45 56.92 C 26.58 56.92 24.71 56.92 22.84 56.92 C 20.83 47.65 18.90 38.36 16.89 29.09 C 15.43 29.09 13.97 29.09 12.52 29.09 C 12.52 38.37 12.52 47.65 12.52 56.94 C 10.66 56.92 8.81 56.91 6.95 56.86 C 7.26 40.82 7.00 24.77 7.09 8.73 Z" />
<path fill="#fdfdfd" opacity="1.00" d=" M 33.99 8.73 C 35.85 8.73 37.72 8.72 39.58 8.72 C 41.81 18.06 43.13 27.65 45.91 36.84 C 46.83 36.14 47.37 35.23 47.53 34.12 C 49.11 25.64 50.48 17.12 52.27 8.69 C 54.07 8.71 55.87 8.73 57.68 8.75 C 55.27 22.11 52.85 35.47 50.47 48.85 C 50.06 51.25 49.54 53.91 47.49 55.49 C 45.06 57.41 41.78 56.82 38.90 56.95 C 38.89 55.11 38.89 53.28 38.89 51.44 C 40.65 51.42 42.41 51.39 44.16 51.34 C 45.15 48.15 45.62 44.83 46.29 41.56 C 44.69 41.55 43.09 41.55 41.49 41.55 C 38.96 30.62 36.47 19.67 33.99 8.73 Z" />
<path fill="#fdfdfd" opacity="1.00" d=" M 64.65 51.45 C 65.92 37.26 65.90 22.95 66.78 8.73 C 72.32 8.73 77.85 8.72 83.38 8.73 C 83.38 24.79 83.39 40.86 83.38 56.92 C 81.59 56.92 79.79 56.92 78.00 56.93 C 77.99 42.67 78.01 28.42 77.99 14.17 C 75.99 14.17 73.99 14.17 71.99 14.19 C 71.51 26.16 70.89 38.12 70.42 50.08 C 70.25 52.25 70.02 54.97 67.91 56.16 C 65.91 57.23 63.55 56.83 61.37 56.96 C 61.37 55.11 61.37 53.25 61.37 51.40 C 62.19 51.41 63.83 51.44 64.65 51.45 Z" />
<path fill="#fdfdfd" opacity="1.00" d=" M 93.10 8.73 C 94.91 8.73 96.71 8.73 98.52 8.73 C 98.52 13.77 98.53 18.82 98.52 23.86 C 102.79 23.74 109.16 23.26 110.57 28.54 C 111.33 34.97 110.67 41.52 110.91 47.99 C 111.28 51.33 110.22 55.47 106.56 56.45 C 102.16 57.42 97.58 56.72 93.10 56.92 C 93.10 40.86 93.10 24.79 93.10 8.73 M 98.52 29.36 C 98.52 36.71 98.52 44.07 98.52 51.43 C 100.67 51.37 102.87 51.63 104.99 51.12 C 105.84 49.57 105.42 47.70 105.54 46.01 C 105.40 40.56 105.76 35.10 105.28 29.66 C 103.04 29.37 100.78 29.34 98.52 29.36 Z" />
<path fill="#fdfdfd" opacity="1.00" d=" M 114.16 8.73 C 121.83 8.73 129.50 8.72 137.16 8.73 C 137.16 10.54 137.16 12.36 137.15 14.17 C 134.25 14.17 131.35 14.17 128.45 14.18 C 128.45 28.43 128.45 42.67 128.45 56.92 C 126.61 56.92 124.78 56.92 122.95 56.92 C 122.95 42.67 122.96 28.42 122.95 14.17 C 120.04 14.17 117.13 14.17 114.22 14.18 C 114.19 12.36 114.17 10.54 114.16 8.73 Z" />
<path fill="#fdfdfd" opacity="1.00" d=" M 143.32 8.72 C 145.19 8.73 147.07 8.73 148.95 8.74 C 150.90 17.72 152.62 26.75 154.72 35.69 C 155.12 35.91 155.91 36.37 156.30 36.60 C 158.27 27.36 159.68 18.00 161.48 8.73 C 163.32 8.73 165.16 8.73 167.01 8.73 C 164.51 22.53 162.06 36.34 159.56 50.14 C 159.17 52.62 157.93 55.25 155.50 56.29 C 153.21 57.20 150.69 56.86 148.29 56.94 C 148.28 55.10 148.28 53.26 148.29 51.42 C 149.96 51.42 151.63 51.41 153.31 51.42 C 154.61 48.28 154.90 44.85 155.57 41.55 C 153.98 41.54 152.39 41.54 150.80 41.54 C 148.29 30.61 145.83 19.66 143.32 8.72 Z" />
<path fill="#fdfdfd" opacity="1.00" d=" M 174.23 8.73 C 178.48 8.84 182.76 8.46 186.99 8.92 C 190.26 9.52 192.19 12.84 192.13 15.98 C 192.21 21.65 192.12 27.32 192.16 32.99 C 192.21 35.61 191.81 38.72 189.43 40.30 C 186.58 42.26 182.94 41.52 179.71 41.67 C 179.71 46.75 179.71 51.84 179.71 56.92 C 177.88 56.92 176.06 56.92 174.24 56.92 C 174.24 40.86 174.24 24.80 174.23 8.73 M 179.71 14.16 C 179.71 21.51 179.69 28.86 179.72 36.21 C 182.02 36.17 184.44 36.52 186.58 35.45 C 186.40 28.55 186.99 21.58 186.29 14.72 C 184.31 13.67 181.87 14.36 179.71 14.16 Z" />
<path fill="#fdfdfd" opacity="1.00" d=" M 278.13 47.74 C 278.63 34.73 279.20 21.73 279.71 8.72 C 285.11 8.73 290.50 8.72 295.90 8.73 C 295.90 22.94 295.90 37.16 295.90 51.38 C 297.15 51.40 298.40 51.42 299.65 51.43 C 299.65 55.38 299.66 59.32 299.63 63.27 C 298.36 63.26 297.10 63.26 295.84 63.26 C 295.49 61.15 295.15 59.03 294.81 56.92 C 289.33 56.93 283.85 56.92 278.37 56.92 C 278.20 59.04 278.03 61.15 277.84 63.26 C 276.40 63.26 274.96 63.26 273.52 63.26 C 273.50 59.35 273.51 55.43 273.50 51.52 C 274.69 51.48 275.88 51.38 277.07 51.22 C 277.83 50.22 278.09 48.97 278.13 47.74 M 284.90 14.20 C 284.50 25.14 284.02 36.08 283.55 47.01 C 283.52 48.53 283.17 50.00 282.77 51.45 C 285.33 51.41 287.90 51.42 290.48 51.42 C 290.48 39.00 290.48 26.58 290.47 14.16 C 288.61 14.17 286.75 14.18 284.90 14.20 Z" />
<path fill="#fdfdfd" opacity="1.00" d=" M 359.35 8.72 C 361.23 8.73 363.11 8.73 365.00 8.75 C 366.95 17.66 368.59 26.67 370.78 35.52 C 371.12 35.83 371.80 36.47 372.14 36.79 C 374.48 27.56 375.61 18.06 377.52 8.73 C 379.35 8.73 381.20 8.73 383.04 8.73 C 380.50 22.81 378.03 36.90 375.42 50.96 C 374.96 53.40 373.37 55.80 370.90 56.53 C 368.76 57.11 366.51 56.89 364.33 56.94 C 364.32 55.10 364.32 53.26 364.33 51.42 C 365.99 51.42 367.65 51.42 369.32 51.42 C 370.75 48.33 370.88 44.86 371.61 41.57 C 369.99 41.55 368.39 41.52 366.78 41.48 C 364.38 30.54 361.84 19.64 359.35 8.72 Z" />
<path fill="#fdfdfd" opacity="1.00" d=" M 390.27 8.73 C 395.65 8.72 401.03 8.73 406.41 8.73 C 406.40 10.54 406.40 12.36 406.38 14.17 C 402.84 14.17 399.29 14.17 395.75 14.17 C 395.75 28.42 395.74 42.67 395.75 56.92 C 393.92 56.92 392.09 56.92 390.27 56.92 C 390.27 40.86 390.27 24.79 390.27 8.73 Z" />
<path fill="#fdfdfd" opacity="1.00" d=" M 441.50 8.73 C 446.19 9.06 451.09 8.01 455.63 9.34 C 460.17 11.31 459.49 16.96 459.33 21.00 C 459.37 23.41 457.86 25.36 455.96 26.65 C 457.54 28.07 459.25 29.68 459.28 31.99 C 459.52 37.97 459.36 43.97 459.37 49.95 C 459.49 53.08 457.33 56.21 454.15 56.68 C 449.96 57.21 445.71 56.80 441.50 56.92 C 441.50 40.86 441.50 24.79 441.50 8.73 M 446.79 14.37 C 447.21 17.48 447.21 20.63 446.82 23.74 C 448.51 23.83 450.23 24.09 451.92 23.74 C 454.62 22.38 454.09 18.67 453.95 16.18 C 453.61 12.74 449.08 14.54 446.79 14.37 M 447.21 29.38 C 446.70 36.73 446.68 44.15 447.21 51.49 C 449.29 51.17 451.78 51.99 453.64 50.82 C 454.35 46.59 453.95 42.28 454.06 38.02 C 454.02 35.64 454.30 33.14 453.37 30.88 C 451.97 28.86 449.26 29.72 447.21 29.38 Z" />
<path fill="#fdfdfd" opacity="1.00" d=" M 468.33 56.92 C 468.34 40.85 468.32 24.79 468.34 8.72 C 470.17 8.73 472.00 8.73 473.84 8.73 C 473.84 13.77 473.83 18.82 473.84 23.87 C 477.78 23.94 483.21 23.10 485.40 27.30 C 487.21 32.29 485.96 37.79 486.33 42.99 C 486.08 47.35 487.58 53.38 482.98 55.98 C 478.36 57.82 473.18 56.56 468.33 56.92 M 473.82 29.40 C 473.86 36.74 473.82 44.09 473.84 51.43 C 476.02 51.12 478.79 52.13 480.60 50.70 C 480.88 43.66 481.04 36.54 480.46 29.51 C 478.25 29.38 476.03 29.36 473.82 29.40 Z" />
<path fill="#fdfdfd" opacity="1.00" d=" M 492.53 8.72 C 494.38 8.73 496.24 8.73 498.11 8.74 C 498.11 24.79 498.10 40.83 498.11 56.87 C 496.25 56.91 494.38 56.92 492.53 56.94 C 492.53 40.87 492.53 24.80 492.53 8.72 Z" />
<path fill="#fdfdfd" opacity="1.00" d=" M 548.11 8.73 C 549.87 8.73 551.64 8.73 553.41 8.73 C 553.42 22.96 553.41 37.19 553.42 51.42 C 555.86 51.42 558.31 51.42 560.76 51.41 C 560.76 37.18 560.76 22.96 560.76 8.73 C 562.59 8.73 564.42 8.73 566.26 8.73 C 566.31 22.98 566.16 37.23 566.33 51.48 C 567.78 51.45 569.24 51.42 570.71 51.39 C 570.72 55.35 570.72 59.31 570.69 63.27 C 569.44 63.26 568.20 63.26 566.97 63.26 C 566.59 61.14 566.22 59.03 565.85 56.92 C 559.93 56.93 554.02 56.93 548.11 56.92 C 548.11 40.86 548.10 24.79 548.11 8.73 Z" />
<path fill="#fdfdfd" opacity="1.00" d=" M 577.38 56.92 C 577.39 40.85 577.38 24.79 577.39 8.72 C 582.74 8.73 588.09 8.72 593.45 8.73 C 593.43 10.54 593.42 12.36 593.41 14.17 C 589.86 14.17 586.32 14.17 582.78 14.17 C 582.77 17.40 582.77 20.64 582.77 23.87 C 585.45 23.88 588.12 23.88 590.80 23.88 C 590.79 25.75 590.80 27.62 590.80 29.50 C 588.12 29.49 585.44 29.49 582.78 29.50 C 582.77 36.80 582.77 44.11 582.78 51.41 C 586.33 51.42 589.88 51.42 593.44 51.42 C 593.43 53.25 593.43 55.09 593.44 56.92 C 588.09 56.93 582.73 56.93 577.38 56.92 Z" />
<path fill="#fdfdfd" opacity="1.00" d=" M 601.86 8.74 C 603.67 8.73 605.48 8.73 607.31 8.72 C 607.30 13.77 607.34 18.82 607.27 23.87 C 610.00 23.94 612.73 23.93 615.46 23.89 C 615.45 18.84 615.45 13.78 615.46 8.73 C 617.26 8.73 619.08 8.73 620.90 8.73 C 620.91 24.79 620.90 40.86 620.91 56.93 C 619.08 56.92 617.26 56.92 615.45 56.92 C 615.46 47.78 615.46 38.64 615.45 29.50 C 612.74 29.49 610.02 29.49 607.32 29.49 C 607.30 38.64 607.32 47.79 607.31 56.94 C 605.48 56.92 603.67 56.91 601.85 56.87 C 601.87 40.83 601.85 24.78 601.86 8.74 Z" />
<path fill="#fdfdfd" opacity="1.00" d=" M 627.84 8.73 C 635.53 8.73 643.21 8.72 650.90 8.73 C 650.88 10.55 650.87 12.36 650.84 14.18 C 647.93 14.17 645.03 14.17 642.13 14.17 C 642.13 28.40 642.12 42.63 642.13 56.87 C 640.27 56.91 638.41 56.93 636.56 56.94 C 636.55 42.69 636.56 28.43 636.56 14.18 C 633.65 14.17 630.75 14.17 627.85 14.17 C 627.84 12.36 627.83 10.54 627.84 8.73 Z" />
<path fill="#fdfdfd" opacity="1.00" d=" M 658.23 8.73 C 662.17 8.77 666.11 8.62 670.06 8.78 C 673.18 8.97 675.86 11.70 675.96 14.85 C 676.33 20.54 675.99 26.25 676.13 31.95 C 676.09 34.73 676.19 38.08 673.82 40.02 C 670.94 42.33 667.01 41.51 663.62 41.67 C 663.61 46.75 663.61 51.84 663.62 56.92 C 661.81 56.92 660.02 56.92 658.23 56.92 C 658.23 40.86 658.23 24.79 658.23 8.73 M 663.62 14.16 C 663.62 21.51 663.60 28.86 663.63 36.21 C 665.94 36.15 668.41 36.57 670.54 35.40 C 670.35 28.59 670.72 21.77 670.35 14.97 C 668.62 13.41 665.77 14.48 663.62 14.16 Z" />
<path fill="#fdfdfd" opacity="1.00" d=" M 255.16 24.25 C 259.67 24.25 264.18 24.25 268.69 24.25 C 268.69 25.81 268.69 27.36 268.70 28.92 C 264.18 28.92 259.67 28.92 255.16 28.92 C 255.15 27.36 255.16 25.81 255.16 24.25 Z" />
<path fill="#fdfdfd" opacity="1.00" d=" M 172.61 81.85 C 182.67 80.21 192.91 81.07 203.05 80.84 C 213.10 80.75 223.75 82.49 231.72 89.06 C 240.83 96.44 244.20 108.67 244.27 119.98 C 244.27 180.31 244.26 240.63 244.27 300.96 C 244.18 310.41 242.01 320.28 235.97 327.78 C 229.51 335.78 219.11 339.56 209.07 340.04 C 200.38 340.32 191.67 340.07 182.97 340.17 C 173.04 340.22 162.60 337.71 155.16 330.80 C 147.30 323.50 144.24 312.45 144.05 302.01 C 144.03 241.34 144.05 180.67 144.04 120.00 C 144.12 111.06 146.07 101.75 151.47 94.45 C 156.41 87.58 164.41 83.41 172.61 81.85 M 181.32 109.43 C 178.38 109.59 175.35 111.04 174.02 113.78 C 171.84 117.48 172.43 121.89 172.37 125.98 C 172.38 184.36 172.34 242.74 172.39 301.12 C 172.33 305.91 175.34 311.34 180.61 311.58 C 187.38 312.03 194.19 311.65 200.97 311.79 C 204.60 311.70 208.68 312.24 211.80 309.96 C 214.88 307.68 216.02 303.65 215.91 299.97 C 215.88 239.96 215.95 179.95 215.87 119.93 C 216.00 114.86 212.30 109.50 206.88 109.43 C 198.37 109.32 189.83 109.32 181.32 109.43 Z" />
<path fill="#fdfdfd" opacity="1.00" d=" M 0.71 83.09 C 33.01 83.09 65.31 83.08 97.61 83.09 C 97.61 168.03 97.60 252.96 97.61 337.90 C 88.17 337.90 78.72 337.90 69.28 337.90 C 69.28 262.45 69.28 187.00 69.28 111.55 C 55.88 111.55 42.49 111.55 29.09 111.55 C 29.09 183.36 29.09 255.18 29.09 326.99 C 29.09 330.67 29.18 334.37 28.86 338.05 C 19.48 337.72 10.09 337.99 0.71 337.90 C 0.70 252.96 0.71 168.03 0.71 83.09 Z" />
<path fill="#fdfdfd" opacity="1.00" d=" M 303.85 83.14 C 333.11 83.03 362.36 83.11 391.62 83.09 C 391.63 168.02 391.58 252.95 391.64 337.87 C 382.19 337.94 372.74 337.88 363.29 337.90 C 363.29 262.45 363.29 187.00 363.29 111.55 C 352.60 111.55 341.91 111.55 331.23 111.55 C 328.43 172.35 325.78 233.17 323.15 293.98 C 322.60 305.30 322.70 317.50 316.42 327.43 C 312.21 334.42 303.77 337.19 296.04 337.74 C 289.15 338.10 282.24 337.81 275.34 337.90 C 275.36 328.47 275.31 319.05 275.36 309.62 C 280.60 309.47 285.91 310.06 291.09 309.16 C 294.16 308.36 294.11 304.61 294.40 302.06 C 297.54 229.09 300.82 156.12 303.85 83.14 Z" />
<path fill="#fdfdfd" opacity="1.00" d=" M 442.82 83.13 C 471.12 83.03 499.43 83.11 527.74 83.09 C 527.73 92.58 527.74 102.06 527.73 111.55 C 508.89 111.55 490.04 111.54 471.19 111.55 C 471.20 129.00 471.19 146.44 471.20 163.89 C 485.38 163.90 499.56 163.88 513.74 163.89 C 513.74 173.45 513.74 183.01 513.74 192.58 C 499.56 192.57 485.37 192.57 471.19 192.58 C 471.20 231.60 471.19 270.62 471.20 309.64 C 490.04 309.64 508.89 309.63 527.74 309.64 C 527.73 319.06 527.73 328.48 527.74 337.90 C 499.43 337.88 471.13 337.95 442.82 337.86 C 442.83 252.95 442.83 168.04 442.82 83.13 Z" />
<path fill="#fdfdfd" opacity="1.00" d=" M 561.00 83.09 C 601.47 83.09 641.95 83.09 682.42 83.09 C 682.43 92.57 682.42 102.06 682.42 111.54 C 666.89 111.57 651.35 111.52 635.81 111.57 C 635.82 187.01 635.81 262.46 635.81 337.90 C 626.40 337.93 616.98 337.85 607.57 337.94 C 607.51 262.48 607.57 187.01 607.54 111.55 C 592.03 111.55 576.52 111.54 561.01 111.56 C 560.97 102.07 560.99 92.58 561.00 83.09 Z" />
</g>
</svg>
