<?xml version="1.0" encoding="UTF-8" ?>
<!DOCTYPE svg PUBLIC "-//W3C//DTD SVG 1.1//EN" "http://www.w3.org/Graphics/SVG/1.1/DTD/svg11.dtd">
<svg width="528pt" height="319pt" viewBox="0 0 528 319" version="1.1" xmlns="http://www.w3.org/2000/svg">
<g id="#5c8cb8ff">
</g>
<g id="#fdfdfeff">
<path fill="#fdfdfe" opacity="1.00" d=" M 32.45 18.70 C 49.07 14.60 66.22 17.77 83.08 17.63 C 201.38 17.69 319.69 17.64 437.99 17.67 C 457.31 17.70 476.64 16.71 495.96 17.54 C 499.62 17.25 503.51 20.12 503.20 24.04 C 504.81 76.67 504.18 129.34 504.18 182.00 C 503.23 216.32 504.00 250.68 502.68 285.00 C 502.38 289.09 503.20 293.43 501.51 297.30 C 488.17 301.69 473.82 300.34 460.03 299.70 C 438.66 299.18 417.28 299.50 395.90 299.38 C 362.60 299.26 329.28 299.39 295.98 299.13 C 290.01 298.53 284.02 299.85 278.05 298.97 C 220.40 298.46 162.67 298.82 104.99 298.72 C 101.66 298.64 98.36 299.11 95.04 299.22 C 73.93 299.29 52.82 299.23 31.71 299.69 C 31.47 298.23 30.62 297.08 29.55 296.10 C 26.77 289.75 27.68 282.69 26.82 275.98 C 26.04 235.65 26.69 195.32 26.82 154.99 C 26.66 115.65 25.83 76.31 26.56 36.98 C 26.60 31.97 27.27 27.00 27.75 22.03 C 27.83 19.63 30.70 19.33 32.45 18.70 M 36.81 28.73 C 34.99 41.40 35.44 54.22 35.21 66.97 C 34.65 75.62 34.53 84.32 35.13 92.96 C 35.59 112.17 35.03 131.42 36.33 150.60 C 41.05 150.63 45.76 150.51 50.47 150.76 C 60.84 151.95 71.28 150.90 81.68 151.43 C 84.41 151.62 87.24 152.06 89.62 153.50 C 90.85 154.58 91.65 156.06 92.87 157.15 C 100.00 157.70 108.67 157.68 113.57 151.57 C 118.28 145.43 121.63 138.39 125.86 131.92 C 131.93 122.84 138.75 114.21 146.56 106.55 C 151.64 101.34 158.74 98.09 162.32 91.49 C 166.79 83.39 168.75 74.22 171.60 65.48 C 172.69 62.73 172.57 59.11 175.19 57.24 C 178.02 55.07 180.35 51.96 183.95 51.01 C 190.90 49.05 198.69 52.54 202.25 58.76 C 204.13 62.18 207.62 64.84 208.02 68.93 C 209.43 76.20 211.45 83.61 210.11 91.07 C 209.34 97.84 205.69 103.69 203.03 109.81 C 200.77 114.45 199.26 119.85 194.79 122.93 C 193.85 125.48 192.04 127.56 191.03 130.06 C 191.31 132.82 194.35 134.49 196.90 134.56 C 204.90 134.91 212.91 134.06 220.92 134.37 C 231.77 134.50 243.09 138.35 250.23 146.83 C 255.09 154.20 254.92 163.42 253.94 171.84 C 253.03 173.87 251.31 175.59 251.19 177.91 C 250.75 182.02 252.36 185.97 252.89 190.00 C 253.97 196.14 251.97 202.40 248.64 207.53 C 245.38 212.46 247.18 218.57 246.63 224.07 C 245.99 229.10 244.58 234.17 241.34 238.17 C 238.80 244.90 240.66 252.91 236.28 259.04 C 231.57 265.76 222.64 267.21 215.00 267.49 C 183.99 267.56 152.98 267.48 121.97 267.53 C 117.21 267.63 112.26 267.53 107.90 265.40 C 104.25 263.85 101.06 261.05 97.03 260.54 C 93.64 260.40 91.54 263.44 89.08 265.25 C 87.15 266.90 84.54 267.43 82.06 267.44 C 67.20 267.44 52.33 267.59 37.47 267.53 C 35.71 274.56 35.61 282.25 37.86 289.19 C 42.25 289.47 46.58 290.36 50.99 290.40 C 83.33 290.99 115.68 290.40 148.02 290.24 C 151.66 290.10 155.29 289.61 158.94 289.72 C 173.61 289.87 188.29 289.51 202.95 289.95 C 261.32 289.66 319.70 289.79 378.07 289.73 C 383.39 289.53 388.66 290.48 393.97 290.31 C 416.31 290.35 438.66 290.51 461.00 290.34 C 470.04 290.49 479.02 289.42 488.06 289.40 C 490.40 289.25 494.33 288.93 494.44 285.87 C 495.96 260.62 495.57 235.31 495.69 210.03 C 495.43 196.20 495.97 182.31 494.55 168.53 C 491.42 167.72 488.19 167.42 484.96 167.46 C 477.31 167.48 469.63 167.42 462.01 168.24 C 456.05 168.40 449.75 168.75 444.12 166.53 C 438.85 162.99 432.88 159.21 426.26 159.91 C 419.73 161.00 415.84 166.89 413.46 172.53 C 408.95 177.27 406.16 183.23 402.44 188.56 C 397.16 196.71 390.58 203.94 383.50 210.57 C 379.41 214.79 374.68 218.40 370.98 222.99 C 369.20 225.53 368.01 228.45 365.81 230.69 C 358.45 238.92 361.62 251.47 355.08 260.13 C 352.00 264.20 347.43 268.18 341.97 267.67 C 334.86 267.25 329.79 261.54 324.92 257.02 C 320.42 248.83 319.79 239.16 319.59 230.00 C 320.69 216.23 328.47 204.19 336.02 193.04 C 337.61 190.51 338.00 187.49 338.47 184.60 C 333.08 183.32 327.52 183.69 322.03 183.55 C 312.97 183.72 303.99 182.66 294.96 182.20 C 292.26 182.27 290.47 180.01 288.54 178.50 C 284.01 174.48 278.10 171.19 276.28 165.01 C 273.92 156.99 276.84 148.79 279.00 141.07 C 280.70 135.85 276.28 131.21 276.72 125.99 C 277.26 119.00 280.71 112.77 283.15 106.34 C 283.97 100.94 282.46 95.38 283.78 90.02 C 284.98 86.09 288.08 83.06 289.19 79.10 C 289.90 74.63 289.95 70.08 290.83 65.63 C 292.17 59.46 297.20 54.47 303.13 52.57 C 310.77 49.83 319.00 50.35 326.98 50.30 C 355.33 50.26 383.69 50.39 412.04 50.17 C 415.25 50.23 418.60 50.24 421.57 51.63 C 425.78 53.53 429.34 57.02 434.13 57.46 C 438.65 55.87 441.41 50.53 446.64 50.43 C 460.43 49.75 474.24 50.65 488.04 50.26 C 491.33 50.27 495.43 48.74 495.56 44.87 C 496.07 39.15 496.30 32.73 493.18 27.67 C 482.10 27.70 471.07 26.54 460.00 26.67 C 411.33 26.38 362.67 26.60 314.00 26.72 C 309.66 26.68 305.34 27.39 301.00 27.27 C 274.32 27.16 247.60 27.94 220.95 26.73 C 166.31 26.50 111.67 25.85 57.03 26.72 C 50.31 27.63 43.41 26.94 36.81 28.73 M 444.67 59.72 C 442.98 69.05 443.42 78.56 443.09 88.00 C 442.77 94.99 442.76 102.00 443.09 108.99 C 443.30 123.35 443.29 137.70 443.30 152.06 C 443.47 153.99 443.07 156.69 445.20 157.70 C 448.48 159.37 452.28 159.44 455.89 159.55 C 468.40 159.84 480.92 159.81 493.44 159.53 C 494.85 157.24 496.46 154.86 496.22 152.02 C 496.14 141.70 496.44 131.36 495.82 121.04 C 495.72 100.79 495.62 80.55 495.59 60.30 C 492.79 59.39 489.94 58.56 486.99 58.47 C 476.00 57.86 464.99 58.75 454.00 58.57 C 450.84 58.49 447.75 59.19 444.67 59.72 M 306.93 60.98 C 303.07 61.63 299.93 65.08 299.71 68.99 C 299.69 73.48 301.10 77.83 301.78 82.25 C 298.03 86.30 291.93 89.71 292.25 96.01 C 291.82 100.82 294.90 104.79 296.70 108.98 C 294.94 112.91 289.91 113.21 288.12 117.02 C 285.86 121.39 285.68 126.69 286.78 131.41 C 287.72 134.91 292.33 136.58 292.52 140.09 C 289.94 144.14 285.97 147.39 284.55 152.11 C 283.31 157.05 285.73 161.79 287.80 166.12 C 291.10 171.70 298.03 173.35 304.00 174.26 C 314.64 175.22 325.33 173.95 335.97 174.65 C 340.36 175.21 345.55 175.70 348.43 179.51 C 350.48 183.23 348.25 187.42 346.77 190.92 C 339.88 204.07 330.34 216.70 329.18 232.00 C 328.38 241.18 330.61 251.84 338.56 257.48 C 341.11 259.58 345.01 258.35 346.68 255.73 C 349.80 251.06 350.94 245.39 351.75 239.92 C 352.26 236.27 354.52 233.24 355.94 229.92 C 359.23 222.43 364.59 216.11 370.22 210.26 C 379.16 201.21 389.74 193.44 396.37 182.38 C 398.53 179.07 398.86 174.74 401.87 171.98 C 407.81 166.13 410.80 157.48 418.21 153.13 C 423.00 149.97 428.99 152.31 434.13 150.27 C 436.69 145.96 435.37 140.77 436.14 136.05 C 436.35 125.37 436.46 114.67 435.78 104.01 C 435.61 91.96 435.69 79.91 436.45 67.88 C 433.17 67.65 429.89 67.49 426.61 67.41 C 423.12 61.75 416.34 59.33 409.94 59.51 C 383.29 59.77 356.64 59.68 329.99 59.78 C 322.30 59.84 314.51 59.40 306.93 60.98 M 180.78 66.39 C 178.03 74.74 177.17 83.88 172.54 91.50 C 169.59 95.09 167.34 99.13 165.11 103.18 C 160.69 107.40 156.37 111.80 151.31 115.27 C 144.52 120.23 140.01 127.45 135.27 134.23 C 133.03 137.25 131.72 140.78 130.04 144.10 C 126.58 147.65 123.92 151.87 120.32 155.28 C 118.12 160.72 113.79 165.59 108.01 167.21 C 103.49 167.97 98.70 166.62 94.36 168.45 C 94.47 195.74 94.46 223.04 94.43 250.34 C 96.63 250.91 98.84 251.44 101.00 252.14 C 104.63 253.31 107.44 256.19 111.10 257.28 C 118.62 258.81 126.34 258.57 133.97 258.71 C 147.30 258.90 160.62 258.46 173.95 258.49 C 187.88 258.36 201.82 259.33 215.74 258.65 C 220.56 258.31 226.32 257.49 228.98 252.88 C 231.82 247.62 229.34 241.73 228.69 236.28 C 232.20 232.10 236.95 228.55 238.41 223.02 C 239.17 217.46 234.34 213.23 234.10 207.80 C 238.20 205.55 242.38 202.52 243.94 197.90 C 245.59 192.65 243.23 187.22 240.34 182.89 C 239.34 181.06 237.04 178.94 238.73 176.81 C 241.62 173.34 245.06 169.76 245.30 164.97 C 245.49 161.09 245.41 156.90 243.59 153.38 C 240.20 150.04 236.38 146.55 231.52 145.71 C 222.47 143.65 213.14 144.92 203.96 144.83 C 197.98 144.74 191.46 145.19 186.15 141.91 C 181.78 139.15 180.60 133.29 181.72 128.54 C 183.50 122.41 188.72 118.29 191.86 112.93 C 199.11 100.82 203.68 85.99 199.66 72.00 C 197.95 65.52 192.01 60.06 185.06 60.42 C 183.60 62.38 181.80 64.15 180.78 66.39 M 36.05 159.37 C 35.19 170.22 35.69 181.13 34.76 191.97 C 34.67 206.32 34.53 220.68 34.78 235.03 C 35.54 242.49 35.10 250.05 36.70 257.41 C 52.55 258.30 68.44 259.58 84.31 258.38 C 86.17 252.75 85.26 246.74 86.17 240.95 C 86.71 220.64 86.42 200.30 86.27 179.98 C 85.69 173.52 85.59 167.03 85.58 160.55 C 76.33 157.78 66.51 158.53 57.03 159.32 C 50.04 159.58 43.04 159.69 36.05 159.37 Z" />
</g>
</svg>
