<?xml version="1.0" encoding="UTF-8" ?>
<!DOCTYPE svg PUBLIC "-//W3C//DTD SVG 1.1//EN" "http://www.w3.org/Graphics/SVG/1.1/DTD/svg11.dtd">
<svg width="1200pt" height="654pt" viewBox="0 0 1200 654" version="1.1" xmlns="http://www.w3.org/2000/svg">
<g id="#000033ff">
<path fill="#000033" opacity="1.00" d=" M 482.62 1.87 C 492.64 -0.14 502.91 1.01 513.05 0.69 C 523.72 0.41 535.23 2.22 543.49 9.52 C 552.17 16.99 555.43 28.90 555.41 40.00 C 555.41 100.34 555.41 160.69 555.41 221.04 C 555.37 230.76 553.05 241.01 546.53 248.52 C 540.86 255.16 532.35 258.84 523.79 259.86 C 514.91 260.79 505.94 260.08 497.03 260.32 C 488.15 260.60 478.88 259.47 471.18 254.75 C 462.62 249.85 457.44 240.53 455.81 231.01 C 454.45 224.42 454.91 217.67 454.85 211.00 C 454.84 154.98 454.87 98.97 454.84 42.95 C 454.63 33.25 456.21 23.03 461.90 14.94 C 466.61 7.93 474.52 3.67 482.62 1.87 M 490.58 29.87 C 485.54 30.82 483.29 36.38 483.51 41.02 C 483.51 99.03 483.53 157.04 483.50 215.06 C 483.56 219.25 482.99 223.87 485.37 227.59 C 486.96 230.30 490.14 231.51 493.16 231.58 C 499.42 231.75 505.68 231.55 511.95 231.65 C 515.38 231.59 519.11 232.00 522.19 230.12 C 525.53 228.00 526.87 223.82 526.76 220.02 C 526.76 160.33 526.76 100.65 526.75 40.96 C 527.24 35.37 523.13 29.24 517.06 29.55 C 508.24 29.68 499.36 29.07 490.58 29.87 Z" />
<path fill="#000033" opacity="1.00" d=" M 311.59 2.86 C 343.93 2.86 376.27 2.95 408.61 2.81 C 408.87 87.94 408.70 173.08 408.70 258.22 C 399.20 258.20 389.70 258.19 380.20 258.22 C 380.07 182.71 380.21 107.19 380.13 31.68 C 366.82 31.66 353.51 31.69 340.21 31.66 C 340.21 107.17 340.22 182.68 340.20 258.19 C 330.66 258.23 321.13 258.17 311.59 258.22 C 311.57 173.10 311.56 87.98 311.59 2.86 Z" />
<path fill="#000033" opacity="1.00" d=" M 614.92 3.02 C 644.16 3.00 673.41 2.98 702.65 3.03 C 702.69 88.01 702.70 172.99 702.65 257.97 C 693.18 258.03 683.71 258.04 674.24 257.97 C 674.13 182.51 674.28 107.06 674.16 31.60 C 663.49 31.61 652.82 31.55 642.14 31.64 C 639.44 95.79 636.46 159.92 633.72 224.07 C 632.91 234.48 631.05 246.59 621.98 253.15 C 611.37 259.93 598.21 257.62 586.31 257.97 C 586.22 248.54 586.29 239.11 586.27 229.68 C 591.79 229.37 597.48 230.27 602.89 228.86 C 605.66 226.91 605.07 223.01 605.47 220.06 C 608.60 147.71 611.71 75.36 614.92 3.02 Z" />
<path fill="#000033" opacity="1.00" d=" M 753.70 2.87 C 782.07 2.82 810.45 2.88 838.82 2.84 C 838.90 12.45 838.87 22.06 838.85 31.67 C 820.01 31.71 801.18 31.69 782.35 31.67 C 782.31 49.04 782.39 66.40 782.31 83.77 C 796.50 83.70 810.68 83.76 824.87 83.74 C 824.86 93.39 824.90 103.04 824.85 112.69 C 810.68 112.73 796.52 112.71 782.35 112.70 C 782.32 151.64 782.36 190.58 782.33 229.51 C 801.18 229.48 820.02 229.48 838.86 229.52 C 838.84 239.09 838.92 248.67 838.82 258.24 C 810.44 258.19 782.07 258.27 753.70 258.20 C 753.66 173.09 753.67 87.98 753.70 2.87 Z" />
<path fill="#000033" opacity="1.00" d=" M 872.00 3.00 C 912.47 3.00 952.95 2.99 993.42 3.01 C 993.47 12.53 993.45 22.05 993.43 31.58 C 977.93 31.66 962.44 31.55 946.94 31.63 C 946.88 107.08 947.00 182.53 946.88 257.98 C 937.44 258.09 927.99 258.01 918.55 258.02 C 918.44 182.55 918.59 107.09 918.48 31.62 C 902.99 31.58 887.50 31.61 872.01 31.61 C 871.99 22.07 872.00 12.54 872.00 3.00 Z" />
<path fill="#000033" opacity="1.00" d=" M 230.24 14.33 C 231.58 12.48 232.56 9.79 235.24 9.71 C 234.12 14.48 232.13 18.98 230.78 23.67 C 221.63 53.83 219.00 85.59 219.69 116.97 C 220.64 148.40 224.53 179.73 230.69 210.55 C 246.21 262.42 268.54 312.95 301.86 355.95 C 325.19 386.26 354.00 412.25 386.27 432.74 C 410.43 448.08 436.35 460.57 463.16 470.53 C 464.29 470.87 465.03 471.64 465.38 472.83 C 424.32 468.08 384.67 453.74 348.85 433.32 C 309.25 410.59 274.06 380.12 246.21 343.92 C 223.86 314.92 206.24 282.14 195.49 247.10 C 191.47 232.69 187.01 218.08 186.85 203.01 C 187.16 176.95 188.16 150.82 192.01 125.01 C 197.60 86.22 208.67 47.42 230.24 14.33 Z" />
<path fill="#000033" opacity="1.00" d=" M 195.77 336.56 C 196.94 337.21 198.10 337.95 198.93 339.04 C 213.61 357.54 229.39 375.18 246.47 391.50 C 262.50 406.40 279.46 420.63 298.76 431.14 C 347.30 458.79 401.64 478.87 458.02 479.94 C 470.00 480.45 481.99 479.26 493.91 478.46 C 499.44 480.47 505.40 481.83 510.43 484.91 C 463.24 495.90 413.12 497.92 366.06 485.10 C 357.82 482.97 349.85 480.01 341.80 477.26 C 304.87 466.27 270.58 447.80 238.84 426.18 C 237.85 425.51 236.99 424.64 236.51 423.53 C 224.50 398.22 212.42 372.93 200.38 347.63 C 198.71 344.00 196.58 340.52 195.77 336.56 Z" />
<path fill="#000033" opacity="1.00" d=" M 617.59 338.16 C 624.35 337.43 631.16 337.72 637.95 337.30 C 647.62 337.14 657.33 335.98 667.00 336.59 C 711.91 345.41 756.82 354.29 801.72 363.16 C 811.15 364.91 820.52 367.06 829.98 368.56 C 848.87 361.06 867.05 351.70 886.44 345.45 C 906.01 338.91 927.49 335.90 947.67 341.53 C 969.41 348.55 991.37 354.91 1013.33 361.24 C 1011.85 363.48 1008.91 363.72 1006.64 364.74 C 960.04 382.01 913.39 399.18 866.84 416.59 C 848.29 484.74 829.47 552.83 810.88 620.98 C 810.01 623.82 809.71 627.17 807.25 629.18 C 799.50 636.43 791.97 643.90 784.41 651.33 C 783.16 652.46 781.91 653.83 780.12 653.99 C 782.78 613.02 785.50 572.05 787.59 531.05 C 788.37 513.38 789.29 495.70 789.24 478.01 C 789.28 474.38 788.92 470.77 788.47 467.18 C 720.27 478.33 650.26 480.52 581.87 469.67 C 534.72 463.27 487.92 452.00 444.30 432.69 C 400.36 413.32 359.89 385.02 329.09 347.96 C 326.49 344.63 323.28 341.67 321.60 337.72 C 324.75 338.26 327.09 340.54 329.62 342.29 C 361.99 365.32 396.64 385.33 433.40 400.50 C 475.18 417.81 519.78 428.64 564.99 431.07 C 629.15 434.81 693.50 421.10 752.47 396.19 C 710.55 378.73 668.73 361.00 626.85 343.43 C 623.84 341.62 619.23 341.62 617.59 338.16 Z" />
<path fill="#000033" opacity="1.00" d=" M 439.06 509.36 C 469.99 507.75 501.80 502.59 528.92 486.78 C 538.08 488.29 547.37 489.05 556.48 490.85 C 547.60 496.64 537.74 500.78 528.16 505.30 C 490.42 522.17 448.60 532.66 407.09 527.56 C 372.86 522.78 339.28 512.06 309.28 494.76 C 308.05 494.15 307.16 493.09 306.55 491.89 C 349.41 504.67 394.32 511.09 439.06 509.36 Z" />
</g>
</svg>
