<?xml version="1.0" encoding="UTF-8" ?>
<!DOCTYPE svg PUBLIC "-//W3C//DTD SVG 1.1//EN" "http://www.w3.org/Graphics/SVG/1.1/DTD/svg11.dtd">
<svg width="827pt" height="768pt" viewBox="0 0 827 768" version="1.1" xmlns="http://www.w3.org/2000/svg">
<g id="#0569c8fe">
<path fill="#0569c8" opacity="1.00" d=" M 644.80 0.12 C 648.19 0.11 651.60 0.11 655.00 0.12 C 655.00 1.01 655.00 2.78 655.00 3.67 C 651.59 3.67 648.19 3.67 644.80 3.67 C 644.80 2.78 644.80 1.00 644.80 0.12 Z" />
<path fill="#0569c8" opacity="1.00" d=" M 347.34 8.72 C 349.15 8.72 350.96 8.72 352.78 8.72 C 352.81 24.79 352.78 40.86 352.80 56.93 C 350.97 56.92 349.15 56.92 347.33 56.92 C 347.34 47.78 347.33 38.64 347.33 29.50 C 344.62 29.49 341.91 29.50 339.20 29.50 C 339.22 38.64 339.21 47.78 339.21 56.91 C 337.41 56.92 335.61 56.92 333.81 56.93 C 333.80 40.86 333.81 24.79 333.81 8.73 C 335.61 8.73 337.41 8.73 339.21 8.73 C 339.21 13.79 339.21 18.86 339.21 23.92 C 341.92 23.91 344.62 23.91 347.33 23.91 C 347.33 18.84 347.33 13.78 347.34 8.72 Z" />
<path fill="#0569c8" opacity="1.00" d=" M 365.58 8.76 C 368.69 7.96 371.98 8.15 375.16 8.45 C 378.28 8.84 380.59 11.93 380.44 15.02 C 380.53 26.65 380.46 38.29 380.47 49.92 C 380.63 52.85 379.09 56.12 376.07 56.91 C 372.81 57.63 369.36 57.59 366.10 56.97 C 362.96 56.23 361.44 52.95 361.48 49.96 C 361.40 38.65 361.44 27.34 361.46 16.03 C 361.39 13.10 362.61 9.83 365.58 8.76 M 366.95 38.03 C 367.20 42.52 366.32 47.18 367.50 51.56 C 370.09 51.85 375.41 53.30 375.12 49.05 C 375.22 41.38 375.11 33.70 375.15 26.02 C 375.08 21.91 375.55 17.72 374.46 13.69 C 372.13 13.68 369.80 13.67 367.48 13.70 C 366.33 21.74 367.23 29.92 366.95 38.03 Z" />
<path fill="#0569c8" opacity="1.00" d=" M 443.38 8.60 C 446.52 8.03 449.79 8.08 452.95 8.56 C 456.27 9.25 457.96 12.78 457.76 15.94 C 457.76 27.32 457.80 38.69 457.74 50.07 C 457.90 53.11 456.09 56.31 452.98 57.01 C 449.74 57.56 446.31 57.66 443.11 56.87 C 440.10 56.05 438.68 52.83 438.76 49.93 C 438.69 38.62 438.73 27.30 438.74 15.99 C 438.56 12.88 440.12 9.39 443.38 8.60 M 444.61 13.72 C 443.90 18.80 444.34 23.94 444.24 29.04 C 444.47 36.48 443.75 44.00 444.58 51.39 C 446.93 52.09 450.01 52.49 452.14 51.05 C 452.64 39.37 452.31 27.63 452.31 15.94 C 452.02 12.21 447.06 14.12 444.61 13.72 Z" />
<path fill="#0569c8" opacity="1.00" d=" M 466.74 15.09 C 466.55 11.64 469.38 8.35 472.90 8.34 C 477.08 8.16 482.99 7.36 485.00 12.12 C 486.23 16.34 485.43 20.85 485.59 25.19 C 483.80 25.19 482.00 25.19 480.22 25.20 C 480.12 21.80 480.35 18.39 480.05 15.00 C 478.59 12.48 474.97 14.14 472.60 13.71 C 471.53 22.09 472.37 30.58 472.11 39.01 C 472.37 43.13 471.47 47.48 472.65 51.45 C 475.11 52.01 480.55 53.21 480.16 49.07 C 480.26 44.78 480.13 40.49 480.18 36.20 C 481.99 36.20 483.81 36.20 485.63 36.21 C 485.49 41.47 485.93 46.76 485.40 52.01 C 484.94 55.57 481.29 57.61 477.94 57.37 C 473.73 57.79 467.58 57.28 466.90 52.01 C 466.47 39.72 466.78 27.39 466.74 15.09 Z" />
<path fill="#0569c8" opacity="1.00" d=" M 550.49 8.79 C 553.88 7.93 557.52 8.07 560.96 8.62 C 564.18 9.47 565.66 12.94 565.54 16.02 C 565.58 27.02 565.55 38.02 565.56 49.02 C 565.63 52.04 564.71 55.67 561.51 56.76 C 558.44 57.71 555.11 57.48 551.96 57.16 C 548.88 56.81 546.55 53.95 546.58 50.88 C 546.43 39.26 546.56 27.62 546.52 15.99 C 546.30 13.08 547.63 9.90 550.49 8.79 M 551.82 19.03 C 551.85 28.02 551.87 37.01 551.82 46.00 C 551.85 47.89 551.66 49.89 552.55 51.63 C 554.82 51.98 557.22 52.16 559.47 51.53 C 560.72 47.19 559.77 42.50 560.05 38.02 C 559.76 29.92 560.68 21.74 559.52 13.70 C 557.18 13.68 554.86 13.67 552.53 13.68 C 552.16 15.44 551.75 17.21 551.82 19.03 Z" />
<path fill="#0569c8" opacity="1.00" d=" M 640.55 8.75 C 642.32 8.73 644.09 8.71 645.88 8.68 C 646.40 14.95 646.01 21.24 646.17 27.52 C 648.67 24.85 651.18 22.19 653.76 19.59 C 653.83 15.98 653.81 12.36 653.81 8.74 C 655.61 8.73 657.42 8.73 659.24 8.72 C 659.24 24.79 659.24 40.86 659.24 56.94 C 657.42 56.92 655.61 56.91 653.81 56.90 C 653.79 46.78 653.85 36.66 653.78 26.54 C 651.21 29.06 648.67 31.61 646.14 34.17 C 646.14 41.73 646.13 49.29 646.15 56.86 C 644.28 56.90 642.41 56.93 640.56 56.95 C 640.55 40.88 640.55 24.82 640.55 8.75 Z" />
<path fill="#0569c8" opacity="1.00" d=" M 140.09 8.73 C 141.90 8.73 143.70 8.73 145.52 8.73 C 145.52 13.97 145.51 19.21 145.53 24.45 C 146.99 24.45 148.46 24.44 149.94 24.44 C 151.66 19.20 153.43 13.97 155.18 8.74 C 157.12 8.73 159.07 8.73 161.02 8.73 C 159.19 14.31 157.26 19.86 155.46 25.45 C 154.93 26.77 155.30 28.17 155.55 29.51 C 157.57 38.64 159.46 47.79 161.46 56.93 C 159.58 56.92 157.71 56.92 155.84 56.92 C 153.83 47.65 151.91 38.37 149.89 29.10 C 148.43 29.09 146.98 29.09 145.52 29.08 C 145.52 38.36 145.51 47.63 145.53 56.91 C 143.71 56.92 141.90 56.92 140.09 56.93 C 140.08 40.86 140.09 24.79 140.09 8.73 Z" />
<path fill="#0569c8" opacity="1.00" d=" M 166.99 8.75 C 168.84 8.73 170.68 8.71 172.53 8.68 C 174.86 18.08 176.14 27.73 178.94 37.00 C 179.89 35.86 180.60 34.56 180.74 33.06 C 182.17 24.95 183.66 16.84 185.16 8.73 C 187.00 8.73 188.83 8.73 190.68 8.72 C 188.33 21.86 185.91 34.98 183.61 48.12 C 183.10 50.73 182.75 53.76 180.47 55.50 C 178.04 57.41 174.76 56.79 171.89 56.98 C 171.89 55.14 171.89 53.30 171.89 51.46 C 173.67 51.42 175.45 51.38 177.23 51.32 C 178.07 48.10 178.66 44.83 179.29 41.56 C 177.69 41.55 176.09 41.55 174.49 41.55 C 171.95 30.63 169.49 19.68 166.99 8.75 Z" />
<path fill="#0569c8" opacity="1.00" d=" M 197.90 50.07 C 198.68 36.31 199.07 22.51 199.77 8.74 C 205.31 8.71 210.84 8.73 216.38 8.73 C 216.39 24.79 216.39 40.86 216.38 56.92 C 214.58 56.92 212.79 56.93 211.00 56.93 C 210.99 42.67 211.01 28.42 210.99 14.16 C 208.99 14.17 206.98 14.18 204.99 14.19 C 204.54 25.82 203.90 37.44 203.49 49.07 C 203.37 51.11 203.26 53.28 202.15 55.08 C 200.30 57.44 196.99 56.76 194.37 57.00 C 194.37 55.20 194.36 53.40 194.36 51.60 C 195.50 51.06 198.19 52.07 197.90 50.07 Z" />
<path fill="#0569c8" opacity="1.00" d=" M 226.10 8.73 C 227.90 8.73 229.71 8.73 231.52 8.73 C 231.52 13.76 231.53 18.80 231.51 23.84 C 234.86 24.03 238.73 23.28 241.59 25.46 C 243.85 27.26 243.98 30.35 243.92 32.99 C 243.81 38.99 244.05 44.99 243.81 50.98 C 243.72 54.07 241.03 56.59 238.00 56.78 C 234.04 57.11 230.06 56.86 226.10 56.92 C 226.10 40.85 226.10 24.79 226.10 8.73 M 231.52 29.35 C 231.53 36.72 231.51 44.09 231.53 51.46 C 233.79 51.42 236.05 51.37 238.31 51.26 C 238.54 44.15 238.84 36.97 238.20 29.88 C 236.09 29.03 233.74 29.46 231.52 29.35 Z" />
<path fill="#0569c8" opacity="1.00" d=" M 247.16 8.73 C 254.83 8.72 262.50 8.72 270.17 8.73 C 270.16 10.54 270.16 12.35 270.15 14.17 C 267.25 14.17 264.34 14.17 261.44 14.19 C 261.45 28.43 261.45 42.68 261.44 56.93 C 259.61 56.92 257.78 56.92 255.95 56.92 C 255.94 42.67 255.96 28.42 255.95 14.17 C 253.03 14.17 250.12 14.17 247.21 14.18 C 247.19 12.36 247.17 10.54 247.16 8.73 Z" />
<path fill="#0569c8" opacity="1.00" d=" M 276.32 8.72 C 278.19 8.73 280.07 8.73 281.95 8.74 C 283.63 16.85 285.41 24.93 287.04 33.04 C 287.23 34.56 287.93 35.91 289.07 36.94 C 291.41 27.65 292.57 18.11 294.48 8.73 C 296.31 8.73 298.16 8.72 300.00 8.72 C 297.52 22.53 295.06 36.35 292.55 50.15 C 292.12 52.75 290.79 55.54 288.12 56.44 C 285.91 57.12 283.56 56.87 281.29 56.97 C 281.28 55.12 281.28 53.26 281.29 51.41 C 282.98 51.41 284.68 51.42 286.39 51.42 C 287.39 48.20 288.03 44.89 288.57 41.56 C 286.97 41.55 285.37 41.53 283.78 41.51 C 281.31 30.58 278.82 19.65 276.32 8.72 Z" />
<path fill="#0569c8" opacity="1.00" d=" M 307.24 8.73 C 312.01 9.05 317.05 7.90 321.64 9.52 C 326.11 11.95 325.04 17.74 325.16 21.96 C 324.81 27.32 325.97 32.92 324.31 38.12 C 322.14 42.44 316.70 41.61 312.71 41.69 C 312.71 46.77 312.70 51.84 312.71 56.92 C 310.88 56.92 309.06 56.92 307.23 56.92 C 307.24 40.86 307.24 24.80 307.24 8.73 M 312.71 14.12 C 312.71 21.51 312.69 28.89 312.72 36.28 C 315.01 36.26 317.30 36.12 319.55 35.65 C 319.45 28.68 319.94 21.68 319.32 14.74 C 317.30 13.74 314.89 14.32 312.71 14.12 Z" />
<path fill="#0569c8" opacity="1.00" d=" M 411.22 45.96 C 411.65 33.54 412.24 21.14 412.71 8.73 C 418.10 8.72 423.50 8.72 428.90 8.73 C 428.90 22.94 428.90 37.16 428.90 51.38 C 430.15 51.40 431.40 51.42 432.66 51.44 C 432.65 55.38 432.66 59.33 432.63 63.27 C 431.36 63.27 430.10 63.26 428.84 63.26 C 428.49 61.14 428.15 59.03 427.81 56.92 C 422.33 56.93 416.85 56.92 411.37 56.92 C 411.20 59.04 411.03 61.15 410.85 63.26 C 409.40 63.26 407.96 63.26 406.52 63.26 C 406.50 59.38 406.51 55.49 406.50 51.61 C 407.71 51.52 408.92 51.36 410.12 51.14 C 411.21 49.65 411.07 47.71 411.22 45.96 M 415.89 51.44 C 418.42 51.42 420.94 51.41 423.48 51.41 C 423.46 38.99 423.51 26.57 423.45 14.14 C 421.60 14.16 419.75 14.18 417.91 14.20 C 417.15 26.60 417.48 39.12 415.89 51.44 Z" />
<path fill="#0569c8" opacity="1.00" d=" M 492.35 8.72 C 494.23 8.73 496.11 8.73 497.99 8.75 C 499.66 16.87 501.46 24.96 503.10 33.09 C 503.27 34.60 504.03 35.89 505.09 36.96 C 507.45 27.67 508.61 18.12 510.52 8.72 C 512.35 8.72 514.20 8.73 516.05 8.73 C 513.56 22.50 511.11 36.29 508.61 50.06 C 508.21 52.45 507.16 55.00 504.86 56.14 C 502.51 57.25 499.83 56.83 497.32 56.96 C 497.32 55.11 497.32 53.26 497.33 51.41 C 499.02 51.41 500.71 51.42 502.42 51.42 C 503.52 48.22 504.02 44.86 504.61 41.53 C 503.03 41.54 501.46 41.56 499.89 41.57 C 497.29 30.64 494.90 19.66 492.35 8.72 Z" />
<path fill="#0569c8" opacity="1.00" d=" M 523.26 56.92 C 523.31 40.85 523.19 24.77 523.32 8.70 C 528.68 8.75 534.05 8.72 539.41 8.73 C 539.40 10.54 539.39 12.36 539.39 14.17 C 535.84 14.17 532.29 14.17 528.75 14.17 C 528.74 28.42 528.74 42.67 528.75 56.92 C 526.92 56.92 525.09 56.92 523.26 56.92 Z" />
<path fill="#0569c8" opacity="1.00" d=" M 574.50 8.73 C 579.20 9.02 584.10 8.03 588.67 9.36 C 593.14 11.34 592.51 16.98 592.33 21.00 C 592.39 23.42 590.73 25.23 589.08 26.75 C 590.57 28.19 592.28 29.74 592.27 32.01 C 592.54 38.00 592.38 44.01 592.35 50.01 C 592.47 53.11 590.32 56.24 587.14 56.67 C 582.95 57.21 578.71 56.82 574.51 56.92 C 574.49 40.86 574.50 24.79 574.50 8.73 M 579.90 14.26 C 580.17 17.44 580.13 20.63 579.86 23.81 C 582.14 23.73 585.60 24.74 586.64 21.94 C 587.11 19.47 587.11 16.87 586.50 14.43 C 584.31 14.03 582.09 14.20 579.90 14.26 M 580.18 29.36 C 579.65 36.72 580.07 44.09 580.04 51.45 C 582.20 51.26 584.62 51.88 586.62 50.86 C 587.53 47.29 586.81 43.60 586.98 39.97 C 586.96 36.93 587.49 33.71 586.32 30.82 C 584.86 28.94 582.23 29.68 580.18 29.36 Z" />
<path fill="#0569c8" opacity="1.00" d=" M 601.33 56.91 C 601.37 40.84 601.27 24.76 601.38 8.69 C 603.19 8.71 605.01 8.73 606.83 8.74 C 606.84 13.78 606.82 18.82 606.85 23.85 C 610.30 24.04 614.45 23.20 617.25 25.76 C 619.71 28.14 619.27 31.85 619.36 34.96 C 619.21 40.32 619.57 45.70 619.16 51.06 C 618.94 53.84 616.74 56.26 613.98 56.68 C 609.78 57.20 605.54 56.83 601.33 56.91 M 606.81 29.41 C 606.87 36.76 606.82 44.10 606.84 51.45 C 609.04 51.21 611.60 51.96 613.58 50.79 C 613.98 43.72 613.89 36.59 613.56 29.51 C 611.31 29.41 609.05 29.39 606.81 29.41 Z" />
<path fill="#0569c8" opacity="1.00" d=" M 625.53 8.72 C 627.38 8.73 629.24 8.73 631.11 8.74 C 631.11 24.78 631.10 40.83 631.11 56.87 C 629.25 56.90 627.38 56.92 625.53 56.95 C 625.52 40.87 625.53 24.79 625.53 8.72 Z" />
<path fill="#0569c8" opacity="1.00" d=" M 681.11 8.72 C 682.87 8.72 684.63 8.73 686.41 8.73 C 686.43 22.96 686.40 37.19 686.43 51.43 C 688.87 51.42 691.32 51.41 693.78 51.39 C 693.74 37.17 693.77 22.95 693.76 8.73 C 695.59 8.73 697.42 8.73 699.26 8.73 C 699.31 22.98 699.16 37.23 699.34 51.49 C 700.78 51.45 702.24 51.41 703.71 51.38 C 703.72 55.35 703.72 59.31 703.69 63.28 C 702.44 63.27 701.20 63.26 699.96 63.25 C 699.58 61.14 699.22 59.03 698.85 56.93 C 692.93 56.92 687.02 56.93 681.11 56.92 C 681.11 40.86 681.11 24.79 681.11 8.72 Z" />
<path fill="#0569c8" opacity="1.00" d=" M 710.38 56.91 C 710.42 40.85 710.34 24.78 710.42 8.71 C 715.76 8.74 721.10 8.72 726.45 8.73 C 726.43 10.54 726.42 12.36 726.42 14.17 C 722.87 14.17 719.32 14.17 715.78 14.17 C 715.77 17.40 715.77 20.63 715.77 23.87 C 718.44 23.87 721.11 23.88 723.79 23.88 C 723.79 25.74 723.80 27.60 723.83 29.45 C 721.13 29.49 718.45 29.50 715.76 29.53 C 715.79 36.83 715.76 44.12 715.78 51.41 C 719.32 51.42 722.88 51.42 726.43 51.42 C 726.43 53.24 726.44 55.07 726.46 56.89 C 721.10 56.95 715.74 56.93 710.38 56.91 Z" />
<path fill="#0569c8" opacity="1.00" d=" M 734.86 8.74 C 736.67 8.73 738.48 8.73 740.31 8.72 C 740.31 13.78 740.32 18.85 740.29 23.91 C 743.02 24.07 745.75 24.06 748.48 23.89 C 748.44 18.83 748.45 13.78 748.46 8.72 C 750.26 8.73 752.08 8.73 753.90 8.73 C 753.90 24.80 753.91 40.86 753.90 56.93 C 752.08 56.92 750.26 56.92 748.45 56.91 C 748.47 47.77 748.45 38.64 748.45 29.50 C 745.74 29.50 743.03 29.49 740.33 29.48 C 740.28 38.64 740.33 47.79 740.31 56.94 C 738.48 56.92 736.66 56.90 734.86 56.87 C 734.86 40.83 734.85 24.78 734.86 8.74 Z" />
<path fill="#0569c8" opacity="1.00" d=" M 760.84 8.73 C 768.52 8.72 776.21 8.72 783.90 8.73 C 783.88 10.54 783.86 12.36 783.85 14.18 C 780.94 14.17 778.03 14.17 775.13 14.17 C 775.13 28.40 775.13 42.64 775.13 56.87 C 773.27 56.90 771.41 56.92 769.56 56.95 C 769.55 42.69 769.55 28.43 769.56 14.18 C 766.65 14.17 763.75 14.17 760.85 14.17 C 760.83 12.35 760.83 10.54 760.84 8.73 Z" />
<path fill="#0569c8" opacity="1.00" d=" M 791.23 8.73 C 795.75 8.95 800.40 8.17 804.85 9.20 C 809.35 10.71 809.24 16.09 809.14 19.98 C 808.82 25.84 809.76 31.83 808.50 37.60 C 806.70 42.44 800.73 41.66 796.62 41.69 C 796.61 46.77 796.61 51.84 796.62 56.92 C 794.81 56.92 793.01 56.92 791.22 56.92 C 791.23 40.86 791.23 24.80 791.23 8.73 M 796.63 14.12 C 796.61 21.50 796.60 28.89 796.63 36.27 C 798.92 36.20 801.30 36.27 803.51 35.54 C 803.35 28.70 803.76 21.83 803.32 14.99 C 801.65 13.42 798.75 14.50 796.63 14.12 Z" />
<path fill="#0569c8" opacity="1.00" d=" M 388.16 24.25 C 392.67 24.25 397.18 24.25 401.69 24.25 C 401.69 25.80 401.69 27.36 401.70 28.91 C 397.18 28.92 392.67 28.92 388.16 28.92 C 388.15 27.36 388.16 25.80 388.16 24.25 Z" />
<path fill="#0569c8" opacity="1.00" d=" M 310.19 81.25 C 318.75 80.49 327.36 80.99 335.95 80.84 C 345.86 80.76 356.35 82.39 364.32 88.74 C 373.99 96.27 377.38 109.18 377.28 120.96 C 377.25 180.98 377.27 241.01 377.27 301.03 C 377.18 311.19 374.60 321.94 367.45 329.51 C 360.65 336.64 350.66 339.79 341.00 340.10 C 332.31 340.24 323.62 340.14 314.92 340.15 C 305.12 340.06 294.87 337.33 287.68 330.35 C 279.92 322.79 277.07 311.57 277.04 301.02 C 277.05 244.02 277.04 187.02 277.04 130.01 C 276.83 119.00 276.70 107.27 282.49 97.46 C 287.97 87.55 299.16 82.01 310.19 81.25 M 314.28 109.44 C 308.69 109.39 305.22 114.97 305.39 120.08 C 305.34 180.07 305.39 240.05 305.36 300.03 C 305.30 303.61 306.28 307.53 309.14 309.89 C 312.25 312.19 316.34 311.70 319.98 311.79 C 326.79 311.64 333.62 312.03 340.43 311.60 C 345.69 311.25 349.00 305.92 348.87 301.01 C 348.96 241.32 348.86 181.63 348.92 121.95 C 349.01 118.69 348.50 115.22 346.37 112.63 C 344.43 110.08 341.07 109.28 338.01 109.36 C 330.10 109.42 322.19 109.26 314.28 109.44 Z" />
<path fill="#0569c8" opacity="1.00" d=" M 133.71 83.09 C 166.02 83.11 198.32 83.04 230.63 83.12 C 230.58 168.05 230.61 252.97 230.61 337.89 C 221.17 337.90 211.72 337.91 202.27 337.89 C 202.29 262.45 202.28 187.00 202.28 111.55 C 188.87 111.56 175.47 111.52 162.06 111.57 C 162.13 187.00 162.07 262.43 162.09 337.86 C 152.63 337.94 143.17 337.88 133.71 337.90 C 133.70 252.96 133.70 168.03 133.71 83.09 Z" />
<path fill="#0569c8" opacity="1.00" d=" M 436.85 83.13 C 466.11 83.05 495.37 83.09 524.63 83.11 C 524.60 168.04 524.62 252.96 524.63 337.89 C 515.18 337.91 505.73 337.90 496.29 337.90 C 496.30 262.45 496.29 187.00 496.29 111.55 C 485.60 111.55 474.90 111.54 464.21 111.56 C 461.30 175.04 458.58 238.53 455.77 302.01 C 455.32 311.40 454.02 321.42 448.20 329.15 C 443.49 335.24 435.46 337.36 428.11 337.80 C 421.51 338.03 414.91 337.86 408.32 337.88 C 408.38 328.46 408.29 319.04 408.37 309.62 C 413.39 309.53 418.45 309.94 423.45 309.30 C 427.37 308.79 427.19 304.05 427.46 301.06 C 430.55 228.41 433.85 155.77 436.85 83.13 Z" />
<path fill="#0569c8" opacity="1.00" d=" M 575.82 83.12 C 604.13 83.04 632.43 83.10 660.74 83.09 C 660.73 92.58 660.74 102.07 660.73 111.55 C 641.88 111.55 623.04 111.54 604.19 111.56 C 604.20 129.00 604.19 146.44 604.20 163.88 C 618.38 163.91 632.56 163.85 646.75 163.91 C 646.73 173.47 646.75 183.02 646.74 192.58 C 632.56 192.58 618.37 192.56 604.19 192.59 C 604.21 231.60 604.19 270.62 604.20 309.64 C 623.03 309.62 641.86 309.67 660.69 309.61 C 660.80 319.04 660.69 328.47 660.75 337.89 C 632.44 337.89 604.13 337.94 575.82 337.87 C 575.82 252.95 575.83 168.04 575.82 83.12 Z" />
<path fill="#0569c8" opacity="1.00" d=" M 693.99 83.09 C 734.47 83.09 774.94 83.09 815.42 83.09 C 815.43 92.57 815.42 102.06 815.43 111.54 C 799.89 111.57 784.35 111.52 768.81 111.57 C 768.82 187.01 768.82 262.46 768.81 337.90 C 759.40 337.99 749.98 337.69 740.58 338.11 C 740.49 262.59 740.58 187.07 740.54 111.55 C 725.04 111.58 709.54 111.50 694.05 111.59 C 693.92 102.09 694.01 92.59 693.99 83.09 Z" />
<path fill="#0569c8" opacity="1.00" d=" M 50.66 117.20 C 33.68 157.71 30.69 202.57 33.24 245.97 C 34.87 271.89 38.36 297.69 43.41 323.16 C 60.03 379.06 84.73 433.48 122.33 478.52 C 145.56 506.48 173.60 530.35 204.62 549.27 C 229.23 564.38 255.64 576.38 282.77 586.21 C 245.30 582.38 208.84 570.63 175.39 553.47 C 141.99 536.31 111.48 513.60 85.28 486.71 C 43.19 443.56 11.94 388.77 1.14 329.12 C 0.08 324.50 0.17 319.76 0.11 315.06 C 0.21 286.56 1.75 257.98 6.44 229.83 C 13.08 189.84 25.87 149.80 50.66 117.20 Z" />
<path fill="#0569c8" opacity="1.00" d=" M 183.18 361.16 C 189.26 356.98 197.87 357.33 203.86 361.53 C 202.92 362.81 202.00 364.10 201.07 365.39 C 197.22 363.15 192.37 361.75 188.15 363.87 C 180.59 366.99 179.98 378.99 186.86 383.17 C 191.22 385.94 196.90 384.93 201.08 382.30 C 202.01 383.63 202.93 384.95 203.86 386.28 C 197.29 390.69 187.65 390.82 181.66 385.33 C 175.05 378.98 175.57 366.53 183.18 361.16 Z" />
<path fill="#0569c8" opacity="1.00" d=" M 412.45 358.70 C 417.66 357.45 423.62 358.60 427.54 362.40 C 434.21 368.64 433.68 380.86 426.34 386.37 C 419.26 391.80 407.47 390.09 403.04 382.08 C 397.97 373.63 402.31 360.69 412.45 358.70 M 412.44 363.61 C 405.76 366.13 404.02 375.43 408.15 380.87 C 411.89 385.91 420.35 386.20 424.47 381.49 C 427.76 377.73 428.12 371.76 425.47 367.56 C 422.82 363.31 417.00 361.71 412.44 363.61 Z" />
<path fill="#0569c8" opacity="1.00" d=" M 510.46 361.44 C 516.47 356.89 525.04 357.48 531.33 361.18 C 530.51 362.61 529.68 364.03 528.86 365.46 C 524.78 363.06 519.55 361.66 515.18 364.16 C 508.31 367.63 507.80 378.55 514.04 382.88 C 518.46 386.04 524.48 384.98 528.82 382.23 C 529.65 383.67 530.46 385.12 531.30 386.57 C 525.44 389.93 517.80 390.77 511.83 387.22 C 502.85 382.11 502.27 367.55 510.46 361.44 Z" />
<path fill="#0569c8" opacity="1.00" d=" M 569.48 358.71 C 574.69 357.45 580.64 358.57 584.58 362.36 C 591.13 368.40 590.86 380.19 584.01 385.90 C 577.00 391.93 564.58 390.28 560.08 381.97 C 555.14 373.53 559.40 360.73 569.48 358.71 M 569.50 363.64 C 560.82 366.83 560.96 381.22 569.76 384.18 C 576.58 387.02 584.77 381.43 584.34 373.99 C 584.96 366.41 576.41 360.41 569.50 363.64 Z" />
<path fill="#0569c8" opacity="1.00" d=" M 681.55 358.76 C 688.80 356.71 697.53 360.18 700.34 367.42 C 703.66 375.13 700.25 385.39 692.11 388.38 C 684.06 391.76 673.39 387.64 671.02 378.92 C 668.25 370.81 672.85 360.64 681.55 358.76 M 682.33 363.43 C 673.48 366.04 672.84 380.17 681.19 383.83 C 687.65 387.15 696.47 382.39 696.50 374.93 C 697.81 367.29 689.54 360.49 682.33 363.43 Z" />
<path fill="#0569c8" opacity="1.00" d=" M 152.63 358.88 C 157.77 359.14 163.09 358.20 168.12 359.54 C 173.90 361.35 174.43 370.05 169.19 372.87 C 176.35 374.77 176.03 386.08 169.21 388.19 C 163.81 389.51 158.14 388.52 152.63 388.82 C 152.63 378.84 152.63 368.86 152.63 358.88 M 157.24 363.10 C 157.24 365.86 157.24 368.63 157.25 371.40 C 160.08 371.26 163.07 371.78 165.79 370.76 C 168.78 369.57 168.57 364.49 165.47 363.55 C 162.79 362.85 159.98 363.16 157.24 363.10 M 157.25 375.51 C 157.24 378.53 157.24 381.55 157.24 384.57 C 160.46 384.43 163.82 385.03 166.94 384.05 C 170.35 382.78 170.38 377.20 166.91 376.00 C 163.79 375.04 160.45 375.65 157.25 375.51 Z" />
<path fill="#0569c8" opacity="1.00" d=" M 207.67 358.87 C 213.39 358.87 219.10 358.87 224.81 358.87 C 224.81 360.28 224.81 361.69 224.81 363.11 C 220.64 363.11 216.47 363.12 212.29 363.10 C 212.28 365.44 212.28 367.77 212.28 370.11 C 216.13 370.11 219.98 370.11 223.83 370.11 C 223.83 371.56 223.84 373.02 223.84 374.47 C 219.99 374.47 216.13 374.47 212.28 374.48 C 212.28 377.84 212.28 381.21 212.28 384.58 C 216.40 384.62 220.51 384.45 224.63 384.63 C 225.56 385.73 225.02 387.41 225.28 388.75 C 219.42 388.89 213.55 388.79 207.68 388.83 C 207.66 378.84 207.67 368.86 207.67 358.87 Z" />
<path fill="#0569c8" opacity="1.00" d=" M 229.81 358.87 C 235.46 358.87 241.11 358.87 246.77 358.87 C 246.77 360.28 246.77 361.69 246.77 363.11 C 242.64 363.11 238.51 363.11 234.38 363.12 C 234.39 371.69 234.39 380.26 234.38 388.83 C 232.85 388.82 231.33 388.82 229.81 388.82 C 229.80 378.84 229.80 368.85 229.81 358.87 Z" />
<path fill="#0569c8" opacity="1.00" d=" M 250.79 358.87 C 257.02 358.87 263.24 358.87 269.47 358.87 C 269.47 367.59 269.49 376.31 269.46 385.04 C 270.46 385.10 271.47 385.16 272.48 385.23 C 272.45 388.41 272.45 391.60 272.46 394.79 C 271.05 394.78 269.65 394.78 268.25 394.79 C 268.24 393.03 268.24 391.27 268.25 389.53 C 261.97 389.50 255.69 389.51 249.41 389.51 C 249.40 391.26 249.41 393.02 249.41 394.78 C 248.00 394.78 246.60 394.78 245.20 394.79 C 245.20 391.58 245.20 388.36 245.20 385.15 C 245.96 385.15 247.49 385.16 248.25 385.16 C 252.08 376.92 250.43 367.64 250.79 358.87 M 255.36 363.13 C 255.38 370.50 255.79 378.10 253.21 385.15 C 257.08 385.15 260.96 385.15 264.83 385.15 C 264.83 377.80 264.83 370.46 264.83 363.11 C 261.67 363.11 258.52 363.11 255.36 363.13 Z" />
<path fill="#0569c8" opacity="1.00" d=" M 273.80 388.79 C 277.88 378.83 281.96 368.88 285.99 358.89 C 287.39 358.88 288.80 358.87 290.21 358.86 C 294.32 368.84 298.38 378.84 302.46 388.82 C 300.77 388.81 299.08 388.80 297.39 388.78 C 296.48 386.34 295.55 383.90 294.61 381.47 C 290.28 381.48 285.96 381.47 281.64 381.48 C 280.70 383.92 279.78 386.36 278.85 388.80 C 277.16 388.80 275.48 388.79 273.80 388.79 M 283.29 377.25 C 286.50 377.26 289.71 377.26 292.93 377.25 C 291.40 373.09 289.82 368.94 288.14 364.84 C 286.42 368.94 284.88 373.11 283.29 377.25 Z" />
<path fill="#0569c8" opacity="1.00" d=" M 317.10 358.88 C 322.24 359.13 327.55 358.19 332.58 359.58 C 338.23 361.43 338.74 370.15 333.51 372.86 C 340.74 374.73 340.37 386.24 333.44 388.24 C 328.10 389.45 322.53 388.56 317.10 388.82 C 317.10 378.84 317.10 368.86 317.10 358.88 M 321.53 363.11 C 321.53 365.87 321.54 368.63 321.54 371.40 C 324.35 371.28 327.28 371.72 329.99 370.81 C 333.19 369.73 332.90 364.29 329.62 363.49 C 326.97 362.87 324.22 363.15 321.53 363.11 M 321.54 375.51 C 321.53 378.53 321.53 381.55 321.54 384.57 C 324.69 384.51 327.90 384.86 331.00 384.19 C 334.77 383.10 334.82 376.87 330.95 375.88 C 327.87 375.17 324.67 375.59 321.54 375.51 Z" />
<path fill="#0569c8" opacity="1.00" d=" M 351.86 358.88 C 359.00 358.86 366.14 358.87 373.27 358.88 C 373.27 360.28 373.27 361.69 373.27 363.10 C 370.45 363.11 367.64 363.11 364.82 363.15 C 364.83 371.71 364.82 380.26 364.83 388.82 C 363.31 388.81 361.80 388.81 360.29 388.82 C 360.30 380.25 360.30 371.68 360.29 363.12 C 357.48 363.11 354.67 363.11 351.86 363.10 C 351.86 361.69 351.86 360.28 351.86 358.88 Z" />
<path fill="#0569c8" opacity="1.00" d=" M 376.58 358.88 C 381.81 359.17 387.26 358.11 392.33 359.68 C 397.71 361.70 398.20 369.94 393.23 372.74 C 400.02 375.10 399.92 385.90 393.14 388.15 C 387.76 389.54 382.09 388.51 376.59 388.83 C 376.57 378.84 376.58 368.86 376.58 358.88 M 381.12 363.10 C 381.11 365.87 381.12 368.65 381.16 371.42 C 383.98 371.25 386.97 371.79 389.66 370.75 C 392.58 369.57 392.42 364.69 389.49 363.62 C 386.78 362.80 383.90 363.19 381.12 363.10 M 381.13 375.50 C 381.11 378.53 381.11 381.56 381.14 384.59 C 384.18 384.51 387.27 384.85 390.27 384.25 C 393.96 383.44 394.51 377.55 391.01 376.12 C 387.87 374.96 384.40 375.68 381.13 375.50 Z" />
<path fill="#0569c8" opacity="1.00" d=" M 436.55 358.88 C 441.24 359.08 446.05 358.30 450.64 359.48 C 457.16 361.68 458.04 371.72 452.52 375.48 C 449.20 377.72 444.96 377.07 441.18 377.19 C 441.19 381.05 441.18 384.92 441.19 388.78 C 439.64 388.80 438.09 388.81 436.55 388.83 C 436.55 378.85 436.55 368.86 436.55 358.88 M 441.19 363.08 C 441.18 366.31 441.18 369.54 441.19 372.78 C 443.57 372.72 446.00 372.97 448.35 372.44 C 452.20 371.22 452.27 364.86 448.45 363.54 C 446.09 362.89 443.60 363.16 441.19 363.08 Z" />
<path fill="#0569c8" opacity="1.00" d=" M 457.54 358.84 C 459.06 358.86 460.58 358.89 462.11 358.92 C 462.32 362.97 461.43 367.22 462.67 371.13 C 465.92 373.49 470.37 372.02 474.14 372.37 C 474.14 367.86 474.14 363.36 474.14 358.85 C 475.63 358.87 477.14 358.90 478.65 358.93 C 478.62 368.89 478.64 378.85 478.64 388.82 C 477.13 388.81 475.63 388.81 474.13 388.82 C 474.16 384.75 474.24 380.67 473.87 376.61 C 468.84 376.22 462.04 378.37 458.62 373.49 C 456.55 368.93 457.91 363.69 457.54 358.84 Z" />
<path fill="#0569c8" opacity="1.00" d=" M 484.46 358.95 C 490.20 358.80 495.94 358.89 501.68 358.87 C 501.68 360.28 501.68 361.69 501.68 363.11 C 497.49 363.11 493.29 363.11 489.10 363.11 C 489.10 365.44 489.10 367.77 489.10 370.11 C 492.95 370.11 496.80 370.11 500.65 370.12 C 500.65 371.21 500.65 373.39 500.65 374.48 C 496.80 374.47 492.96 374.48 489.12 374.46 C 489.09 377.83 489.10 381.20 489.10 384.57 C 493.32 384.58 497.55 384.58 501.78 384.57 C 501.78 385.98 501.79 387.40 501.81 388.82 C 496.03 388.82 490.25 388.83 484.48 388.82 C 484.48 378.86 484.51 368.90 484.46 358.95 Z" />
<path fill="#0569c8" opacity="1.00" d=" M 535.28 358.88 C 536.80 358.87 538.33 358.87 539.87 358.87 C 539.87 363.22 539.84 367.57 539.91 371.93 C 543.38 368.08 546.78 364.17 550.26 360.34 C 552.01 357.85 555.40 359.20 557.92 358.87 C 553.62 363.45 549.26 368.00 544.94 372.57 C 549.88 378.04 554.96 383.37 559.92 388.82 C 557.65 388.81 555.39 388.81 553.13 388.80 C 548.76 383.87 544.27 379.06 539.89 374.13 C 539.85 379.03 539.87 383.93 539.87 388.82 C 538.33 388.82 536.80 388.82 535.28 388.82 C 535.28 378.84 535.28 368.86 535.28 358.88 Z" />
<path fill="#0569c8" opacity="1.00" d=" M 597.23 360.13 C 597.37 358.04 599.86 359.16 601.19 358.76 C 603.58 364.87 605.95 370.99 608.41 377.07 C 610.90 371.02 613.18 364.89 615.66 358.84 C 616.57 358.84 618.39 358.85 619.29 358.86 C 621.80 368.83 624.17 378.84 626.61 388.83 C 624.97 388.81 623.33 388.80 621.70 388.79 C 620.07 381.78 618.56 374.73 616.79 367.76 C 614.47 373.20 612.40 378.74 610.17 384.22 C 609.30 384.23 607.56 384.24 606.70 384.24 C 604.42 378.91 602.61 373.38 600.03 368.19 C 598.09 374.98 596.77 381.94 595.11 388.81 C 593.47 388.81 591.84 388.81 590.22 388.82 C 592.56 379.26 594.80 369.66 597.23 360.13 Z" />
<path fill="#0569c8" opacity="1.00" d=" M 641.59 358.87 C 649.69 358.87 657.79 358.87 665.89 358.87 C 665.89 368.86 665.89 378.84 665.89 388.83 C 664.39 388.82 662.90 388.81 661.42 388.81 C 661.42 380.25 661.42 371.68 661.41 363.11 C 656.34 363.11 651.28 363.11 646.21 363.12 C 646.21 371.67 646.21 380.23 646.21 388.79 C 644.66 388.80 643.12 388.82 641.59 388.84 C 641.58 378.85 641.58 368.86 641.59 358.87 Z" />
<path fill="#0569c8" opacity="1.00" d=" M 706.72 358.87 C 714.11 358.87 721.49 358.87 728.89 358.87 C 728.88 368.86 728.89 378.84 728.88 388.82 C 727.37 388.82 725.86 388.81 724.37 388.82 C 724.38 380.25 724.37 371.68 724.37 363.11 C 720.01 363.11 715.66 363.11 711.31 363.12 C 711.29 369.10 711.33 375.08 711.32 381.07 C 711.25 383.28 711.11 385.80 709.44 387.46 C 707.71 389.26 704.97 388.91 702.74 389.32 C 702.71 387.87 702.70 386.43 702.70 384.99 C 704.05 384.39 706.64 384.90 706.57 382.75 C 706.94 374.81 706.60 366.83 706.72 358.87 Z" />
<path fill="#0569c8" opacity="1.00" d=" M 734.82 358.87 C 740.52 358.98 746.24 358.64 751.94 359.04 C 752.10 360.40 751.89 361.78 751.87 363.15 C 747.71 363.09 743.55 363.10 739.39 363.12 C 739.38 365.45 739.39 367.78 739.40 370.11 C 743.22 370.11 747.06 370.11 750.90 370.11 C 750.89 371.56 750.89 373.02 750.90 374.47 C 747.06 374.47 743.23 374.47 739.39 374.48 C 739.39 377.84 739.39 381.21 739.39 384.58 C 743.66 384.57 747.92 384.55 752.19 384.62 C 752.18 386.00 752.17 387.38 752.18 388.77 C 746.39 388.86 740.60 388.81 734.82 388.82 C 734.81 378.84 734.81 368.85 734.82 358.87 Z" />
<path fill="#0569c8" opacity="1.00" d=" M 754.42 358.87 C 761.52 358.87 768.62 358.87 775.72 358.87 C 775.71 360.28 775.71 361.69 775.72 363.11 C 772.93 363.11 770.15 363.11 767.37 363.12 C 767.37 371.69 767.38 380.26 767.37 388.83 C 765.83 388.82 764.31 388.82 762.79 388.82 C 762.79 380.25 762.79 371.68 762.79 363.12 C 760.00 363.11 757.21 363.11 754.42 363.11 C 754.41 361.69 754.41 360.28 754.42 358.87 Z" />
<path fill="#0569c8" opacity="1.00" d=" M 779.15 358.87 C 784.85 358.87 790.56 358.87 796.27 358.87 C 796.26 360.28 796.26 361.69 796.27 363.11 C 792.02 363.11 787.78 363.11 783.55 363.11 C 783.54 365.44 783.53 367.78 783.54 370.11 C 787.44 370.11 791.33 370.11 795.23 370.11 C 795.24 371.56 795.26 373.01 795.28 374.46 C 791.37 374.48 787.45 374.47 783.54 374.48 C 783.54 377.84 783.54 381.21 783.55 384.57 C 787.82 384.57 792.10 384.57 796.39 384.58 C 796.37 385.99 796.37 387.41 796.38 388.83 C 790.63 388.81 784.89 388.82 779.15 388.82 C 779.15 378.84 779.15 368.86 779.15 358.87 Z" />
<path fill="#0569c8" opacity="1.00" d=" M 6.84 445.92 C 33.12 479.37 62.20 511.32 97.37 535.63 C 110.56 544.17 124.49 551.52 138.58 558.47 C 178.33 577.82 221.59 591.25 265.99 592.98 C 279.38 593.69 292.80 592.85 306.12 591.54 C 312.21 593.02 318.03 595.63 323.92 597.81 C 281.42 607.32 236.88 610.41 193.99 601.49 C 181.04 598.87 168.38 595.02 155.99 590.46 C 120.04 579.87 86.53 562.26 55.50 541.44 C 53.43 539.90 50.73 538.83 49.62 536.34 C 39.29 514.61 28.92 492.89 18.59 471.16 C 14.71 462.73 10.34 454.52 6.84 445.92 Z" />
<path fill="#0569c8" opacity="1.00" d=" M 132.07 447.91 C 183.99 486.32 242.14 517.45 305.08 533.13 C 347.73 543.88 392.24 547.33 436.02 543.00 C 480.72 538.74 524.49 526.67 565.78 509.20 C 519.92 489.93 474.08 470.63 428.23 451.37 C 443.48 450.60 458.74 450.25 473.99 449.51 C 478.80 449.14 483.49 450.47 488.17 451.36 C 537.44 461.09 586.72 470.78 635.98 480.54 C 638.93 480.96 642.08 482.39 644.99 481.03 C 667.90 471.49 690.21 459.91 714.59 454.44 C 730.65 450.77 747.74 450.54 763.55 455.55 C 778.48 460.67 793.74 464.75 808.83 469.35 C 814.90 470.98 820.79 473.33 827.00 474.37 L 827.00 474.71 C 777.98 493.16 728.75 511.05 679.71 529.44 C 661.29 596.96 642.69 664.44 624.25 731.95 C 623.12 735.39 622.97 739.53 620.07 742.09 C 611.10 750.71 602.21 759.43 593.20 768.00 L 593.17 768.00 C 596.72 713.35 600.66 658.71 602.30 603.96 C 602.30 595.98 602.79 587.96 601.61 580.04 C 548.65 588.51 494.74 592.07 441.20 587.87 C 418.18 586.26 395.36 582.73 372.58 579.10 C 318.62 569.84 265.19 553.50 218.04 525.16 C 184.81 505.23 155.06 479.17 132.07 447.91 Z" />
<path fill="#0569c8" opacity="1.00" d=" M 340.68 600.72 C 342.26 599.67 344.17 600.39 345.89 600.53 C 353.69 601.74 361.54 602.58 369.33 603.87 C 355.59 611.98 340.93 618.46 326.13 624.38 C 300.85 634.18 274.11 640.87 246.91 641.62 C 229.29 642.31 211.74 639.72 194.64 635.68 C 167.24 629.27 140.49 619.14 116.67 604.03 C 159.97 617.66 205.61 624.10 251.00 622.54 C 281.83 621.14 313.46 616.05 340.68 600.72 Z" />
</g>
</svg>
