<?xml version="1.0" encoding="UTF-8" ?>
<!DOCTYPE svg PUBLIC "-//W3C//DTD SVG 1.1//EN" "http://www.w3.org/Graphics/SVG/1.1/DTD/svg11.dtd">
<svg width="3450pt" height="1700pt" viewBox="0 0 3450 1700" version="1.1" xmlns="http://www.w3.org/2000/svg">
<g id="#013366ff">
<path fill="#013366" opacity="1.00" d=" M 2597.03 19.51 C 2607.66 15.87 2618.68 12.91 2629.98 12.55 C 2636.06 12.23 2642.22 13.48 2647.64 16.32 C 2651.60 18.19 2654.75 21.32 2658.51 23.55 C 2662.49 26.05 2666.70 28.66 2669.35 32.67 C 2670.43 35.42 2669.96 38.70 2668.07 40.99 C 2663.84 47.84 2661.31 55.80 2661.08 63.86 C 2676.08 66.89 2691.87 64.86 2706.06 59.31 C 2717.01 55.74 2728.40 52.81 2740.02 53.10 C 2747.66 53.11 2755.08 56.23 2761.02 60.93 C 2766.19 65.01 2772.82 67.61 2776.46 73.40 C 2777.15 75.74 2777.17 78.60 2775.62 80.62 C 2771.92 86.14 2769.68 92.55 2768.52 99.06 C 2766.84 108.52 2770.56 117.80 2774.77 126.08 C 2778.44 132.82 2782.45 139.52 2787.89 145.02 C 2789.88 147.25 2792.22 149.81 2791.72 153.07 C 2791.88 155.13 2790.10 156.57 2788.52 157.49 C 2782.60 160.70 2775.79 162.93 2769.00 161.93 C 2764.87 161.31 2760.39 160.75 2757.15 157.90 C 2753.14 154.63 2748.56 151.96 2743.56 150.60 C 2737.15 148.61 2730.60 151.78 2725.34 155.25 C 2720.45 158.92 2714.48 160.61 2709.22 163.60 C 2713.01 169.43 2716.60 175.49 2721.63 180.39 C 2724.25 182.82 2726.18 187.42 2723.59 190.49 C 2714.70 197.16 2702.13 198.56 2692.07 193.79 C 2686.47 189.38 2680.23 185.16 2672.96 184.45 C 2666.16 184.34 2660.39 188.37 2654.96 191.93 C 2644.72 197.12 2634.02 201.50 2622.94 204.49 C 2611.54 207.67 2599.10 207.91 2587.91 203.80 C 2584.41 202.67 2581.36 200.52 2577.90 199.33 C 2577.90 329.92 2577.90 460.51 2577.90 591.10 C 2862.21 591.13 3146.52 591.04 3430.82 591.14 C 3431.02 928.84 3430.82 1266.54 3430.92 1604.24 C 3376.97 1604.68 3323.00 1604.27 3269.04 1604.39 C 3198.74 1604.30 3128.43 1604.49 3058.14 1604.23 C 3057.72 1608.22 3057.89 1612.24 3057.95 1616.27 C 3005.65 1616.70 2953.33 1616.33 2901.02 1616.45 C 2793.31 1616.49 2685.59 1616.37 2577.88 1616.51 C 2577.91 1636.34 2577.90 1656.18 2577.89 1676.01 C 2578.22 1682.30 2572.21 1687.84 2566.02 1687.48 C 2559.60 1688.11 2553.32 1682.51 2553.55 1676.02 C 2553.53 1656.17 2553.57 1636.32 2553.53 1616.47 C 2541.32 1616.44 2529.10 1616.42 2516.90 1616.49 C 2516.89 1636.32 2516.91 1656.16 2516.89 1675.99 C 2517.21 1682.28 2511.21 1687.86 2505.00 1687.48 C 2498.60 1688.11 2492.36 1682.54 2492.55 1676.08 C 2492.52 1656.21 2492.57 1636.34 2492.53 1616.47 C 2487.30 1616.46 2482.08 1616.37 2476.88 1616.52 C 2476.91 1630.35 2476.90 1644.18 2476.89 1658.02 C 2477.21 1664.32 2471.17 1669.88 2464.96 1669.49 C 2458.55 1670.09 2452.32 1664.47 2452.55 1658.00 C 2452.53 1644.16 2452.56 1630.32 2452.54 1616.48 C 1937.13 1616.44 1421.72 1616.44 906.31 1616.48 C 905.90 1612.22 906.16 1607.95 906.11 1603.70 C 666.08 1603.56 426.05 1603.56 186.02 1603.48 C 179.38 1604.57 173.32 1607.99 166.92 1610.07 C 162.99 1611.31 159.27 1613.72 155.02 1613.48 C 134.37 1613.31 113.71 1613.67 93.06 1613.30 C 80.63 1513.90 68.96 1414.40 56.89 1314.95 C 44.37 1211.00 31.84 1107.05 19.32 1003.10 C 18.83 996.68 19.27 990.24 19.05 983.81 C 47.37 983.19 75.75 983.73 104.09 983.54 C 107.51 978.66 109.97 973.00 113.96 968.61 C 260.32 968.56 406.69 968.77 553.05 968.82 C 654.38 968.87 755.68 969.21 857.02 969.10 C 896.38 969.13 935.74 969.15 975.10 969.17 C 975.15 843.16 975.01 717.16 975.17 591.15 C 1467.61 591.04 1960.06 591.11 2452.50 591.11 C 2452.60 407.08 2452.52 223.05 2452.55 39.01 C 2452.62 34.39 2451.67 29.01 2455.16 25.29 C 2459.92 19.22 2469.92 19.83 2474.82 25.42 C 2480.80 21.18 2487.44 17.83 2494.46 15.67 C 2504.07 12.83 2514.28 13.61 2524.09 14.86 C 2528.36 15.33 2532.23 17.32 2536.30 18.59 C 2545.93 21.69 2555.84 24.27 2565.99 24.77 C 2576.50 24.80 2587.21 23.43 2597.03 19.51 M 2600.91 25.89 C 2588.32 30.90 2574.48 31.82 2561.07 31.20 C 2548.59 30.23 2536.47 26.61 2524.80 22.26 C 2516.95 20.56 2508.67 19.51 2500.77 21.44 C 2492.99 23.26 2485.84 26.99 2479.14 31.21 C 2478.21 31.88 2476.60 32.40 2477.03 33.87 C 2476.96 62.01 2477.02 90.16 2477.00 118.30 C 2489.48 115.68 2502.19 113.65 2514.99 113.96 C 2523.08 113.74 2531.29 114.37 2539.04 116.90 C 2543.41 118.17 2547.18 120.86 2551.49 122.32 C 2557.86 124.50 2564.73 126.00 2571.47 124.72 C 2585.48 122.19 2598.82 116.76 2611.50 110.40 C 2617.51 106.22 2624.31 102.19 2631.96 102.89 C 2639.84 102.23 2647.37 105.80 2653.37 110.67 C 2656.47 113.60 2660.93 114.14 2664.97 114.91 C 2669.18 114.60 2673.17 112.86 2676.95 111.02 C 2667.19 100.72 2659.31 88.29 2655.55 74.53 C 2652.86 61.36 2654.91 46.87 2662.71 35.72 C 2660.43 33.46 2657.74 31.70 2655.02 30.07 C 2651.48 28.04 2648.59 25.07 2644.94 23.26 C 2639.76 20.57 2633.85 18.52 2627.96 19.41 C 2618.72 20.47 2609.68 22.85 2600.91 25.89 M 2463.11 30.21 C 2460.90 31.17 2460.60 33.85 2460.57 35.96 C 2460.56 575.31 2460.58 1114.66 2460.56 1654.01 C 2460.24 1656.96 2461.57 1660.83 2465.09 1660.84 C 2468.17 1660.18 2469.32 1656.82 2468.99 1654.01 C 2469.00 1114.67 2469.01 575.33 2468.99 35.98 C 2469.61 32.79 2466.61 28.33 2463.11 30.21 M 2701.50 68.66 C 2688.68 71.84 2675.21 72.93 2662.11 71.05 C 2663.79 76.63 2665.80 82.19 2668.88 87.16 C 2670.13 87.72 2671.61 87.33 2673.02 87.48 C 2681.09 87.48 2688.85 90.97 2695.02 96.05 C 2699.63 99.38 2705.01 101.89 2708.65 106.44 C 2710.56 108.75 2710.58 112.45 2708.90 114.90 C 2704.37 121.72 2701.77 129.79 2701.15 137.93 C 2701.16 144.47 2703.30 150.84 2706.09 156.69 C 2711.86 154.08 2717.86 151.79 2723.00 147.98 C 2733.94 140.60 2749.41 142.08 2759.43 150.43 C 2762.78 153.75 2767.54 154.81 2772.09 155.33 C 2776.29 155.13 2780.20 153.28 2783.99 151.55 C 2774.02 141.00 2765.93 128.25 2762.32 114.09 C 2760.03 101.18 2762.06 87.09 2769.73 76.22 C 2765.99 72.43 2760.97 70.39 2756.94 66.99 C 2750.71 62.37 2742.93 58.97 2735.04 59.92 C 2723.49 61.13 2712.35 64.69 2701.50 68.66 M 2673.12 94.30 C 2675.68 98.81 2679.23 102.57 2682.68 106.40 C 2685.25 109.09 2686.16 114.39 2682.48 116.55 C 2676.10 120.33 2668.53 122.72 2661.08 121.45 C 2657.37 120.75 2653.32 120.27 2650.36 117.73 C 2645.36 113.66 2639.45 110.26 2632.95 109.59 C 2626.44 109.53 2620.76 113.19 2615.59 116.71 C 2608.95 120.26 2601.98 123.17 2594.94 125.82 C 2584.70 129.51 2573.94 132.63 2562.95 131.97 C 2555.66 131.54 2548.39 129.71 2541.94 126.27 C 2534.31 122.19 2525.54 120.87 2517.00 120.58 C 2517.00 144.82 2517.00 169.07 2517.00 193.31 C 2533.07 189.71 2549.61 188.08 2566.06 189.26 C 2572.74 190.00 2579.49 191.41 2585.47 194.63 C 2590.57 197.37 2596.20 199.07 2601.93 199.90 C 2608.20 200.88 2614.47 199.23 2620.53 197.70 C 2631.25 194.69 2641.62 190.43 2651.53 185.38 C 2656.27 182.24 2661.17 178.90 2666.95 178.09 C 2673.22 177.61 2679.87 177.54 2685.56 180.68 C 2691.10 182.87 2694.79 188.43 2700.99 189.13 C 2706.47 191.11 2712.01 188.29 2716.95 186.04 C 2707.24 175.74 2699.35 163.37 2695.58 149.64 C 2692.86 136.47 2694.85 121.92 2702.70 110.79 C 2699.36 107.13 2694.67 105.27 2690.87 102.22 C 2685.78 98.08 2679.61 95.25 2673.12 94.30 M 2500.57 121.52 C 2500.56 638.37 2500.58 1155.22 2500.56 1672.08 C 2500.24 1675.01 2501.59 1678.82 2505.07 1678.84 C 2508.15 1678.19 2509.33 1674.84 2508.99 1672.03 C 2509.01 1154.96 2509.00 637.89 2509.00 120.82 C 2506.16 120.96 2503.35 121.17 2500.57 121.52 M 2476.85 125.80 C 2476.97 280.90 2476.86 436.00 2476.91 591.09 C 2482.09 591.11 2487.29 591.08 2492.50 591.12 C 2492.61 434.94 2492.52 278.75 2492.54 122.56 C 2487.26 123.39 2481.99 124.35 2476.85 125.80 M 2517.20 200.48 C 2516.61 204.63 2516.98 208.82 2516.90 212.99 C 2516.90 339.03 2516.90 465.06 2516.90 591.09 C 2529.09 591.12 2541.29 591.07 2553.49 591.12 C 2553.61 459.24 2553.52 327.35 2553.54 195.46 C 2541.27 195.69 2529.17 197.96 2517.20 200.48 M 2561.47 196.12 C 2561.70 225.06 2561.50 254.01 2561.57 282.96 C 2561.57 743.97 2561.57 1204.97 2561.57 1665.98 C 2561.63 1669.02 2561.28 1672.12 2561.84 1675.16 C 2562.12 1677.60 2565.24 1679.86 2567.50 1678.23 C 2570.15 1676.86 2570.02 1673.50 2570.00 1670.96 C 2569.99 1179.66 2570.02 688.36 2569.99 197.06 C 2567.17 196.48 2564.32 195.86 2561.47 196.12 M 983.00 599.01 C 983.01 722.34 982.98 845.67 983.01 969.00 C 1004.18 968.89 1025.35 969.21 1046.52 968.86 C 1046.43 927.75 1046.25 886.63 1046.61 845.52 C 1066.40 845.31 1086.19 845.49 1105.98 845.43 C 1158.47 845.52 1210.96 845.25 1263.44 845.57 C 1263.66 886.65 1263.65 927.75 1263.45 968.83 C 1266.90 969.43 1270.43 969.14 1273.93 969.20 C 1291.27 969.21 1308.61 969.18 1325.96 969.24 C 1335.14 969.04 1344.37 969.63 1353.54 968.94 C 1353.35 927.83 1353.37 886.71 1353.53 845.60 C 1372.34 845.20 1391.17 845.54 1409.99 845.43 C 1463.49 845.55 1516.99 845.20 1570.48 845.60 C 1570.72 886.87 1570.45 928.13 1570.61 969.40 C 1599.87 969.43 1629.13 969.51 1658.40 969.44 C 1658.63 928.12 1658.09 886.78 1658.67 845.48 C 1730.45 845.39 1802.24 845.42 1874.02 845.46 C 1876.09 845.15 1875.45 847.82 1875.60 849.05 C 1875.47 889.18 1875.70 929.32 1875.48 969.46 C 1905.28 969.97 1935.12 969.49 1964.94 969.78 C 1965.07 928.42 1964.98 887.05 1964.98 845.69 C 1968.98 845.22 1973.02 845.48 1977.06 845.43 C 2027.72 845.43 2078.37 845.43 2129.03 845.43 C 2146.69 845.60 2164.38 845.08 2182.02 845.70 C 2181.98 887.10 2181.99 928.50 2182.02 969.90 C 2211.18 969.81 2240.36 970.13 2269.52 969.82 C 2269.41 928.40 2269.29 886.96 2269.58 845.55 C 2330.51 845.26 2391.46 845.55 2452.40 845.40 C 2452.52 763.31 2452.31 681.21 2452.50 599.12 C 2388.33 598.85 2324.16 599.08 2259.99 599.00 C 1834.33 599.00 1408.66 598.99 983.00 599.01 M 2477.00 599.00 C 2476.99 681.13 2477.01 763.25 2477.00 845.38 C 2480.16 845.52 2483.36 845.22 2486.54 845.70 C 2486.67 887.16 2486.42 928.63 2486.67 970.09 C 2488.58 969.99 2490.55 969.95 2492.52 969.86 C 2492.31 909.58 2492.49 849.30 2492.43 789.02 C 2492.50 725.74 2492.28 662.45 2492.54 599.16 C 2487.36 598.88 2482.17 599.04 2477.00 599.00 M 2517.00 599.00 C 2517.01 722.67 2516.99 846.34 2517.01 970.01 C 2529.18 969.86 2541.37 970.30 2553.53 969.84 C 2553.29 899.90 2553.50 829.95 2553.43 760.00 C 2553.53 706.41 2553.23 652.81 2553.58 599.22 C 2541.39 598.73 2529.19 599.13 2517.00 599.00 M 2578.00 599.00 C 2578.00 722.68 2577.99 846.36 2578.01 970.04 C 2580.82 970.09 2583.67 970.08 2586.52 969.86 C 2586.41 928.42 2586.29 886.98 2586.58 845.55 C 2606.73 845.28 2626.89 845.51 2647.04 845.43 C 2699.17 845.52 2751.32 845.24 2803.45 845.57 C 2803.73 884.69 2803.48 923.82 2803.57 962.95 C 2803.71 965.30 2803.08 967.84 2803.89 970.11 C 2864.26 970.45 2924.67 970.24 2985.05 970.38 C 3009.37 970.56 3033.72 970.06 3058.03 970.71 C 3057.96 1179.19 3058.02 1387.68 3058.00 1596.17 C 3067.99 1596.41 3078.00 1596.21 3088.01 1596.28 C 3199.67 1596.33 3311.33 1596.39 3423.00 1596.38 C 3422.99 1263.92 3423.01 931.46 3422.99 599.00 C 3141.33 599.00 2859.66 599.00 2578.00 599.00 M 1054.46 853.46 C 1054.46 865.83 1054.41 878.19 1054.49 890.55 C 1076.36 890.49 1098.24 890.64 1120.12 890.48 C 1120.08 878.15 1120.09 865.82 1120.12 853.50 C 1098.23 853.40 1076.34 853.47 1054.46 853.46 M 1127.89 853.50 C 1127.90 865.83 1127.92 878.15 1127.87 890.48 C 1148.76 890.62 1169.65 890.53 1190.54 890.53 C 1190.55 878.17 1190.56 865.82 1190.53 853.47 C 1169.65 853.46 1148.77 853.40 1127.89 853.50 M 1198.45 853.49 C 1198.45 865.83 1198.45 878.18 1198.46 890.53 C 1217.49 890.55 1236.51 890.57 1255.54 890.52 C 1255.54 878.17 1255.56 865.81 1255.53 853.45 C 1236.50 853.47 1217.48 853.41 1198.45 853.49 M 1361.46 853.47 C 1361.45 865.82 1361.44 878.18 1361.46 890.54 C 1383.35 890.52 1405.24 890.62 1427.12 890.48 C 1427.08 878.16 1427.08 865.85 1427.13 853.53 C 1405.24 853.36 1383.35 853.48 1361.46 853.47 M 1434.89 853.50 C 1434.91 865.83 1434.91 878.16 1434.89 890.50 C 1455.77 890.60 1476.65 890.53 1497.54 890.53 C 1497.55 878.18 1497.54 865.83 1497.54 853.48 C 1476.65 853.45 1455.77 853.41 1434.89 853.50 M 1505.45 853.48 C 1505.45 865.82 1505.45 878.17 1505.45 890.52 C 1524.47 890.58 1543.49 890.53 1562.52 890.54 C 1562.57 878.18 1562.54 865.82 1562.53 853.46 C 1543.51 853.46 1524.48 853.42 1505.45 853.48 M 1666.46 853.47 C 1666.46 865.83 1666.42 878.18 1666.48 890.54 C 1688.36 890.53 1710.24 890.60 1732.12 890.51 C 1732.09 878.17 1732.09 865.83 1732.12 853.49 C 1710.23 853.41 1688.34 853.45 1666.46 853.47 M 1739.88 853.51 C 1739.92 865.85 1739.89 878.18 1739.90 890.51 C 1760.77 890.59 1781.65 890.52 1802.52 890.55 C 1802.55 878.18 1802.57 865.82 1802.51 853.46 C 1781.63 853.49 1760.76 853.38 1739.88 853.51 M 1810.47 853.47 C 1810.45 865.82 1810.42 878.18 1810.48 890.54 C 1829.49 890.55 1848.51 890.55 1867.52 890.54 C 1867.57 878.18 1867.53 865.83 1867.54 853.48 C 1848.52 853.43 1829.49 853.45 1810.47 853.47 M 1972.89 853.49 C 1972.90 865.82 1972.91 878.15 1972.88 890.49 C 1994.76 890.61 2016.65 890.53 2038.54 890.53 C 2038.52 878.17 2038.60 865.80 2038.50 853.44 C 2016.63 853.49 1994.75 853.40 1972.89 853.49 M 2046.46 853.46 C 2046.44 865.81 2046.45 878.17 2046.46 890.53 C 2067.34 890.54 2088.23 890.60 2109.12 890.50 C 2109.07 878.16 2109.11 865.82 2109.10 853.48 C 2088.22 853.42 2067.34 853.46 2046.46 853.46 M 2116.89 853.49 C 2116.90 865.83 2116.90 878.17 2116.89 890.51 C 2135.96 890.56 2155.04 890.59 2174.12 890.50 C 2174.08 878.16 2174.09 865.82 2174.11 853.49 C 2155.04 853.43 2135.96 853.42 2116.89 853.49 M 2277.46 853.47 C 2277.46 865.83 2277.42 878.18 2277.48 890.54 C 2299.35 890.53 2321.23 890.58 2343.10 890.52 C 2343.11 878.18 2343.07 865.84 2343.12 853.50 C 2321.23 853.40 2299.34 853.46 2277.46 853.47 M 2350.89 853.49 C 2350.90 865.82 2350.91 878.15 2350.88 890.49 C 2371.76 890.61 2392.65 890.53 2413.54 890.53 C 2413.53 878.17 2413.56 865.81 2413.53 853.46 C 2392.65 853.47 2371.76 853.40 2350.89 853.49 M 2421.47 853.46 C 2421.45 865.82 2421.42 878.18 2421.48 890.54 C 2431.83 890.54 2442.18 890.55 2452.53 890.54 C 2452.54 878.18 2452.57 865.82 2452.51 853.46 C 2442.16 853.45 2431.81 853.44 2421.47 853.46 M 2476.90 853.45 C 2476.89 865.81 2476.90 878.17 2476.90 890.53 L 2478.52 890.55 C 2478.57 878.19 2478.53 865.83 2478.54 853.47 L 2476.90 853.45 M 2594.47 853.46 C 2594.44 865.82 2594.44 878.18 2594.47 890.54 C 2616.34 890.53 2638.22 890.58 2660.10 890.52 C 2660.11 878.18 2660.08 865.84 2660.11 853.50 C 2638.23 853.40 2616.35 853.47 2594.47 853.46 M 2667.87 853.53 C 2667.92 865.85 2667.90 878.17 2667.88 890.50 C 2688.76 890.60 2709.65 890.53 2730.53 890.53 C 2730.56 878.17 2730.54 865.82 2730.54 853.47 C 2709.65 853.49 2688.76 853.36 2667.87 853.53 M 2738.46 853.48 C 2738.47 865.83 2738.41 878.19 2738.49 890.55 C 2757.50 890.53 2776.52 890.58 2795.54 890.52 C 2795.53 878.17 2795.56 865.82 2795.53 853.47 C 2776.50 853.45 2757.48 853.43 2738.46 853.48 M 1054.46 898.47 C 1054.47 922.06 1054.40 945.64 1054.50 969.23 C 1076.36 969.21 1098.23 969.29 1120.10 969.22 C 1120.11 945.65 1120.08 922.07 1120.12 898.49 C 1098.23 898.41 1076.35 898.45 1054.46 898.47 M 1127.89 898.49 C 1127.93 922.08 1127.87 945.67 1127.91 969.26 C 1148.77 969.29 1169.63 969.28 1190.50 969.33 C 1190.62 945.72 1190.50 922.10 1190.55 898.49 C 1169.66 898.42 1148.77 898.43 1127.89 898.49 M 1198.45 898.48 C 1198.49 922.09 1198.39 945.71 1198.50 969.32 C 1217.48 969.32 1236.47 969.33 1255.46 969.36 C 1255.65 945.73 1255.51 922.09 1255.53 898.46 C 1236.50 898.46 1217.47 898.42 1198.45 898.48 M 1361.46 898.47 C 1361.47 922.11 1361.41 945.75 1361.49 969.40 C 1383.36 969.45 1405.23 969.45 1427.11 969.42 C 1427.11 945.79 1427.07 922.16 1427.13 898.53 C 1405.24 898.37 1383.35 898.48 1361.46 898.47 M 1434.88 898.50 C 1434.92 922.14 1434.90 945.78 1434.88 969.42 C 1455.77 969.48 1476.65 969.52 1497.53 969.46 C 1497.55 945.79 1497.56 922.12 1497.53 898.46 C 1476.65 898.48 1455.76 898.39 1434.88 898.50 M 1505.45 898.47 C 1505.47 922.15 1505.41 945.82 1505.49 969.49 C 1524.50 969.53 1543.52 969.52 1562.54 969.51 C 1562.56 945.83 1562.54 922.16 1562.55 898.48 C 1543.51 898.43 1524.48 898.44 1505.45 898.47 M 1666.48 898.45 C 1666.38 922.13 1666.56 945.80 1666.38 969.47 C 1688.20 969.84 1710.05 969.40 1731.87 969.75 C 1732.41 946.02 1731.93 922.25 1732.11 898.51 C 1710.23 898.38 1688.35 898.49 1666.48 898.45 M 1739.88 898.50 C 1740.06 922.23 1739.61 945.99 1740.11 969.72 C 1760.95 969.42 1781.81 969.99 1802.65 969.47 C 1802.40 945.81 1802.63 922.13 1802.54 898.47 C 1781.65 898.46 1760.77 898.41 1739.88 898.50 M 1810.45 898.49 C 1810.39 922.16 1810.59 945.84 1810.35 969.52 C 1819.90 969.94 1829.48 969.58 1839.05 969.70 C 1848.58 969.54 1858.14 970.01 1867.66 969.52 C 1867.38 945.84 1867.65 922.15 1867.52 898.46 C 1848.50 898.46 1829.47 898.42 1810.45 898.49 M 1972.89 898.49 C 1973.02 922.28 1972.68 946.07 1973.06 969.85 C 1994.84 969.73 2016.64 969.80 2038.43 969.89 C 2038.69 946.09 2038.48 922.27 2038.54 898.47 C 2016.65 898.46 1994.77 898.41 1972.89 898.49 M 2046.46 898.47 C 2046.58 922.28 2046.17 946.12 2046.66 969.92 C 2067.42 969.85 2088.20 969.67 2108.96 970.05 C 2109.30 946.21 2108.97 922.36 2109.13 898.51 C 2088.24 898.38 2067.35 898.47 2046.46 898.47 M 2116.89 898.50 C 2116.95 922.30 2116.82 946.09 2116.95 969.89 C 2136.00 969.82 2155.04 970.07 2174.09 970.09 C 2174.13 946.22 2174.07 922.36 2174.12 898.50 C 2155.04 898.42 2135.96 898.42 2116.89 898.50 M 2277.46 898.47 C 2277.48 922.35 2277.38 946.23 2277.51 970.12 C 2299.37 970.07 2321.23 970.12 2343.09 970.09 C 2343.12 946.23 2343.08 922.36 2343.11 898.50 C 2321.22 898.40 2299.34 898.46 2277.46 898.47 M 2350.88 898.50 C 2350.93 922.38 2350.87 946.25 2350.91 970.12 C 2371.77 970.13 2392.63 970.12 2413.50 970.18 C 2413.60 946.28 2413.52 922.38 2413.54 898.48 C 2392.65 898.46 2371.76 898.40 2350.88 898.50 M 2421.48 898.46 C 2421.43 922.36 2421.42 946.26 2421.49 970.17 C 2431.82 970.15 2442.17 970.16 2452.51 970.20 C 2452.58 946.28 2452.54 922.37 2452.53 898.46 C 2442.18 898.45 2431.83 898.45 2421.48 898.46 M 2476.90 898.48 C 2476.92 922.45 2476.86 946.42 2476.92 970.40 L 2478.37 970.02 C 2478.77 946.17 2478.45 922.29 2478.53 898.44 L 2476.90 898.48 M 2594.45 898.48 C 2594.47 922.41 2594.41 946.35 2594.49 970.28 C 2616.36 970.23 2638.23 970.36 2660.10 970.27 C 2660.10 946.34 2660.10 922.41 2660.10 898.49 C 2638.22 898.42 2616.33 898.44 2594.45 898.48 M 2667.89 898.49 C 2667.91 922.42 2667.90 946.35 2667.89 970.28 C 2688.76 970.35 2709.64 970.34 2730.51 970.34 C 2730.57 946.38 2730.56 922.41 2730.51 898.46 C 2709.64 898.48 2688.76 898.40 2667.89 898.49 M 2738.47 898.46 C 2738.44 922.42 2738.44 946.39 2738.47 970.35 C 2757.48 970.40 2776.48 970.32 2795.49 970.41 C 2795.60 946.43 2795.54 922.44 2795.53 898.46 C 2776.50 898.44 2757.49 898.45 2738.47 898.46 M 108.99 991.61 C 81.85 991.57 54.70 991.48 27.56 991.66 C 27.58 996.88 27.58 1002.10 27.55 1007.33 C 54.91 1007.59 82.27 1007.31 109.63 1007.47 C 113.13 1002.76 116.15 997.71 119.15 992.69 C 129.07 992.11 139.04 992.56 148.97 992.47 C 240.99 992.50 333.01 992.61 425.03 992.66 C 757.01 993.03 1088.99 992.95 1420.97 993.30 C 1764.78 993.51 2108.60 993.95 2452.42 994.00 C 2452.41 988.69 2452.49 983.38 2452.37 978.08 C 2344.23 978.01 2236.10 977.99 2127.96 977.99 C 1714.97 977.69 1301.97 977.33 888.97 977.04 C 632.34 977.07 375.70 976.68 119.07 976.64 C 114.94 980.95 112.86 986.99 108.99 991.61 M 2477.01 978.10 C 2476.99 983.40 2476.99 988.70 2477.01 994.00 C 2482.17 993.93 2487.35 994.14 2492.53 993.84 C 2492.34 988.63 2492.42 983.42 2492.47 978.22 C 2487.31 977.99 2482.16 978.16 2477.01 978.10 M 2517.03 978.13 C 2516.99 983.42 2516.99 988.71 2517.00 994.01 C 2529.14 994.01 2541.28 994.00 2553.42 994.03 C 2553.39 988.73 2553.51 983.44 2553.35 978.15 C 2541.24 978.22 2529.13 978.13 2517.03 978.13 M 2578.06 978.14 C 2577.96 983.44 2578.01 988.74 2578.00 994.04 C 2735.34 994.17 2892.67 994.31 3050.00 994.42 C 3049.92 989.09 3050.15 983.75 3049.80 978.44 C 3002.19 978.70 2954.57 978.41 2906.96 978.46 C 2797.33 978.33 2687.69 978.37 2578.06 978.14 M 1771.16 1001.76 C 1752.76 1066.93 1734.05 1132.02 1715.72 1197.22 C 1863.69 1197.38 2011.65 1197.37 2159.62 1197.55 C 2178.18 1132.38 2196.72 1067.20 2215.17 1002.01 C 2067.17 1002.02 1919.16 1001.74 1771.16 1001.76 M 3001.13 1002.45 C 3000.82 1078.62 3001.09 1154.80 3001.00 1230.98 C 3001.00 1341.01 3001.00 1451.04 3001.00 1561.07 C 3017.30 1571.12 3033.66 1581.08 3050.00 1591.08 C 3050.01 1394.94 3049.98 1198.80 3050.01 1002.66 C 3033.72 1002.37 3017.42 1002.69 3001.13 1002.45 M 29.01 1015.68 C 30.30 1024.45 31.19 1033.28 32.29 1042.09 C 54.96 1229.88 77.48 1417.70 100.22 1605.48 C 116.12 1605.41 132.03 1605.35 147.93 1605.51 C 147.75 1600.33 146.78 1595.23 146.25 1590.09 C 123.13 1398.60 99.78 1207.14 76.78 1015.64 C 60.86 1015.55 44.93 1015.47 29.01 1015.68 M 183.00 1204.58 C 183.09 1334.89 182.83 1465.21 183.13 1595.52 C 199.75 1595.33 216.38 1595.54 233.00 1595.47 C 457.31 1595.59 681.62 1595.57 905.93 1595.74 C 906.09 1465.50 905.96 1335.25 906.00 1205.00 C 665.00 1204.91 424.00 1204.70 183.00 1204.58 M 914.00 1205.00 C 914.00 1329.85 914.00 1454.70 914.00 1579.55 C 966.18 1560.30 1018.32 1540.95 1070.45 1521.58 C 1070.47 1416.11 1070.30 1310.63 1070.54 1205.16 C 1018.37 1204.79 966.18 1205.10 914.00 1205.00 M 1078.45 1205.18 C 1078.74 1310.58 1078.46 1415.99 1078.60 1521.39 C 1236.86 1521.46 1395.13 1521.45 1553.40 1521.40 C 1553.50 1416.04 1553.37 1310.69 1553.46 1205.33 C 1419.67 1205.14 1285.87 1205.15 1152.08 1205.04 C 1127.54 1205.15 1102.99 1204.74 1078.45 1205.18 M 1593.55 1205.34 C 1593.61 1310.69 1593.52 1416.04 1593.60 1521.39 C 1608.53 1521.45 1623.47 1521.45 1638.41 1521.39 C 1638.47 1416.05 1638.41 1310.71 1638.43 1205.37 C 1623.47 1205.36 1608.51 1205.24 1593.55 1205.34 M 1646.31 1205.56 C 1646.66 1234.55 1646.32 1263.55 1646.49 1292.55 C 1701.03 1292.50 1755.58 1292.63 1810.12 1292.49 C 1809.94 1263.42 1810.36 1234.35 1809.91 1205.29 C 1764.29 1205.39 1718.67 1205.29 1673.05 1205.27 C 1664.14 1205.46 1655.19 1204.89 1646.31 1205.56 M 1818.09 1205.28 C 1817.63 1234.34 1818.05 1263.43 1817.89 1292.50 C 1887.97 1292.56 1958.05 1292.62 2028.13 1292.47 C 2027.92 1263.44 2028.39 1234.39 2027.90 1205.38 C 1957.96 1205.48 1888.03 1205.43 1818.09 1205.28 M 2035.89 1205.50 C 2035.91 1234.50 2035.90 1263.50 2035.89 1292.51 C 2094.97 1292.55 2154.05 1292.61 2213.12 1292.48 C 2213.07 1263.51 2213.12 1234.53 2213.10 1205.56 C 2154.03 1205.53 2094.96 1205.45 2035.89 1205.50 M 2221.00 1205.69 C 2221.00 1311.13 2221.00 1416.56 2221.00 1521.99 C 2232.51 1521.89 2244.04 1522.22 2255.56 1521.81 C 2255.18 1416.44 2255.68 1311.06 2255.31 1205.70 C 2243.87 1205.76 2232.43 1205.69 2221.00 1205.69 M 2295.45 1206.12 C 2295.73 1261.09 2295.49 1316.07 2295.57 1371.05 C 2295.49 1421.30 2295.73 1471.57 2295.45 1521.82 C 2316.94 1522.22 2338.44 1521.89 2359.94 1522.00 C 2390.81 1521.90 2421.68 1522.20 2452.54 1521.84 C 2452.31 1417.55 2452.45 1313.25 2452.47 1208.95 C 2452.24 1207.93 2453.04 1205.41 2451.13 1205.86 C 2412.10 1205.78 2373.07 1205.82 2334.04 1205.76 C 2321.18 1206.00 2308.26 1205.28 2295.45 1206.12 M 2477.01 1205.88 C 2476.99 1311.25 2477.00 1416.62 2477.00 1521.99 C 2482.16 1521.96 2487.34 1522.09 2492.53 1521.85 C 2492.30 1469.89 2492.49 1417.94 2492.43 1365.98 C 2492.50 1312.71 2492.28 1259.44 2492.54 1206.17 C 2487.38 1205.54 2482.17 1206.01 2477.01 1205.88 M 2517.00 1205.88 C 2517.00 1311.25 2517.00 1416.62 2517.00 1521.99 C 2529.18 1521.90 2541.37 1522.20 2553.55 1521.83 C 2553.28 1466.56 2553.51 1411.28 2553.43 1356.01 C 2553.51 1306.07 2553.26 1256.12 2553.55 1206.18 C 2541.39 1205.59 2529.18 1206.01 2517.00 1205.88 M 2578.00 1205.92 C 2578.00 1311.28 2578.00 1416.64 2578.00 1522.00 C 2647.85 1521.88 2717.70 1522.23 2787.55 1521.82 C 2787.28 1475.88 2787.51 1429.93 2787.43 1383.99 C 2787.49 1324.71 2787.30 1265.42 2787.53 1206.14 C 2772.67 1205.83 2757.81 1206.08 2742.96 1206.00 C 2687.97 1206.00 2632.99 1205.95 2578.00 1205.92 M 2795.44 1206.19 C 2795.74 1256.11 2795.48 1306.05 2795.57 1355.98 C 2795.49 1411.26 2795.73 1466.55 2795.45 1521.84 C 2803.29 1522.16 2811.14 1521.93 2819.00 1521.99 C 2819.00 1416.66 2819.01 1311.33 2818.99 1206.00 C 2811.14 1206.09 2803.27 1205.79 2795.44 1206.19 M 1817.99 1300.65 C 1818.11 1370.94 1817.80 1441.24 1818.14 1511.52 C 1852.72 1511.35 1887.31 1511.40 1921.89 1511.50 C 1922.14 1484.01 1921.93 1456.51 1922.00 1429.01 C 1921.87 1386.15 1922.25 1343.28 1921.81 1300.43 C 1887.20 1300.80 1852.59 1300.38 1817.99 1300.65 M 1930.18 1300.44 C 1929.87 1305.28 1930.04 1310.13 1930.00 1314.99 C 1930.00 1366.66 1930.00 1418.32 1930.00 1470.00 C 1930.14 1483.85 1929.71 1497.73 1930.23 1511.58 C 1962.76 1511.30 1995.31 1511.38 2027.84 1511.54 C 2028.09 1507.03 2027.95 1502.52 2028.00 1498.02 C 2028.00 1432.22 2028.00 1366.42 2028.00 1300.62 C 1995.39 1300.41 1962.78 1300.77 1930.18 1300.44 M 1646.47 1300.46 C 1646.44 1345.15 1646.45 1389.84 1646.46 1434.54 C 1672.48 1434.56 1698.50 1434.53 1724.52 1434.55 C 1724.58 1389.86 1724.53 1345.17 1724.54 1300.48 C 1698.51 1300.42 1672.49 1300.46 1646.47 1300.46 M 1732.47 1300.47 C 1732.44 1345.16 1732.44 1389.85 1732.47 1434.54 C 1758.35 1434.52 1784.24 1434.60 1810.12 1434.50 C 1810.08 1389.83 1810.09 1345.17 1810.11 1300.50 C 1784.23 1300.40 1758.35 1300.46 1732.47 1300.47 M 2035.87 1300.53 C 2035.93 1345.18 2035.91 1389.84 2035.88 1434.49 C 2062.29 1434.59 2088.70 1434.56 2115.11 1434.51 C 2115.10 1389.84 2115.08 1345.17 2115.12 1300.50 C 2088.70 1300.44 2062.28 1300.38 2035.87 1300.53 M 2122.87 1300.52 C 2122.93 1345.19 2122.89 1389.85 2122.89 1434.52 C 2152.96 1434.55 2183.04 1434.60 2213.11 1434.49 C 2213.09 1389.82 2213.10 1345.15 2213.11 1300.49 C 2183.03 1300.45 2152.95 1300.38 2122.87 1300.52 M 1646.46 1442.47 C 1646.45 1465.49 1646.44 1488.51 1646.47 1511.53 C 1672.48 1511.56 1698.50 1511.55 1724.53 1511.54 C 1724.56 1488.51 1724.55 1465.49 1724.54 1442.47 C 1698.51 1442.44 1672.49 1442.44 1646.46 1442.47 M 1732.47 1442.46 C 1732.44 1465.49 1732.43 1488.52 1732.48 1511.55 C 1758.36 1511.51 1784.24 1511.61 1810.12 1511.50 C 1810.08 1488.50 1810.09 1465.50 1810.11 1442.50 C 1784.23 1442.39 1758.35 1442.47 1732.47 1442.46 M 2035.88 1442.50 C 2035.90 1465.50 2035.92 1488.49 2035.88 1511.49 C 2062.29 1511.59 2088.70 1511.57 2115.12 1511.50 C 2115.08 1488.50 2115.09 1465.50 2115.11 1442.50 C 2088.70 1442.42 2062.29 1442.42 2035.88 1442.50 M 2122.89 1442.49 C 2122.91 1465.50 2122.90 1488.51 2122.89 1511.51 C 2152.97 1511.56 2183.04 1511.58 2213.11 1511.51 C 2213.10 1488.51 2213.07 1465.52 2213.13 1442.52 C 2183.05 1442.39 2152.97 1442.44 2122.89 1442.49 M 1646.56 1519.63 C 1646.50 1522.65 1646.72 1525.68 1646.49 1528.71 C 1645.66 1530.30 1643.40 1529.24 1642.00 1529.59 C 1625.87 1529.55 1609.74 1529.55 1593.61 1529.59 C 1593.45 1540.52 1593.71 1551.46 1593.48 1562.40 C 1580.17 1562.68 1566.82 1562.69 1553.52 1562.39 C 1553.29 1551.46 1553.53 1540.53 1553.40 1529.60 C 1395.94 1529.52 1238.47 1529.59 1081.01 1529.57 C 1077.86 1529.69 1074.54 1529.03 1071.56 1530.32 C 1019.07 1549.92 966.50 1569.30 914.00 1588.86 C 914.01 1591.14 914.02 1593.44 914.08 1595.76 C 1129.70 1595.71 1345.33 1595.89 1560.95 1595.92 C 1833.63 1596.07 2106.31 1595.94 2378.99 1596.05 C 2403.49 1595.88 2428.02 1596.40 2452.52 1595.86 C 2452.39 1573.97 2452.32 1552.07 2452.55 1530.18 C 2400.26 1529.76 2347.94 1530.12 2295.64 1530.00 C 2295.38 1540.81 2295.79 1551.63 2295.43 1562.44 C 2282.14 1562.63 2268.82 1562.70 2255.54 1562.41 C 2255.34 1551.65 2255.38 1540.89 2255.52 1530.14 C 2241.35 1529.79 2227.18 1530.17 2213.01 1529.94 C 2212.96 1526.44 2213.03 1522.94 2212.85 1519.46 C 2180.57 1519.71 2148.28 1519.50 2116.00 1519.57 C 1959.52 1519.61 1803.04 1519.49 1646.56 1519.63 M 2477.00 1530.00 C 2477.00 1552.03 2476.99 1574.05 2477.01 1596.08 C 2482.17 1595.96 2487.37 1596.36 2492.54 1595.83 C 2492.35 1573.94 2492.36 1552.05 2492.54 1530.16 C 2487.35 1529.88 2482.17 1530.04 2477.00 1530.00 M 2517.00 1530.00 C 2517.00 1552.03 2516.99 1574.05 2517.00 1596.08 C 2529.17 1595.91 2541.37 1596.51 2553.53 1595.85 C 2553.38 1573.96 2553.32 1552.07 2553.56 1530.19 C 2541.38 1529.78 2529.18 1530.10 2517.00 1530.00 M 2578.00 1530.01 C 2578.00 1552.04 2577.99 1574.08 2578.00 1596.12 C 2732.49 1596.10 2886.98 1596.38 3041.46 1596.16 C 3033.29 1590.67 3024.65 1585.91 3016.32 1580.68 C 3008.90 1576.44 3001.97 1571.24 2994.08 1567.92 C 2946.57 1557.13 2899.26 1545.42 2851.85 1534.20 C 2843.94 1532.68 2836.23 1529.43 2828.07 1530.00 C 2744.71 1530.00 2661.35 1529.99 2578.00 1530.01 M 913.98 1603.84 C 914.01 1605.38 914.07 1606.95 914.16 1608.54 C 967.11 1608.29 1020.07 1608.50 1073.02 1608.43 C 1420.68 1608.43 1768.33 1608.43 2115.99 1608.43 C 2228.17 1608.35 2340.35 1608.60 2452.53 1608.31 C 2452.41 1606.90 2452.32 1605.51 2452.26 1604.15 C 2306.52 1604.27 2160.78 1604.07 2015.05 1604.08 C 1648.03 1603.93 1281.00 1604.06 913.98 1603.84 M 2476.99 1604.20 C 2476.99 1605.62 2477.06 1607.08 2477.18 1608.56 C 2482.24 1608.30 2487.32 1608.48 2492.40 1608.42 C 2492.39 1607.02 2492.41 1605.64 2492.47 1604.29 C 2487.30 1604.15 2482.14 1604.27 2476.99 1604.20 M 2517.03 1604.17 C 2517.02 1605.61 2517.06 1607.08 2517.18 1608.56 C 2529.28 1608.20 2541.40 1608.63 2553.51 1608.34 C 2553.40 1606.93 2553.31 1605.55 2553.25 1604.18 C 2541.17 1604.37 2529.10 1604.26 2517.03 1604.17 M 2578.01 1604.22 C 2578.01 1605.64 2578.06 1607.09 2578.18 1608.56 C 2681.46 1608.26 2784.75 1608.51 2888.04 1608.43 C 2941.97 1608.52 2995.92 1608.25 3049.85 1608.56 C 3049.85 1607.12 3049.85 1605.69 3049.86 1604.29 C 3007.24 1604.62 2964.60 1604.27 2921.98 1604.38 C 2807.32 1604.31 2692.67 1604.36 2578.01 1604.22 Z" />
<path fill="#013366" opacity="1.00" d=" M 2159.12 693.12 C 2162.55 691.59 2167.43 693.85 2167.15 697.96 C 2167.74 702.16 2162.66 704.98 2159.15 703.09 C 2154.94 701.45 2155.15 694.94 2159.12 693.12 Z" />
<path fill="#013366" opacity="1.00" d=" M 2175.22 693.29 C 2178.33 691.66 2183.07 693.34 2183.47 697.13 C 2184.49 701.21 2179.92 704.92 2176.10 703.36 C 2171.60 702.23 2171.15 695.25 2175.22 693.29 Z" />
<path fill="#013366" opacity="1.00" d=" M 1400.42 707.57 C 1409.25 705.80 1419.27 707.70 1425.78 714.25 C 1434.16 723.04 1434.91 737.51 1428.90 747.79 C 1419.65 762.87 1394.16 763.34 1384.42 748.56 C 1377.40 737.47 1378.90 720.78 1389.50 712.42 C 1392.66 709.92 1396.47 708.33 1400.42 707.57 M 1401.57 716.74 C 1389.93 719.91 1387.23 736.07 1394.28 744.76 C 1400.14 752.14 1412.88 752.02 1418.74 744.70 C 1423.45 738.90 1423.59 730.17 1420.18 723.72 C 1416.78 717.21 1408.36 714.54 1401.57 716.74 Z" />
<path fill="#013366" opacity="1.00" d=" M 2056.50 707.68 C 2065.52 705.73 2075.93 707.55 2082.52 714.41 C 2090.40 722.72 2091.29 736.08 2086.43 746.14 C 2078.21 762.65 2051.44 763.90 2041.21 748.81 C 2036.20 741.29 2035.64 731.31 2038.57 722.91 C 2041.23 715.04 2048.43 709.26 2056.50 707.68 M 2058.49 716.66 C 2047.34 719.45 2044.04 734.18 2049.76 743.16 C 2054.82 751.89 2068.64 752.54 2075.09 745.06 C 2080.08 739.15 2080.31 730.08 2076.64 723.45 C 2073.20 717.22 2065.12 714.63 2058.49 716.66 Z" />
<path fill="#013366" opacity="1.00" d=" M 1333.57 708.26 C 1345.61 708.04 1357.66 708.13 1369.71 708.21 C 1369.80 721.83 1369.53 735.45 1369.85 749.05 C 1372.27 748.97 1374.70 748.97 1377.15 749.08 C 1377.09 755.57 1377.24 762.06 1377.05 768.55 C 1373.84 768.58 1370.63 768.58 1367.44 768.54 C 1367.39 765.02 1367.50 761.50 1367.36 758.00 C 1355.35 758.07 1343.35 757.87 1331.35 758.10 C 1331.46 761.58 1331.45 765.07 1331.38 768.56 C 1328.15 768.58 1324.93 768.57 1321.71 768.53 C 1321.72 762.03 1321.67 755.53 1321.74 749.04 C 1323.37 748.98 1325.03 748.95 1326.70 748.91 C 1329.72 745.69 1331.35 741.46 1331.75 737.10 C 1332.55 727.50 1333.00 717.87 1333.57 708.26 M 1343.03 717.01 C 1341.61 727.77 1343.76 739.62 1337.90 749.34 C 1345.10 749.59 1352.31 749.25 1359.51 749.53 C 1360.01 738.73 1359.50 727.89 1359.77 717.07 C 1354.19 716.96 1348.60 717.01 1343.03 717.01 Z" />
<path fill="#013366" opacity="1.00" d=" M 1441.88 708.15 C 1445.11 708.12 1448.35 708.07 1451.59 708.28 C 1457.22 716.81 1463.20 725.10 1468.80 733.65 C 1474.70 725.23 1480.32 716.62 1486.15 708.15 C 1489.32 708.13 1492.50 708.13 1495.69 708.18 C 1495.79 724.77 1495.61 741.35 1495.77 757.94 C 1492.42 758.06 1489.06 757.99 1485.72 758.00 C 1485.72 746.93 1485.61 735.87 1485.91 724.81 C 1480.60 732.46 1475.63 740.39 1469.97 747.79 C 1467.22 748.94 1466.09 745.87 1464.78 744.15 C 1460.30 737.78 1456.24 731.11 1451.43 724.99 C 1452.38 735.95 1451.58 746.99 1451.88 757.99 C 1448.53 758.01 1445.19 758.00 1441.86 758.00 C 1441.86 741.38 1441.83 724.77 1441.88 708.15 Z" />
<path fill="#013366" opacity="1.00" d=" M 1525.00 708.13 C 1528.29 708.14 1531.60 708.14 1534.92 708.16 C 1535.02 715.04 1535.14 721.94 1534.76 728.82 C 1540.63 721.74 1546.91 715.01 1553.05 708.17 C 1557.19 708.13 1561.34 708.11 1565.49 708.17 C 1558.55 716.43 1551.13 724.28 1543.84 732.23 C 1551.45 741.09 1559.94 749.18 1567.62 758.00 C 1563.15 758.01 1558.68 758.00 1554.22 758.00 C 1547.82 750.95 1541.13 744.17 1534.93 736.96 C 1535.00 743.97 1535.01 750.99 1535.00 758.00 C 1531.66 757.99 1528.32 758.00 1525.00 758.00 C 1525.00 741.38 1525.00 724.75 1525.00 708.13 Z" />
<path fill="#013366" opacity="1.00" d=" M 1567.22 708.27 C 1571.11 708.14 1575.03 707.97 1578.95 708.26 C 1583.39 717.33 1588.25 726.29 1591.70 735.81 C 1595.12 726.28 1599.77 717.26 1604.07 708.12 C 1607.71 708.15 1611.36 708.13 1615.02 708.18 C 1609.79 719.47 1604.38 730.67 1599.05 741.91 C 1596.54 746.90 1594.64 752.50 1590.38 756.34 C 1585.33 760.39 1577.96 759.86 1572.33 757.37 C 1573.19 754.63 1574.03 751.86 1575.45 749.36 C 1577.51 750.08 1579.85 750.99 1582.04 750.05 C 1584.38 749.21 1585.41 746.72 1586.84 744.88 C 1580.43 732.60 1573.76 720.47 1567.22 708.27 Z" />
<path fill="#013366" opacity="1.00" d=" M 1623.94 708.12 C 1636.06 708.14 1648.18 708.19 1660.30 708.09 C 1660.59 724.72 1660.36 741.36 1660.42 758.00 C 1657.05 757.99 1653.68 758.10 1650.34 757.89 C 1650.61 744.42 1650.25 730.94 1650.52 717.47 C 1644.75 717.03 1638.96 717.45 1633.19 717.23 C 1632.14 727.18 1633.00 737.53 1629.63 747.09 C 1627.43 753.61 1621.17 757.85 1614.56 758.90 C 1613.82 755.90 1612.96 752.92 1612.42 749.88 C 1614.74 748.97 1617.32 748.15 1618.89 746.05 C 1620.80 743.45 1621.44 740.17 1621.89 737.04 C 1622.99 727.43 1622.98 717.74 1623.94 708.12 Z" />
<path fill="#013366" opacity="1.00" d=" M 1672.65 708.13 C 1675.96 708.13 1679.27 708.11 1682.60 708.25 C 1682.54 713.49 1682.56 718.75 1682.58 724.00 C 1689.96 724.27 1697.84 722.94 1704.74 726.29 C 1716.50 731.69 1715.63 751.89 1703.52 756.39 C 1699.56 758.08 1695.20 758.12 1690.99 758.01 C 1684.85 757.99 1678.72 757.99 1672.60 758.01 C 1672.58 741.38 1672.48 724.75 1672.65 708.13 M 1682.59 733.00 C 1682.55 738.33 1682.55 743.65 1682.59 748.99 C 1687.57 748.82 1692.70 749.60 1697.61 748.48 C 1703.92 746.74 1704.70 736.88 1698.82 734.12 C 1693.72 731.95 1687.96 733.42 1682.59 733.00 Z" />
<path fill="#013366" opacity="1.00" d=" M 1712.00 708.13 C 1725.70 708.15 1739.40 708.14 1753.11 708.14 C 1753.14 711.09 1753.14 714.04 1753.13 716.99 C 1747.89 717.08 1742.66 716.79 1737.45 717.18 C 1737.71 730.78 1737.51 744.39 1737.55 758.00 C 1734.22 757.99 1730.90 757.99 1727.59 758.00 C 1727.52 744.38 1727.62 730.76 1727.53 717.15 C 1722.35 716.83 1717.17 717.06 1712.00 717.00 C 1711.98 714.04 1711.98 711.08 1712.00 708.13 Z" />
<path fill="#013366" opacity="1.00" d=" M 1754.98 708.19 C 1758.91 708.12 1762.86 708.09 1766.80 708.22 C 1770.96 717.46 1776.01 726.31 1779.53 735.84 C 1782.59 726.26 1787.68 717.52 1791.55 708.27 C 1795.27 708.06 1799.02 708.06 1802.77 708.28 C 1797.31 719.65 1791.96 731.07 1786.52 742.45 C 1783.91 747.58 1781.97 753.49 1777.17 757.06 C 1772.05 760.20 1765.17 759.93 1759.96 757.15 C 1760.95 754.61 1761.89 752.05 1762.83 749.49 C 1765.66 750.30 1769.40 751.32 1771.70 748.77 C 1772.87 747.27 1775.14 745.33 1773.79 743.30 C 1767.54 731.59 1761.14 719.95 1754.98 708.19 Z" />
<path fill="#013366" opacity="1.00" d=" M 1809.30 708.20 C 1816.85 708.10 1824.42 708.11 1831.99 708.18 C 1837.79 708.32 1843.88 710.88 1846.88 716.07 C 1851.45 724.01 1849.74 735.92 1841.48 740.77 C 1834.81 744.69 1826.77 743.06 1819.44 743.44 C 1819.41 748.29 1819.44 753.14 1819.42 758.00 C 1816.02 758.00 1812.63 758.02 1809.26 757.99 C 1809.33 741.39 1809.26 724.80 1809.30 708.20 M 1819.40 717.20 C 1819.53 722.95 1819.25 728.72 1819.56 734.48 C 1824.35 734.20 1829.25 734.94 1833.97 733.81 C 1841.07 731.53 1840.78 719.59 1833.58 717.66 C 1828.94 716.60 1824.10 717.32 1819.40 717.20 Z" />
<path fill="#013366" opacity="1.00" d=" M 1857.09 708.15 C 1860.37 708.15 1863.67 708.14 1866.98 708.11 C 1867.03 713.41 1866.98 718.70 1867.00 724.00 C 1874.54 724.26 1882.61 722.93 1889.63 726.43 C 1898.78 731.05 1899.74 744.52 1893.95 752.12 C 1890.59 756.20 1885.12 757.89 1880.00 758.01 C 1872.33 758.01 1864.66 758.00 1857.01 758.00 C 1857.05 741.39 1856.89 724.77 1857.09 708.15 M 1867.01 733.00 C 1866.99 738.32 1867.00 743.66 1867.01 748.99 C 1872.16 748.78 1877.50 749.70 1882.54 748.35 C 1888.74 746.25 1888.98 736.32 1882.92 733.90 C 1877.83 732.13 1872.28 733.35 1867.01 733.00 Z" />
<path fill="#013366" opacity="1.00" d=" M 1905.07 708.17 C 1908.37 708.14 1911.68 708.13 1914.99 708.13 C 1915.01 724.75 1914.99 741.37 1915.00 758.00 C 1911.65 758.00 1908.32 758.00 1905.00 758.00 C 1905.05 741.39 1904.90 724.78 1905.07 708.17 Z" />
<path fill="#013366" opacity="1.00" d=" M 1984.01 708.12 C 1998.57 708.21 2013.14 708.05 2027.70 708.20 C 2027.76 724.78 2027.63 741.36 2027.77 757.95 C 2024.27 758.03 2020.78 758.13 2017.31 757.85 C 2017.65 744.40 2017.21 730.95 2017.54 717.50 C 2009.80 717.00 2002.04 717.42 1994.30 717.29 C 1994.26 730.86 1994.30 744.43 1994.28 758.00 C 1990.84 757.99 1987.41 757.99 1984.00 758.00 C 1984.01 741.37 1983.98 724.75 1984.01 708.12 Z" />
<path fill="#013366" opacity="1.00" d=" M 2103.11 708.16 C 2115.31 708.18 2127.51 708.05 2139.72 708.23 C 2139.74 724.79 2139.63 741.37 2139.78 757.94 C 2136.42 758.06 2133.06 758.00 2129.73 758.00 C 2129.69 744.43 2129.72 730.86 2129.71 717.30 C 2123.92 717.28 2118.14 717.26 2112.37 717.31 C 2111.41 727.17 2112.22 737.43 2108.92 746.91 C 2106.77 753.49 2100.48 757.88 2093.80 758.86 C 2093.04 755.89 2092.21 752.94 2091.65 749.94 C 2096.01 748.82 2099.65 745.53 2100.39 740.96 C 2102.47 730.16 2102.05 719.07 2103.11 708.16 Z" />
<path fill="#013366" opacity="1.00" d=" M 2151.93 708.12 C 2163.60 708.14 2175.28 708.19 2186.97 708.10 C 2187.02 711.06 2187.00 714.03 2187.00 717.00 C 2178.57 716.99 2170.14 717.00 2161.72 717.00 C 2161.91 720.85 2161.18 724.79 2162.19 728.57 C 2170.06 728.36 2177.97 728.31 2185.85 728.59 C 2185.67 731.37 2185.66 734.17 2185.76 736.96 C 2177.74 737.07 2169.73 736.96 2161.72 737.00 C 2161.70 741.09 2161.67 745.18 2161.75 749.27 C 2170.28 749.25 2178.81 749.39 2187.35 749.19 C 2187.70 752.11 2187.56 755.06 2187.54 758.00 C 2175.64 758.00 2163.75 758.00 2151.86 758.00 C 2151.90 741.37 2151.76 724.75 2151.93 708.12 Z" />
<path fill="#013366" opacity="1.00" d=" M 2192.00 708.13 C 2205.70 708.16 2219.41 708.14 2233.12 708.14 C 2233.13 711.09 2233.13 714.04 2233.13 716.99 C 2227.96 716.98 2222.81 717.05 2217.66 716.94 C 2217.42 730.62 2217.66 744.31 2217.55 758.00 C 2214.21 757.99 2210.89 757.99 2207.58 758.00 C 2207.62 744.38 2207.43 730.76 2207.68 717.15 C 2202.45 716.83 2197.21 717.05 2192.00 717.00 C 2191.98 714.04 2191.98 711.08 2192.00 708.13 Z" />
<path fill="#013366" opacity="1.00" d=" M 1940.88 737.12 C 1944.08 731.67 1947.59 726.42 1950.92 721.04 C 1954.29 720.96 1957.67 720.95 1961.07 721.11 C 1957.76 726.43 1954.39 731.70 1951.01 736.97 C 1954.35 742.29 1957.83 747.53 1961.01 752.96 C 1957.65 753.01 1954.29 753.01 1950.96 752.98 C 1947.52 747.74 1944.35 742.33 1940.88 737.12 Z" />
<path fill="#013366" opacity="1.00" d=" M 1954.93 736.95 C 1958.35 731.74 1961.46 726.30 1965.02 721.18 C 1968.36 720.75 1971.75 721.07 1975.13 721.06 C 1971.89 726.43 1968.43 731.66 1965.10 736.98 C 1968.42 742.29 1971.85 747.54 1975.11 752.90 C 1971.73 753.04 1968.35 753.02 1964.98 752.96 C 1961.61 747.64 1958.26 742.30 1954.93 736.95 Z" />
<path fill="#013366" opacity="1.00" d=" M 2234.87 721.11 C 2238.22 721.03 2241.60 720.78 2244.97 721.15 C 2248.50 726.29 2251.60 731.74 2255.00 736.99 C 2251.62 742.24 2248.50 747.68 2244.99 752.84 C 2241.62 753.22 2238.23 752.96 2234.88 752.90 C 2238.16 747.56 2241.55 742.29 2244.91 737.00 C 2241.58 731.69 2238.15 726.44 2234.87 721.11 Z" />
<path fill="#013366" opacity="1.00" d=" M 2248.93 721.17 C 2252.29 720.90 2255.67 720.99 2259.06 721.03 C 2262.42 726.33 2265.71 731.67 2269.06 736.99 C 2265.71 742.31 2262.42 747.67 2259.05 752.99 C 2255.68 753.01 2252.31 753.02 2248.97 752.93 C 2252.19 747.54 2255.63 742.29 2258.99 736.97 C 2255.60 731.72 2252.28 726.43 2248.93 721.17 Z" />
<path fill="#013366" opacity="1.00" d=" M 485.41 1282.97 C 486.99 1282.50 487.57 1283.65 488.01 1284.97 C 489.49 1285.60 491.12 1285.78 492.61 1286.45 C 497.23 1288.88 497.38 1296.46 493.01 1299.24 C 491.45 1300.23 489.55 1300.43 487.79 1300.92 C 487.96 1302.55 487.00 1303.21 485.45 1303.11 C 485.96 1299.91 482.25 1300.66 480.37 1299.60 C 475.08 1297.08 475.41 1287.95 481.06 1286.09 C 482.83 1285.30 485.92 1285.79 485.41 1282.97 M 487.44 1287.16 C 487.42 1291.03 487.42 1294.91 487.45 1298.80 C 490.60 1298.53 494.11 1296.63 494.01 1293.03 C 494.21 1289.39 490.66 1287.30 487.44 1287.16 M 478.86 1293.02 C 478.62 1296.54 482.14 1298.68 485.30 1298.68 C 485.28 1294.86 485.28 1291.05 485.30 1287.24 C 482.07 1287.17 478.54 1289.46 478.86 1293.02 Z" />
<path fill="#013366" opacity="1.00" d=" M 437.33 1284.19 C 437.87 1284.05 438.96 1283.78 439.51 1283.64 C 439.64 1288.45 439.54 1293.27 439.55 1298.10 C 443.03 1294.05 446.00 1289.59 449.23 1285.36 C 449.84 1283.86 451.29 1283.68 452.68 1284.10 C 452.40 1289.97 452.70 1295.85 452.54 1301.72 C 452.02 1301.91 450.97 1302.28 450.44 1302.47 C 450.21 1297.40 450.14 1292.31 450.49 1287.25 C 447.25 1291.71 443.90 1296.08 440.67 1300.55 C 440.03 1301.91 438.63 1302.28 437.23 1302.10 C 437.40 1296.12 437.17 1290.15 437.33 1284.19 Z" />
<path fill="#013366" opacity="1.00" d=" M 457.77 1283.82 L 459.63 1283.81 C 460.11 1286.41 459.83 1289.07 459.75 1291.71 C 463.36 1291.97 466.99 1291.86 470.61 1291.79 C 470.55 1289.13 470.55 1286.47 470.61 1283.82 C 471.18 1283.84 472.30 1283.88 472.86 1283.90 C 472.86 1290.00 472.84 1296.11 472.87 1302.22 C 472.36 1302.17 471.34 1302.06 470.83 1302.01 C 470.18 1299.40 470.72 1296.64 470.55 1294.00 C 466.98 1293.99 463.41 1293.99 459.85 1294.00 C 459.84 1296.65 459.95 1299.31 459.79 1301.98 C 459.24 1302.05 458.14 1302.18 457.59 1302.25 C 457.69 1296.11 457.29 1289.94 457.77 1283.82 Z" />
<path fill="#013366" opacity="1.00" d=" M 504.13 1284.16 C 509.47 1281.72 516.83 1284.89 517.39 1291.09 C 519.06 1297.62 512.76 1304.15 506.16 1302.40 C 497.36 1301.31 496.16 1287.33 504.13 1284.16 M 504.35 1286.58 C 499.34 1289.59 500.18 1298.51 505.97 1300.11 C 510.47 1301.74 515.70 1297.79 515.17 1292.99 C 515.80 1287.41 508.94 1283.49 504.35 1286.58 Z" />
<path fill="#013366" opacity="1.00" d=" M 521.32 1283.86 C 524.72 1284.00 528.23 1283.44 531.57 1284.27 C 536.39 1286.04 536.43 1293.98 531.59 1295.76 C 528.96 1296.41 526.18 1296.04 523.50 1296.25 C 523.14 1298.30 525.04 1302.91 521.38 1302.32 C 521.19 1296.16 521.30 1290.01 521.32 1283.86 M 523.58 1286.00 C 523.56 1288.66 523.56 1291.32 523.58 1294.00 C 525.96 1293.95 528.39 1294.22 530.75 1293.76 C 532.74 1292.65 533.67 1289.93 532.43 1287.96 C 530.64 1284.79 526.49 1286.33 523.58 1286.00 Z" />
<path fill="#013366" opacity="1.00" d=" M 538.61 1283.70 C 540.06 1283.56 541.12 1284.10 541.79 1285.31 C 543.87 1288.43 545.84 1291.64 548.01 1294.71 C 550.54 1291.24 552.58 1287.44 555.21 1284.05 C 555.79 1283.97 556.96 1283.81 557.55 1283.73 C 557.56 1289.93 557.62 1296.14 557.52 1302.35 C 556.97 1302.22 555.89 1301.95 555.35 1301.82 C 555.12 1297.37 555.20 1292.92 555.19 1288.47 C 552.55 1291.20 551.00 1294.73 548.68 1297.70 C 547.50 1298.91 546.71 1296.69 546.08 1295.99 C 544.44 1293.42 542.89 1290.78 540.90 1288.47 C 540.74 1292.94 540.99 1297.43 540.80 1301.91 C 540.25 1302.00 539.15 1302.20 538.60 1302.29 C 538.55 1296.09 538.54 1289.89 538.61 1283.70 Z" />
<path fill="#013366" opacity="1.00" d=" M 560.46 1302.29 C 563.03 1296.06 565.66 1289.75 568.87 1283.85 C 569.40 1283.86 570.44 1283.87 570.96 1283.87 C 574.00 1289.85 576.63 1296.05 579.32 1302.20 C 576.48 1302.92 575.87 1299.99 575.00 1298.05 C 571.64 1298.01 568.27 1297.84 564.92 1298.08 C 563.50 1299.73 563.46 1302.94 560.46 1302.29 M 569.69 1286.32 C 568.59 1289.57 566.92 1292.61 565.82 1295.87 C 568.55 1295.85 571.29 1295.84 574.03 1295.86 C 572.60 1292.66 571.35 1289.39 569.69 1286.32 Z" />
<path fill="#013366" opacity="1.00" d=" M 582.33 1283.51 C 582.85 1283.71 583.89 1284.11 584.41 1284.32 C 584.52 1289.54 584.36 1294.77 584.44 1300.00 C 588.00 1300.00 591.57 1299.99 595.14 1300.00 C 595.21 1294.69 595.02 1289.38 595.20 1284.09 C 595.75 1283.99 596.84 1283.79 597.38 1283.69 C 597.44 1289.05 597.50 1294.42 597.33 1299.79 C 598.00 1299.87 599.34 1300.03 600.00 1300.10 C 599.99 1302.14 599.99 1304.19 600.00 1306.25 C 597.08 1306.87 597.96 1303.97 597.82 1302.15 C 592.61 1302.13 587.40 1302.14 582.19 1302.15 C 582.19 1295.93 581.95 1289.71 582.33 1283.51 Z" />
<path fill="#013366" opacity="1.00" d=" M 603.46 1284.28 C 603.99 1284.10 605.05 1283.73 605.58 1283.55 C 605.83 1288.38 605.75 1293.22 605.56 1298.07 C 609.44 1293.59 612.79 1288.66 616.28 1283.87 C 616.87 1283.94 618.06 1284.06 618.66 1284.12 C 618.42 1289.99 618.70 1295.87 618.54 1301.74 C 618.01 1301.92 616.97 1302.28 616.45 1302.46 C 616.11 1297.65 616.34 1292.83 616.33 1288.02 C 611.98 1292.32 609.32 1298.20 604.85 1302.28 C 604.50 1302.15 603.79 1301.88 603.44 1301.75 C 603.41 1295.92 603.39 1290.10 603.46 1284.28 Z" />
<path fill="#013366" opacity="1.00" d=" M 624.08 1286.08 C 627.11 1282.41 632.43 1284.32 636.52 1283.85 C 636.58 1290.02 636.65 1296.20 636.48 1302.38 C 632.14 1302.63 635.78 1297.17 633.57 1295.55 C 628.28 1294.51 627.65 1303.19 622.31 1302.20 C 623.97 1299.85 625.95 1297.76 627.91 1295.67 C 623.59 1294.95 621.32 1289.52 624.08 1286.08 M 625.17 1289.11 C 624.69 1294.17 630.90 1293.72 634.30 1293.53 C 634.28 1291.00 634.28 1288.50 634.27 1286.00 C 631.11 1286.14 626.10 1284.84 625.17 1289.11 Z" />
<path fill="#013366" opacity="1.00" d=" M 1833.98 1320.69 C 1849.97 1320.09 1866.01 1320.60 1882.02 1320.43 C 1891.68 1320.60 1901.38 1320.08 1911.03 1320.70 C 1910.98 1356.90 1910.98 1393.10 1911.02 1429.30 C 1893.02 1429.93 1874.98 1429.39 1856.96 1429.57 C 1849.30 1429.41 1841.61 1429.89 1833.98 1429.31 C 1834.01 1393.10 1834.02 1356.90 1833.98 1320.69 M 1841.89 1328.51 C 1841.92 1359.51 1841.89 1390.51 1841.90 1421.51 C 1862.30 1421.56 1882.71 1421.57 1903.11 1421.51 C 1903.09 1390.51 1903.08 1359.51 1903.12 1328.52 C 1882.71 1328.41 1862.29 1328.42 1841.89 1328.51 Z" />
<path fill="#013366" opacity="1.00" d=" M 1940.58 1320.55 C 1966.20 1320.37 1991.84 1320.30 2017.46 1320.59 C 2017.66 1356.85 2017.60 1393.12 2017.49 1429.38 C 1991.86 1429.74 1966.21 1429.60 1940.58 1429.45 C 1940.23 1408.32 1940.53 1387.17 1940.43 1366.03 C 1940.52 1350.87 1940.24 1335.70 1940.58 1320.55 M 1948.47 1328.46 C 1948.43 1359.48 1948.47 1390.50 1948.45 1421.51 C 1968.81 1421.58 1989.17 1421.53 2009.54 1421.54 C 2009.54 1390.51 2009.57 1359.48 2009.52 1328.46 C 1989.17 1328.46 1968.82 1328.44 1948.47 1328.46 Z" />
<path fill="#013366" opacity="1.00" d=" M 413.04 1325.04 C 497.67 1324.97 582.31 1324.99 666.95 1325.03 C 667.04 1391.34 667.01 1457.65 666.97 1523.96 C 582.32 1524.02 497.67 1524.03 413.03 1523.95 C 412.98 1457.65 412.97 1391.34 413.04 1325.04 M 420.91 1332.91 C 420.89 1393.97 420.90 1455.03 420.90 1516.09 C 457.44 1516.12 493.97 1516.08 530.51 1516.11 C 530.55 1455.03 530.60 1393.95 530.48 1332.88 C 493.96 1332.94 457.44 1332.87 420.91 1332.91 M 538.53 1332.87 C 538.40 1393.95 538.40 1455.04 538.53 1516.13 C 578.72 1516.06 618.90 1516.13 659.08 1516.09 C 659.12 1455.03 659.10 1393.97 659.09 1332.90 C 618.90 1332.87 578.72 1332.94 538.53 1332.87 Z" />
</g>
<g id="#ffffffff">
<path fill="#ffffff" opacity="1.00" d=" M 2600.91 25.89 C 2609.68 22.85 2618.72 20.47 2627.96 19.41 C 2633.85 18.52 2639.76 20.57 2644.94 23.26 C 2648.59 25.07 2651.48 28.04 2655.02 30.07 C 2657.74 31.70 2660.43 33.46 2662.71 35.72 C 2654.91 46.87 2652.86 61.36 2655.55 74.53 C 2659.31 88.29 2667.19 100.72 2676.95 111.02 C 2673.17 112.86 2669.18 114.60 2664.97 114.91 C 2660.93 114.14 2656.47 113.60 2653.37 110.67 C 2647.37 105.80 2639.84 102.23 2631.96 102.89 C 2624.31 102.19 2617.51 106.22 2611.50 110.40 C 2598.82 116.76 2585.48 122.19 2571.47 124.72 C 2564.73 126.00 2557.86 124.50 2551.49 122.32 C 2547.18 120.86 2543.41 118.17 2539.04 116.90 C 2531.29 114.37 2523.08 113.74 2514.99 113.96 C 2502.19 113.65 2489.48 115.68 2477.00 118.30 C 2477.02 90.16 2476.96 62.01 2477.03 33.87 C 2476.60 32.40 2478.21 31.88 2479.14 31.21 C 2485.84 26.99 2492.99 23.26 2500.77 21.44 C 2508.67 19.51 2516.95 20.56 2524.80 22.26 C 2536.47 26.61 2548.59 30.23 2561.07 31.20 C 2574.48 31.82 2588.32 30.90 2600.91 25.89 Z" />
<path fill="#ffffff" opacity="1.00" d=" M 2463.11 30.21 C 2466.61 28.33 2469.61 32.79 2468.99 35.98 C 2469.01 575.33 2469.00 1114.67 2468.99 1654.01 C 2469.32 1656.82 2468.17 1660.18 2465.09 1660.84 C 2461.57 1660.83 2460.24 1656.96 2460.56 1654.01 C 2460.58 1114.66 2460.56 575.31 2460.57 35.96 C 2460.60 33.85 2460.90 31.17 2463.11 30.21 Z" />
<path fill="#ffffff" opacity="1.00" d=" M 2701.50 68.66 C 2712.35 64.69 2723.49 61.13 2735.04 59.92 C 2742.93 58.97 2750.71 62.37 2756.94 66.99 C 2760.97 70.39 2765.99 72.43 2769.73 76.22 C 2762.06 87.09 2760.03 101.18 2762.32 114.09 C 2765.93 128.25 2774.02 141.00 2783.99 151.55 C 2780.20 153.28 2776.29 155.13 2772.09 155.33 C 2767.54 154.81 2762.78 153.75 2759.43 150.43 C 2749.41 142.08 2733.94 140.60 2723.00 147.98 C 2717.86 151.79 2711.86 154.08 2706.09 156.69 C 2703.30 150.84 2701.16 144.47 2701.15 137.93 C 2701.77 129.79 2704.37 121.72 2708.90 114.90 C 2710.58 112.45 2710.56 108.75 2708.65 106.44 C 2705.01 101.89 2699.63 99.38 2695.02 96.05 C 2688.85 90.97 2681.09 87.48 2673.02 87.48 C 2671.61 87.33 2670.13 87.72 2668.88 87.16 C 2665.80 82.19 2663.79 76.63 2662.11 71.05 C 2675.21 72.93 2688.68 71.84 2701.50 68.66 Z" />
<path fill="#ffffff" opacity="1.00" d=" M 2673.12 94.30 C 2679.61 95.25 2685.78 98.08 2690.87 102.22 C 2694.67 105.27 2699.36 107.13 2702.70 110.79 C 2694.85 121.92 2692.86 136.47 2695.58 149.64 C 2699.35 163.37 2707.24 175.74 2716.95 186.04 C 2712.01 188.29 2706.47 191.11 2700.99 189.13 C 2694.79 188.43 2691.10 182.87 2685.56 180.68 C 2679.87 177.54 2673.22 177.61 2666.95 178.09 C 2661.17 178.90 2656.27 182.24 2651.53 185.38 C 2641.62 190.43 2631.25 194.69 2620.53 197.70 C 2614.47 199.23 2608.20 200.88 2601.93 199.90 C 2596.20 199.07 2590.57 197.37 2585.47 194.63 C 2579.49 191.41 2572.74 190.00 2566.06 189.26 C 2549.61 188.08 2533.07 189.71 2517.00 193.31 C 2517.00 169.07 2517.00 144.82 2517.00 120.58 C 2525.54 120.87 2534.31 122.19 2541.94 126.27 C 2548.39 129.71 2555.66 131.54 2562.95 131.97 C 2573.94 132.63 2584.70 129.51 2594.94 125.82 C 2601.98 123.17 2608.95 120.26 2615.59 116.71 C 2620.76 113.19 2626.44 109.53 2632.95 109.59 C 2639.45 110.26 2645.36 113.66 2650.36 117.73 C 2653.32 120.27 2657.37 120.75 2661.08 121.45 C 2668.53 122.72 2676.10 120.33 2682.48 116.55 C 2686.16 114.39 2685.25 109.09 2682.68 106.40 C 2679.23 102.57 2675.68 98.81 2673.12 94.30 Z" />
<path fill="#ffffff" opacity="1.00" d=" M 2500.57 121.52 C 2503.35 121.17 2506.16 120.96 2509.00 120.82 C 2509.00 637.89 2509.01 1154.96 2508.99 1672.03 C 2509.33 1674.84 2508.15 1678.19 2505.07 1678.84 C 2501.59 1678.82 2500.24 1675.01 2500.56 1672.08 C 2500.58 1155.22 2500.56 638.37 2500.57 121.52 Z" />
<path fill="#ffffff" opacity="1.00" d=" M 2561.47 196.12 C 2564.32 195.86 2567.17 196.48 2569.99 197.06 C 2570.02 688.36 2569.99 1179.66 2570.00 1670.96 C 2570.02 1673.50 2570.15 1676.86 2567.50 1678.23 C 2565.24 1679.86 2562.12 1677.60 2561.84 1675.16 C 2561.28 1672.12 2561.63 1669.02 2561.57 1665.98 C 2561.57 1204.97 2561.57 743.97 2561.57 282.96 C 2561.50 254.01 2561.70 225.06 2561.47 196.12 Z" />
<path fill="#ffffff" opacity="1.00" d=" M 983.00 599.01 C 1408.66 598.99 1834.33 599.00 2259.99 599.00 C 2324.16 599.08 2388.33 598.85 2452.50 599.12 C 2452.31 681.21 2452.52 763.31 2452.40 845.40 C 2391.46 845.55 2330.51 845.26 2269.58 845.55 C 2269.29 886.96 2269.41 928.40 2269.52 969.82 C 2240.36 970.13 2211.18 969.81 2182.02 969.90 C 2181.99 928.50 2181.98 887.10 2182.02 845.70 C 2164.38 845.08 2146.69 845.60 2129.03 845.43 C 2078.37 845.43 2027.72 845.43 1977.06 845.43 C 1973.02 845.48 1968.98 845.22 1964.98 845.69 C 1964.98 887.05 1965.07 928.42 1964.94 969.78 C 1935.12 969.49 1905.28 969.97 1875.48 969.46 C 1875.70 929.32 1875.47 889.18 1875.60 849.05 C 1875.45 847.82 1876.09 845.15 1874.02 845.46 C 1802.24 845.42 1730.45 845.39 1658.67 845.48 C 1658.09 886.78 1658.63 928.12 1658.40 969.44 C 1629.13 969.51 1599.87 969.43 1570.61 969.40 C 1570.45 928.13 1570.72 886.87 1570.48 845.60 C 1516.99 845.20 1463.49 845.55 1409.99 845.43 C 1391.17 845.54 1372.34 845.20 1353.53 845.60 C 1353.37 886.71 1353.35 927.83 1353.54 968.94 C 1344.37 969.63 1335.14 969.04 1325.96 969.24 C 1308.61 969.18 1291.27 969.21 1273.93 969.20 C 1270.43 969.14 1266.90 969.43 1263.45 968.83 C 1263.65 927.75 1263.66 886.65 1263.44 845.57 C 1210.96 845.25 1158.47 845.52 1105.98 845.43 C 1086.19 845.49 1066.40 845.31 1046.61 845.52 C 1046.25 886.63 1046.43 927.75 1046.52 968.86 C 1025.35 969.21 1004.18 968.89 983.01 969.00 C 982.98 845.67 983.01 722.34 983.00 599.01 M 2159.12 693.12 C 2155.15 694.94 2154.94 701.45 2159.15 703.09 C 2162.66 704.98 2167.74 702.16 2167.15 697.96 C 2167.43 693.85 2162.55 691.59 2159.12 693.12 M 2175.22 693.29 C 2171.15 695.25 2171.60 702.23 2176.10 703.36 C 2179.92 704.92 2184.49 701.21 2183.47 697.13 C 2183.07 693.34 2178.33 691.66 2175.22 693.29 M 1400.42 707.57 C 1396.47 708.33 1392.66 709.92 1389.50 712.42 C 1378.90 720.78 1377.40 737.47 1384.42 748.56 C 1394.16 763.34 1419.65 762.87 1428.90 747.79 C 1434.91 737.51 1434.16 723.04 1425.78 714.25 C 1419.27 707.70 1409.25 705.80 1400.42 707.57 M 2056.50 707.68 C 2048.43 709.26 2041.23 715.04 2038.57 722.91 C 2035.64 731.31 2036.20 741.29 2041.21 748.81 C 2051.44 763.90 2078.21 762.65 2086.43 746.14 C 2091.29 736.08 2090.40 722.72 2082.52 714.41 C 2075.93 707.55 2065.52 705.73 2056.50 707.68 M 1333.57 708.26 C 1333.00 717.87 1332.55 727.50 1331.75 737.10 C 1331.35 741.46 1329.72 745.69 1326.70 748.91 C 1325.03 748.95 1323.37 748.98 1321.74 749.04 C 1321.67 755.53 1321.72 762.03 1321.71 768.53 C 1324.93 768.57 1328.15 768.58 1331.38 768.56 C 1331.45 765.07 1331.46 761.58 1331.35 758.10 C 1343.35 757.87 1355.35 758.07 1367.36 758.00 C 1367.50 761.50 1367.39 765.02 1367.44 768.54 C 1370.63 768.58 1373.84 768.58 1377.05 768.55 C 1377.24 762.06 1377.09 755.57 1377.15 749.08 C 1374.70 748.97 1372.27 748.97 1369.85 749.05 C 1369.53 735.45 1369.80 721.83 1369.71 708.21 C 1357.66 708.13 1345.61 708.04 1333.57 708.26 M 1441.88 708.15 C 1441.83 724.77 1441.86 741.38 1441.86 758.00 C 1445.19 758.00 1448.53 758.01 1451.88 757.99 C 1451.58 746.99 1452.38 735.95 1451.43 724.99 C 1456.24 731.11 1460.30 737.78 1464.78 744.15 C 1466.09 745.87 1467.22 748.94 1469.97 747.79 C 1475.63 740.39 1480.60 732.46 1485.91 724.81 C 1485.61 735.87 1485.72 746.93 1485.72 758.00 C 1489.06 757.99 1492.42 758.06 1495.77 757.94 C 1495.61 741.35 1495.79 724.77 1495.69 708.18 C 1492.50 708.13 1489.32 708.13 1486.15 708.15 C 1480.32 716.62 1474.70 725.23 1468.80 733.65 C 1463.20 725.10 1457.22 716.81 1451.59 708.28 C 1448.35 708.07 1445.11 708.12 1441.88 708.15 M 1525.00 708.13 C 1525.00 724.75 1525.00 741.38 1525.00 758.00 C 1528.32 758.00 1531.66 757.99 1535.00 758.00 C 1535.01 750.99 1535.00 743.97 1534.93 736.96 C 1541.13 744.17 1547.82 750.95 1554.22 758.00 C 1558.68 758.00 1563.15 758.01 1567.62 758.00 C 1559.94 749.18 1551.45 741.09 1543.84 732.23 C 1551.13 724.28 1558.55 716.43 1565.49 708.17 C 1561.34 708.11 1557.19 708.13 1553.05 708.17 C 1546.91 715.01 1540.63 721.74 1534.76 728.82 C 1535.14 721.94 1535.02 715.04 1534.92 708.16 C 1531.60 708.14 1528.29 708.14 1525.00 708.13 M 1567.22 708.27 C 1573.76 720.47 1580.43 732.60 1586.84 744.88 C 1585.41 746.72 1584.38 749.21 1582.04 750.05 C 1579.85 750.99 1577.51 750.08 1575.45 749.36 C 1574.03 751.86 1573.19 754.63 1572.33 757.37 C 1577.96 759.86 1585.33 760.39 1590.38 756.34 C 1594.64 752.50 1596.54 746.90 1599.05 741.91 C 1604.38 730.67 1609.79 719.47 1615.02 708.18 C 1611.36 708.13 1607.71 708.15 1604.07 708.12 C 1599.77 717.26 1595.12 726.28 1591.70 735.81 C 1588.25 726.29 1583.39 717.33 1578.95 708.26 C 1575.03 707.97 1571.11 708.14 1567.22 708.27 M 1623.94 708.12 C 1622.98 717.74 1622.99 727.43 1621.89 737.04 C 1621.44 740.17 1620.80 743.45 1618.89 746.05 C 1617.32 748.15 1614.74 748.97 1612.42 749.88 C 1612.96 752.92 1613.82 755.90 1614.56 758.90 C 1621.17 757.85 1627.43 753.61 1629.63 747.09 C 1633.00 737.53 1632.14 727.18 1633.19 717.23 C 1638.96 717.45 1644.75 717.03 1650.52 717.47 C 1650.25 730.94 1650.61 744.42 1650.34 757.89 C 1653.68 758.10 1657.05 757.99 1660.42 758.00 C 1660.36 741.36 1660.59 724.72 1660.30 708.09 C 1648.18 708.19 1636.06 708.14 1623.94 708.12 M 1672.65 708.13 C 1672.48 724.75 1672.58 741.38 1672.60 758.01 C 1678.72 757.99 1684.85 757.99 1690.99 758.01 C 1695.20 758.12 1699.56 758.08 1703.52 756.39 C 1715.63 751.89 1716.50 731.69 1704.74 726.29 C 1697.84 722.94 1689.96 724.27 1682.58 724.00 C 1682.56 718.75 1682.54 713.49 1682.60 708.25 C 1679.27 708.11 1675.96 708.13 1672.65 708.13 M 1712.00 708.13 C 1711.98 711.08 1711.98 714.04 1712.00 717.00 C 1717.17 717.06 1722.35 716.83 1727.53 717.15 C 1727.62 730.76 1727.52 744.38 1727.59 758.00 C 1730.90 757.99 1734.22 757.99 1737.55 758.00 C 1737.51 744.39 1737.71 730.78 1737.45 717.18 C 1742.66 716.79 1747.89 717.08 1753.13 716.99 C 1753.14 714.04 1753.14 711.09 1753.11 708.14 C 1739.40 708.14 1725.70 708.15 1712.00 708.13 M 1754.98 708.19 C 1761.14 719.95 1767.54 731.59 1773.79 743.30 C 1775.14 745.33 1772.87 747.27 1771.70 748.77 C 1769.40 751.32 1765.66 750.30 1762.83 749.49 C 1761.89 752.05 1760.95 754.61 1759.96 757.15 C 1765.17 759.93 1772.05 760.20 1777.17 757.06 C 1781.97 753.49 1783.91 747.58 1786.52 742.45 C 1791.96 731.07 1797.31 719.65 1802.77 708.28 C 1799.02 708.06 1795.27 708.06 1791.55 708.27 C 1787.68 717.52 1782.59 726.26 1779.53 735.84 C 1776.01 726.31 1770.96 717.46 1766.80 708.22 C 1762.86 708.09 1758.91 708.12 1754.98 708.19 M 1809.30 708.20 C 1809.26 724.80 1809.33 741.39 1809.26 757.99 C 1812.63 758.02 1816.02 758.00 1819.42 758.00 C 1819.44 753.14 1819.41 748.29 1819.44 743.44 C 1826.77 743.06 1834.81 744.69 1841.48 740.77 C 1849.74 735.92 1851.45 724.01 1846.88 716.07 C 1843.88 710.88 1837.79 708.32 1831.99 708.18 C 1824.42 708.11 1816.85 708.10 1809.30 708.20 M 1857.09 708.15 C 1856.89 724.77 1857.05 741.39 1857.01 758.00 C 1864.66 758.00 1872.33 758.01 1880.00 758.01 C 1885.12 757.89 1890.59 756.20 1893.95 752.12 C 1899.74 744.52 1898.78 731.05 1889.63 726.43 C 1882.61 722.93 1874.54 724.26 1867.00 724.00 C 1866.98 718.70 1867.03 713.41 1866.98 708.11 C 1863.67 708.14 1860.37 708.15 1857.09 708.15 M 1905.07 708.17 C 1904.90 724.78 1905.05 741.39 1905.00 758.00 C 1908.32 758.00 1911.65 758.00 1915.00 758.00 C 1914.99 741.37 1915.01 724.75 1914.99 708.13 C 1911.68 708.13 1908.37 708.14 1905.07 708.17 M 1984.01 708.12 C 1983.98 724.75 1984.01 741.37 1984.00 758.00 C 1987.41 757.99 1990.84 757.99 1994.28 758.00 C 1994.30 744.43 1994.26 730.86 1994.30 717.29 C 2002.04 717.42 2009.80 717.00 2017.54 717.50 C 2017.21 730.95 2017.65 744.40 2017.31 757.85 C 2020.78 758.13 2024.27 758.03 2027.77 757.95 C 2027.63 741.36 2027.76 724.78 2027.70 708.20 C 2013.14 708.05 1998.57 708.21 1984.01 708.12 M 2103.11 708.16 C 2102.05 719.07 2102.47 730.16 2100.39 740.96 C 2099.65 745.53 2096.01 748.82 2091.65 749.94 C 2092.21 752.94 2093.04 755.89 2093.80 758.86 C 2100.48 757.88 2106.77 753.49 2108.92 746.91 C 2112.22 737.43 2111.41 727.17 2112.37 717.31 C 2118.14 717.26 2123.92 717.28 2129.71 717.30 C 2129.72 730.86 2129.69 744.43 2129.73 758.00 C 2133.06 758.00 2136.42 758.06 2139.78 757.94 C 2139.63 741.37 2139.74 724.79 2139.72 708.23 C 2127.51 708.05 2115.31 708.18 2103.11 708.16 M 2151.93 708.12 C 2151.76 724.75 2151.90 741.37 2151.86 758.00 C 2163.75 758.00 2175.64 758.00 2187.54 758.00 C 2187.56 755.06 2187.70 752.11 2187.35 749.19 C 2178.81 749.39 2170.28 749.25 2161.75 749.27 C 2161.67 745.18 2161.70 741.09 2161.72 737.00 C 2169.73 736.96 2177.74 737.07 2185.76 736.96 C 2185.66 734.17 2185.67 731.37 2185.85 728.59 C 2177.97 728.31 2170.06 728.36 2162.19 728.57 C 2161.18 724.79 2161.91 720.85 2161.72 717.00 C 2170.14 717.00 2178.57 716.99 2187.00 717.00 C 2187.00 714.03 2187.02 711.06 2186.97 708.10 C 2175.28 708.19 2163.60 708.14 2151.93 708.12 M 2192.00 708.13 C 2191.98 711.08 2191.98 714.04 2192.00 717.00 C 2197.21 717.05 2202.45 716.83 2207.68 717.15 C 2207.43 730.76 2207.62 744.38 2207.58 758.00 C 2210.89 757.99 2214.21 757.99 2217.55 758.00 C 2217.66 744.31 2217.42 730.62 2217.66 716.94 C 2222.81 717.05 2227.96 716.98 2233.13 716.99 C 2233.13 714.04 2233.13 711.09 2233.12 708.14 C 2219.41 708.14 2205.70 708.16 2192.00 708.13 M 1940.88 737.12 C 1944.35 742.33 1947.52 747.74 1950.96 752.98 C 1954.29 753.01 1957.65 753.01 1961.01 752.96 C 1957.83 747.53 1954.35 742.29 1951.01 736.97 C 1954.39 731.70 1957.76 726.43 1961.07 721.11 C 1957.67 720.95 1954.29 720.96 1950.92 721.04 C 1947.59 726.42 1944.08 731.67 1940.88 737.12 M 1954.93 736.95 C 1958.26 742.30 1961.61 747.64 1964.98 752.96 C 1968.35 753.02 1971.73 753.04 1975.11 752.90 C 1971.85 747.54 1968.42 742.29 1965.10 736.98 C 1968.43 731.66 1971.89 726.43 1975.13 721.06 C 1971.75 721.07 1968.36 720.75 1965.02 721.18 C 1961.46 726.30 1958.35 731.74 1954.93 736.95 M 2234.87 721.11 C 2238.15 726.44 2241.58 731.69 2244.91 737.00 C 2241.55 742.29 2238.16 747.56 2234.88 752.90 C 2238.23 752.96 2241.62 753.22 2244.99 752.84 C 2248.50 747.68 2251.62 742.24 2255.00 736.99 C 2251.60 731.74 2248.50 726.29 2244.97 721.15 C 2241.60 720.78 2238.22 721.03 2234.87 721.11 M 2248.93 721.17 C 2252.28 726.43 2255.60 731.72 2258.99 736.97 C 2255.63 742.29 2252.19 747.54 2248.97 752.93 C 2252.31 753.02 2255.68 753.01 2259.05 752.99 C 2262.42 747.67 2265.71 742.31 2269.06 736.99 C 2265.71 731.67 2262.42 726.33 2259.06 721.03 C 2255.67 720.99 2252.29 720.90 2248.93 721.17 Z" />
<path fill="#ffffff" opacity="1.00" d=" M 2477.00 599.00 C 2482.17 599.04 2487.36 598.88 2492.54 599.16 C 2492.28 662.45 2492.50 725.74 2492.43 789.02 C 2492.49 849.30 2492.31 909.58 2492.52 969.86 C 2490.55 969.95 2488.58 969.99 2486.67 970.09 C 2486.42 928.63 2486.67 887.16 2486.54 845.70 C 2483.36 845.22 2480.16 845.52 2477.00 845.38 C 2477.01 763.25 2476.99 681.13 2477.00 599.00 Z" />
<path fill="#ffffff" opacity="1.00" d=" M 2517.00 599.00 C 2529.19 599.13 2541.39 598.73 2553.58 599.22 C 2553.23 652.81 2553.53 706.41 2553.43 760.00 C 2553.50 829.95 2553.29 899.90 2553.53 969.84 C 2541.37 970.30 2529.18 969.86 2517.01 970.01 C 2516.99 846.34 2517.01 722.67 2517.00 599.00 Z" />
<path fill="#ffffff" opacity="1.00" d=" M 2578.00 599.00 C 2859.66 599.00 3141.33 599.00 3422.99 599.00 C 3423.01 931.46 3422.99 1263.92 3423.00 1596.38 C 3311.33 1596.39 3199.67 1596.33 3088.01 1596.28 C 3078.00 1596.21 3067.99 1596.41 3058.00 1596.17 C 3058.02 1387.68 3057.96 1179.19 3058.03 970.71 C 3033.72 970.06 3009.37 970.56 2985.05 970.38 C 2924.67 970.24 2864.26 970.45 2803.89 970.11 C 2803.08 967.84 2803.71 965.30 2803.57 962.95 C 2803.48 923.82 2803.73 884.69 2803.45 845.57 C 2751.32 845.24 2699.17 845.52 2647.04 845.43 C 2626.89 845.51 2606.73 845.28 2586.58 845.55 C 2586.29 886.98 2586.41 928.42 2586.52 969.86 C 2583.67 970.08 2580.82 970.09 2578.01 970.04 C 2577.99 846.36 2578.00 722.68 2578.00 599.00 Z" />
<path fill="#ffffff" opacity="1.00" d=" M 1401.57 716.74 C 1408.36 714.54 1416.78 717.21 1420.18 723.72 C 1423.59 730.17 1423.45 738.90 1418.74 744.70 C 1412.88 752.02 1400.14 752.14 1394.28 744.76 C 1387.23 736.07 1389.93 719.91 1401.57 716.74 Z" />
<path fill="#ffffff" opacity="1.00" d=" M 2058.49 716.66 C 2065.12 714.63 2073.20 717.22 2076.64 723.45 C 2080.31 730.08 2080.08 739.15 2075.09 745.06 C 2068.64 752.54 2054.82 751.89 2049.76 743.16 C 2044.04 734.18 2047.34 719.45 2058.49 716.66 Z" />
<path fill="#ffffff" opacity="1.00" d=" M 1343.03 717.01 C 1348.60 717.01 1354.19 716.96 1359.77 717.07 C 1359.50 727.89 1360.01 738.73 1359.51 749.53 C 1352.31 749.25 1345.10 749.59 1337.90 749.34 C 1343.76 739.62 1341.61 727.77 1343.03 717.01 Z" />
<path fill="#ffffff" opacity="1.00" d=" M 1819.40 717.20 C 1824.10 717.32 1828.94 716.60 1833.58 717.66 C 1840.78 719.59 1841.07 731.53 1833.97 733.81 C 1829.25 734.94 1824.35 734.20 1819.56 734.48 C 1819.25 728.72 1819.53 722.95 1819.40 717.20 Z" />
<path fill="#ffffff" opacity="1.00" d=" M 1682.59 733.00 C 1687.96 733.42 1693.72 731.95 1698.82 734.12 C 1704.70 736.88 1703.92 746.74 1697.61 748.48 C 1692.70 749.60 1687.57 748.82 1682.59 748.99 C 1682.55 743.65 1682.55 738.33 1682.59 733.00 Z" />
<path fill="#ffffff" opacity="1.00" d=" M 1867.01 733.00 C 1872.28 733.35 1877.83 732.13 1882.92 733.90 C 1888.98 736.32 1888.74 746.25 1882.54 748.35 C 1877.50 749.70 1872.16 748.78 1867.01 748.99 C 1867.00 743.66 1866.99 738.32 1867.01 733.00 Z" />
<path fill="#ffffff" opacity="1.00" d=" M 108.99 991.61 C 112.86 986.99 114.94 980.95 119.07 976.64 C 375.70 976.68 632.34 977.07 888.97 977.04 C 1301.97 977.33 1714.97 977.69 2127.96 977.99 C 2236.10 977.99 2344.23 978.01 2452.37 978.08 C 2452.49 983.38 2452.41 988.69 2452.42 994.00 C 2108.60 993.95 1764.78 993.51 1420.97 993.30 C 1088.99 992.95 757.01 993.03 425.03 992.66 C 333.01 992.61 240.99 992.50 148.97 992.47 C 139.04 992.56 129.07 992.11 119.15 992.69 C 116.15 997.71 113.13 1002.76 109.63 1007.47 C 82.27 1007.31 54.91 1007.59 27.55 1007.33 C 27.58 1002.10 27.58 996.88 27.56 991.66 C 54.70 991.48 81.85 991.57 108.99 991.61 Z" />
<path fill="#ffffff" opacity="1.00" d=" M 2477.01 978.10 C 2482.16 978.16 2487.31 977.99 2492.47 978.22 C 2492.42 983.42 2492.34 988.63 2492.53 993.84 C 2487.35 994.14 2482.17 993.93 2477.01 994.00 C 2476.99 988.70 2476.99 983.40 2477.01 978.10 Z" />
<path fill="#ffffff" opacity="1.00" d=" M 2517.03 978.13 C 2529.13 978.13 2541.24 978.22 2553.35 978.15 C 2553.51 983.44 2553.39 988.73 2553.42 994.03 C 2541.28 994.00 2529.14 994.01 2517.00 994.01 C 2516.99 988.71 2516.99 983.42 2517.03 978.13 Z" />
<path fill="#ffffff" opacity="1.00" d=" M 2578.06 978.14 C 2687.69 978.37 2797.33 978.33 2906.96 978.46 C 2954.57 978.41 3002.19 978.70 3049.80 978.44 C 3050.15 983.75 3049.92 989.09 3050.00 994.42 C 2892.67 994.31 2735.34 994.17 2578.00 994.04 C 2578.01 988.74 2577.96 983.44 2578.06 978.14 Z" />
<path fill="#ffffff" opacity="1.00" d=" M 1771.16 1001.76 C 1919.16 1001.74 2067.17 1002.02 2215.17 1002.01 C 2196.72 1067.20 2178.18 1132.38 2159.62 1197.55 C 2011.65 1197.37 1863.69 1197.38 1715.72 1197.22 C 1734.05 1132.02 1752.76 1066.93 1771.16 1001.76 Z" />
<path fill="#ffffff" opacity="1.00" d=" M 3001.13 1002.45 C 3017.42 1002.69 3033.72 1002.37 3050.01 1002.66 C 3049.98 1198.80 3050.01 1394.94 3050.00 1591.08 C 3033.66 1581.08 3017.30 1571.12 3001.00 1561.07 C 3001.00 1451.04 3001.00 1341.01 3001.00 1230.98 C 3001.09 1154.80 3000.82 1078.62 3001.13 1002.45 Z" />
<path fill="#ffffff" opacity="1.00" d=" M 29.01 1015.68 C 44.93 1015.47 60.86 1015.55 76.78 1015.64 C 99.78 1207.14 123.13 1398.60 146.25 1590.09 C 146.78 1595.23 147.75 1600.33 147.93 1605.51 C 132.03 1605.35 116.12 1605.41 100.22 1605.48 C 77.48 1417.70 54.96 1229.88 32.29 1042.09 C 31.19 1033.28 30.30 1024.45 29.01 1015.68 Z" />
<path fill="#ffffff" opacity="1.00" d=" M 183.00 1204.58 C 424.00 1204.70 665.00 1204.91 906.00 1205.00 C 905.96 1335.25 906.09 1465.50 905.93 1595.74 C 681.62 1595.57 457.31 1595.59 233.00 1595.47 C 216.38 1595.54 199.75 1595.33 183.13 1595.52 C 182.83 1465.21 183.09 1334.89 183.00 1204.58 M 485.41 1282.97 C 485.92 1285.79 482.83 1285.30 481.06 1286.09 C 475.41 1287.95 475.08 1297.08 480.37 1299.60 C 482.25 1300.66 485.96 1299.91 485.45 1303.11 C 487.00 1303.21 487.96 1302.55 487.79 1300.92 C 489.55 1300.43 491.45 1300.23 493.01 1299.24 C 497.38 1296.46 497.23 1288.88 492.61 1286.45 C 491.12 1285.78 489.49 1285.60 488.01 1284.97 C 487.57 1283.65 486.99 1282.50 485.41 1282.97 M 437.33 1284.19 C 437.17 1290.15 437.40 1296.12 437.23 1302.10 C 438.63 1302.28 440.03 1301.91 440.67 1300.55 C 443.90 1296.08 447.25 1291.71 450.49 1287.25 C 450.14 1292.31 450.21 1297.40 450.44 1302.47 C 450.97 1302.28 452.02 1301.91 452.54 1301.72 C 452.70 1295.85 452.40 1289.97 452.68 1284.10 C 451.29 1283.68 449.84 1283.86 449.23 1285.36 C 446.00 1289.59 443.03 1294.05 439.55 1298.10 C 439.54 1293.27 439.64 1288.45 439.51 1283.64 C 438.96 1283.78 437.87 1284.05 437.33 1284.19 M 457.77 1283.82 C 457.29 1289.94 457.69 1296.11 457.59 1302.25 C 458.14 1302.18 459.24 1302.05 459.79 1301.98 C 459.95 1299.31 459.84 1296.65 459.85 1294.00 C 463.41 1293.99 466.98 1293.99 470.55 1294.00 C 470.72 1296.64 470.18 1299.40 470.83 1302.01 C 471.34 1302.06 472.36 1302.17 472.87 1302.22 C 472.84 1296.11 472.86 1290.00 472.86 1283.90 C 472.30 1283.88 471.18 1283.84 470.61 1283.82 C 470.55 1286.47 470.55 1289.13 470.61 1291.79 C 466.99 1291.86 463.36 1291.97 459.75 1291.71 C 459.83 1289.07 460.11 1286.41 459.63 1283.81 L 457.77 1283.82 M 504.13 1284.16 C 496.16 1287.33 497.36 1301.31 506.16 1302.40 C 512.76 1304.15 519.06 1297.62 517.39 1291.09 C 516.83 1284.89 509.47 1281.72 504.13 1284.16 M 521.32 1283.86 C 521.30 1290.01 521.19 1296.16 521.38 1302.32 C 525.04 1302.91 523.14 1298.30 523.50 1296.25 C 526.18 1296.04 528.96 1296.41 531.59 1295.76 C 536.43 1293.98 536.39 1286.04 531.57 1284.27 C 528.23 1283.44 524.72 1284.00 521.32 1283.86 M 538.61 1283.70 C 538.54 1289.89 538.55 1296.09 538.60 1302.29 C 539.15 1302.20 540.25 1302.00 540.80 1301.91 C 540.99 1297.43 540.74 1292.94 540.90 1288.47 C 542.89 1290.78 544.44 1293.42 546.08 1295.99 C 546.71 1296.69 547.50 1298.91 548.68 1297.70 C 551.00 1294.73 552.55 1291.20 555.19 1288.47 C 555.20 1292.92 555.12 1297.37 555.35 1301.82 C 555.89 1301.95 556.97 1302.22 557.52 1302.35 C 557.62 1296.14 557.56 1289.93 557.55 1283.73 C 556.96 1283.81 555.79 1283.97 555.21 1284.05 C 552.58 1287.44 550.54 1291.24 548.01 1294.71 C 545.84 1291.64 543.87 1288.43 541.79 1285.31 C 541.12 1284.10 540.06 1283.56 538.61 1283.70 M 560.46 1302.29 C 563.46 1302.94 563.50 1299.73 564.92 1298.08 C 568.27 1297.84 571.64 1298.01 575.00 1298.05 C 575.87 1299.99 576.48 1302.92 579.32 1302.20 C 576.63 1296.05 574.00 1289.85 570.96 1283.87 C 570.44 1283.87 569.40 1283.86 568.87 1283.85 C 565.66 1289.75 563.03 1296.06 560.46 1302.29 M 582.33 1283.51 C 581.95 1289.71 582.19 1295.93 582.19 1302.15 C 587.40 1302.14 592.61 1302.13 597.82 1302.15 C 597.96 1303.97 597.08 1306.87 600.00 1306.25 C 599.99 1304.19 599.99 1302.14 600.00 1300.10 C 599.34 1300.03 598.00 1299.87 597.33 1299.79 C 597.50 1294.42 597.44 1289.05 597.38 1283.69 C 596.84 1283.79 595.75 1283.99 595.20 1284.09 C 595.02 1289.38 595.21 1294.69 595.14 1300.00 C 591.57 1299.99 588.00 1300.00 584.44 1300.00 C 584.36 1294.77 584.52 1289.54 584.41 1284.32 C 583.89 1284.11 582.85 1283.71 582.33 1283.51 M 603.46 1284.28 C 603.39 1290.10 603.41 1295.92 603.44 1301.75 C 603.79 1301.88 604.50 1302.15 604.85 1302.28 C 609.32 1298.20 611.98 1292.32 616.33 1288.02 C 616.34 1292.83 616.11 1297.65 616.45 1302.46 C 616.97 1302.28 618.01 1301.92 618.54 1301.74 C 618.70 1295.87 618.42 1289.99 618.66 1284.12 C 618.06 1284.06 616.87 1283.94 616.28 1283.87 C 612.79 1288.66 609.44 1293.59 605.56 1298.07 C 605.75 1293.22 605.83 1288.38 605.58 1283.55 C 605.05 1283.73 603.99 1284.10 603.46 1284.28 M 624.08 1286.08 C 621.32 1289.52 623.59 1294.95 627.91 1295.67 C 625.95 1297.76 623.97 1299.85 622.31 1302.20 C 627.65 1303.19 628.28 1294.51 633.57 1295.55 C 635.78 1297.17 632.14 1302.63 636.48 1302.38 C 636.65 1296.20 636.58 1290.02 636.52 1283.85 C 632.43 1284.32 627.11 1282.41 624.08 1286.08 M 413.04 1325.04 C 412.97 1391.34 412.98 1457.65 413.03 1523.95 C 497.67 1524.03 582.32 1524.02 666.97 1523.96 C 667.01 1457.65 667.04 1391.34 666.95 1325.03 C 582.31 1324.99 497.67 1324.97 413.04 1325.04 Z" />
<path fill="#ffffff" opacity="1.00" d=" M 914.00 1205.00 C 966.18 1205.10 1018.37 1204.79 1070.54 1205.16 C 1070.30 1310.63 1070.47 1416.11 1070.45 1521.58 C 1018.32 1540.95 966.18 1560.30 914.00 1579.55 C 914.00 1454.70 914.00 1329.85 914.00 1205.00 Z" />
<path fill="#ffffff" opacity="1.00" d=" M 1078.45 1205.18 C 1102.99 1204.74 1127.54 1205.15 1152.08 1205.04 C 1285.87 1205.15 1419.67 1205.14 1553.46 1205.33 C 1553.37 1310.69 1553.50 1416.04 1553.40 1521.40 C 1395.13 1521.45 1236.86 1521.46 1078.60 1521.39 C 1078.46 1415.99 1078.74 1310.58 1078.45 1205.18 Z" />
<path fill="#ffffff" opacity="1.00" d=" M 1593.55 1205.34 C 1608.51 1205.24 1623.47 1205.36 1638.43 1205.37 C 1638.41 1310.71 1638.47 1416.05 1638.41 1521.39 C 1623.47 1521.45 1608.53 1521.45 1593.60 1521.39 C 1593.52 1416.04 1593.61 1310.69 1593.55 1205.34 Z" />
<path fill="#ffffff" opacity="1.00" d=" M 2221.00 1205.69 C 2232.43 1205.69 2243.87 1205.76 2255.31 1205.70 C 2255.68 1311.06 2255.18 1416.44 2255.56 1521.81 C 2244.04 1522.22 2232.51 1521.89 2221.00 1521.99 C 2221.00 1416.56 2221.00 1311.13 2221.00 1205.69 Z" />
<path fill="#ffffff" opacity="1.00" d=" M 2295.45 1206.12 C 2308.26 1205.28 2321.18 1206.00 2334.04 1205.76 C 2373.07 1205.82 2412.10 1205.78 2451.13 1205.86 C 2453.04 1205.41 2452.24 1207.93 2452.47 1208.95 C 2452.45 1313.25 2452.31 1417.55 2452.54 1521.84 C 2421.68 1522.20 2390.81 1521.90 2359.94 1522.00 C 2338.44 1521.89 2316.94 1522.22 2295.45 1521.82 C 2295.73 1471.57 2295.49 1421.30 2295.57 1371.05 C 2295.49 1316.07 2295.73 1261.09 2295.45 1206.12 Z" />
<path fill="#ffffff" opacity="1.00" d=" M 2477.01 1205.88 C 2482.17 1206.01 2487.38 1205.54 2492.54 1206.17 C 2492.28 1259.44 2492.50 1312.71 2492.43 1365.98 C 2492.49 1417.94 2492.30 1469.89 2492.53 1521.85 C 2487.34 1522.09 2482.16 1521.96 2477.00 1521.99 C 2477.00 1416.62 2476.99 1311.25 2477.01 1205.88 Z" />
<path fill="#ffffff" opacity="1.00" d=" M 2517.00 1205.88 C 2529.18 1206.01 2541.39 1205.59 2553.55 1206.18 C 2553.26 1256.12 2553.51 1306.07 2553.43 1356.01 C 2553.51 1411.28 2553.28 1466.56 2553.55 1521.83 C 2541.37 1522.20 2529.18 1521.90 2517.00 1521.99 C 2517.00 1416.62 2517.00 1311.25 2517.00 1205.88 Z" />
<path fill="#ffffff" opacity="1.00" d=" M 2578.00 1205.92 C 2632.99 1205.95 2687.97 1206.00 2742.96 1206.00 C 2757.81 1206.08 2772.67 1205.83 2787.53 1206.14 C 2787.30 1265.42 2787.49 1324.71 2787.43 1383.99 C 2787.51 1429.93 2787.28 1475.88 2787.55 1521.82 C 2717.70 1522.23 2647.85 1521.88 2578.00 1522.00 C 2578.00 1416.64 2578.00 1311.28 2578.00 1205.92 Z" />
<path fill="#ffffff" opacity="1.00" d=" M 2795.44 1206.19 C 2803.27 1205.79 2811.14 1206.09 2818.99 1206.00 C 2819.01 1311.33 2819.00 1416.66 2819.00 1521.99 C 2811.14 1521.93 2803.29 1522.16 2795.45 1521.84 C 2795.73 1466.55 2795.49 1411.26 2795.57 1355.98 C 2795.48 1306.05 2795.74 1256.11 2795.44 1206.19 Z" />
<path fill="#ffffff" opacity="1.00" d=" M 504.35 1286.58 C 508.94 1283.49 515.80 1287.41 515.17 1292.99 C 515.70 1297.79 510.47 1301.74 505.97 1300.11 C 500.18 1298.51 499.34 1289.59 504.35 1286.58 Z" />
<path fill="#ffffff" opacity="1.00" d=" M 523.58 1286.00 C 526.49 1286.33 530.64 1284.79 532.43 1287.96 C 533.67 1289.93 532.74 1292.65 530.75 1293.76 C 528.39 1294.22 525.96 1293.95 523.58 1294.00 C 523.56 1291.32 523.56 1288.66 523.58 1286.00 Z" />
<path fill="#ffffff" opacity="1.00" d=" M 569.69 1286.32 C 571.35 1289.39 572.60 1292.66 574.03 1295.86 C 571.29 1295.84 568.55 1295.85 565.82 1295.87 C 566.92 1292.61 568.59 1289.57 569.69 1286.32 Z" />
<path fill="#ffffff" opacity="1.00" d=" M 625.17 1289.11 C 626.10 1284.84 631.11 1286.14 634.27 1286.00 C 634.28 1288.50 634.28 1291.00 634.30 1293.53 C 630.90 1293.72 624.69 1294.17 625.17 1289.11 Z" />
<path fill="#ffffff" opacity="1.00" d=" M 487.44 1287.16 C 490.66 1287.30 494.21 1289.39 494.01 1293.03 C 494.11 1296.63 490.60 1298.53 487.45 1298.80 C 487.42 1294.91 487.42 1291.03 487.44 1287.16 Z" />
<path fill="#ffffff" opacity="1.00" d=" M 478.86 1293.02 C 478.54 1289.46 482.07 1287.17 485.30 1287.24 C 485.28 1291.05 485.28 1294.86 485.30 1298.68 C 482.14 1298.68 478.62 1296.54 478.86 1293.02 Z" />
<path fill="#ffffff" opacity="1.00" d=" M 1817.99 1300.65 C 1852.59 1300.38 1887.20 1300.80 1921.81 1300.43 C 1922.25 1343.28 1921.87 1386.15 1922.00 1429.01 C 1921.93 1456.51 1922.14 1484.01 1921.89 1511.50 C 1887.31 1511.40 1852.72 1511.35 1818.14 1511.52 C 1817.80 1441.24 1818.11 1370.94 1817.99 1300.65 M 1833.98 1320.69 C 1834.02 1356.90 1834.01 1393.10 1833.98 1429.31 C 1841.61 1429.89 1849.30 1429.41 1856.96 1429.57 C 1874.98 1429.39 1893.02 1429.93 1911.02 1429.30 C 1910.98 1393.10 1910.98 1356.90 1911.03 1320.70 C 1901.38 1320.08 1891.68 1320.60 1882.02 1320.43 C 1866.01 1320.60 1849.97 1320.09 1833.98 1320.69 Z" />
<path fill="#ffffff" opacity="1.00" d=" M 1930.18 1300.44 C 1962.78 1300.77 1995.39 1300.41 2028.00 1300.62 C 2028.00 1366.42 2028.00 1432.22 2028.00 1498.02 C 2027.95 1502.52 2028.09 1507.03 2027.84 1511.54 C 1995.31 1511.38 1962.76 1511.30 1930.23 1511.58 C 1929.71 1497.73 1930.14 1483.85 1930.00 1470.00 C 1930.00 1418.32 1930.00 1366.66 1930.00 1314.99 C 1930.04 1310.13 1929.87 1305.28 1930.18 1300.44 M 1940.58 1320.55 C 1940.24 1335.70 1940.52 1350.87 1940.43 1366.03 C 1940.53 1387.17 1940.23 1408.32 1940.58 1429.45 C 1966.21 1429.60 1991.86 1429.74 2017.49 1429.38 C 2017.60 1393.12 2017.66 1356.85 2017.46 1320.59 C 1991.84 1320.30 1966.20 1320.37 1940.58 1320.55 Z" />
<path fill="#ffffff" opacity="1.00" d=" M 1646.56 1519.63 C 1803.04 1519.49 1959.52 1519.61 2116.00 1519.57 C 2148.28 1519.50 2180.57 1519.71 2212.85 1519.46 C 2213.03 1522.94 2212.96 1526.44 2213.01 1529.94 C 2227.18 1530.17 2241.35 1529.79 2255.52 1530.14 C 2255.38 1540.89 2255.34 1551.65 2255.54 1562.41 C 2268.82 1562.70 2282.14 1562.63 2295.43 1562.44 C 2295.79 1551.63 2295.38 1540.81 2295.64 1530.00 C 2347.94 1530.12 2400.26 1529.76 2452.55 1530.18 C 2452.32 1552.07 2452.39 1573.97 2452.52 1595.86 C 2428.02 1596.40 2403.49 1595.88 2378.99 1596.05 C 2106.31 1595.94 1833.63 1596.07 1560.95 1595.92 C 1345.33 1595.89 1129.70 1595.71 914.08 1595.76 C 914.02 1593.44 914.01 1591.14 914.00 1588.86 C 966.50 1569.30 1019.07 1549.92 1071.56 1530.32 C 1074.54 1529.03 1077.86 1529.69 1081.01 1529.57 C 1238.47 1529.59 1395.94 1529.52 1553.40 1529.60 C 1553.53 1540.53 1553.29 1551.46 1553.52 1562.39 C 1566.82 1562.69 1580.17 1562.68 1593.48 1562.40 C 1593.71 1551.46 1593.45 1540.52 1593.61 1529.59 C 1609.74 1529.55 1625.87 1529.55 1642.00 1529.59 C 1643.40 1529.24 1645.66 1530.30 1646.49 1528.71 C 1646.72 1525.68 1646.50 1522.65 1646.56 1519.63 Z" />
<path fill="#ffffff" opacity="1.00" d=" M 2477.00 1530.00 C 2482.17 1530.04 2487.35 1529.88 2492.54 1530.16 C 2492.36 1552.05 2492.35 1573.94 2492.54 1595.83 C 2487.37 1596.36 2482.17 1595.96 2477.01 1596.08 C 2476.99 1574.05 2477.00 1552.03 2477.00 1530.00 Z" />
<path fill="#ffffff" opacity="1.00" d=" M 2517.00 1530.00 C 2529.18 1530.10 2541.38 1529.78 2553.56 1530.19 C 2553.32 1552.07 2553.38 1573.96 2553.53 1595.85 C 2541.37 1596.51 2529.17 1595.91 2517.00 1596.08 C 2516.99 1574.05 2517.00 1552.03 2517.00 1530.00 Z" />
<path fill="#ffffff" opacity="1.00" d=" M 2578.00 1530.01 C 2661.35 1529.99 2744.71 1530.00 2828.07 1530.00 C 2836.23 1529.43 2843.94 1532.68 2851.85 1534.20 C 2899.26 1545.42 2946.57 1557.13 2994.08 1567.92 C 3001.97 1571.24 3008.90 1576.44 3016.32 1580.68 C 3024.65 1585.91 3033.29 1590.67 3041.46 1596.16 C 2886.98 1596.38 2732.49 1596.10 2578.00 1596.12 C 2577.99 1574.08 2578.00 1552.04 2578.00 1530.01 Z" />
<path fill="#ffffff" opacity="1.00" d=" M 913.98 1603.84 C 1281.00 1604.06 1648.03 1603.93 2015.05 1604.08 C 2160.78 1604.07 2306.52 1604.27 2452.26 1604.15 C 2452.32 1605.51 2452.41 1606.90 2452.53 1608.31 C 2340.35 1608.60 2228.17 1608.35 2115.99 1608.43 C 1768.33 1608.43 1420.68 1608.43 1073.02 1608.43 C 1020.07 1608.50 967.11 1608.29 914.16 1608.54 C 914.07 1606.95 914.01 1605.38 913.98 1603.84 Z" />
<path fill="#ffffff" opacity="1.00" d=" M 2476.99 1604.20 C 2482.14 1604.27 2487.30 1604.15 2492.47 1604.29 C 2492.41 1605.64 2492.39 1607.02 2492.40 1608.42 C 2487.32 1608.48 2482.24 1608.30 2477.18 1608.56 C 2477.06 1607.08 2476.99 1605.62 2476.99 1604.20 Z" />
<path fill="#ffffff" opacity="1.00" d=" M 2517.03 1604.17 C 2529.10 1604.26 2541.17 1604.37 2553.25 1604.18 C 2553.31 1605.55 2553.40 1606.93 2553.51 1608.34 C 2541.40 1608.63 2529.28 1608.20 2517.18 1608.56 C 2517.06 1607.08 2517.02 1605.61 2517.03 1604.17 Z" />
<path fill="#ffffff" opacity="1.00" d=" M 2578.01 1604.22 C 2692.67 1604.36 2807.32 1604.31 2921.98 1604.38 C 2964.60 1604.27 3007.24 1604.62 3049.86 1604.29 C 3049.85 1605.69 3049.85 1607.12 3049.85 1608.56 C 2995.92 1608.25 2941.97 1608.52 2888.04 1608.43 C 2784.75 1608.51 2681.46 1608.26 2578.18 1608.56 C 2578.06 1607.09 2578.01 1605.64 2578.01 1604.22 Z" />
</g>
</svg>
