<?xml version="1.0" encoding="UTF-8" ?>
<!DOCTYPE svg PUBLIC "-//W3C//DTD SVG 1.1//EN" "http://www.w3.org/Graphics/SVG/1.1/DTD/svg11.dtd">
<svg width="1576pt" height="1151pt" viewBox="0 0 1576 1151" version="1.1" xmlns="http://www.w3.org/2000/svg">
<g id="#ffffffff">
</g>
<g id="#606668ff">
<path fill="#606668" opacity="1.00" d=" M 700.78 57.81 C 729.46 39.85 757.92 21.48 786.76 3.78 C 931.21 95.16 1075.87 186.20 1220.41 277.45 C 1230.53 284.00 1240.98 290.08 1250.89 296.95 C 1248.25 297.04 1245.62 296.98 1243.00 297.00 C 1242.98 298.86 1242.98 300.73 1243.03 302.61 C 1244.86 303.18 1243.68 305.46 1244.02 306.84 C 1242.04 306.89 1241.35 308.88 1240.29 310.19 C 1237.08 314.65 1233.98 319.20 1230.57 323.51 C 1232.92 324.79 1235.63 325.02 1238.23 325.57 C 1341.42 346.77 1444.59 368.02 1547.77 389.24 C 1551.78 390.14 1555.92 390.64 1559.77 392.17 C 1563.20 397.83 1568.47 402.06 1572.06 407.61 C 1567.07 407.74 1562.08 407.56 1557.10 407.67 C 1555.64 407.55 1555.12 409.17 1554.35 410.07 C 1551.45 414.47 1547.88 419.07 1547.98 424.61 C 1549.72 424.85 1548.84 426.72 1548.77 427.79 C 1547.65 434.11 1545.98 440.68 1541.35 445.42 C 1538.89 447.68 1536.45 450.59 1533.01 451.22 C 1533.00 667.82 1532.99 884.41 1533.01 1101.00 C 1475.68 1101.00 1418.35 1101.00 1361.02 1101.00 C 1359.46 1101.10 1357.81 1100.79 1356.37 1101.34 C 1356.92 1102.31 1359.08 1101.86 1360.23 1102.57 C 1366.66 1105.17 1373.12 1107.75 1379.54 1110.40 C 1379.74 1110.79 1380.14 1111.58 1380.34 1111.97 C 1381.01 1111.98 1382.34 1112.00 1383.00 1112.00 C 1382.99 1119.00 1382.99 1126.00 1383.01 1133.01 C 1305.00 1133.00 1227.00 1133.00 1149.01 1133.01 C 1148.99 1137.67 1149.00 1142.33 1149.00 1147.00 C 1103.00 1147.00 1057.00 1147.01 1011.00 1147.00 C 1010.98 1142.33 1011.01 1137.66 1010.99 1133.01 C 729.33 1132.99 447.66 1133.00 166.00 1133.00 C 166.04 1125.80 165.88 1118.60 166.07 1111.40 C 174.78 1108.34 183.10 1104.24 191.88 1101.35 C 181.94 1100.59 171.95 1101.19 161.99 1101.00 C 121.32 1101.00 80.66 1101.01 40.00 1101.00 C 39.96 884.90 40.08 668.80 39.94 452.71 C 37.83 450.31 34.64 448.97 32.64 446.39 C 27.51 441.00 25.72 433.37 25.01 426.22 L 26.03 425.60 C 25.90 419.41 21.89 414.32 18.48 409.50 C 17.81 408.24 16.19 408.76 15.07 408.62 C 11.35 408.65 7.64 408.70 3.92 408.60 C 7.43 402.70 13.82 398.68 16.29 392.20 C 83.54 378.56 150.73 364.58 217.96 350.80 C 260.37 342.18 302.71 333.16 345.16 324.79 C 340.79 318.77 336.69 312.53 332.00 306.76 C 332.00 303.51 331.99 300.26 332.00 297.01 C 328.69 296.98 325.38 297.08 322.08 296.95 C 339.16 285.59 356.76 274.98 374.05 263.91 C 482.96 195.21 591.87 126.51 700.78 57.81 M 786.46 7.18 C 634.79 103.03 482.95 198.60 331.27 294.43 C 341.47 293.73 351.73 294.32 361.95 294.13 C 652.32 294.13 942.69 294.13 1233.06 294.13 C 1235.95 294.13 1238.92 293.87 1241.74 294.70 C 1239.02 292.23 1235.59 290.72 1232.60 288.63 C 1083.89 194.81 935.16 101.01 786.46 7.18 M 336.00 297.00 C 336.00 299.33 336.00 301.66 336.00 303.99 C 580.34 304.01 824.67 302.81 1069.01 303.00 C 1125.77 302.89 1182.54 303.21 1239.30 302.84 C 1239.26 300.95 1239.26 299.07 1239.31 297.19 C 1211.55 296.75 1183.77 297.12 1156.00 297.00 C 882.67 297.00 609.33 296.99 336.00 297.00 M 669.05 307.99 C 558.69 308.01 448.32 308.00 337.96 308.00 C 346.77 320.31 355.75 332.49 364.39 344.92 C 368.92 345.04 373.46 344.99 378.00 344.99 C 378.00 338.99 378.00 333.00 378.00 327.00 C 650.67 327.00 923.33 327.00 1196.00 327.00 C 1196.00 333.00 1195.99 339.00 1196.01 345.00 C 1200.88 344.98 1205.76 345.07 1210.64 344.89 C 1212.85 341.43 1215.37 338.18 1217.75 334.83 C 1220.24 331.10 1223.61 327.80 1224.65 323.32 C 1227.15 322.81 1228.11 320.30 1229.51 318.48 C 1232.30 314.68 1234.94 310.77 1237.87 307.06 C 1214.23 306.92 1190.60 307.04 1166.96 307.00 C 1000.99 307.28 835.02 307.64 669.05 307.99 M 270.72 343.98 C 193.16 359.92 115.62 375.89 38.07 391.83 C 36.39 392.46 33.52 391.65 32.35 392.63 C 41.20 393.37 50.11 392.84 58.99 393.00 C 106.32 393.01 153.65 392.95 200.98 393.13 C 253.81 393.21 306.64 392.93 359.47 393.35 C 359.79 394.36 360.02 395.39 360.18 396.44 C 364.40 396.29 368.63 396.30 372.86 396.44 C 373.14 387.11 372.97 377.77 372.97 368.43 C 367.07 363.19 362.03 356.06 361.86 347.90 C 357.08 341.29 352.29 334.69 347.59 328.03 C 322.02 333.60 296.32 338.59 270.72 343.98 M 1215.30 344.89 C 1213.04 347.08 1214.60 350.38 1213.66 353.05 C 1212.09 359.48 1207.57 364.59 1202.87 369.01 C 1202.16 369.04 1200.73 369.10 1200.02 369.13 C 1199.99 378.42 1200.00 387.70 1200.00 396.99 C 1205.28 396.97 1210.56 397.10 1215.84 396.85 C 1216.02 395.35 1216.16 393.84 1216.37 392.36 C 1254.57 391.98 1292.78 392.17 1330.99 392.13 C 1392.98 392.13 1454.98 391.92 1516.98 392.00 C 1525.19 391.85 1533.45 392.35 1541.65 391.63 C 1540.43 390.65 1537.58 391.46 1535.92 390.82 C 1433.29 369.74 1330.67 348.57 1228.03 327.51 C 1223.54 333.12 1219.60 339.14 1215.30 344.89 M 380.87 330.00 C 380.86 334.67 380.86 339.33 380.88 344.00 C 651.63 344.02 922.38 344.01 1193.13 344.00 C 1193.13 339.33 1193.13 334.67 1193.13 330.00 C 922.37 329.99 651.62 329.98 380.87 330.00 M 364.44 347.48 C 364.92 353.15 367.26 358.64 371.31 362.68 C 373.50 364.77 375.46 368.09 378.97 367.48 C 427.66 367.32 476.35 367.41 525.04 367.20 C 546.36 367.18 567.68 367.34 588.99 367.00 C 792.36 366.87 995.72 367.23 1199.09 366.69 C 1200.31 366.74 1201.68 366.63 1202.53 365.59 C 1207.44 360.84 1211.74 354.57 1211.56 347.46 C 1133.71 347.37 1055.86 347.46 978.01 347.41 C 773.49 347.49 568.96 347.34 364.44 347.48 M 375.88 370.92 C 375.85 379.27 375.87 387.63 375.87 395.99 C 649.62 396.21 923.37 396.14 1197.12 396.08 C 1197.12 387.68 1197.18 379.29 1197.09 370.89 C 923.35 370.88 649.62 370.83 375.88 370.92 M 1219.33 395.06 C 1218.29 398.89 1215.56 401.82 1213.34 404.97 C 1273.55 404.98 1333.78 405.13 1393.99 404.80 C 1451.33 404.79 1508.67 404.78 1566.00 404.76 C 1563.34 401.51 1560.47 398.43 1557.96 395.07 C 1445.08 394.80 1332.21 395.23 1219.33 395.06 M 10.01 405.76 C 64.67 405.76 119.34 405.81 174.01 405.79 C 236.89 406.11 299.78 405.99 362.67 405.97 C 360.33 402.81 357.92 399.68 356.05 396.21 C 324.03 395.96 291.99 396.17 259.96 396.10 C 179.30 396.01 98.64 395.88 17.99 396.11 C 15.51 399.47 12.63 402.51 10.01 405.76 M 362.15 399.19 C 365.01 402.11 367.63 405.38 370.97 407.76 C 379.93 408.32 388.95 407.61 397.93 408.31 C 412.28 409.23 426.67 409.18 441.02 408.29 C 449.56 407.70 458.12 408.14 466.67 407.92 C 467.62 404.63 469.24 401.57 471.75 399.20 C 460.49 398.82 449.21 399.12 437.94 399.02 C 412.68 399.13 387.41 398.80 362.15 399.19 M 474.82 399.81 C 471.64 402.72 469.36 406.76 468.92 411.08 C 468.67 418.36 470.25 426.09 466.91 432.91 C 466.39 432.98 465.37 433.11 464.85 433.18 C 467.22 440.66 465.93 448.68 463.86 456.08 C 464.64 456.04 466.19 455.98 466.97 455.94 C 470.13 463.88 469.33 472.76 467.99 481.00 C 467.25 481.00 465.75 481.00 465.01 481.00 C 464.99 495.66 465.00 510.31 465.00 524.97 C 465.02 528.22 464.89 531.50 465.52 534.71 C 465.39 524.72 472.16 516.52 478.68 509.66 C 489.28 499.76 502.96 491.33 517.97 491.97 C 529.86 491.70 540.99 497.64 549.87 505.15 C 556.39 510.97 562.61 517.63 565.76 525.93 C 566.29 511.30 565.86 496.64 566.00 482.00 C 565.20 482.01 563.61 482.02 562.81 482.02 C 561.35 475.90 560.25 469.51 561.32 463.25 C 562.33 460.97 562.51 456.44 565.96 456.90 C 563.23 449.45 562.75 440.63 566.66 433.51 C 565.78 433.73 564.92 433.99 564.08 434.28 C 558.93 427.04 561.59 418.07 561.95 410.04 C 558.38 406.33 554.65 402.76 551.11 399.03 C 527.06 398.97 503.01 399.02 478.96 399.00 C 477.60 399.18 475.81 398.54 474.82 399.81 M 662.92 412.13 C 662.68 419.39 664.23 427.11 660.91 433.91 C 660.39 433.98 659.36 434.12 658.85 434.18 C 661.22 441.66 659.94 449.68 657.86 457.08 C 658.63 457.05 660.19 456.98 660.97 456.94 C 664.12 464.88 663.33 473.76 661.99 482.00 C 661.25 482.00 659.75 482.01 659.00 482.01 C 659.01 664.89 658.98 847.77 659.02 1030.65 C 661.38 1031.78 665.18 1032.70 665.05 1036.00 C 665.29 1037.40 663.73 1038.10 663.07 1039.13 C 663.10 1040.41 663.10 1041.70 663.06 1043.01 C 665.09 1044.52 667.21 1046.27 669.93 1046.02 C 674.09 1048.46 675.66 1054.34 672.13 1058.00 C 690.41 1057.99 708.70 1058.01 726.99 1058.00 C 727.01 986.66 727.00 915.33 727.00 844.00 C 770.00 844.00 813.00 844.00 856.00 844.00 C 856.00 915.33 855.99 986.66 856.00 1058.00 C 872.88 1057.99 889.76 1058.03 906.64 1057.97 C 903.79 1054.45 904.55 1049.08 908.17 1046.39 C 913.42 1047.86 917.52 1039.87 912.98 1036.70 C 912.05 1033.17 915.07 1030.99 917.91 1029.82 C 918.13 968.87 917.94 907.91 918.00 846.95 C 918.00 725.30 918.00 603.65 918.00 482.00 C 917.21 482.01 915.62 482.02 914.83 482.02 C 913.34 475.90 912.25 469.50 913.32 463.23 C 914.33 460.96 914.51 456.45 917.96 456.90 C 915.23 449.46 914.77 440.67 918.63 433.54 C 917.75 433.75 916.89 433.98 916.05 434.26 C 912.15 428.31 912.39 420.83 913.77 414.14 C 913.96 412.45 914.71 410.22 913.05 409.04 C 909.65 405.77 906.38 402.37 903.08 399.01 C 825.69 399.05 748.29 398.89 670.90 399.09 C 666.68 402.14 663.41 406.85 662.92 412.13 M 1014.92 412.10 C 1014.68 419.37 1016.24 427.10 1012.90 433.91 C 1012.39 433.98 1011.36 434.11 1010.85 434.18 C 1013.22 441.66 1011.94 449.68 1009.86 457.08 C 1010.64 457.04 1012.19 456.98 1012.97 456.94 C 1016.10 464.88 1015.34 473.76 1013.99 482.00 C 1013.25 482.00 1011.75 482.00 1011.01 482.00 C 1011.30 499.55 1010.37 517.17 1011.53 534.68 C 1011.77 531.78 1011.68 528.75 1013.07 526.11 C 1017.37 516.18 1025.21 508.17 1033.99 502.04 C 1042.47 496.21 1052.45 491.60 1062.95 491.97 C 1071.45 491.51 1079.79 494.46 1087.02 498.75 C 1096.87 504.78 1105.24 513.26 1110.91 523.33 C 1111.10 509.89 1110.95 496.44 1111.00 483.00 C 1110.21 483.01 1108.63 483.02 1107.84 483.02 C 1106.08 475.32 1104.27 466.63 1108.18 459.28 C 1108.70 458.13 1109.62 457.67 1110.96 457.90 C 1108.23 450.45 1107.75 441.63 1111.66 434.51 C 1110.77 434.73 1109.91 434.99 1109.06 435.27 C 1105.38 429.72 1105.38 422.76 1106.54 416.44 C 1106.85 414.67 1107.26 412.85 1106.97 411.06 C 1103.06 407.01 1098.99 403.11 1095.14 399.01 C 1071.06 399.05 1046.97 398.89 1022.90 399.09 C 1018.69 402.14 1015.42 406.84 1014.92 412.10 M 556.14 400.21 C 559.02 403.15 561.71 406.33 564.95 408.88 C 573.92 409.21 582.93 408.66 591.90 409.30 C 605.93 410.22 620.02 410.20 634.05 409.33 C 642.92 408.71 651.81 409.12 660.68 408.92 C 661.59 405.60 663.53 402.75 665.34 399.87 C 628.95 400.31 592.53 399.70 556.14 400.21 M 908.14 400.19 C 911.04 403.12 913.68 406.42 917.01 408.87 C 920.66 409.16 924.34 408.89 928.01 408.97 C 942.67 408.76 957.30 410.50 971.97 409.92 C 985.53 409.33 999.08 408.71 1012.66 408.97 C 1013.59 405.66 1015.51 402.80 1017.27 399.90 C 980.90 400.24 944.51 399.76 908.14 400.19 M 1101.14 401.23 C 1104.07 404.13 1106.70 407.47 1110.05 409.89 C 1119.01 410.20 1127.99 409.65 1136.95 410.31 C 1151.95 411.29 1167.00 411.14 1182.00 410.17 C 1189.68 409.63 1197.41 410.39 1205.06 409.70 C 1207.00 406.93 1208.35 403.70 1210.34 400.91 C 1173.95 401.27 1137.53 400.71 1101.14 401.23 M 1209.24 409.02 C 1206.58 413.92 1208.60 419.70 1208.00 425.00 C 1320.30 424.96 1432.61 425.08 1544.91 424.94 C 1545.04 418.83 1548.33 413.55 1551.71 408.71 C 1437.55 408.76 1323.40 408.84 1209.24 409.02 M 22.28 409.69 C 25.65 414.56 28.95 419.83 29.09 425.95 C 47.72 426.06 66.35 425.97 84.99 426.00 C 151.00 425.89 217.01 426.28 283.02 425.66 C 310.68 425.34 338.34 424.84 366.00 424.99 C 365.97 420.18 365.61 415.26 367.32 410.66 C 330.53 410.21 293.74 409.85 256.94 410.00 C 178.72 410.02 100.50 409.71 22.28 409.69 M 371.20 411.00 C 369.81 417.12 368.90 423.90 371.49 429.83 C 386.44 426.55 401.64 423.66 416.99 424.00 C 433.11 423.66 449.31 425.88 464.87 429.99 C 466.95 424.24 465.76 418.04 465.93 412.07 C 445.95 411.88 425.95 412.11 405.97 411.95 C 394.39 411.18 382.79 410.92 371.20 411.00 M 565.20 412.00 C 563.75 418.16 562.97 424.95 565.44 430.95 C 577.40 427.87 589.68 426.20 601.95 425.02 C 608.62 424.96 615.29 425.00 621.97 425.00 C 634.37 426.17 646.88 427.54 658.87 430.99 C 660.94 425.23 659.79 419.02 659.90 413.04 C 639.94 412.91 619.98 413.09 600.02 412.95 C 588.42 412.18 576.81 411.92 565.20 412.00 M 917.20 412.00 C 915.73 418.15 915.00 424.92 917.41 430.93 C 929.42 427.91 941.72 426.16 954.03 425.01 C 961.02 425.00 968.03 424.93 975.02 425.05 C 987.06 426.31 999.22 427.61 1010.87 430.99 C 1012.95 425.24 1011.76 419.03 1011.93 413.07 C 987.29 412.64 962.61 413.73 937.99 412.25 C 931.06 412.04 924.13 411.96 917.20 412.00 M 1110.19 413.00 C 1108.75 419.15 1107.98 425.94 1110.42 431.94 C 1122.72 428.85 1135.32 427.02 1147.94 425.98 C 1156.64 426.24 1165.41 425.37 1174.05 426.76 C 1183.50 427.29 1192.71 429.66 1202.01 431.06 C 1202.82 430.40 1203.64 429.74 1204.48 429.09 C 1203.64 426.68 1205.25 424.45 1205.12 422.04 C 1205.11 419.41 1204.82 416.80 1204.57 414.20 C 1184.41 413.69 1164.23 414.24 1144.07 413.91 C 1132.79 413.13 1121.49 412.95 1110.19 413.00 M 376.39 432.49 C 374.04 434.58 372.98 437.94 373.01 441.03 C 373.11 445.39 372.48 449.94 374.14 454.11 C 374.58 454.93 374.68 456.57 375.95 456.58 C 382.59 457.52 389.27 458.16 395.94 458.90 C 405.93 458.83 415.92 460.05 425.90 459.09 C 437.55 459.01 449.18 457.57 460.62 455.42 C 460.81 455.21 461.18 454.81 461.36 454.60 C 463.55 447.42 464.40 439.44 461.66 432.28 C 451.06 429.20 439.99 428.23 429.06 427.04 C 421.72 427.02 414.36 427.00 407.02 427.05 C 396.70 428.08 386.30 429.29 376.39 432.49 M 594.10 428.85 C 586.60 429.46 579.20 431.03 571.94 432.96 C 569.04 433.41 568.06 436.64 567.33 439.05 C 566.02 445.09 566.37 451.94 569.32 457.43 C 575.15 458.43 581.06 458.87 586.93 459.61 C 609.52 460.99 632.36 460.79 654.64 456.44 C 654.82 456.22 655.18 455.79 655.36 455.58 C 657.57 448.41 658.38 440.42 655.66 433.28 C 645.03 430.22 633.94 429.19 622.97 428.03 C 613.35 428.28 603.65 427.32 594.10 428.85 M 922.34 433.52 C 920.65 434.89 919.89 437.06 919.32 439.08 C 917.90 445.22 918.61 451.84 921.19 457.58 C 930.45 458.44 939.66 460.21 949.00 460.00 C 968.06 461.07 987.25 459.99 1006.04 456.57 C 1007.31 456.58 1007.50 454.99 1007.84 454.10 C 1009.63 447.32 1010.19 439.96 1007.69 433.28 C 997.71 430.36 987.31 429.43 977.04 428.18 C 958.70 427.46 939.99 427.93 922.34 433.52 M 1208.07 428.09 C 1207.12 430.56 1207.21 433.76 1204.94 435.46 C 1205.04 439.59 1204.97 443.71 1205.07 447.84 C 1314.38 447.86 1423.71 448.02 1533.02 448.03 C 1535.58 447.28 1537.28 444.94 1539.22 443.20 C 1543.37 439.25 1544.75 433.46 1545.62 428.00 C 1433.10 427.99 1320.58 427.98 1208.07 428.09 M 28.40 429.00 C 29.21 433.75 30.18 438.75 33.34 442.56 C 35.34 444.88 37.54 447.07 40.06 448.81 C 43.70 449.19 47.38 448.91 51.04 449.00 C 128.69 449.15 206.34 448.82 283.98 448.13 C 312.64 447.83 341.31 448.15 369.97 447.91 C 369.74 441.57 371.10 434.78 367.77 429.00 C 254.65 429.00 141.53 429.00 28.40 429.00 M 1119.88 433.17 C 1117.60 433.83 1114.66 434.01 1113.68 436.57 C 1110.48 443.36 1111.04 451.79 1114.27 458.45 C 1142.55 462.55 1171.57 462.59 1199.73 457.44 C 1201.35 455.01 1201.53 451.85 1201.92 449.02 C 1201.91 444.09 1202.63 438.94 1200.66 434.27 C 1186.15 430.53 1171.09 428.58 1156.09 429.03 C 1143.90 428.61 1131.72 430.34 1119.88 433.17 M 42.87 452.01 C 42.87 667.37 42.84 882.73 42.89 1098.09 C 94.25 1098.20 145.61 1098.06 196.97 1098.15 C 199.74 1098.42 202.11 1096.76 204.49 1095.62 C 204.86 1095.25 205.58 1094.52 205.94 1094.16 C 233.00 1082.97 260.17 1072.04 287.11 1060.54 C 289.01 1059.44 291.01 1060.75 293.01 1060.61 C 303.68 1060.40 314.35 1060.20 325.01 1060.01 C 337.28 1059.84 349.57 1060.31 361.83 1059.74 C 361.16 1057.69 360.01 1055.86 359.05 1053.95 C 358.31 1050.71 359.71 1046.31 363.02 1045.35 C 367.94 1046.28 371.22 1038.49 366.97 1035.66 C 366.04 1032.09 369.19 1029.98 371.97 1028.74 C 372.03 846.16 371.98 663.58 372.00 481.00 C 371.20 481.01 369.62 481.02 368.82 481.02 C 367.34 474.90 366.26 468.49 367.32 462.22 C 368.32 459.92 368.55 455.52 371.95 455.88 C 371.46 454.57 371.07 453.24 370.74 451.89 C 261.45 451.92 152.16 452.06 42.87 452.01 M 1204.24 451.99 C 1203.72 454.00 1203.50 456.09 1202.84 458.08 C 1203.62 458.04 1205.19 457.98 1205.97 457.95 C 1209.12 465.88 1208.33 474.76 1206.99 483.00 C 1206.25 483.00 1204.75 483.00 1204.00 483.01 C 1204.01 665.89 1203.97 848.78 1204.03 1031.67 C 1206.41 1032.77 1210.20 1033.73 1210.05 1037.03 C 1210.26 1038.42 1208.72 1039.10 1208.07 1040.11 C 1208.10 1041.40 1208.10 1042.70 1208.06 1044.02 C 1210.09 1045.52 1212.20 1047.26 1214.93 1047.02 C 1218.17 1049.12 1220.52 1053.52 1218.30 1057.15 C 1217.71 1058.42 1214.45 1061.02 1218.46 1059.06 C 1231.02 1058.78 1243.59 1059.34 1256.15 1059.20 C 1262.57 1062.49 1269.34 1065.03 1275.92 1067.97 C 1296.89 1077.00 1317.90 1085.92 1338.87 1094.92 C 1340.78 1095.78 1343.20 1096.02 1344.45 1097.94 C 1348.27 1097.97 1352.09 1098.03 1355.93 1098.13 C 1413.98 1098.11 1472.03 1098.15 1530.08 1098.11 C 1530.16 882.70 1530.17 667.29 1530.08 451.89 C 1421.47 451.94 1312.85 451.73 1204.24 451.99 M 371.43 459.06 C 368.99 465.05 369.74 471.84 371.19 477.99 C 382.88 478.71 394.42 476.77 406.04 476.00 C 414.71 475.99 423.39 475.99 432.07 476.01 C 443.22 476.84 454.29 478.57 465.51 478.19 C 466.13 471.88 466.84 465.21 464.90 459.07 C 434.24 465.49 401.99 466.58 371.43 459.06 M 565.42 460.06 C 562.99 466.06 563.74 472.83 565.19 478.99 C 574.80 479.62 584.30 478.32 593.84 477.54 C 601.85 476.48 609.95 477.21 618.01 477.00 C 631.97 476.43 645.71 480.02 659.67 479.04 C 659.94 472.74 660.93 466.15 658.89 460.05 C 653.56 461.33 648.15 462.20 642.73 462.98 C 617.09 466.39 590.63 466.42 565.42 460.06 M 917.43 460.05 C 914.99 466.05 915.73 472.83 917.19 478.99 C 931.54 479.99 945.66 476.48 959.99 477.00 C 965.98 477.02 971.97 476.96 977.96 477.00 C 989.22 477.74 1000.40 479.77 1011.73 479.04 C 1011.88 472.73 1012.94 466.16 1010.90 460.05 C 996.15 463.25 981.09 465.12 966.01 465.13 C 949.69 465.53 933.27 464.15 917.43 460.05 M 1110.41 461.08 C 1107.99 467.07 1108.74 473.84 1110.19 479.99 C 1124.55 480.99 1138.69 477.48 1153.04 478.00 C 1161.34 478.21 1169.70 477.44 1177.95 478.67 C 1186.87 479.29 1195.76 480.74 1204.75 480.03 C 1204.85 473.71 1205.98 467.12 1203.87 461.02 C 1193.43 463.62 1182.70 464.58 1172.06 465.77 C 1151.43 466.78 1130.50 466.34 1110.41 461.08 M 384.08 481.01 C 380.78 480.96 377.57 481.77 374.38 482.48 C 374.45 663.34 374.40 844.20 374.41 1025.06 C 374.48 1025.95 374.70 1026.82 375.09 1027.66 C 404.20 1027.38 433.32 1027.75 462.43 1027.48 C 462.60 1025.25 462.78 1022.97 461.74 1020.92 C 463.72 1015.42 461.78 1009.57 462.45 1003.93 C 462.64 993.64 462.56 983.35 462.60 973.07 C 462.54 885.76 462.68 798.44 462.51 711.14 C 462.59 704.71 462.72 698.27 462.32 691.86 C 462.87 677.59 462.47 663.29 462.58 649.02 C 462.62 593.50 462.53 537.99 462.63 482.47 C 459.79 481.82 456.93 481.06 454.00 481.03 C 442.99 481.17 432.01 479.96 421.00 480.01 C 408.68 479.78 396.39 481.09 384.08 481.01 M 578.09 482.01 C 574.80 481.96 571.59 482.76 568.40 483.48 C 568.49 665.16 568.29 846.86 568.51 1028.53 C 597.00 1028.65 625.50 1028.51 653.99 1028.61 C 655.10 1028.79 656.74 1028.30 656.59 1026.90 C 656.61 845.75 656.53 664.60 656.63 483.46 C 653.77 482.84 650.92 482.07 647.99 482.02 C 636.33 482.14 624.71 480.88 613.05 481.01 C 601.38 480.88 589.75 482.11 578.09 482.01 M 928.01 482.09 C 925.43 482.29 922.92 482.92 920.41 483.43 C 920.42 664.31 920.42 845.18 920.41 1026.05 C 920.20 1027.14 920.70 1028.70 922.09 1028.56 C 950.92 1028.56 979.76 1028.64 1008.59 1028.51 C 1008.90 1024.99 1007.71 1021.50 1008.38 1018.01 C 1008.75 1015.34 1008.61 1012.64 1008.55 1009.97 C 1008.63 914.65 1008.56 819.32 1008.59 723.99 C 1008.17 713.29 1009.02 702.57 1008.32 691.88 C 1008.88 679.61 1008.43 667.32 1008.60 655.04 C 1008.57 597.83 1008.59 540.62 1008.59 483.41 C 1000.22 481.15 991.49 482.41 982.96 481.51 C 964.64 480.19 946.32 481.86 928.01 482.09 M 1113.35 484.50 C 1113.79 501.68 1112.70 518.92 1114.06 536.06 C 1113.97 584.36 1114.05 632.66 1114.02 680.96 C 1114.29 691.33 1112.67 701.68 1113.77 712.04 C 1113.01 734.00 1113.60 755.99 1113.41 777.96 C 1113.41 861.28 1113.44 944.60 1113.42 1027.91 C 1113.20 1029.28 1114.86 1029.76 1115.95 1029.60 C 1143.65 1029.57 1171.35 1029.55 1199.05 1029.60 C 1200.12 1029.79 1201.75 1029.31 1201.57 1027.93 C 1201.65 846.78 1201.50 665.62 1201.64 484.46 C 1194.61 482.27 1187.23 483.35 1180.02 482.72 C 1165.34 481.81 1150.62 481.82 1135.95 482.70 C 1128.41 483.36 1120.70 482.26 1113.35 484.50 M 477.38 515.43 C 471.75 521.92 467.08 530.10 467.91 538.99 C 483.98 538.83 500.08 539.36 516.13 538.70 C 532.43 539.30 548.77 538.87 565.09 538.99 C 565.88 530.09 561.34 521.83 555.76 515.26 C 547.39 505.40 536.05 497.28 523.07 495.11 C 519.03 494.84 514.96 494.79 510.94 495.19 C 497.77 497.63 486.22 505.60 477.38 515.43 M 1055.57 495.45 C 1042.70 498.27 1031.47 506.24 1022.87 516.01 C 1017.50 522.40 1013.09 530.37 1013.91 538.99 C 1026.93 539.01 1039.95 539.00 1052.97 539.00 C 1058.00 539.22 1063.01 538.27 1068.02 538.95 C 1082.34 539.06 1096.67 538.97 1111.00 539.00 C 1111.40 534.12 1110.46 529.25 1108.20 524.92 C 1102.51 513.83 1092.84 505.08 1081.90 499.31 C 1073.87 495.02 1064.47 494.02 1055.57 495.45 M 468.00 542.01 C 468.00 558.04 467.99 574.08 468.01 590.12 C 483.67 590.13 499.33 590.13 514.99 590.12 C 515.00 574.08 515.00 558.04 514.99 542.00 C 499.33 542.00 483.67 541.99 468.00 542.01 M 519.01 542.00 C 519.00 558.04 518.99 574.08 519.01 590.12 C 534.34 590.13 549.66 590.13 564.99 590.12 C 564.94 574.10 565.14 558.07 564.88 542.06 C 549.59 541.94 534.30 542.03 519.01 542.00 M 1014.00 542.01 C 1014.00 558.04 1013.99 574.08 1014.01 590.12 C 1029.67 590.13 1045.33 590.13 1060.99 590.12 C 1061.00 574.08 1061.00 558.04 1060.99 542.00 C 1045.33 542.00 1029.67 542.00 1014.00 542.01 M 1065.00 542.01 C 1065.00 558.04 1064.99 574.08 1065.01 590.12 C 1080.34 590.13 1095.66 590.13 1110.99 590.12 C 1110.93 574.10 1111.15 558.07 1110.87 542.04 C 1095.58 541.95 1080.29 542.02 1065.00 542.01 M 467.87 593.01 C 467.86 607.67 467.86 622.33 467.88 636.99 C 483.58 637.01 499.29 637.00 514.99 637.00 C 515.00 622.33 515.00 607.67 514.99 593.00 C 499.29 593.00 483.58 592.99 467.87 593.01 M 519.01 593.00 C 519.00 607.67 519.00 622.33 519.01 637.00 C 534.38 637.00 549.75 637.01 565.13 636.99 C 565.14 622.33 565.14 607.67 565.13 593.01 C 549.75 592.99 534.38 593.00 519.01 593.00 M 1013.87 593.01 C 1013.86 607.67 1013.86 622.33 1013.87 636.99 C 1029.58 637.00 1045.29 637.00 1061.00 636.99 C 1061.00 622.33 1061.00 607.67 1061.00 593.00 C 1045.29 593.00 1029.58 592.99 1013.87 593.01 M 1065.01 593.00 C 1065.00 607.67 1065.00 622.33 1065.00 637.00 C 1080.33 637.00 1095.66 637.00 1111.00 637.00 C 1111.00 622.33 1111.00 607.67 1111.00 593.01 C 1095.67 592.99 1080.34 593.00 1065.01 593.00 M 468.01 639.88 C 467.99 656.25 468.00 672.62 468.01 689.00 C 483.67 689.00 499.33 689.00 514.99 689.00 C 515.00 672.62 515.00 656.25 514.99 639.88 C 499.33 639.87 483.67 639.87 468.01 639.88 M 519.01 639.88 C 518.99 656.25 519.00 672.62 519.01 689.00 C 534.34 689.00 549.67 689.00 565.00 688.99 C 565.00 672.62 565.01 656.25 564.99 639.88 C 549.66 639.87 534.33 639.87 519.01 639.88 M 1014.01 639.88 C 1013.99 656.25 1014.00 672.62 1014.00 688.99 C 1029.67 689.00 1045.33 689.00 1061.00 688.99 C 1061.00 672.62 1061.00 656.25 1060.99 639.88 C 1045.33 639.87 1029.67 639.87 1014.01 639.88 M 1065.01 639.88 C 1064.99 656.25 1065.00 672.62 1065.00 688.99 C 1080.33 689.01 1095.66 689.00 1110.99 689.00 C 1111.00 672.62 1111.00 656.25 1110.99 639.88 C 1095.66 639.87 1080.33 639.87 1065.01 639.88 M 465.00 692.88 C 465.00 693.44 465.01 694.56 465.01 695.12 C 498.67 695.13 532.33 695.12 566.00 695.13 C 566.00 694.56 565.99 693.44 565.99 692.88 C 532.33 692.88 498.67 692.87 465.00 692.88 M 1011.00 692.88 C 1011.00 693.44 1011.01 694.56 1011.01 695.12 C 1044.34 695.13 1077.66 695.13 1110.99 695.12 C 1110.99 694.56 1111.00 693.44 1111.00 692.88 C 1077.67 692.87 1044.33 692.87 1011.00 692.88 M 465.01 700.88 C 465.00 704.25 465.00 707.62 465.01 711.00 C 498.67 711.00 532.33 711.00 565.99 711.00 C 566.00 707.66 566.00 704.33 565.99 701.00 C 532.33 700.93 498.67 701.14 465.01 700.88 M 1011.01 700.88 C 1011.00 704.25 1010.99 707.62 1011.00 711.00 C 1044.33 711.00 1077.67 711.00 1111.00 710.99 C 1110.99 707.66 1110.99 704.33 1111.00 701.00 C 1077.67 700.93 1044.33 701.14 1011.01 700.88 M 465.13 714.85 C 465.09 715.44 465.01 716.63 464.97 717.22 C 498.65 716.87 532.34 717.04 566.02 716.99 C 565.95 716.41 565.80 715.24 565.73 714.66 C 532.20 714.96 498.65 714.58 465.13 714.85 M 1011.28 714.65 C 1011.20 715.29 1011.05 716.57 1010.97 717.21 C 1044.33 716.88 1077.70 717.04 1111.06 716.98 C 1111.00 716.46 1110.87 715.40 1110.81 714.87 C 1077.65 714.54 1044.45 714.99 1011.28 714.65 M 465.00 720.01 C 465.00 762.34 464.99 804.67 465.01 847.00 C 481.70 846.82 498.41 847.37 515.09 846.70 C 532.04 847.31 549.03 846.87 566.00 846.99 C 566.00 804.66 566.01 762.33 565.99 720.00 C 532.33 720.00 498.67 719.99 465.00 720.01 M 1011.00 720.00 C 1011.00 762.33 1011.00 804.66 1011.00 847.00 C 1044.36 846.96 1077.65 846.94 1111.00 846.99 C 1111.00 804.66 1111.01 762.33 1110.99 720.00 C 1077.66 720.00 1044.33 720.00 1011.00 720.00 M 731.01 848.00 C 731.00 860.04 730.99 872.08 731.01 884.12 C 771.34 884.13 811.66 884.13 851.99 884.12 C 852.01 872.08 852.00 860.04 852.00 848.01 C 811.67 847.99 771.34 848.00 731.01 848.00 M 467.01 850.00 C 467.00 866.04 466.99 882.08 467.01 898.12 C 482.67 898.13 498.33 898.13 513.99 898.12 C 514.00 882.08 514.00 866.04 513.99 850.00 C 498.33 850.00 482.67 850.00 467.01 850.00 M 518.00 850.01 C 518.00 866.04 517.99 882.08 518.01 898.12 C 533.34 898.13 548.66 898.13 563.99 898.12 C 564.01 882.08 564.00 866.04 563.99 850.00 C 548.66 850.00 533.33 849.99 518.00 850.01 M 1014.01 850.00 C 1013.99 866.04 1013.99 882.08 1014.01 898.12 C 1029.67 898.13 1045.33 898.13 1060.99 898.12 C 1061.00 882.08 1061.00 866.04 1061.00 850.00 C 1045.33 849.99 1029.67 850.00 1014.01 850.00 M 1065.01 850.00 C 1065.00 866.04 1064.99 882.08 1065.01 898.12 C 1080.33 898.13 1095.66 898.13 1110.99 898.12 C 1111.01 882.08 1111.00 866.04 1111.00 850.01 C 1095.66 849.99 1080.33 850.00 1065.01 850.00 M 731.17 887.36 C 730.78 943.90 731.11 1000.45 731.01 1057.00 C 742.38 1057.00 753.75 1057.00 765.13 1056.99 C 765.13 1038.33 765.14 1019.67 765.13 1001.01 C 754.08 1000.99 743.04 1001.00 732.00 1001.00 C 732.00 963.33 732.00 925.65 732.00 887.98 C 743.05 887.59 754.13 888.18 765.18 887.79 C 765.08 896.52 765.03 905.25 765.14 913.98 C 765.17 915.35 765.03 916.85 765.72 918.13 C 766.05 907.78 765.86 897.41 765.93 887.05 C 754.35 887.34 742.74 886.78 731.17 887.36 M 768.00 887.00 C 768.00 943.67 768.00 1000.33 768.00 1057.00 L 769.00 1057.00 C 769.00 1038.67 769.00 1020.33 769.00 1002.00 C 796.33 1002.00 823.67 1002.00 851.00 1002.00 C 851.00 1020.33 851.00 1038.66 851.00 1056.99 L 852.00 1057.00 C 852.00 1000.33 852.00 943.67 852.00 887.00 C 824.00 887.00 796.00 887.00 768.00 887.00 M 734.88 890.92 C 734.87 926.65 734.84 962.37 734.90 998.09 C 743.95 998.16 753.02 998.12 762.08 998.12 C 762.19 962.38 762.12 926.65 762.11 890.92 C 753.03 890.85 743.96 890.84 734.88 890.92 M 466.87 901.01 C 466.86 915.67 466.86 930.33 466.88 944.99 C 482.58 945.00 498.29 945.00 514.00 944.99 C 514.00 930.33 514.00 915.67 514.00 901.01 C 498.29 901.00 482.58 900.99 466.87 901.01 M 518.00 901.00 C 518.00 915.67 518.00 930.33 518.01 945.00 C 533.38 945.00 548.75 945.00 564.13 944.99 C 564.13 930.33 564.14 915.67 564.12 901.01 C 548.75 900.99 533.38 901.00 518.00 901.00 M 1013.87 901.01 C 1013.86 915.67 1013.87 930.33 1013.87 944.99 C 1029.58 945.01 1045.29 945.00 1061.00 945.00 C 1061.00 930.33 1061.00 915.67 1061.00 901.00 C 1045.29 901.00 1029.58 900.99 1013.87 901.01 M 1065.00 901.00 C 1064.99 915.67 1065.00 930.33 1065.00 944.99 C 1080.33 945.00 1095.66 945.00 1111.00 945.00 C 1111.00 930.33 1111.00 915.67 1111.00 901.01 C 1095.66 901.00 1080.33 901.00 1065.00 901.00 M 467.01 947.89 C 466.99 964.25 467.00 980.62 467.00 996.99 C 482.67 997.00 498.33 997.00 513.99 997.00 C 514.00 980.62 514.00 964.25 513.99 947.88 C 498.33 947.87 482.67 947.86 467.01 947.89 M 518.01 947.88 C 517.99 964.25 518.00 980.62 518.01 997.00 C 533.34 997.00 548.67 997.00 564.00 996.99 C 564.00 980.62 564.01 964.25 563.99 947.88 C 548.66 947.87 533.34 947.87 518.01 947.88 M 1014.01 947.88 C 1013.99 964.25 1014.00 980.62 1014.00 996.99 C 1029.67 997.00 1045.33 997.00 1060.99 997.00 C 1061.00 980.62 1061.01 964.25 1060.99 947.88 C 1045.33 947.87 1029.67 947.87 1014.01 947.88 M 1065.01 947.88 C 1064.99 964.25 1065.00 980.62 1065.01 997.00 C 1080.34 996.87 1095.67 997.22 1111.00 996.97 C 1111.00 980.60 1111.01 964.24 1110.99 947.88 C 1095.66 947.87 1080.34 947.87 1065.01 947.88 M 465.01 1000.88 C 465.01 1001.44 465.00 1002.56 465.00 1003.12 C 498.66 1003.13 532.33 1003.13 565.99 1003.12 C 565.99 1002.56 566.00 1001.44 566.00 1000.89 C 532.34 1000.86 498.67 1000.87 465.01 1000.88 M 1011.00 1000.88 C 1011.00 1001.44 1011.01 1002.56 1011.01 1003.12 C 1044.34 1003.13 1077.66 1003.13 1110.99 1003.12 C 1110.99 1002.56 1111.00 1001.44 1111.00 1000.88 C 1077.66 1000.87 1044.33 1000.87 1011.00 1000.88 M 771.91 1004.90 C 771.82 1021.29 771.88 1037.68 771.88 1054.08 C 797.29 1054.17 822.69 1054.13 848.10 1054.10 C 848.14 1037.69 848.17 1021.29 848.09 1004.89 C 822.69 1004.86 797.30 1004.86 771.91 1004.90 M 465.01 1008.93 C 465.00 1012.28 465.00 1015.64 465.01 1019.00 C 498.67 1019.00 532.33 1019.00 565.99 1019.00 C 565.99 1015.66 565.99 1012.33 565.99 1009.00 C 532.33 1008.96 498.67 1009.07 465.01 1008.93 M 1011.01 1008.88 C 1011.00 1012.25 1011.00 1015.62 1011.01 1019.00 C 1044.34 1019.00 1077.67 1019.00 1111.00 1019.00 C 1110.99 1015.66 1110.99 1012.33 1111.00 1009.01 C 1077.67 1008.93 1044.33 1009.14 1011.01 1008.88 M 465.24 1022.66 C 465.18 1023.30 465.05 1024.59 464.98 1025.23 C 498.66 1024.85 532.34 1025.05 566.02 1024.99 C 565.95 1024.41 565.83 1023.25 565.77 1022.67 C 532.26 1022.82 498.75 1022.84 465.24 1022.66 M 1011.24 1022.67 C 1011.17 1023.31 1011.05 1024.58 1010.99 1025.22 C 1044.33 1024.88 1077.68 1025.04 1111.02 1024.99 C 1110.95 1024.41 1110.80 1023.24 1110.73 1022.66 C 1077.57 1022.84 1044.40 1022.82 1011.24 1022.67 M 464.91 1028.02 C 464.80 1031.04 469.06 1030.45 470.32 1032.71 C 471.97 1034.52 470.71 1036.82 469.08 1038.11 C 469.12 1039.40 469.11 1040.70 469.06 1042.02 C 471.10 1043.51 473.21 1045.27 475.93 1045.03 C 478.08 1046.72 480.44 1049.06 480.07 1052.06 C 480.33 1054.80 478.02 1056.77 476.76 1058.97 C 503.06 1059.21 529.37 1058.08 555.65 1058.69 C 551.41 1055.67 552.21 1048.03 557.00 1046.35 C 561.88 1047.31 565.24 1039.54 561.00 1036.74 C 561.06 1035.38 560.64 1033.85 561.64 1032.75 C 562.81 1030.80 566.33 1030.80 566.11 1028.02 C 532.38 1027.98 498.64 1027.99 464.91 1028.02 M 1011.00 1028.01 C 1011.00 1028.67 1011.01 1029.99 1011.02 1030.66 C 1013.20 1031.71 1016.10 1032.37 1017.01 1034.94 C 1017.83 1037.41 1014.47 1038.54 1014.99 1040.96 C 1014.73 1044.39 1019.08 1046.00 1021.93 1046.02 C 1026.10 1048.47 1027.64 1054.33 1024.14 1058.01 C 1048.99 1057.98 1073.84 1058.31 1098.69 1058.47 C 1097.59 1054.69 1097.44 1049.97 1101.19 1047.38 C 1106.43 1048.84 1110.51 1040.87 1105.98 1037.70 C 1105.05 1034.20 1108.04 1032.00 1110.87 1030.84 C 1110.90 1030.13 1110.97 1028.71 1111.00 1028.00 C 1077.67 1028.00 1044.33 1028.00 1011.00 1028.01 M 374.22 1031.27 C 372.73 1032.08 369.35 1032.59 370.15 1034.92 C 372.01 1036.58 374.31 1038.21 376.94 1037.99 C 401.62 1038.03 426.31 1038.00 450.99 1038.01 C 456.74 1038.16 462.87 1038.40 467.93 1035.17 L 468.00 1034.43 C 464.88 1032.78 461.57 1030.95 457.95 1030.98 C 437.98 1031.00 418.01 1030.99 398.04 1030.99 C 390.11 1031.18 382.11 1030.61 374.22 1031.27 M 568.17 1032.28 C 566.67 1033.13 563.40 1033.56 564.11 1035.90 C 565.99 1037.54 568.27 1039.21 570.91 1038.99 C 595.59 1039.03 620.27 1039.00 644.94 1039.01 C 650.75 1039.16 656.93 1039.40 662.03 1036.11 L 661.91 1035.41 C 658.85 1033.74 655.56 1031.96 651.99 1031.98 C 629.66 1032.00 607.32 1031.99 584.99 1031.99 C 579.39 1032.18 573.72 1031.59 568.17 1032.28 M 915.98 1035.18 C 917.04 1037.59 920.29 1039.04 922.91 1038.99 C 950.28 1039.02 977.65 1039.02 1005.02 1039.00 C 1008.18 1038.51 1012.05 1037.99 1014.25 1035.46 C 1010.95 1033.98 1007.67 1031.88 1003.94 1031.98 C 976.61 1032.02 949.28 1031.95 921.96 1032.02 C 919.81 1032.24 916.78 1033.12 915.98 1035.18 M 1109.10 1035.41 C 1108.65 1038.01 1112.13 1038.99 1114.03 1039.87 C 1142.02 1040.17 1170.03 1039.94 1198.03 1040.00 C 1201.19 1039.51 1205.05 1038.99 1207.24 1036.46 C 1203.96 1034.99 1200.71 1032.91 1197.01 1032.98 C 1169.99 1032.99 1142.98 1033.00 1115.96 1032.98 C 1113.41 1032.75 1111.11 1034.02 1109.10 1035.41 M 371.97 1041.00 C 371.32 1042.33 370.68 1043.65 370.04 1045.00 C 380.39 1044.84 390.70 1046.13 401.06 1046.00 C 415.03 1045.90 429.01 1046.21 442.98 1046.00 C 451.33 1045.90 460.10 1046.45 468.15 1044.95 C 467.09 1043.77 466.47 1042.37 465.79 1040.99 C 443.66 1043.38 421.30 1043.55 399.09 1042.06 C 390.02 1042.37 381.02 1040.90 371.97 1041.00 M 565.95 1042.02 C 565.39 1043.37 564.60 1044.62 564.02 1045.99 C 570.02 1045.85 576.01 1046.36 582.00 1046.62 C 592.00 1047.24 602.02 1046.92 612.03 1047.00 C 626.02 1047.15 640.02 1047.04 654.01 1046.89 C 656.66 1046.35 659.61 1047.08 662.04 1045.67 C 660.96 1044.65 660.45 1043.30 659.83 1042.04 C 637.65 1044.31 615.27 1044.58 593.01 1043.06 C 583.96 1043.37 574.99 1041.88 565.95 1042.02 M 917.94 1042.01 C 917.31 1043.33 916.66 1044.65 916.06 1046.00 C 926.37 1045.84 936.65 1047.13 946.97 1047.00 C 958.99 1046.88 971.00 1047.19 983.02 1047.03 C 993.33 1046.67 1003.77 1047.81 1013.98 1045.92 C 1013.11 1044.67 1012.45 1043.39 1011.85 1042.05 C 996.30 1043.53 980.66 1044.32 965.03 1043.95 C 956.61 1043.91 948.23 1042.91 939.81 1043.01 C 932.50 1043.10 925.25 1041.73 917.94 1042.01 M 1110.97 1043.02 C 1110.35 1044.30 1109.62 1045.53 1108.99 1046.82 C 1113.33 1047.10 1117.68 1047.00 1122.03 1047.38 C 1138.33 1048.46 1154.67 1047.75 1170.99 1048.12 C 1182.96 1047.57 1195.03 1048.84 1206.93 1047.03 C 1206.15 1045.68 1205.43 1044.36 1204.79 1042.98 C 1182.66 1045.39 1160.29 1045.54 1138.07 1044.06 C 1129.01 1044.37 1120.02 1042.89 1110.97 1043.02 M 363.29 1048.00 C 361.48 1050.27 361.53 1053.50 363.29 1055.79 C 372.44 1057.48 381.64 1059.20 390.97 1059.06 C 402.91 1060.56 414.96 1059.82 426.96 1060.00 C 432.30 1060.20 437.54 1058.77 442.88 1058.98 C 453.63 1058.07 464.36 1056.76 475.11 1055.67 C 477.99 1054.07 477.41 1049.93 475.19 1047.98 C 470.41 1047.57 465.79 1049.19 461.03 1049.02 C 455.97 1048.87 450.99 1050.01 445.93 1050.01 C 434.61 1049.88 423.30 1050.90 411.98 1050.53 C 404.30 1050.54 396.64 1049.82 388.97 1050.01 C 383.95 1050.10 379.02 1048.98 374.02 1049.03 C 370.41 1049.08 366.86 1048.40 363.29 1048.00 M 557.32 1048.99 C 555.48 1051.25 555.49 1054.54 557.33 1056.81 C 564.16 1058.21 571.07 1059.06 577.97 1059.97 C 583.00 1059.82 587.99 1060.30 592.98 1060.80 C 602.65 1061.21 612.33 1060.90 622.01 1061.00 C 637.73 1060.06 653.40 1058.40 669.07 1056.69 C 671.98 1055.11 671.41 1050.96 669.21 1048.99 C 663.73 1048.64 658.42 1050.45 652.94 1050.04 C 646.28 1050.53 639.63 1051.32 632.94 1051.01 C 617.98 1051.81 602.98 1051.67 588.02 1051.00 C 580.62 1051.46 573.32 1049.93 565.93 1049.99 C 563.04 1049.83 560.19 1049.34 557.32 1048.99 M 909.29 1049.00 C 907.49 1051.27 907.52 1054.51 909.31 1056.79 C 918.46 1058.49 927.67 1060.20 937.00 1060.06 C 949.28 1061.59 961.68 1060.81 974.02 1061.00 C 989.75 1060.03 1005.42 1058.43 1021.09 1056.68 C 1023.99 1055.11 1023.38 1050.98 1021.24 1049.00 C 1016.08 1048.57 1011.10 1050.37 1005.95 1050.02 C 999.63 1050.19 993.35 1051.40 987.01 1051.00 C 973.70 1051.44 960.38 1051.92 947.07 1051.24 C 939.68 1050.73 932.25 1051.42 924.90 1050.27 C 919.68 1049.99 914.46 1049.88 909.29 1049.00 M 1102.33 1049.98 C 1100.46 1052.23 1100.54 1055.47 1102.26 1057.79 C 1109.10 1059.16 1116.00 1060.07 1122.91 1060.97 C 1126.26 1061.03 1129.62 1060.85 1132.96 1061.33 C 1139.94 1062.23 1146.99 1061.95 1154.02 1062.00 C 1174.14 1062.45 1194.10 1059.71 1214.08 1057.66 C 1216.99 1056.14 1216.41 1051.90 1214.18 1049.99 C 1209.39 1049.58 1204.77 1051.19 1200.01 1051.02 C 1194.65 1050.88 1189.37 1052.13 1184.02 1052.02 C 1176.97 1051.83 1169.95 1052.48 1162.92 1052.49 C 1150.24 1052.93 1137.58 1051.89 1124.92 1051.93 C 1117.41 1050.93 1109.80 1051.30 1102.33 1049.98 M 365.46 1060.13 C 362.87 1065.96 364.00 1072.62 364.51 1078.78 C 376.15 1081.43 388.17 1081.74 400.02 1082.94 C 416.67 1082.99 433.39 1083.76 449.97 1082.03 C 457.98 1081.84 465.86 1080.18 473.84 1079.68 C 474.09 1074.07 474.38 1068.44 473.93 1062.84 C 473.43 1061.80 472.72 1060.90 472.12 1059.95 C 459.18 1062.01 446.06 1061.84 433.04 1062.99 C 420.67 1063.00 408.31 1063.02 395.94 1062.99 C 391.25 1062.51 386.59 1061.81 381.86 1061.95 C 376.46 1060.75 370.89 1061.16 365.46 1060.13 M 477.01 1061.98 C 476.97 1068.58 477.05 1075.19 476.97 1081.80 C 466.35 1083.61 455.60 1084.77 444.84 1085.21 C 431.63 1086.70 418.31 1085.71 405.04 1086.01 C 390.83 1085.11 376.49 1084.21 362.51 1081.57 C 360.26 1075.65 361.18 1069.08 360.99 1062.85 C 337.95 1063.25 314.89 1062.65 291.86 1063.53 C 289.88 1063.78 288.05 1064.66 286.21 1065.40 C 264.98 1074.17 243.72 1082.87 222.49 1091.65 C 219.02 1093.29 215.04 1094.08 212.11 1096.72 C 229.40 1097.35 246.72 1096.83 264.01 1097.00 C 512.88 1096.98 761.74 1097.05 1010.60 1096.96 C 1011.29 1095.92 1012.38 1095.59 1013.86 1095.97 C 1013.74 1104.98 1014.08 1113.98 1013.86 1122.99 C 1014.07 1125.48 1013.14 1128.36 1014.78 1130.54 C 1013.96 1135.02 1013.61 1139.52 1013.90 1144.09 C 1057.96 1144.17 1102.02 1144.11 1146.08 1144.11 C 1145.89 1128.06 1146.47 1111.99 1145.93 1095.94 C 1147.46 1095.57 1148.62 1095.91 1149.41 1096.96 C 1202.30 1097.03 1255.18 1097.01 1308.07 1096.98 C 1316.97 1096.56 1325.92 1095.38 1334.83 1096.49 C 1308.31 1084.98 1281.67 1073.71 1255.14 1062.23 C 1242.11 1061.74 1229.05 1062.11 1216.00 1062.01 C 1215.97 1069.26 1216.04 1076.53 1215.98 1083.79 C 1202.09 1086.35 1187.98 1086.95 1173.92 1088.00 C 1163.26 1087.98 1152.59 1088.05 1141.93 1087.96 C 1128.39 1086.87 1114.75 1086.12 1101.41 1083.58 C 1099.24 1076.46 1099.95 1068.84 1100.27 1061.52 C 1074.54 1060.77 1048.76 1061.08 1023.01 1061.00 C 1022.97 1068.26 1023.04 1075.53 1022.98 1082.80 C 1009.09 1085.32 994.99 1085.97 980.94 1087.00 C 974.94 1087.03 968.95 1086.98 962.96 1087.00 C 944.87 1087.33 926.84 1085.43 908.96 1082.82 C 907.57 1082.23 908.00 1080.30 907.57 1079.14 C 906.52 1073.16 907.05 1067.04 907.13 1061.00 C 828.42 1060.93 749.71 1061.04 671.01 1061.00 C 670.98 1068.26 671.04 1075.53 670.98 1082.79 C 660.38 1084.61 649.66 1085.76 638.93 1086.20 C 625.66 1087.70 612.28 1086.71 598.95 1087.01 C 584.76 1086.09 570.42 1085.22 556.48 1082.55 C 554.18 1075.79 555.04 1068.37 555.18 1061.32 C 529.13 1061.28 503.06 1061.72 477.01 1061.98 M 558.10 1061.00 C 558.01 1067.25 557.58 1073.55 558.50 1079.77 C 580.02 1083.98 602.11 1084.46 624.00 1084.00 C 638.69 1084.24 653.24 1082.07 667.81 1080.71 C 668.31 1074.14 668.10 1067.55 667.97 1060.97 C 660.39 1061.69 652.81 1062.44 645.22 1063.01 C 637.79 1062.74 630.44 1064.21 623.01 1064.01 C 615.65 1063.98 608.30 1064.00 600.94 1064.00 C 595.15 1063.94 589.31 1064.34 583.59 1063.26 C 575.05 1062.89 566.60 1061.88 558.10 1061.00 M 910.05 1060.95 C 910.06 1067.22 909.54 1073.55 910.51 1079.79 C 921.82 1082.37 933.50 1082.67 945.01 1083.88 C 958.00 1084.22 971.00 1084.12 983.99 1083.99 C 995.98 1083.31 1007.89 1081.91 1019.83 1080.69 C 1020.30 1074.12 1020.11 1067.53 1019.97 1060.96 C 1010.12 1061.84 1000.30 1063.13 990.40 1063.14 C 975.63 1064.69 960.77 1063.73 945.96 1064.02 C 940.24 1064.35 934.66 1062.67 928.95 1063.00 C 922.69 1061.96 916.32 1061.97 910.05 1060.95 M 1103.05 1061.95 C 1103.07 1068.23 1102.52 1074.57 1103.53 1080.81 C 1110.53 1082.60 1117.81 1082.78 1124.94 1083.87 C 1131.00 1083.87 1136.97 1085.15 1143.04 1085.00 C 1158.07 1084.99 1173.16 1085.70 1188.13 1084.07 C 1196.42 1083.92 1204.58 1082.21 1212.85 1081.68 C 1213.28 1075.11 1213.12 1068.53 1212.97 1061.96 C 1202.95 1062.88 1192.94 1064.13 1182.86 1064.18 C 1171.30 1065.50 1159.66 1064.85 1148.05 1065.00 C 1141.53 1064.88 1134.97 1065.45 1128.52 1064.25 C 1119.99 1063.86 1111.54 1062.93 1103.05 1061.95 M 202.35 1098.09 C 202.52 1101.21 205.52 1096.66 202.35 1098.09 M 208.02 1099.96 C 208.00 1103.30 208.00 1106.65 208.01 1110.00 C 475.67 1110.01 743.33 1110.01 1010.99 1110.01 C 1010.99 1106.66 1010.99 1103.33 1010.99 1100.00 C 748.67 1099.99 486.35 1099.97 224.03 1100.01 C 218.70 1100.61 213.36 1100.13 208.02 1099.96 M 1149.01 1099.91 C 1148.99 1103.27 1148.99 1106.63 1149.01 1110.01 C 1213.05 1110.01 1277.09 1110.02 1341.13 1110.00 C 1341.17 1106.65 1341.09 1103.32 1340.93 1099.99 C 1276.96 1099.97 1212.98 1100.07 1149.01 1099.91 M 1344.00 1102.00 C 1343.99 1105.32 1343.99 1108.66 1344.00 1112.00 C 1353.64 1111.84 1363.31 1112.34 1372.93 1111.69 C 1367.63 1110.00 1362.58 1107.66 1357.42 1105.65 C 1353.04 1104.05 1348.86 1101.29 1344.00 1102.00 M 175.26 1111.61 C 184.80 1112.44 194.42 1111.79 203.99 1112.00 C 204.00 1108.99 204.00 1105.99 204.00 1103.00 C 201.62 1103.09 199.20 1102.73 196.87 1103.31 C 189.63 1105.96 182.70 1109.53 175.26 1111.61 M 209.60 1113.00 C 209.93 1114.38 209.46 1115.03 208.19 1114.96 C 195.46 1115.04 182.73 1114.96 170.01 1114.99 C 170.00 1120.03 170.00 1125.07 170.01 1130.12 C 450.34 1130.14 730.66 1130.10 1010.99 1130.14 C 1011.00 1124.43 1011.00 1118.71 1011.00 1113.01 C 743.86 1112.99 476.73 1113.02 209.60 1113.00 M 1149.01 1113.00 C 1148.99 1118.21 1149.00 1123.41 1149.01 1128.62 C 1149.73 1129.62 1150.71 1130.12 1151.95 1130.13 C 1228.00 1130.10 1304.06 1130.17 1380.12 1130.09 C 1380.95 1126.28 1378.17 1122.51 1379.97 1118.90 C 1378.81 1117.62 1377.82 1116.19 1376.60 1115.01 C 1365.72 1114.95 1354.83 1115.02 1343.95 1114.99 C 1342.51 1115.35 1342.01 1113.73 1341.12 1113.03 C 1277.08 1112.96 1213.04 1113.02 1149.01 1113.00 Z" />
<path fill="#606668" opacity="1.00" d=" M 602.21 134.11 C 664.14 96.07 725.93 57.78 787.95 19.90 C 814.36 35.72 840.45 52.15 866.73 68.21 C 984.15 140.49 1101.57 212.77 1218.98 285.05 C 1221.02 286.22 1223.01 287.47 1224.87 288.94 C 1082.55 289.08 940.23 288.96 797.91 289.00 C 648.97 288.96 500.03 289.08 351.10 288.94 C 361.95 281.68 373.31 275.18 384.35 268.22 C 456.97 223.52 529.59 178.81 602.21 134.11 M 360.45 286.43 C 360.31 287.30 363.10 285.82 363.98 286.13 C 643.31 286.11 922.64 286.13 1201.97 286.12 C 1206.55 286.26 1211.18 285.72 1215.73 286.62 C 1182.38 265.83 1148.80 245.38 1115.37 224.73 C 1006.25 157.53 897.09 90.40 787.99 23.17 C 645.52 110.99 502.92 198.62 360.45 286.43 Z" />
<path fill="#606668" opacity="1.00" d=" M 746.57 66.37 C 760.67 57.89 774.53 49.01 788.77 40.79 C 916.09 118.91 1043.66 196.65 1171.07 274.64 C 1176.00 277.77 1181.18 280.52 1185.93 283.94 C 1018.65 284.08 851.37 283.96 684.10 284.00 C 586.43 283.96 488.77 284.09 391.11 283.94 C 404.67 275.06 418.75 266.96 432.51 258.37 C 537.20 194.38 641.89 130.37 746.57 66.37 M 788.42 44.15 C 682.96 108.86 577.29 173.25 471.76 237.84 C 447.97 252.50 423.89 266.86 400.29 281.70 C 404.46 280.68 408.75 281.27 412.99 281.13 C 663.34 281.13 913.69 281.12 1164.04 281.13 C 1168.26 281.27 1172.54 280.67 1176.71 281.70 C 1158.86 270.38 1140.54 259.54 1122.52 248.40 C 1011.15 180.31 899.78 112.24 788.42 44.15 Z" />
<path fill="#606668" opacity="1.00" d=" M 788.24 58.78 C 817.50 76.65 846.37 95.18 875.48 113.31 C 955.98 163.81 1036.48 214.32 1116.98 264.82 C 1123.24 268.92 1129.82 272.55 1135.89 276.95 C 957.27 277.07 778.65 276.96 600.02 277.00 C 547.05 276.96 494.08 277.08 441.12 276.95 C 450.80 270.27 461.01 264.36 470.91 257.99 C 576.66 191.56 682.57 125.35 788.24 58.78 M 696.55 119.67 C 631.22 160.66 565.90 201.67 500.55 242.64 C 483.82 253.37 466.71 263.50 450.18 274.53 C 675.73 274.63 901.28 274.55 1126.83 274.57 C 1122.10 271.01 1116.91 268.12 1111.95 264.91 C 1067.12 236.83 1022.34 208.68 977.52 180.59 C 914.64 141.01 851.54 101.76 788.77 62.00 C 757.88 80.96 727.32 100.49 696.55 119.67 Z" />
<path fill="#606668" opacity="1.00" d=" M 738.00 539.00 C 752.34 538.99 766.68 539.00 781.02 539.00 C 785.70 539.16 790.37 538.27 795.04 538.96 C 810.36 539.04 825.68 538.97 841.00 539.00 C 841.00 589.34 841.00 639.67 841.01 690.00 C 844.33 689.99 847.66 690.00 851.00 690.00 C 850.99 692.67 850.99 695.35 851.01 698.04 C 846.08 698.56 841.13 697.96 836.21 698.43 C 840.41 699.14 844.75 698.65 849.00 698.60 C 849.08 704.39 849.21 710.21 847.91 715.90 C 846.02 718.32 843.19 720.24 840.00 720.02 C 805.32 719.99 770.64 719.98 735.97 720.03 C 732.62 720.27 729.62 717.44 728.70 714.38 C 727.69 713.95 727.19 713.22 727.20 712.16 C 726.74 707.46 727.11 702.73 727.00 698.02 C 726.50 698.02 725.50 698.00 725.00 698.00 C 724.99 695.32 724.99 692.65 725.00 689.99 C 729.33 689.99 733.66 689.99 738.00 690.00 C 738.00 639.66 737.99 589.33 738.00 539.00 M 741.00 542.01 C 741.00 558.04 740.99 574.08 741.01 590.12 C 756.67 590.13 772.33 590.13 787.99 590.12 C 788.00 574.08 788.00 558.04 787.99 542.00 C 772.33 542.00 756.67 541.99 741.00 542.01 M 792.01 542.00 C 792.00 558.04 791.99 574.08 792.01 590.12 C 807.33 590.13 822.66 590.13 837.99 590.12 C 838.01 574.08 838.00 558.04 837.99 542.00 C 822.66 542.00 807.33 542.00 792.01 542.00 M 740.87 593.01 C 740.86 607.67 740.86 622.33 740.87 636.99 C 756.58 637.01 772.29 637.00 788.00 636.99 C 788.00 622.33 788.00 607.67 788.00 593.00 C 772.29 593.00 756.58 592.99 740.87 593.01 M 792.00 593.01 C 792.00 607.67 792.00 622.33 792.00 637.00 C 807.38 637.00 822.75 637.01 838.13 636.99 C 838.13 622.33 838.13 607.67 838.13 593.01 C 822.75 592.99 807.38 593.00 792.00 593.01 M 741.01 639.88 C 740.99 656.25 741.00 672.62 741.00 688.99 C 756.67 689.00 772.33 689.00 788.00 689.00 C 788.00 672.62 788.00 656.25 787.99 639.88 C 772.33 639.86 756.67 639.87 741.01 639.88 M 792.01 639.88 C 791.99 656.25 792.00 672.62 792.01 689.00 C 807.34 689.00 822.67 689.00 838.00 688.99 C 838.00 672.62 838.01 656.25 837.99 639.88 C 822.66 639.87 807.33 639.87 792.01 639.88 M 727.97 692.98 C 727.94 693.51 727.88 694.58 727.85 695.12 C 767.95 695.06 808.07 695.28 848.16 695.01 C 848.15 694.50 848.12 693.48 848.10 692.97 C 808.06 692.82 768.01 692.79 727.97 692.98 M 729.89 700.89 C 729.89 704.29 730.00 707.69 730.03 711.09 C 768.68 710.87 807.33 711.07 845.99 710.99 C 845.96 707.66 846.04 704.33 846.15 701.01 C 807.40 700.95 768.64 701.10 729.89 700.89 M 732.05 714.71 C 733.19 717.37 736.54 717.28 738.98 717.27 C 772.65 716.79 806.31 717.09 839.98 716.98 C 841.80 716.99 843.97 716.44 844.92 714.72 C 807.30 714.79 769.68 714.81 732.05 714.71 Z" />
<path fill="#606668" opacity="1.00" d=" M 1239.00 539.00 C 1254.64 538.97 1270.29 539.05 1285.94 538.96 C 1290.96 538.20 1295.97 539.24 1301.02 539.00 C 1314.68 538.99 1328.34 539.00 1342.00 539.00 C 1342.01 589.33 1342.00 639.66 1342.00 689.99 C 1345.33 689.99 1348.66 689.99 1352.00 690.00 C 1351.99 692.66 1351.99 695.32 1352.01 698.00 C 1347.11 698.60 1342.15 697.85 1337.28 698.53 C 1341.67 698.96 1346.10 698.62 1350.52 698.79 C 1349.37 704.51 1350.77 710.62 1348.58 716.19 C 1346.91 718.62 1343.95 720.13 1341.01 720.02 C 1305.99 719.98 1270.97 720.01 1235.95 720.01 C 1233.03 719.65 1230.52 717.16 1229.70 714.39 C 1228.69 713.96 1228.19 713.22 1228.20 712.16 C 1227.74 707.46 1228.11 702.73 1228.00 698.02 C 1227.50 698.01 1226.50 698.00 1226.00 697.99 C 1225.99 695.32 1225.99 692.66 1226.00 690.00 C 1230.32 689.99 1234.66 690.00 1239.00 689.99 C 1239.00 639.66 1239.00 589.33 1239.00 539.00 M 1242.01 542.00 C 1242.00 558.04 1241.99 574.08 1242.01 590.12 C 1257.67 590.13 1273.33 590.13 1288.99 590.12 C 1289.00 574.08 1289.00 558.04 1289.00 542.00 C 1273.33 542.00 1257.67 542.00 1242.01 542.00 M 1293.00 542.01 C 1293.00 558.04 1292.99 574.08 1293.01 590.12 C 1308.33 590.13 1323.66 590.13 1338.99 590.12 C 1339.00 574.08 1339.00 558.04 1338.99 542.00 C 1323.66 542.00 1308.33 541.99 1293.00 542.01 M 1241.88 593.01 C 1241.86 607.67 1241.87 622.33 1241.87 636.99 C 1257.58 637.01 1273.29 637.00 1289.00 636.99 C 1289.00 622.33 1289.00 607.67 1289.00 593.01 C 1273.29 593.00 1257.58 593.00 1241.88 593.01 M 1293.00 593.00 C 1293.00 607.67 1293.00 622.33 1293.01 637.00 C 1308.38 637.00 1323.75 637.01 1339.13 636.99 C 1339.13 622.33 1339.14 607.67 1339.13 593.01 C 1323.75 592.99 1308.38 593.00 1293.00 593.00 M 1242.01 639.88 C 1241.99 656.25 1242.00 672.62 1242.00 688.99 C 1257.66 689.01 1273.33 689.00 1288.99 689.00 C 1289.00 672.62 1289.00 656.25 1288.99 639.88 C 1273.33 639.87 1257.67 639.87 1242.01 639.88 M 1293.01 639.89 C 1292.99 656.25 1293.00 672.62 1293.00 688.99 C 1308.33 689.00 1323.66 689.00 1339.00 688.99 C 1339.00 672.62 1339.01 656.25 1338.99 639.88 C 1323.66 639.88 1308.33 639.86 1293.01 639.89 M 1229.02 692.94 C 1228.97 693.48 1228.86 694.57 1228.81 695.12 C 1268.91 695.06 1309.02 695.27 1349.11 695.01 C 1349.08 694.50 1349.03 693.46 1349.01 692.95 C 1309.01 692.82 1269.01 692.84 1229.02 692.94 M 1230.86 700.92 C 1230.89 704.31 1231.01 707.70 1231.02 711.10 C 1269.67 710.87 1308.33 711.07 1346.98 710.99 C 1346.96 707.66 1347.03 704.33 1347.15 701.01 C 1308.39 700.97 1269.62 701.06 1230.86 700.92 M 1233.05 714.70 C 1234.19 717.39 1237.55 717.27 1240.02 717.27 C 1273.69 716.79 1307.37 717.10 1341.04 716.98 C 1342.80 716.95 1345.05 716.47 1345.88 714.70 C 1308.27 714.81 1270.66 714.80 1233.05 714.70 Z" />
<path fill="#606668" opacity="1.00" d=" M 234.00 540.00 C 249.67 539.99 265.34 540.00 281.00 539.99 C 284.35 539.62 287.70 539.60 291.05 539.96 C 306.37 540.05 321.68 539.97 337.00 540.00 C 337.01 590.33 336.99 640.66 337.01 691.00 C 340.34 690.99 343.67 691.00 347.00 691.00 C 347.00 693.66 347.00 696.33 347.00 699.00 C 342.11 699.60 337.15 698.85 332.28 699.53 C 336.68 699.96 341.11 699.62 345.53 699.79 C 344.57 705.43 345.40 711.25 343.93 716.87 C 342.05 719.30 339.21 721.22 336.02 721.02 C 300.97 720.98 265.91 721.01 230.85 721.00 C 228.00 720.58 225.51 718.15 224.71 715.40 C 223.73 714.97 223.22 714.25 223.21 713.22 C 222.73 708.50 223.11 703.74 223.00 699.01 C 222.50 699.01 221.50 699.01 221.00 699.01 C 220.99 696.33 220.99 693.67 220.99 691.00 C 225.33 690.99 229.66 691.00 234.00 691.00 C 234.00 640.67 233.99 590.33 234.00 540.00 M 237.01 543.00 C 237.00 559.04 236.99 575.08 237.01 591.12 C 252.67 591.13 268.33 591.13 283.99 591.12 C 284.00 575.08 284.00 559.04 284.00 543.01 C 268.33 542.99 252.67 543.00 237.01 543.00 M 288.00 543.01 C 288.00 559.04 288.00 575.08 288.01 591.11 C 303.33 591.14 318.66 591.12 333.99 591.12 C 334.01 575.08 334.00 559.04 333.99 543.00 C 318.66 543.00 303.33 542.99 288.00 543.01 M 236.87 594.01 C 236.86 608.67 236.86 623.33 236.87 637.99 C 252.58 638.01 268.29 638.00 283.99 638.00 C 284.00 623.33 284.00 608.67 284.00 594.01 C 268.29 594.00 252.58 593.99 236.87 594.01 M 288.01 594.00 C 287.99 608.67 288.00 623.33 288.00 637.99 C 303.38 638.00 318.75 638.00 334.13 637.99 C 334.14 623.33 334.13 608.67 334.13 594.01 C 318.75 593.99 303.38 594.00 288.01 594.00 M 237.01 640.88 C 236.99 657.25 237.00 673.62 237.00 690.00 C 252.67 690.00 268.33 690.00 283.99 690.00 C 284.00 673.62 284.00 657.25 283.99 640.88 C 268.33 640.87 252.67 640.87 237.01 640.88 M 288.01 640.88 C 287.99 657.25 288.00 673.62 288.00 690.00 C 303.33 690.00 318.66 690.00 333.99 690.00 C 334.00 673.62 334.01 657.25 333.99 640.88 C 318.66 640.87 303.33 640.87 288.01 640.88 M 223.80 693.91 C 223.86 694.44 223.96 695.50 224.01 696.03 C 264.07 696.17 304.15 696.23 344.20 696.00 C 344.18 695.49 344.13 694.47 344.11 693.96 C 304.01 693.78 263.90 693.89 223.80 693.91 M 225.86 701.93 C 225.90 705.31 226.02 708.70 226.02 712.09 C 264.67 711.87 303.33 712.07 341.98 711.99 C 341.97 708.66 342.04 705.33 342.15 702.01 C 303.39 701.97 264.62 702.05 225.86 701.93 M 228.03 715.72 C 229.23 718.36 232.54 718.29 235.01 718.27 C 268.66 717.79 302.31 718.09 335.97 717.98 C 337.78 717.99 339.99 717.46 340.90 715.71 C 303.28 715.81 265.66 715.79 228.03 715.72 Z" />
<path fill="#606668" opacity="1.00" d=" M 454.24 698.32 C 455.70 698.27 455.47 700.83 454.73 701.62 C 453.36 701.55 453.49 699.09 454.24 698.32 Z" />
<path fill="#606668" opacity="1.00" d=" M 1000.28 698.29 C 1001.73 698.27 1001.45 700.83 1000.72 701.62 C 999.35 701.51 999.51 699.06 1000.28 698.29 Z" />
<path fill="#606668" opacity="1.00" d=" M 231.00 848.00 C 265.34 847.97 299.66 847.97 334.00 848.00 C 334.01 898.33 333.99 948.67 334.01 999.00 C 337.34 998.99 340.67 998.99 344.00 999.00 C 344.00 1001.66 344.00 1004.32 344.00 1007.00 C 339.11 1007.54 334.17 1006.97 329.28 1007.47 C 333.66 1008.08 338.11 1007.55 342.52 1007.79 C 341.39 1013.50 342.75 1019.58 340.60 1025.15 C 338.96 1027.61 335.98 1029.13 333.02 1029.02 C 298.33 1028.99 263.63 1028.98 228.94 1029.03 C 225.61 1029.25 222.61 1026.44 221.71 1023.38 C 220.68 1022.95 220.18 1022.20 220.19 1021.12 C 219.74 1016.43 220.11 1011.71 220.00 1007.02 C 219.50 1007.01 218.50 1007.00 218.00 1007.00 C 218.00 1004.32 218.00 1001.65 218.00 998.99 C 222.33 998.99 226.66 998.99 231.00 999.00 C 230.99 948.67 231.00 898.33 231.00 848.00 M 234.01 851.00 C 234.00 867.04 234.00 883.08 234.01 899.11 C 249.67 899.14 265.33 899.12 280.99 899.12 C 281.01 883.08 281.00 867.04 281.00 851.00 C 265.33 851.00 249.67 851.00 234.01 851.00 M 285.01 851.00 C 285.00 867.04 285.00 883.08 285.01 899.12 C 300.34 899.13 315.66 899.13 330.99 899.12 C 331.01 883.08 331.00 867.04 330.99 851.00 C 315.66 851.00 300.33 851.00 285.01 851.00 M 233.87 902.01 C 233.87 916.67 233.86 931.33 233.87 945.99 C 249.58 946.00 265.29 946.00 281.00 946.00 C 281.00 931.33 281.00 916.67 280.99 902.00 C 265.29 902.00 249.58 901.99 233.87 902.01 M 285.00 902.00 C 285.00 916.67 285.00 931.33 285.00 945.99 C 300.38 946.00 315.75 946.01 331.13 945.99 C 331.13 931.33 331.14 916.67 331.12 902.01 C 315.75 902.00 300.38 902.00 285.00 902.00 M 234.01 948.88 C 233.99 965.25 234.00 981.62 234.00 997.99 C 249.67 998.01 265.33 998.00 280.99 998.00 C 281.00 981.62 281.00 965.25 280.99 948.88 C 265.33 948.87 249.67 948.87 234.01 948.88 M 285.01 948.88 C 284.99 965.25 285.00 981.62 285.00 997.99 C 300.33 998.00 315.66 998.00 330.99 998.00 C 331.00 981.62 331.01 965.25 330.99 948.88 C 315.66 948.87 300.34 948.87 285.01 948.88 M 220.79 1001.91 C 220.85 1002.44 220.97 1003.51 221.04 1004.05 C 261.04 1004.17 301.07 1004.20 341.08 1004.03 C 341.07 1003.51 341.05 1002.48 341.04 1001.96 C 300.96 1001.79 260.87 1001.88 220.79 1001.91 M 222.90 1009.89 C 222.89 1013.28 223.00 1016.68 223.02 1020.09 C 261.68 1019.87 300.33 1020.07 338.98 1019.99 C 338.97 1016.66 339.04 1013.33 339.15 1010.01 C 300.40 1009.95 261.64 1010.10 222.90 1009.89 M 225.16 1023.67 C 225.35 1025.05 226.84 1025.60 227.99 1026.02 C 231.60 1026.50 235.25 1026.16 238.87 1026.19 C 270.26 1025.82 301.65 1026.09 333.05 1025.98 C 334.77 1025.91 337.15 1025.51 337.83 1023.67 C 300.27 1023.82 262.71 1023.83 225.16 1023.67 Z" />
<path fill="#606668" opacity="1.00" d=" M 1240.00 848.00 C 1274.34 847.98 1308.67 847.98 1343.00 848.00 C 1343.00 898.33 1343.00 948.66 1343.01 999.00 C 1346.33 998.99 1349.66 998.99 1353.00 998.99 C 1352.99 1001.67 1352.99 1004.35 1353.01 1007.04 C 1348.10 1007.59 1343.14 1006.90 1338.26 1007.54 C 1342.49 1007.82 1346.75 1007.80 1351.00 1007.60 C 1351.07 1013.39 1351.20 1019.19 1349.92 1024.88 C 1348.03 1027.31 1345.19 1029.23 1341.99 1029.02 C 1306.95 1028.97 1271.90 1029.02 1236.86 1029.00 C 1233.99 1028.59 1231.51 1026.14 1230.70 1023.41 C 1229.69 1022.96 1229.19 1022.21 1229.20 1021.17 C 1228.73 1016.46 1229.11 1011.73 1229.00 1007.01 C 1228.50 1007.01 1227.50 1007.00 1227.00 1007.00 C 1226.99 1004.32 1227.00 1001.66 1226.99 999.00 C 1231.31 999.00 1235.65 998.98 1239.99 999.00 C 1240.01 948.67 1239.98 898.33 1240.00 848.00 M 1243.01 851.00 C 1243.00 867.04 1242.99 883.08 1243.01 899.12 C 1258.67 899.13 1274.33 899.13 1289.99 899.12 C 1290.00 883.08 1290.00 867.04 1289.99 851.00 C 1274.33 851.00 1258.67 850.99 1243.01 851.00 M 1294.00 851.00 C 1294.00 867.04 1293.99 883.08 1294.01 899.12 C 1309.33 899.13 1324.66 899.13 1339.99 899.12 C 1340.01 883.08 1340.00 867.04 1340.00 851.01 C 1324.66 850.99 1309.33 851.00 1294.00 851.00 M 1242.87 902.01 C 1242.87 916.67 1242.86 931.33 1242.88 945.99 C 1258.58 946.00 1274.29 946.00 1289.99 946.00 C 1290.00 931.33 1290.00 916.67 1289.99 902.00 C 1274.29 902.00 1258.58 901.99 1242.87 902.01 M 1294.01 902.00 C 1294.00 916.67 1293.99 931.33 1294.01 946.00 C 1309.38 946.00 1324.75 946.01 1340.13 945.99 C 1340.13 931.33 1340.14 916.67 1340.12 902.01 C 1324.75 901.99 1309.38 902.00 1294.01 902.00 M 1243.01 948.88 C 1242.99 965.25 1243.00 981.62 1243.01 998.00 C 1258.67 998.00 1274.33 998.00 1289.99 998.00 C 1290.00 981.62 1290.01 965.25 1289.99 948.88 C 1274.33 948.87 1258.67 948.87 1243.01 948.88 M 1294.01 948.88 C 1293.99 965.25 1294.00 981.62 1294.01 998.00 C 1309.33 998.00 1324.66 998.00 1339.99 998.00 C 1340.00 981.62 1340.00 965.25 1339.99 948.88 C 1324.66 948.87 1309.33 948.87 1294.01 948.88 M 1229.80 1001.91 C 1229.49 1003.70 1230.20 1004.43 1231.94 1004.12 C 1271.30 1004.07 1310.66 1004.24 1350.02 1004.04 C 1350.02 1003.52 1350.01 1002.48 1350.01 1001.95 C 1309.94 1001.79 1269.87 1001.88 1229.80 1001.91 M 1231.85 1009.93 C 1231.89 1013.31 1232.02 1016.70 1232.02 1020.10 C 1270.67 1019.87 1309.33 1020.07 1347.98 1020.00 C 1347.96 1016.66 1348.03 1013.33 1348.15 1010.01 C 1309.38 1009.97 1270.61 1010.05 1231.85 1009.93 M 1234.02 1023.73 C 1235.25 1026.35 1238.51 1026.29 1241.00 1026.27 C 1274.68 1025.79 1308.37 1026.09 1342.05 1025.98 C 1343.83 1025.96 1346.02 1025.43 1346.92 1023.71 C 1309.29 1023.81 1271.65 1023.77 1234.02 1023.73 Z" />
<path fill="#606668" opacity="1.00" d=" M 769.00 888.00 C 796.33 888.00 823.67 888.00 851.00 888.00 C 851.00 925.66 851.00 963.33 851.00 1001.00 C 823.67 1001.01 796.33 1001.00 768.99 1001.00 C 769.01 963.33 768.99 925.67 769.00 888.00 M 771.92 890.88 C 771.81 926.61 771.88 962.35 771.89 998.08 C 797.29 998.16 822.69 998.13 848.09 998.10 C 848.17 962.37 848.14 926.64 848.11 890.91 C 822.71 890.83 797.32 890.89 771.92 890.88 Z" />
</g>
<g id="#40a1bcff">
<path fill="#40a1bc" opacity="1.00" d=" M 696.55 119.67 C 727.32 100.49 757.88 80.96 788.77 62.00 C 851.54 101.76 914.64 141.01 977.52 180.59 C 1022.34 208.68 1067.12 236.83 1111.95 264.91 C 1116.91 268.12 1122.10 271.01 1126.83 274.57 C 901.28 274.55 675.73 274.63 450.18 274.53 C 466.71 263.50 483.82 253.37 500.55 242.64 C 565.90 201.67 631.22 160.66 696.55 119.67 Z" />
<path fill="#40a1bc" opacity="1.00" d=" M 364.44 347.48 C 568.96 347.34 773.49 347.49 978.01 347.41 C 1055.86 347.46 1133.71 347.37 1211.56 347.46 C 1211.74 354.57 1207.44 360.84 1202.53 365.59 C 1201.68 366.63 1200.31 366.74 1199.09 366.69 C 995.72 367.23 792.36 366.87 588.99 367.00 C 567.68 367.34 546.36 367.18 525.04 367.20 C 476.35 367.41 427.66 367.32 378.97 367.48 C 375.46 368.09 373.50 364.77 371.31 362.68 C 367.26 358.64 364.92 353.15 364.44 347.48 Z" />
<path fill="#40a1bc" opacity="1.00" d=" M 362.15 399.19 C 387.41 398.80 412.68 399.13 437.94 399.02 C 449.21 399.12 460.49 398.82 471.75 399.20 C 469.24 401.57 467.62 404.63 466.67 407.92 C 458.12 408.14 449.56 407.70 441.02 408.29 C 426.67 409.18 412.28 409.23 397.93 408.31 C 388.95 407.61 379.93 408.32 370.97 407.76 C 367.63 405.38 365.01 402.11 362.15 399.19 Z" />
<path fill="#40a1bc" opacity="1.00" d=" M 556.14 400.21 C 592.53 399.70 628.95 400.31 665.34 399.87 C 663.53 402.75 661.59 405.60 660.68 408.92 C 651.81 409.12 642.92 408.71 634.05 409.33 C 620.02 410.20 605.93 410.22 591.90 409.30 C 582.93 408.66 573.92 409.21 564.95 408.88 C 561.71 406.33 559.02 403.15 556.14 400.21 Z" />
<path fill="#40a1bc" opacity="1.00" d=" M 908.14 400.19 C 944.51 399.76 980.90 400.24 1017.27 399.90 C 1015.51 402.80 1013.59 405.66 1012.66 408.97 C 999.08 408.71 985.53 409.33 971.97 409.92 C 957.30 410.50 942.67 408.76 928.01 408.97 C 924.34 408.89 920.66 409.16 917.01 408.87 C 913.68 406.42 911.04 403.12 908.14 400.19 Z" />
<path fill="#40a1bc" opacity="1.00" d=" M 1101.14 401.23 C 1137.53 400.71 1173.95 401.27 1210.34 400.91 C 1208.35 403.70 1207.00 406.93 1205.06 409.70 C 1197.41 410.39 1189.68 409.63 1182.00 410.17 C 1167.00 411.14 1151.95 411.29 1136.95 410.31 C 1127.99 409.65 1119.01 410.20 1110.05 409.89 C 1106.70 407.47 1104.07 404.13 1101.14 401.23 Z" />
<path fill="#40a1bc" opacity="1.00" d=" M 376.39 432.49 C 386.30 429.29 396.70 428.08 407.02 427.05 C 414.36 427.00 421.72 427.02 429.06 427.04 C 439.99 428.23 451.06 429.20 461.66 432.28 C 464.40 439.44 463.55 447.42 461.36 454.60 C 461.18 454.81 460.81 455.21 460.62 455.42 C 449.18 457.57 437.55 459.01 425.90 459.09 C 415.92 460.05 405.93 458.83 395.94 458.90 C 389.27 458.16 382.59 457.52 375.95 456.58 C 374.68 456.57 374.58 454.93 374.14 454.11 C 372.48 449.94 373.11 445.39 373.01 441.03 C 372.98 437.94 374.04 434.58 376.39 432.49 Z" />
<path fill="#40a1bc" opacity="1.00" d=" M 594.10 428.85 C 603.65 427.32 613.35 428.28 622.97 428.03 C 633.94 429.19 645.03 430.22 655.66 433.28 C 658.38 440.42 657.57 448.41 655.36 455.58 C 655.18 455.79 654.82 456.22 654.64 456.44 C 632.36 460.79 609.52 460.99 586.93 459.61 C 581.06 458.87 575.15 458.43 569.32 457.43 C 566.37 451.94 566.02 445.09 567.33 439.05 C 568.06 436.64 569.04 433.41 571.94 432.96 C 579.20 431.03 586.60 429.46 594.10 428.85 Z" />
<path fill="#40a1bc" opacity="1.00" d=" M 922.34 433.52 C 939.99 427.93 958.70 427.46 977.04 428.18 C 987.31 429.43 997.71 430.36 1007.69 433.28 C 1010.19 439.96 1009.63 447.32 1007.84 454.10 C 1007.50 454.99 1007.31 456.58 1006.04 456.57 C 987.25 459.99 968.06 461.07 949.00 460.00 C 939.66 460.21 930.45 458.44 921.19 457.58 C 918.61 451.84 917.90 445.22 919.32 439.08 C 919.89 437.06 920.65 434.89 922.34 433.52 Z" />
<path fill="#40a1bc" opacity="1.00" d=" M 1119.88 433.17 C 1131.72 430.34 1143.90 428.61 1156.09 429.03 C 1171.09 428.58 1186.15 430.53 1200.66 434.27 C 1202.63 438.94 1201.91 444.09 1201.92 449.02 C 1201.53 451.85 1201.35 455.01 1199.73 457.44 C 1171.57 462.59 1142.55 462.55 1114.27 458.45 C 1111.04 451.79 1110.48 443.36 1113.68 436.57 C 1114.66 434.01 1117.60 433.83 1119.88 433.17 Z" />
<path fill="#40a1bc" opacity="1.00" d=" M 384.08 481.01 C 396.39 481.09 408.68 479.78 421.00 480.01 C 432.01 479.96 442.99 481.17 454.00 481.03 C 456.93 481.06 459.79 481.82 462.63 482.47 C 462.53 537.99 462.62 593.50 462.58 649.02 C 462.47 663.29 462.87 677.59 462.32 691.86 C 462.72 698.27 462.59 704.71 462.51 711.14 C 462.68 798.44 462.54 885.76 462.60 973.07 C 462.56 983.35 462.64 993.64 462.45 1003.93 C 461.78 1009.57 463.72 1015.42 461.74 1020.92 C 462.78 1022.97 462.60 1025.25 462.43 1027.48 C 433.32 1027.75 404.20 1027.38 375.09 1027.66 C 374.70 1026.82 374.48 1025.95 374.41 1025.06 C 374.40 844.20 374.45 663.34 374.38 482.48 C 377.57 481.77 380.78 480.96 384.08 481.01 M 454.24 698.32 C 453.49 699.09 453.36 701.55 454.73 701.62 C 455.47 700.83 455.70 698.27 454.24 698.32 Z" />
<path fill="#40a1bc" opacity="1.00" d=" M 578.09 482.01 C 589.75 482.11 601.38 480.88 613.05 481.01 C 624.71 480.88 636.33 482.14 647.99 482.02 C 650.92 482.07 653.77 482.84 656.63 483.46 C 656.53 664.60 656.61 845.75 656.59 1026.90 C 656.74 1028.30 655.10 1028.79 653.99 1028.61 C 625.50 1028.51 597.00 1028.65 568.51 1028.53 C 568.29 846.86 568.49 665.16 568.40 483.48 C 571.59 482.76 574.80 481.96 578.09 482.01 Z" />
<path fill="#40a1bc" opacity="1.00" d=" M 928.01 482.09 C 946.32 481.86 964.64 480.19 982.96 481.51 C 991.49 482.41 1000.22 481.15 1008.59 483.41 C 1008.59 540.62 1008.57 597.83 1008.60 655.04 C 1008.43 667.32 1008.88 679.61 1008.32 691.88 C 1009.02 702.57 1008.17 713.29 1008.59 723.99 C 1008.56 819.32 1008.63 914.65 1008.55 1009.97 C 1008.61 1012.64 1008.75 1015.34 1008.38 1018.01 C 1007.71 1021.50 1008.90 1024.99 1008.59 1028.51 C 979.76 1028.64 950.92 1028.56 922.09 1028.56 C 920.70 1028.70 920.20 1027.14 920.41 1026.05 C 920.42 845.18 920.42 664.31 920.41 483.43 C 922.92 482.92 925.43 482.29 928.01 482.09 M 1000.28 698.29 C 999.51 699.06 999.35 701.51 1000.72 701.62 C 1001.45 700.83 1001.73 698.27 1000.28 698.29 Z" />
<path fill="#40a1bc" opacity="1.00" d=" M 1113.35 484.50 C 1120.70 482.26 1128.41 483.36 1135.95 482.70 C 1150.62 481.82 1165.34 481.81 1180.02 482.72 C 1187.23 483.35 1194.61 482.27 1201.64 484.46 C 1201.50 665.62 1201.65 846.78 1201.57 1027.93 C 1201.75 1029.31 1200.12 1029.79 1199.05 1029.60 C 1171.35 1029.55 1143.65 1029.57 1115.95 1029.60 C 1114.86 1029.76 1113.20 1029.28 1113.42 1027.91 C 1113.44 944.60 1113.41 861.28 1113.41 777.96 C 1113.60 755.99 1113.01 734.00 1113.77 712.04 C 1112.67 701.68 1114.29 691.33 1114.02 680.96 C 1114.05 632.66 1113.97 584.36 1114.06 536.06 C 1112.70 518.92 1113.79 501.68 1113.35 484.50 Z" />
<path fill="#40a1bc" opacity="1.00" d=" M 695.52 765.65 C 698.78 764.88 702.79 765.19 704.91 768.13 C 707.21 771.44 707.08 776.04 705.50 779.62 C 702.75 784.98 693.45 784.69 691.21 779.02 C 689.36 774.44 690.18 767.42 695.52 765.65 M 697.11 769.12 C 694.47 770.68 695.19 774.42 695.32 777.01 C 695.25 780.07 700.09 780.97 701.24 778.27 C 702.18 776.11 701.84 773.61 701.61 771.34 C 701.38 769.34 698.85 767.86 697.11 769.12 Z" />
<path fill="#40a1bc" opacity="1.00" d=" M 755.71 766.74 C 757.15 764.90 759.67 765.50 761.70 765.34 C 761.99 766.63 762.18 767.96 762.27 769.31 C 760.99 769.22 759.72 769.19 758.47 769.22 C 758.22 770.78 755.97 772.98 758.03 774.13 C 760.09 775.17 759.96 777.55 760.23 779.55 C 760.84 779.68 762.07 779.94 762.68 780.08 C 762.66 780.74 762.60 782.07 762.57 782.73 C 760.43 782.97 758.24 783.31 756.14 782.73 C 754.93 780.83 755.39 778.34 754.99 776.21 C 753.35 776.18 751.71 776.13 750.09 776.08 C 750.06 776.85 749.98 778.38 749.95 779.15 C 751.36 779.82 752.82 781.02 751.61 782.69 C 748.81 783.20 745.93 783.03 743.11 782.91 C 740.49 781.68 742.81 778.61 745.16 779.67 C 745.48 776.15 745.39 772.63 745.28 769.12 C 744.48 769.03 742.87 768.85 742.06 768.77 C 742.08 767.48 741.95 765.21 743.97 765.70 C 746.31 765.68 748.66 765.64 751.01 765.76 C 752.84 766.42 752.10 769.51 750.03 769.25 C 749.99 770.73 749.97 772.22 749.97 773.71 C 753.74 773.41 753.82 769.12 755.71 766.74 Z" />
<path fill="#40a1bc" opacity="1.00" d=" M 669.84 768.87 C 669.68 767.37 669.91 765.17 672.01 765.71 C 677.44 765.87 682.87 765.70 688.31 765.77 C 688.30 766.57 688.27 768.16 688.26 768.96 C 687.49 769.01 685.96 769.11 685.19 769.16 C 685.21 772.64 685.21 776.12 685.22 779.61 C 686.40 779.68 687.60 779.73 688.80 779.77 C 688.11 782.22 690.41 786.76 686.97 787.54 C 684.26 787.46 685.36 784.46 685.17 782.75 C 680.80 782.57 676.42 782.60 672.06 782.72 C 671.98 784.16 671.92 785.61 671.87 787.07 C 670.74 787.29 668.26 787.97 668.43 786.03 C 668.29 783.99 668.30 781.97 668.27 779.95 C 669.50 779.81 670.74 779.72 671.98 779.67 C 673.95 776.51 673.32 772.66 673.23 769.15 C 672.39 769.08 670.69 768.94 669.84 768.87 M 678.18 769.08 C 677.91 772.68 677.46 776.27 677.02 779.86 C 678.24 779.80 679.47 779.75 680.71 779.72 C 680.82 776.25 680.82 772.77 680.71 769.31 C 680.08 769.25 678.81 769.13 678.18 769.08 Z" />
<path fill="#40a1bc" opacity="1.00" d=" M 708.10 765.89 C 711.73 765.53 715.37 765.85 719.01 765.73 C 719.77 769.26 720.38 772.83 721.58 776.25 C 722.67 772.95 723.18 769.49 724.31 766.21 C 727.25 765.07 730.84 765.94 734.04 765.76 C 736.62 767.78 733.39 769.14 731.56 769.68 C 731.15 772.89 731.41 776.14 731.52 779.37 C 732.64 779.62 733.78 779.85 734.93 780.04 C 734.81 781.07 734.56 782.07 734.20 783.05 C 731.27 783.00 728.34 782.99 725.43 782.74 C 725.39 782.15 725.33 780.95 725.29 780.35 C 725.82 780.11 726.87 779.61 727.40 779.37 C 727.28 775.92 727.38 772.48 727.43 769.04 C 725.29 773.38 724.92 778.34 722.94 782.75 C 721.77 782.67 720.62 782.61 719.47 782.57 C 718.01 778.02 717.44 773.18 715.40 768.84 C 715.35 771.88 715.29 774.92 715.43 777.97 C 715.21 779.38 716.79 779.78 717.64 780.53 C 717.61 781.09 717.56 782.20 717.54 782.75 C 714.34 782.70 710.67 783.87 707.81 782.05 C 707.97 781.45 708.29 780.25 708.45 779.64 C 709.16 779.67 710.57 779.71 711.28 779.73 C 711.39 776.18 711.40 772.64 711.27 769.10 C 710.49 769.02 708.93 768.85 708.15 768.77 C 708.13 768.05 708.11 766.61 708.10 765.89 Z" />
<path fill="#40a1bc" opacity="1.00" d=" M 762.80 765.93 C 765.88 765.56 768.97 765.68 772.07 765.85 C 772.04 767.33 771.34 768.62 770.60 769.88 C 771.18 771.26 771.81 772.65 772.46 774.03 C 773.24 772.66 774.26 771.39 774.71 769.87 C 774.73 768.48 772.91 767.30 774.04 765.94 C 776.73 765.43 779.49 765.83 782.22 765.81 C 782.23 766.57 782.26 768.11 782.27 768.87 C 781.56 769.01 780.15 769.30 779.45 769.44 C 777.31 773.33 775.72 777.52 773.28 781.23 C 771.05 784.47 764.69 784.18 763.72 780.04 C 763.69 776.79 768.95 776.49 768.59 780.06 C 769.04 779.79 769.92 779.23 770.36 778.96 C 769.26 775.56 767.11 772.62 765.66 769.37 C 764.96 769.26 763.55 769.03 762.84 768.92 C 762.83 768.17 762.81 766.68 762.80 765.93 Z" />
<path fill="#40a1bc" opacity="1.00" d=" M 789.61 769.42 C 787.51 769.43 784.84 767.98 786.89 765.85 C 790.88 765.44 794.92 766.03 798.94 765.76 C 800.82 765.88 802.92 765.24 804.69 766.11 C 804.73 766.79 804.83 768.15 804.87 768.83 C 804.08 768.90 802.50 769.03 801.71 769.10 C 801.63 772.63 801.46 776.16 801.88 779.68 C 804.38 778.83 805.92 781.18 804.18 783.10 C 801.18 783.03 798.20 782.89 795.22 782.84 C 794.98 781.29 794.81 779.78 796.70 779.38 C 797.44 776.05 796.83 772.48 796.91 769.06 C 796.28 769.13 795.04 769.28 794.41 769.35 C 794.40 773.16 794.40 777.20 792.59 780.67 C 791.02 783.87 786.40 784.12 783.68 782.35 C 781.96 781.45 782.86 779.19 782.85 777.73 C 785.05 777.14 787.39 777.68 787.41 780.45 C 791.07 778.14 789.13 772.99 789.61 769.42 Z" />
<path fill="#40a1bc" opacity="1.00" d=" M 806.06 768.78 C 806.04 767.50 805.99 765.19 807.97 765.68 C 810.70 765.73 813.44 765.66 816.18 765.67 C 817.94 765.49 817.50 767.62 817.80 768.70 C 816.49 768.83 815.20 768.99 813.91 769.17 C 813.99 769.79 814.14 771.02 814.22 771.63 C 816.32 771.75 818.72 771.14 820.53 772.58 C 823.80 774.47 823.81 779.72 820.71 781.79 C 818.20 783.68 814.93 782.75 812.05 782.89 C 809.95 782.73 807.55 783.60 805.81 782.05 C 805.98 781.44 806.32 780.23 806.49 779.63 C 807.20 779.64 808.60 779.65 809.30 779.66 C 809.39 776.14 809.39 772.61 809.27 769.10 C 808.47 769.02 806.86 768.86 806.06 768.78 M 814.29 774.36 C 814.02 776.18 813.95 778.03 814.19 779.89 C 815.63 779.58 817.72 779.97 818.15 778.06 C 819.40 775.73 816.22 774.27 814.29 774.36 Z" />
<path fill="#40a1bc" opacity="1.00" d=" M 824.02 765.75 C 829.76 765.80 835.49 765.72 841.23 765.79 C 840.97 768.54 842.16 775.44 837.39 772.92 C 837.28 771.24 837.92 767.35 835.03 769.11 C 834.26 772.56 834.54 776.19 834.99 779.68 C 836.31 779.77 837.65 779.82 839.00 779.83 C 838.79 780.94 838.97 783.40 837.08 782.97 C 833.64 783.03 830.20 782.83 826.77 783.13 C 826.42 782.10 825.39 780.24 827.00 779.72 C 827.77 779.71 829.32 779.69 830.10 779.68 C 830.33 776.18 830.79 772.57 829.97 769.13 C 827.05 767.30 827.74 771.32 827.59 772.99 C 826.51 773.44 823.91 774.04 824.15 772.07 C 824.06 769.95 824.04 767.85 824.02 765.75 Z" />
<path fill="#40a1bc" opacity="1.00" d=" M 841.72 765.76 C 844.53 765.75 847.35 765.56 850.16 765.82 C 851.03 767.28 849.54 768.58 849.17 769.94 C 849.58 771.26 850.34 772.42 850.98 773.66 C 851.77 772.40 852.73 771.25 853.40 769.91 C 852.85 768.56 851.24 766.93 852.96 765.77 C 859.61 765.96 866.23 765.74 872.91 765.70 C 876.68 765.91 879.24 770.29 877.58 773.70 C 876.27 777.12 872.12 777.38 869.01 777.25 C 869.03 777.88 869.06 779.14 869.08 779.77 C 869.93 779.73 871.61 779.66 872.46 779.63 C 872.43 780.48 872.37 782.19 872.34 783.05 C 869.19 782.90 866.05 783.01 862.91 782.95 C 861.07 783.24 860.79 781.12 861.09 779.82 C 861.86 779.80 863.39 779.74 864.16 779.72 C 864.48 776.17 864.38 772.61 864.28 769.07 C 862.21 768.68 860.13 768.60 858.12 769.23 C 855.91 773.06 854.32 777.23 851.98 780.99 C 849.96 784.06 844.69 784.34 842.62 781.23 C 841.57 779.11 843.64 776.44 845.94 777.70 C 846.65 778.83 848.07 781.30 848.81 778.78 C 847.53 775.51 845.88 772.28 843.85 769.43 C 843.30 769.28 842.22 768.98 841.67 768.83 C 841.69 768.07 841.71 766.53 841.72 765.76 M 869.04 768.94 C 869.03 770.65 869.03 772.37 869.04 774.11 C 870.23 773.99 871.42 773.79 872.60 773.52 C 873.71 772.28 873.10 770.69 872.79 769.29 C 871.52 769.21 870.27 769.09 869.04 768.94 Z" />
<path fill="#40a1bc" opacity="1.00" d=" M 879.29 766.17 C 882.35 765.10 885.88 765.96 889.14 765.69 C 890.96 765.30 890.47 767.67 890.78 768.71 C 889.49 768.85 888.20 769.00 886.93 769.17 C 887.00 769.78 887.13 771.01 887.20 771.63 C 889.30 771.75 891.70 771.14 893.51 772.56 C 896.79 774.44 896.82 779.69 893.72 781.78 C 891.21 783.68 887.94 782.76 885.07 782.89 C 882.97 782.73 880.61 783.57 878.84 782.10 C 878.98 781.49 879.27 780.27 879.42 779.65 C 880.14 779.66 881.59 779.66 882.31 779.66 C 882.39 776.14 882.38 772.62 882.28 769.11 C 881.46 769.02 879.83 768.84 879.01 768.75 C 879.08 768.10 879.22 766.82 879.29 766.17 M 887.25 774.38 C 887.03 776.19 886.97 778.03 887.17 779.87 C 888.61 779.59 890.69 779.96 891.15 778.09 C 892.39 775.68 889.22 774.28 887.25 774.38 Z" />
<path fill="#40a1bc" opacity="1.00" d=" M 897.05 768.77 C 897.07 767.49 896.96 765.22 898.95 765.71 C 902.01 765.64 905.07 765.78 908.14 765.77 C 908.12 766.55 908.08 768.12 908.06 768.90 C 907.30 768.96 905.78 769.09 905.02 769.16 C 904.96 772.66 904.96 776.16 905.11 779.66 C 905.89 779.68 907.44 779.72 908.21 779.74 C 908.16 780.54 908.05 782.14 908.00 782.93 C 904.67 782.72 901.34 782.97 898.03 782.94 C 896.55 782.28 897.20 780.76 897.40 779.59 C 898.12 779.63 899.57 779.70 900.29 779.74 C 900.39 776.19 900.40 772.64 900.26 769.10 C 899.46 769.02 897.85 768.85 897.05 768.77 Z" />
<path fill="#40a1bc" opacity="1.00" d=" M 808.57 791.54 C 810.75 791.20 812.12 794.87 809.78 795.68 C 806.81 797.45 805.00 791.86 808.57 791.54 Z" />
<path fill="#40a1bc" opacity="1.00" d=" M 813.55 791.60 C 815.28 791.01 817.36 793.31 815.94 794.94 C 815.32 796.44 812.80 796.37 812.22 794.90 C 811.42 793.55 812.34 792.20 813.55 791.60 Z" />
<path fill="#40a1bc" opacity="1.00" d=" M 766.40 797.58 C 769.67 796.78 773.58 797.48 775.59 800.41 C 777.96 804.17 777.80 809.58 774.97 813.05 C 771.27 817.10 763.16 815.97 761.49 810.44 C 759.69 805.86 761.08 798.98 766.40 797.58 M 767.23 801.34 C 764.96 803.53 765.34 807.31 766.18 810.08 C 766.91 812.59 771.25 812.49 771.89 809.95 C 772.64 807.72 772.56 805.22 771.99 802.97 C 771.54 800.94 768.83 799.93 767.23 801.34 Z" />
<path fill="#40a1bc" opacity="1.00" d=" M 738.72 797.76 C 745.17 797.78 751.62 797.82 758.07 797.71 C 759.78 797.48 759.52 799.48 759.80 800.56 C 758.63 800.81 757.47 801.07 756.32 801.34 C 756.39 804.75 756.40 808.16 756.38 811.59 C 757.14 811.61 758.66 811.67 759.42 811.70 C 759.40 812.53 759.35 814.20 759.33 815.03 C 756.31 814.93 753.28 815.12 750.28 814.80 C 749.11 813.28 749.74 811.39 751.79 811.49 C 751.79 808.06 751.78 804.63 751.79 801.21 C 749.97 801.21 748.16 801.23 746.35 801.24 C 746.39 804.61 746.37 807.98 746.38 811.36 C 748.39 811.48 748.71 813.28 748.18 814.93 C 745.06 814.94 741.94 814.94 738.82 814.95 C 738.78 814.14 738.68 812.54 738.63 811.74 C 739.42 811.72 741.00 811.67 741.79 811.65 C 741.77 808.15 741.78 804.66 741.82 801.17 C 741.05 801.13 739.50 801.04 738.73 800.99 C 738.72 800.19 738.72 798.57 738.72 797.76 Z" />
<path fill="#40a1bc" opacity="1.00" d=" M 782.11 800.56 C 782.44 799.56 782.09 797.21 783.89 797.71 C 788.94 797.79 793.99 797.83 799.04 797.70 C 801.05 797.19 800.91 799.51 800.91 800.80 C 800.11 800.88 798.52 801.02 797.73 801.10 C 797.62 804.62 797.47 808.16 797.87 811.68 C 799.80 810.91 802.27 812.82 800.42 814.58 C 797.54 815.60 794.26 814.72 791.24 814.78 C 791.18 814.11 791.05 812.78 790.99 812.11 C 791.44 811.97 792.36 811.69 792.81 811.55 C 793.23 808.07 792.95 804.57 792.93 801.09 C 792.30 801.16 791.03 801.28 790.40 801.35 C 790.41 805.15 790.39 809.17 788.61 812.64 C 787.05 815.86 782.45 816.12 779.72 814.37 C 777.97 813.49 778.86 811.20 778.83 809.74 C 781.06 809.14 783.29 809.64 783.39 812.38 C 787.11 810.17 785.12 804.91 785.61 801.36 C 784.43 801.09 783.27 800.82 782.11 800.56 Z" />
<path fill="#40a1bc" opacity="1.00" d=" M 802.15 797.85 C 807.82 797.62 813.51 797.85 819.20 797.70 C 819.01 800.53 820.62 806.66 815.70 805.19 C 815.73 803.77 815.72 802.36 815.68 800.97 C 813.80 800.49 811.88 800.61 809.99 800.86 C 810.01 801.70 810.05 803.37 810.07 804.21 C 812.19 805.49 811.36 800.60 814.12 801.73 C 814.18 804.44 814.45 807.17 814.10 809.89 C 813.61 809.95 812.62 810.08 812.13 810.14 C 811.71 808.90 811.91 807.12 810.23 806.92 C 810.09 808.53 810.06 810.16 810.09 811.79 C 811.94 811.75 813.80 811.72 815.68 811.69 C 815.51 809.51 815.91 805.38 819.13 807.07 C 820.06 809.59 819.29 812.38 819.41 815.02 C 814.23 815.17 809.07 814.47 803.90 815.02 C 802.11 815.27 801.85 813.12 802.03 811.87 C 802.81 811.82 804.38 811.71 805.16 811.66 C 805.47 808.15 805.39 804.63 805.28 801.12 C 804.49 801.03 802.90 800.83 802.11 800.74 C 802.12 800.02 802.14 798.57 802.15 797.85 Z" />
<path fill="#40a1bc" opacity="1.00" d=" M 821.66 797.68 C 827.22 797.83 832.79 797.81 838.36 797.69 C 838.44 800.26 838.35 802.84 838.27 805.42 C 837.44 805.40 835.77 805.35 834.94 805.32 C 835.00 803.59 835.02 799.11 832.39 801.30 C 831.97 804.74 832.25 808.22 832.32 811.69 C 833.63 811.70 834.95 811.70 836.29 811.69 C 836.21 812.45 836.05 813.98 835.98 814.74 C 831.94 815.27 827.85 814.79 823.80 814.98 C 823.78 814.16 823.74 812.52 823.72 811.70 C 825.04 811.67 826.37 811.66 827.71 811.67 C 827.76 808.18 827.96 804.68 827.66 801.20 C 827.06 801.11 825.86 800.93 825.26 800.84 C 825.21 802.32 825.16 803.82 825.13 805.32 C 824.27 805.33 822.54 805.36 821.68 805.37 C 821.65 802.80 821.63 800.23 821.66 797.68 Z" />
<path fill="#40a1bc" opacity="1.00" d=" M 723.85 808.75 C 725.33 806.69 727.16 803.60 730.11 804.20 C 729.35 805.59 728.58 806.97 727.69 808.29 C 728.70 809.72 730.18 811.09 729.88 813.02 C 727.49 812.19 725.71 810.36 723.85 808.75 Z" />
<path fill="#40a1bc" opacity="1.00" d=" M 730.47 808.92 C 730.74 806.44 733.59 804.06 736.17 803.89 C 735.87 805.65 734.40 806.98 734.15 808.71 C 734.93 809.95 735.85 811.06 736.76 812.23 C 734.09 813.55 732.22 810.39 730.47 808.92 Z" />
<path fill="#40a1bc" opacity="1.00" d=" M 840.37 803.61 C 843.15 803.94 844.81 806.38 846.68 808.17 C 844.80 809.74 843.27 813.14 840.42 812.41 C 841.27 810.99 841.93 809.47 842.70 808.02 C 841.89 806.56 840.25 805.43 840.37 803.61 Z" />
<path fill="#40a1bc" opacity="1.00" d=" M 846.74 803.50 C 849.27 804.26 851.05 806.23 852.84 808.06 C 851.04 809.78 849.47 812.83 846.62 812.51 C 847.32 810.95 848.04 809.40 849.04 808.01 C 848.08 806.63 846.07 805.46 846.74 803.50 Z" />
</g>
</svg>
