<?xml version="1.0" encoding="UTF-8" ?>
<!DOCTYPE svg PUBLIC "-//W3C//DTD SVG 1.1//EN" "http://www.w3.org/Graphics/SVG/1.1/DTD/svg11.dtd">
<svg width="902pt" height="837pt" viewBox="0 0 902 837" version="1.1" xmlns="http://www.w3.org/2000/svg">
<g id="#033a6fff">
<path fill="#033a6f" opacity="1.00" d=" M 707.51 0.37 C 711.30 0.38 715.10 0.39 718.90 0.37 C 718.89 1.41 718.88 3.48 718.87 4.51 C 715.08 4.49 711.30 4.50 707.52 4.51 C 707.51 3.48 707.51 1.41 707.51 0.37 Z" />
<path fill="#033a6f" opacity="1.00" d=" M 146.35 10.02 C 148.35 10.00 150.35 10.00 152.36 9.99 C 152.40 15.85 152.35 21.70 152.40 27.55 C 154.04 27.52 155.69 27.49 157.33 27.46 C 159.23 21.63 161.25 15.85 163.15 10.01 C 165.30 10.00 167.46 10.00 169.61 10.01 C 167.67 16.19 165.44 22.29 163.50 28.48 C 162.80 30.32 163.41 32.26 163.75 34.11 C 165.93 43.89 167.99 53.69 170.08 63.49 C 168.02 63.50 165.96 63.50 163.90 63.50 C 161.59 53.19 159.52 42.84 157.19 32.55 C 155.57 32.60 153.96 32.65 152.34 32.71 C 152.39 42.98 152.43 53.25 152.31 63.53 C 150.33 63.52 148.36 63.51 146.38 63.50 C 146.36 45.68 146.41 27.85 146.35 10.02 Z" />
<path fill="#033a6f" opacity="1.00" d=" M 176.29 10.00 C 178.37 10.00 180.46 10.02 182.55 10.05 C 183.78 16.49 185.27 22.87 186.58 29.30 C 187.49 33.46 188.00 37.78 190.04 41.59 C 191.02 39.19 191.68 36.69 192.10 34.14 C 193.49 26.10 195.02 18.08 196.42 10.04 C 198.49 10.01 200.55 9.99 202.62 9.98 C 199.93 24.90 197.20 39.82 194.57 54.75 C 194.06 57.65 193.25 60.97 190.48 62.54 C 187.80 63.94 184.64 63.39 181.73 63.53 C 181.74 61.55 181.76 59.57 181.79 57.59 C 183.79 57.49 185.80 57.38 187.80 57.21 C 188.59 53.68 189.24 50.12 189.86 46.56 C 188.08 46.52 186.30 46.48 184.52 46.43 C 181.89 34.26 178.95 22.17 176.29 10.00 Z" />
<path fill="#033a6f" opacity="1.00" d=" M 212.67 10.02 C 218.86 9.99 225.05 10.00 231.25 10.00 C 231.23 27.84 231.30 45.68 231.21 63.51 C 229.22 63.51 227.24 63.51 225.26 63.51 C 225.23 47.67 225.28 31.83 225.23 15.99 C 222.99 16.00 220.75 16.00 218.51 16.02 C 218.00 29.04 217.36 42.07 216.83 55.09 C 216.63 57.87 216.53 61.45 213.71 62.92 C 211.49 63.69 209.09 63.46 206.79 63.59 C 206.75 61.69 206.72 59.79 206.69 57.89 C 208.02 57.60 209.36 57.32 210.70 57.02 C 211.28 41.35 212.10 25.69 212.67 10.02 Z" />
<path fill="#033a6f" opacity="1.00" d=" M 241.88 10.01 C 243.92 10.00 245.96 10.00 248.00 10.00 C 248.00 15.61 248.00 21.22 248.00 26.83 C 252.63 26.87 259.47 26.06 261.25 31.66 C 262.57 38.00 261.56 44.59 261.90 51.04 C 261.94 55.15 262.29 60.77 257.75 62.73 C 252.66 64.31 247.17 63.17 241.92 63.51 C 241.82 45.67 241.90 27.84 241.88 10.01 M 248.01 32.94 C 248.00 41.14 247.97 49.35 248.03 57.56 C 250.55 57.51 253.07 57.44 255.58 57.24 C 255.84 49.26 255.88 41.25 255.56 33.27 C 253.05 33.06 250.53 32.98 248.01 32.94 Z" />
<path fill="#033a6f" opacity="1.00" d=" M 265.37 10.02 C 273.91 9.98 282.45 10.01 291.00 10.01 C 291.00 12.00 291.00 14.00 291.00 15.99 C 287.74 16.00 284.49 16.00 281.24 16.01 C 281.26 31.84 281.26 47.66 281.24 63.49 C 279.19 63.50 277.15 63.50 275.11 63.49 C 275.14 47.66 275.11 31.84 275.12 16.01 C 271.87 16.00 268.61 16.00 265.36 15.98 C 265.36 13.99 265.36 12.01 265.37 10.02 Z" />
<path fill="#033a6f" opacity="1.00" d=" M 297.85 10.02 C 299.91 10.00 301.97 10.00 304.04 10.00 C 305.90 18.79 307.78 27.57 309.59 36.37 C 309.87 38.25 310.79 39.90 311.98 41.37 C 314.57 31.05 315.89 20.44 318.03 10.01 C 320.05 10.00 322.08 10.00 324.12 10.01 C 321.49 25.10 318.67 40.14 316.03 55.22 C 315.55 58.10 314.50 61.29 311.71 62.71 C 309.07 63.87 306.08 63.42 303.29 63.57 C 303.25 61.57 303.24 59.57 303.22 57.57 C 305.22 57.50 307.22 57.43 309.22 57.34 C 310.13 53.81 310.77 50.22 311.42 46.63 C 309.65 46.55 307.87 46.48 306.11 46.40 C 303.38 34.27 300.51 22.17 297.85 10.02 Z" />
<path fill="#033a6f" opacity="1.00" d=" M 332.11 10.01 C 336.72 10.09 341.36 9.73 345.95 10.19 C 349.27 10.61 351.84 13.62 351.90 16.94 C 352.19 22.96 351.89 29.01 352.03 35.04 C 351.97 38.32 352.40 42.30 349.61 44.68 C 346.46 47.34 342.02 46.46 338.23 46.68 C 338.26 52.29 338.26 57.89 338.24 63.49 C 336.19 63.50 334.15 63.50 332.11 63.49 C 332.14 45.67 332.12 27.84 332.11 10.01 M 338.26 15.92 C 338.24 24.13 338.25 32.33 338.26 40.53 C 340.73 40.51 343.21 40.45 345.69 40.29 C 345.96 32.30 346.04 24.28 345.64 16.30 C 343.19 16.07 340.72 15.98 338.26 15.92 Z" />
<path fill="#033a6f" opacity="1.00" d=" M 361.64 10.00 C 363.68 10.00 365.72 10.00 367.76 10.01 C 367.74 15.68 367.74 21.34 367.76 27.00 C 370.75 27.00 373.76 27.00 376.76 26.99 C 376.74 21.33 376.74 15.67 376.76 10.00 C 378.80 10.00 380.84 10.00 382.88 10.00 C 382.88 27.83 382.86 45.66 382.89 63.49 C 380.84 63.50 378.80 63.50 376.76 63.49 C 376.74 53.33 376.74 43.17 376.76 33.01 C 373.76 33.00 370.75 33.00 367.76 33.00 C 367.72 43.20 367.79 53.41 367.72 63.61 C 365.80 63.24 363.20 64.23 361.75 62.76 C 361.45 45.19 361.70 27.59 361.64 10.00 Z" />
<path fill="#033a6f" opacity="1.00" d=" M 396.47 10.36 C 400.10 9.03 404.15 9.32 407.93 9.81 C 411.79 10.36 413.85 14.38 413.62 17.98 C 413.62 30.66 413.66 43.35 413.60 56.03 C 413.77 59.53 411.50 63.24 407.85 63.76 C 404.38 64.17 400.78 64.32 397.36 63.53 C 394.15 62.63 392.45 59.21 392.53 56.06 C 392.43 43.69 392.54 31.32 392.48 18.96 C 392.34 15.72 393.19 11.79 396.47 10.36 M 398.76 15.76 C 398.37 29.77 398.28 43.82 398.80 57.82 C 401.65 57.99 404.52 57.98 407.37 57.71 C 407.87 50.48 407.52 43.24 407.62 36.00 C 407.52 29.24 407.92 22.46 407.29 15.71 C 404.44 15.63 401.60 15.63 398.76 15.76 Z" />
<path fill="#033a6f" opacity="1.00" d=" M 449.38 10.01 C 455.43 10.00 461.48 9.99 467.52 10.02 C 467.47 25.81 467.52 41.60 467.50 57.39 C 468.88 57.46 470.27 57.53 471.67 57.59 C 471.60 61.94 471.62 66.29 471.62 70.64 C 470.20 70.64 468.79 70.64 467.39 70.65 C 466.98 68.26 466.57 65.87 466.16 63.49 C 460.09 63.53 454.02 63.48 447.95 63.52 C 447.74 65.88 447.56 68.25 447.37 70.61 C 445.75 70.62 444.13 70.63 442.51 70.65 C 442.49 66.38 442.50 62.11 442.49 57.85 C 444.10 57.51 445.71 57.15 447.31 56.73 C 448.41 41.18 448.68 25.58 449.38 10.01 M 455.21 16.01 C 454.45 29.85 454.52 43.75 453.10 57.54 C 455.85 57.51 458.60 57.49 461.36 57.48 C 461.38 43.65 461.39 29.82 461.36 16.00 C 459.31 16.00 457.26 16.00 455.21 16.01 Z" />
<path fill="#033a6f" opacity="1.00" d=" M 482.43 10.34 C 486.08 9.04 490.14 9.30 493.92 9.82 C 497.71 10.42 499.72 14.38 499.49 17.94 C 499.50 30.64 499.54 43.35 499.48 56.05 C 499.65 59.52 497.45 63.18 493.85 63.73 C 490.39 64.20 486.79 64.30 483.37 63.57 C 480.04 62.69 478.29 59.16 478.40 55.93 C 478.34 43.28 478.38 30.63 478.39 17.99 C 478.31 14.99 479.44 11.56 482.43 10.34 M 484.71 15.70 C 484.08 22.45 484.48 29.24 484.38 36.00 C 484.47 43.24 484.12 50.49 484.64 57.72 C 487.49 57.99 490.35 57.99 493.21 57.79 C 493.70 43.80 493.65 29.76 493.23 15.77 C 490.39 15.63 487.55 15.63 484.71 15.70 Z" />
<path fill="#033a6f" opacity="1.00" d=" M 509.40 17.99 C 509.38 14.75 510.75 10.95 514.21 10.04 C 517.69 9.17 521.39 9.28 524.92 9.83 C 527.88 10.37 530.08 13.04 530.32 16.00 C 530.72 20.07 530.46 24.18 530.46 28.26 C 528.42 28.25 526.38 28.24 524.35 28.22 C 524.40 24.07 524.44 19.91 524.16 15.76 C 521.35 15.63 518.53 15.63 515.73 15.75 C 515.38 29.76 515.31 43.81 515.76 57.82 C 518.56 57.99 521.37 57.98 524.18 57.79 C 524.53 52.01 524.32 46.22 524.39 40.44 C 526.43 40.48 528.46 40.51 530.51 40.56 C 530.40 46.05 530.71 51.55 530.38 57.04 C 530.30 60.51 527.52 63.69 523.99 63.87 C 520.34 64.04 516.38 64.59 512.98 62.95 C 509.75 61.27 509.28 57.31 509.36 54.05 C 509.42 42.03 509.32 30.01 509.40 17.99 Z" />
<path fill="#033a6f" opacity="1.00" d=" M 537.96 10.00 C 540.05 10.00 542.15 10.01 544.25 10.04 C 546.01 18.76 547.94 27.44 549.72 36.15 C 550.05 38.10 550.96 39.86 552.01 41.51 C 554.82 31.18 556.06 20.49 558.15 10.00 C 560.19 10.00 562.23 10.00 564.28 10.02 C 561.78 24.46 559.05 38.85 556.55 53.29 C 555.97 56.12 555.73 59.37 553.50 61.47 C 550.94 64.22 546.85 63.33 543.51 63.58 C 543.50 61.58 543.50 59.58 543.51 57.58 C 545.49 57.51 547.48 57.42 549.47 57.30 C 550.28 53.75 550.93 50.17 551.59 46.59 C 549.78 46.53 547.99 46.48 546.21 46.42 C 543.59 34.25 540.70 22.14 537.96 10.00 Z" />
<path fill="#033a6f" opacity="1.00" d=" M 572.36 10.01 C 578.36 9.99 584.36 10.00 590.37 10.01 C 590.37 12.00 590.37 14.00 590.37 15.99 C 586.37 16.00 582.36 15.99 578.36 16.01 C 578.36 31.85 578.44 47.69 578.31 63.53 C 576.33 63.52 574.35 63.51 572.38 63.50 C 572.36 45.67 572.40 27.84 572.36 10.01 Z" />
<path fill="#033a6f" opacity="1.00" d=" M 602.36 10.25 C 606.05 9.06 610.11 9.29 613.91 9.86 C 617.56 10.60 619.48 14.45 619.24 17.93 C 619.25 30.64 619.28 43.36 619.23 56.07 C 619.50 59.84 616.79 63.61 612.88 63.86 C 609.28 64.07 605.43 64.51 602.02 63.12 C 598.95 61.76 598.07 58.14 598.12 55.08 C 598.13 42.71 598.09 30.34 598.14 17.96 C 598.08 14.91 599.29 11.44 602.36 10.25 M 604.44 15.75 C 604.14 29.74 604.11 43.76 604.45 57.75 C 607.24 57.99 610.05 58.00 612.85 57.80 C 613.67 43.83 613.20 29.79 613.10 15.80 C 610.21 15.64 607.32 15.63 604.44 15.75 Z" />
<path fill="#033a6f" opacity="1.00" d=" M 629.36 10.02 C 634.38 10.21 639.52 9.43 644.47 10.52 C 649.69 12.22 649.34 18.62 649.12 23.05 C 649.28 25.80 647.52 27.99 645.90 30.00 C 650.87 34.72 648.67 41.95 649.13 47.99 C 648.78 52.85 650.69 59.61 645.52 62.53 C 640.40 64.47 634.72 63.12 629.37 63.51 C 629.37 45.68 629.40 27.85 629.36 10.02 M 635.38 15.94 C 635.37 19.68 635.37 23.42 635.38 27.15 C 637.87 26.78 641.72 27.71 642.79 24.65 C 643.44 21.89 643.02 19.03 642.80 16.24 C 640.32 16.05 637.85 15.99 635.38 15.94 M 635.39 32.84 C 635.37 41.08 635.36 49.32 635.39 57.56 C 637.85 57.51 640.30 57.45 642.77 57.32 C 643.28 50.28 643.31 43.19 642.93 36.15 C 642.52 32.44 638.05 33.10 635.39 32.84 Z" />
<path fill="#033a6f" opacity="1.00" d=" M 659.12 10.00 C 661.15 10.00 663.19 10.00 665.24 10.00 C 665.25 15.61 665.27 21.22 665.22 26.83 C 668.93 27.05 673.19 26.21 676.40 28.59 C 679.21 30.80 679.10 34.72 679.15 37.95 C 679.01 44.29 679.39 50.64 678.92 56.97 C 678.76 60.15 676.17 63.01 672.98 63.33 C 668.37 63.75 663.73 63.42 659.11 63.48 C 659.14 45.66 659.12 27.83 659.12 10.00 M 665.26 32.94 C 665.25 41.14 665.25 49.34 665.26 57.54 C 667.77 57.51 670.28 57.44 672.80 57.25 C 673.10 49.25 673.16 41.23 672.77 33.23 C 670.26 33.05 667.76 32.98 665.26 32.94 Z" />
<path fill="#033a6f" opacity="1.00" d=" M 686.00 10.00 C 688.03 10.00 690.07 10.00 692.12 10.01 C 692.09 27.84 692.21 45.67 692.05 63.51 C 690.04 63.51 688.03 63.51 686.03 63.52 C 685.97 45.68 686.01 27.84 686.00 10.00 Z" />
<path fill="#033a6f" opacity="1.00" d=" M 702.76 10.00 C 704.75 10.00 706.75 10.00 708.76 10.01 C 708.76 16.94 708.68 23.87 708.81 30.79 C 711.74 27.91 714.91 25.20 717.29 21.82 C 717.78 17.91 717.43 13.96 717.46 10.03 C 719.46 10.01 721.46 10.00 723.48 9.99 C 723.54 27.82 723.48 45.66 723.50 63.49 C 721.49 63.50 719.49 63.50 717.50 63.49 C 717.49 52.27 717.52 41.04 717.48 29.81 C 714.63 32.90 710.81 35.38 708.90 39.14 C 708.50 47.25 708.88 55.39 708.74 63.51 C 706.75 63.51 704.76 63.51 702.79 63.51 C 702.71 45.67 702.76 27.84 702.76 10.00 Z" />
<path fill="#033a6f" opacity="1.00" d=" M 747.64 10.00 C 749.67 10.00 751.72 10.00 753.76 10.01 C 753.73 25.84 753.74 41.66 753.76 57.49 C 756.46 57.50 759.17 57.50 761.88 57.49 C 761.87 41.66 761.87 25.83 761.88 10.01 C 763.91 10.00 765.95 10.00 768.00 10.00 C 768.00 25.83 768.00 41.66 767.99 57.49 C 769.62 57.50 771.25 57.51 772.90 57.53 C 772.86 61.93 772.89 66.33 772.83 70.73 C 771.45 70.66 770.10 70.61 768.75 70.55 C 768.33 68.19 767.90 65.84 767.46 63.48 C 760.86 63.53 754.26 63.47 747.67 63.53 C 747.58 45.68 747.63 27.84 747.64 10.00 Z" />
<path fill="#033a6f" opacity="1.00" d=" M 780.24 10.01 C 786.24 9.99 792.24 10.00 798.25 10.01 C 798.24 12.00 798.25 14.00 798.25 15.99 C 794.28 16.00 790.32 15.99 786.36 16.01 C 786.38 19.63 786.38 23.25 786.36 26.87 C 789.31 26.87 792.27 26.88 795.24 26.90 C 795.24 28.93 795.25 30.96 795.25 32.99 C 792.28 33.00 789.32 33.00 786.36 33.02 C 786.39 41.18 786.37 49.35 786.37 57.51 C 790.33 57.49 794.28 57.49 798.25 57.50 C 798.24 59.50 798.24 61.50 798.24 63.50 C 792.24 63.49 786.24 63.52 780.24 63.48 C 780.26 45.65 780.26 27.83 780.24 10.01 Z" />
<path fill="#033a6f" opacity="1.00" d=" M 807.64 9.99 C 809.63 10.00 811.64 10.00 813.65 10.02 C 813.60 15.68 813.62 21.34 813.63 27.00 C 816.63 27.00 819.63 27.00 822.64 26.99 C 822.61 21.32 822.61 15.66 822.64 10.00 C 824.67 10.00 826.72 10.00 828.76 10.01 C 828.71 27.88 828.80 45.75 828.72 63.61 C 826.79 63.24 824.20 64.23 822.75 62.77 C 822.42 52.86 822.71 42.93 822.64 33.01 C 819.63 33.00 816.63 33.00 813.63 33.00 C 813.61 43.17 813.63 53.33 813.62 63.50 C 811.64 63.51 809.65 63.52 807.69 63.53 C 807.55 45.68 807.64 27.84 807.64 9.99 Z" />
<path fill="#033a6f" opacity="1.00" d=" M 836.36 10.02 C 844.91 9.98 853.45 10.01 862.00 10.00 C 861.99 12.00 861.99 14.00 862.00 15.99 C 858.74 16.00 855.49 16.00 852.24 16.01 C 852.26 31.84 852.26 47.66 852.24 63.49 C 850.18 63.50 848.14 63.50 846.11 63.49 C 846.14 47.66 846.11 31.84 846.12 16.01 C 842.86 16.00 839.61 16.00 836.36 15.98 C 836.35 13.99 836.36 12.01 836.36 10.02 Z" />
<path fill="#033a6f" opacity="1.00" d=" M 870.24 10.02 C 874.80 10.08 879.39 9.74 883.95 10.19 C 887.30 10.59 889.89 13.67 889.93 17.01 C 890.09 24.36 890.02 31.71 889.96 39.06 C 890.04 41.89 888.49 44.75 885.81 45.84 C 882.75 46.98 879.41 46.56 876.23 46.68 C 876.25 52.29 876.27 57.90 876.21 63.51 C 874.21 63.51 872.23 63.51 870.26 63.51 C 870.23 45.68 870.27 27.85 870.24 10.02 M 876.26 15.93 C 876.24 24.13 876.25 32.33 876.26 40.53 C 878.73 40.51 881.22 40.45 883.71 40.29 C 883.94 32.30 884.04 24.28 883.64 16.29 C 881.18 16.07 878.72 15.98 876.26 15.93 Z" />
<path fill="#033a6f" opacity="1.00" d=" M 422.12 27.22 C 427.11 27.27 432.09 27.26 437.08 27.23 C 437.10 28.98 437.11 30.73 437.12 32.48 C 432.11 32.51 427.11 32.51 422.10 32.48 C 422.10 30.73 422.11 28.97 422.12 27.22 Z" />
<path fill="#033a6f" opacity="1.00" d=" M 332.39 89.65 C 340.16 88.04 348.13 88.59 356.00 88.50 C 365.26 88.62 374.73 87.83 383.76 90.39 C 391.69 92.61 399.11 97.28 403.75 104.20 C 409.07 112.02 411.09 121.66 411.13 131.01 C 411.11 197.01 411.14 263.00 411.12 329.00 C 410.98 339.87 408.04 351.31 400.35 359.34 C 393.05 366.95 382.37 370.37 372.04 370.75 C 363.01 371.02 353.97 370.82 344.93 370.87 C 335.62 370.89 325.98 369.18 318.14 363.89 C 310.63 359.04 305.77 350.91 303.65 342.36 C 301.75 335.41 301.81 328.14 301.87 321.00 C 301.88 261.00 301.87 201.00 301.87 141.00 C 301.63 129.38 301.69 117.05 307.73 106.70 C 312.71 97.53 322.31 91.61 332.39 89.65 M 341.43 119.69 C 335.46 120.20 332.52 126.59 332.77 131.95 C 332.71 196.64 332.78 261.34 332.73 326.03 C 332.68 329.88 333.25 334.07 335.96 337.01 C 338.22 339.47 341.76 339.89 344.92 339.89 C 352.30 339.89 359.69 339.85 367.08 339.90 C 370.08 339.90 373.37 339.79 375.85 337.87 C 379.17 335.38 380.33 331.03 380.26 327.06 C 380.24 262.02 380.25 196.98 380.25 131.94 C 380.36 127.34 378.37 122.00 373.73 120.31 C 369.31 118.82 364.56 119.52 360.00 119.37 C 353.81 119.53 347.59 119.01 341.43 119.69 Z" />
<path fill="#033a6f" opacity="1.00" d=" M 145.63 90.90 C 180.84 90.86 216.04 90.86 251.24 90.90 C 251.26 183.43 251.26 275.96 251.24 368.49 C 241.20 368.42 231.15 368.69 221.13 368.39 L 220.46 367.83 C 220.26 285.86 220.45 203.87 220.37 121.90 C 205.75 121.86 191.13 121.86 176.52 121.90 C 176.49 204.10 176.51 286.30 176.51 368.51 C 166.23 368.51 155.95 368.47 145.67 368.53 C 145.58 275.98 145.64 183.44 145.63 90.90 Z" />
<path fill="#033a6f" opacity="1.00" d=" M 476.15 90.91 C 508.06 90.85 539.97 90.85 571.87 90.91 C 571.88 183.44 571.86 275.97 571.89 368.49 C 561.56 368.50 551.23 368.51 540.90 368.49 C 540.84 286.29 540.89 204.08 540.88 121.88 C 529.21 121.88 517.55 121.86 505.88 121.88 C 502.84 190.86 499.78 259.83 496.75 328.80 C 496.31 338.88 494.99 349.55 489.09 358.04 C 484.81 364.23 477.26 367.08 470.05 367.94 C 461.73 368.88 453.35 368.38 445.00 368.49 C 445.01 358.15 444.98 347.81 445.02 337.47 C 450.62 337.34 456.28 337.91 461.85 337.15 C 465.30 336.65 465.51 332.58 465.78 329.85 C 469.25 250.20 472.75 170.56 476.15 90.91 Z" />
<path fill="#033a6f" opacity="1.00" d=" M 144.47 488.83 C 156.46 497.09 168.21 505.73 180.54 513.50 C 212.26 533.88 245.88 551.46 281.15 564.86 C 322.68 580.68 366.56 590.58 410.96 593.07 C 481.29 597.26 551.92 582.48 616.51 554.99 C 575.87 537.73 535.11 520.76 494.42 503.61 C 485.41 499.72 476.24 496.20 467.35 492.05 C 481.28 491.12 495.25 490.91 509.20 490.26 C 514.37 490.14 519.62 489.42 524.74 490.50 C 573.45 500.16 622.18 509.73 670.91 519.33 C 680.91 521.07 690.79 523.72 700.86 524.93 C 713.03 520.49 724.66 514.59 736.67 509.69 C 760.11 499.74 785.11 490.83 810.98 492.61 C 820.89 493.19 830.58 495.62 839.85 499.11 C 860.30 505.37 880.87 511.25 901.35 517.45 C 847.93 537.40 794.42 557.08 740.95 576.88 C 720.08 652.72 699.32 728.59 678.49 804.44 C 677.87 807.14 675.51 808.82 673.69 810.70 C 664.60 819.29 655.82 828.21 646.62 836.67 C 649.33 793.11 652.37 749.56 654.55 705.96 C 655.52 686.32 656.46 666.67 656.62 647.00 C 656.59 642.02 656.43 637.03 655.76 632.10 C 583.87 643.76 510.19 646.50 437.99 635.97 C 399.94 630.80 362.05 623.53 325.48 611.65 C 287.80 599.50 251.41 582.78 218.79 560.23 C 190.46 540.59 164.81 516.73 144.47 488.83 Z" />
</g>
<g id="#3594b5ff">
<path fill="#3594b5" opacity="1.00" d=" M 627.62 90.89 C 658.45 90.84 689.29 90.88 720.13 90.87 C 720.13 101.22 720.13 111.56 720.13 121.91 C 699.64 121.92 679.14 121.87 658.65 121.93 C 658.64 140.91 658.65 159.89 658.65 178.88 C 674.10 178.86 689.55 178.87 705.00 178.87 C 705.00 189.29 705.00 199.71 705.00 210.13 C 689.55 210.13 674.10 210.13 658.65 210.13 C 658.65 252.57 658.63 295.02 658.65 337.47 C 679.14 337.49 699.62 337.48 720.10 337.48 C 720.14 347.82 720.14 358.17 720.10 368.52 C 689.50 368.46 658.88 368.62 628.28 368.45 C 628.12 368.08 627.79 367.34 627.63 366.97 C 627.59 274.95 627.62 182.92 627.62 90.89 Z" />
<path fill="#3594b5" opacity="1.00" d=" M 756.39 90.90 C 800.54 90.84 844.70 90.90 888.85 90.88 C 888.85 101.20 888.83 111.53 888.86 121.86 C 871.89 121.83 854.93 121.85 837.96 121.85 C 837.98 204.06 837.96 286.28 837.97 368.49 C 827.69 368.49 817.41 368.48 807.14 368.49 C 807.17 286.27 807.14 204.06 807.15 121.85 C 790.22 121.86 773.30 121.83 756.38 121.86 C 756.42 111.54 756.39 101.22 756.39 90.90 Z" />
<path fill="#3594b5" opacity="1.00" d=" M 19.85 197.07 C 27.92 172.99 38.72 149.46 54.36 129.33 C 52.69 134.50 50.49 139.49 48.88 144.69 C 36.00 184.02 33.74 226.00 36.06 267.06 C 37.67 294.77 41.49 322.31 46.61 349.58 C 47.83 355.58 50.01 361.33 51.81 367.18 C 67.61 415.83 89.22 463.03 119.71 504.30 C 141.30 533.65 167.40 559.68 196.84 581.15 C 230.70 605.98 268.73 624.63 308.13 638.87 C 235.51 631.11 166.98 597.54 112.64 549.33 C 59.89 502.46 19.38 440.34 3.68 371.11 C 2.06 363.16 -0.17 355.19 0.13 347.01 C -0.12 296.51 4.17 245.34 19.85 197.07 Z" />
<path fill="#3594b5" opacity="1.00" d=" M 145.52 391.27 C 150.56 391.42 155.63 390.96 160.65 391.51 C 164.69 392.03 167.92 395.88 167.47 399.99 C 167.59 402.69 165.61 404.65 163.84 406.39 C 170.90 409.03 171.03 420.22 164.00 422.93 C 158.06 424.81 151.65 423.42 145.51 423.86 C 145.52 412.99 145.50 402.13 145.52 391.27 M 150.48 395.85 C 150.49 398.82 150.49 401.79 150.48 404.77 C 153.43 404.69 156.45 405.05 159.36 404.38 C 162.96 403.40 163.07 397.53 159.58 396.36 C 156.63 395.52 153.51 395.92 150.48 395.85 M 150.47 409.23 C 150.49 412.58 150.49 415.92 150.47 419.27 C 153.88 419.19 157.36 419.63 160.70 418.81 C 164.66 417.77 165.02 411.37 161.20 409.92 C 157.76 408.75 154.04 409.38 150.47 409.23 Z" />
<path fill="#3594b5" opacity="1.00" d=" M 179.63 393.63 C 186.65 389.08 196.12 389.74 203.03 394.18 C 201.99 395.74 200.94 397.29 199.89 398.84 C 195.28 396.00 189.28 394.59 184.28 397.32 C 176.00 401.37 175.68 414.82 183.56 419.47 C 188.62 422.62 195.06 421.37 199.88 418.38 C 200.94 419.90 202.00 421.42 203.06 422.96 C 195.60 427.90 184.76 428.17 177.82 422.17 C 169.59 414.89 170.28 399.69 179.63 393.63 Z" />
<path fill="#3594b5" opacity="1.00" d=" M 207.52 391.26 C 214.13 391.28 220.74 391.29 227.35 391.26 C 227.36 392.91 227.36 394.57 227.37 396.23 C 222.48 396.25 217.60 396.25 212.72 396.23 C 212.72 398.91 212.72 401.58 212.73 404.26 C 217.24 404.28 221.74 404.28 226.24 404.26 C 226.24 405.91 226.23 407.57 226.23 409.23 C 221.73 409.25 217.22 409.24 212.72 409.23 C 212.73 413.17 212.72 417.10 212.73 421.04 C 217.69 421.02 222.65 421.03 227.62 421.03 C 227.61 422.64 227.61 424.25 227.62 425.87 C 220.92 425.83 214.21 425.84 207.51 425.86 C 207.52 414.33 207.50 402.80 207.52 391.26 Z" />
<path fill="#3594b5" opacity="1.00" d=" M 233.14 391.26 C 239.67 391.28 246.20 391.29 252.73 391.25 C 252.73 392.91 252.73 394.57 252.73 396.24 C 247.94 396.24 243.15 396.24 238.36 396.24 C 238.37 406.11 238.36 415.98 238.37 425.85 C 236.62 425.85 234.87 425.85 233.13 425.85 C 233.17 414.32 233.15 402.79 233.14 391.26 Z" />
<path fill="#3594b5" opacity="1.00" d=" M 257.38 391.27 C 264.58 391.28 271.77 391.29 278.97 391.26 C 278.96 401.40 278.98 411.53 278.96 421.67 C 279.84 421.72 281.61 421.82 282.50 421.87 C 282.48 425.53 282.48 429.20 282.50 432.86 C 280.86 432.85 279.23 432.84 277.61 432.84 C 277.63 430.76 277.64 428.69 277.66 426.61 C 270.35 426.59 263.04 426.60 255.73 426.61 C 255.72 428.69 255.72 430.78 255.73 432.88 C 254.11 432.86 252.49 432.84 250.88 432.84 C 250.88 429.22 250.88 425.60 250.86 421.99 C 252.14 421.82 253.43 421.65 254.71 421.49 C 258.71 411.90 257.08 401.36 257.38 391.27 M 262.61 396.24 C 262.59 404.80 263.22 413.61 260.14 421.79 C 264.68 421.73 269.22 421.76 273.76 421.76 C 273.75 413.25 273.75 404.75 273.76 396.24 C 270.04 396.24 266.32 396.24 262.61 396.24 Z" />
<path fill="#3594b5" opacity="1.00" d=" M 298.21 391.26 C 299.80 391.26 301.40 391.26 303.00 391.26 C 307.74 402.78 312.45 414.32 317.14 425.86 C 315.20 425.85 313.27 425.84 311.34 425.83 C 310.29 423.01 309.22 420.21 308.19 417.39 C 303.16 417.34 298.13 417.37 293.10 417.36 C 292.01 420.19 290.92 423.02 289.83 425.85 C 287.91 425.85 285.98 425.85 284.07 425.85 C 288.79 414.32 293.48 402.78 298.21 391.26 M 295.00 412.49 C 298.74 412.52 302.47 412.52 306.21 412.49 C 304.39 407.66 302.55 402.85 300.63 398.06 C 298.65 402.83 296.84 407.67 295.00 412.49 Z" />
<path fill="#3594b5" opacity="1.00" d=" M 334.03 391.26 C 339.53 391.47 345.10 390.84 350.56 391.65 C 355.20 392.44 358.29 397.36 357.19 401.90 C 356.86 404.32 354.91 405.94 353.21 407.49 C 356.81 408.75 359.49 412.07 359.26 416.00 C 359.54 420.88 355.58 425.35 350.72 425.72 C 345.16 426.06 339.59 425.74 334.02 425.86 C 334.04 414.33 334.03 402.79 334.03 391.26 M 339.24 396.24 C 339.24 399.37 339.24 402.51 339.24 405.65 C 342.51 405.52 345.91 406.06 349.09 405.10 C 352.77 403.70 352.47 397.45 348.55 396.57 C 345.49 395.95 342.34 396.31 339.24 396.24 M 339.24 410.35 C 339.24 413.91 339.24 417.47 339.24 421.03 C 342.95 420.89 346.79 421.50 350.41 420.48 C 354.39 419.16 354.67 412.75 350.77 411.15 C 347.09 409.82 343.06 410.53 339.24 410.35 Z" />
<path fill="#3594b5" opacity="1.00" d=" M 374.39 391.26 C 382.62 391.29 390.85 391.27 399.08 391.27 C 399.10 392.92 399.12 394.57 399.13 396.23 C 395.87 396.24 392.61 396.24 389.36 396.24 C 389.38 406.11 389.36 415.98 389.37 425.85 C 387.62 425.85 385.87 425.85 384.13 425.85 C 384.18 415.98 384.13 406.11 384.16 396.24 C 380.90 396.24 377.64 396.25 374.39 396.23 C 374.39 394.57 374.38 392.91 374.39 391.26 Z" />
<path fill="#3594b5" opacity="1.00" d=" M 402.91 391.28 C 408.15 391.40 413.41 390.98 418.64 391.50 C 422.86 391.96 426.40 395.66 426.24 400.00 C 426.55 403.14 424.34 405.57 422.15 407.49 C 430.29 409.84 429.87 422.76 422.00 425.15 C 415.77 426.63 409.23 425.50 402.88 425.85 C 402.90 414.32 402.84 402.80 402.91 391.28 M 408.12 396.23 C 408.12 399.37 408.12 402.51 408.11 405.65 C 411.41 405.50 414.84 406.08 418.03 405.08 C 421.64 403.63 421.29 397.55 417.50 396.58 C 414.42 395.94 411.24 396.31 408.12 396.23 M 408.11 410.35 C 408.12 413.91 408.12 417.47 408.12 421.04 C 411.89 420.89 415.81 421.51 419.47 420.39 C 423.24 418.93 423.45 412.84 419.73 411.19 C 416.04 409.79 411.96 410.55 408.11 410.35 Z" />
<path fill="#3594b5" opacity="1.00" d=" M 444.33 391.12 C 451.92 389.10 460.92 392.05 464.87 399.08 C 468.81 406.01 468.04 415.60 462.39 421.40 C 455.66 428.34 443.23 428.44 436.36 421.64 C 429.22 414.67 429.45 401.61 436.96 394.99 C 439.04 393.11 441.62 391.83 444.33 391.12 M 445.37 396.42 C 437.09 398.73 434.39 410.05 439.42 416.58 C 443.41 422.18 452.32 422.87 457.41 418.41 C 462.84 413.64 463.01 404.18 457.81 399.18 C 454.61 396.02 449.61 395.12 445.37 396.42 Z" />
<path fill="#3594b5" opacity="1.00" d=" M 472.38 391.27 C 477.67 391.52 483.09 390.66 488.30 391.89 C 495.96 394.05 497.26 405.57 491.20 410.17 C 487.34 413.22 482.13 412.02 477.61 412.24 C 477.60 416.78 477.59 421.32 477.62 425.86 C 475.87 425.85 474.12 425.85 472.38 425.86 C 472.40 414.33 472.41 402.80 472.38 391.27 M 477.61 396.22 C 477.59 399.95 477.60 403.68 477.61 407.42 C 480.33 407.34 483.12 407.64 485.80 407.04 C 490.37 405.87 490.65 398.39 486.32 396.71 C 483.50 395.88 480.50 396.34 477.61 396.22 Z" />
<path fill="#3594b5" opacity="1.00" d=" M 496.65 391.27 C 498.38 391.27 500.13 391.27 501.88 391.27 C 502.12 395.94 501.09 400.88 502.57 405.38 C 506.18 408.26 511.46 406.34 515.77 406.87 C 515.75 401.67 515.76 396.47 515.76 391.28 C 517.49 391.27 519.23 391.26 520.98 391.26 C 520.96 402.79 520.96 414.33 520.98 425.87 C 519.23 425.85 517.49 425.84 515.75 425.84 C 515.76 421.17 515.75 416.50 515.76 411.84 C 509.86 411.29 501.87 413.85 497.88 408.09 C 495.51 402.85 497.06 396.84 496.65 391.27 Z" />
<path fill="#3594b5" opacity="1.00" d=" M 527.91 391.27 C 534.48 391.27 541.04 391.30 547.62 391.26 C 547.60 392.91 547.60 394.57 547.61 396.23 C 542.78 396.25 537.95 396.24 533.12 396.24 C 533.12 398.91 533.12 401.59 533.12 404.27 C 537.58 404.27 542.04 404.29 546.50 404.26 C 546.49 405.91 546.48 407.57 546.49 409.23 C 542.03 409.25 537.58 409.24 533.12 409.24 C 533.12 413.17 533.12 417.10 533.12 421.04 C 538.03 421.03 542.95 421.03 547.86 421.03 C 547.85 422.63 547.85 424.25 547.85 425.86 C 541.19 425.83 534.53 425.85 527.88 425.85 C 527.90 414.32 527.84 402.80 527.91 391.27 Z" />
<path fill="#3594b5" opacity="1.00" d=" M 558.66 393.69 C 565.69 389.06 575.20 389.76 582.17 394.16 C 581.12 395.73 580.05 397.28 578.99 398.84 C 574.20 395.81 567.77 394.55 562.72 397.70 C 554.88 402.25 555.10 415.49 563.14 419.73 C 568.15 422.57 574.32 421.27 578.99 418.36 C 580.05 419.89 581.11 421.42 582.16 422.96 C 574.51 428.03 563.20 428.19 556.37 421.64 C 548.77 414.18 549.61 399.65 558.66 393.69 Z" />
<path fill="#3594b5" opacity="1.00" d=" M 586.64 391.27 C 588.38 391.27 590.12 391.27 591.87 391.27 C 591.84 396.30 591.80 401.34 591.91 406.37 C 596.50 401.42 600.95 396.35 605.42 391.29 C 607.85 391.27 610.28 391.28 612.72 391.34 C 607.75 396.63 602.72 401.86 597.76 407.17 C 603.52 413.41 609.31 419.63 615.11 425.84 C 612.49 425.84 609.88 425.84 607.27 425.84 C 602.15 420.22 597.14 414.49 591.91 408.97 C 591.79 414.60 591.84 420.22 591.87 425.85 C 590.12 425.85 588.37 425.85 586.63 425.85 C 586.64 414.33 586.63 402.80 586.64 391.27 Z" />
<path fill="#3594b5" opacity="1.00" d=" M 624.46 391.63 C 630.88 389.37 638.66 390.54 643.67 395.31 C 650.90 402.07 650.96 414.94 643.78 421.77 C 636.34 429.04 622.48 428.16 616.38 419.58 C 609.58 410.51 613.22 395.18 624.46 391.63 M 628.30 396.14 C 620.06 397.53 616.37 407.85 620.12 414.82 C 623.37 421.87 633.73 423.42 639.30 418.30 C 644.61 413.54 644.76 404.28 639.71 399.28 C 636.79 396.35 632.29 395.28 628.30 396.14 Z" />
<path fill="#3594b5" opacity="1.00" d=" M 658.58 391.33 C 659.99 391.28 661.40 391.25 662.83 391.22 C 665.74 398.22 668.31 405.35 671.26 412.33 C 674.10 405.35 676.82 398.33 679.54 391.31 C 680.96 391.28 682.39 391.25 683.84 391.23 C 686.68 402.76 689.47 414.31 692.25 425.87 C 690.37 425.85 688.50 425.84 686.64 425.83 C 684.77 417.72 683.00 409.59 680.94 401.54 C 678.22 407.81 675.83 414.22 673.27 420.55 C 671.95 420.59 670.62 420.63 669.31 420.68 C 666.66 414.29 664.26 407.81 661.51 401.47 C 659.57 409.58 657.68 417.71 655.85 425.84 C 653.96 425.84 652.08 425.85 650.21 425.85 C 653.02 414.35 655.83 402.85 658.58 391.33 Z" />
<path fill="#3594b5" opacity="1.00" d=" M 709.64 391.27 C 719.00 391.28 728.37 391.29 737.74 391.26 C 737.71 402.80 737.73 414.33 737.72 425.86 C 735.97 425.85 734.23 425.85 732.50 425.85 C 732.53 415.98 732.51 406.11 732.50 396.23 C 726.61 396.25 720.73 396.24 714.84 396.24 C 714.86 406.11 714.82 415.98 714.87 425.85 C 713.11 425.85 711.37 425.85 709.63 425.85 C 709.64 414.32 709.63 402.80 709.64 391.27 Z" />
<path fill="#3594b5" opacity="1.00" d=" M 755.34 391.31 C 763.15 388.91 772.72 391.88 776.68 399.30 C 780.30 405.93 779.73 414.92 774.70 420.69 C 768.24 428.25 755.30 428.69 748.21 421.78 C 740.99 414.98 741.07 402.05 748.32 395.29 C 750.29 393.42 752.73 392.06 755.34 391.31 M 756.49 396.62 C 748.72 399.22 746.33 409.80 750.83 416.21 C 754.74 422.15 764.10 423.03 769.25 418.23 C 774.71 413.34 774.62 403.69 769.14 398.85 C 765.76 395.83 760.70 395.11 756.49 396.62 Z" />
<path fill="#3594b5" opacity="1.00" d=" M 785.03 391.26 C 793.60 391.29 802.16 391.28 810.74 391.26 C 810.71 402.80 810.73 414.33 810.72 425.86 C 808.97 425.85 807.23 425.85 805.50 425.85 C 805.53 415.98 805.51 406.11 805.50 396.23 C 800.41 396.25 795.32 396.24 790.24 396.24 C 790.23 403.18 790.25 410.12 790.25 417.06 C 790.22 419.54 790.05 422.34 788.21 424.22 C 786.23 426.35 783.07 425.97 780.45 426.24 C 780.39 424.61 780.35 422.98 780.31 421.35 C 781.77 421.07 783.23 420.78 784.70 420.47 C 785.40 410.75 784.86 400.99 785.03 391.26 Z" />
<path fill="#3594b5" opacity="1.00" d=" M 817.52 391.26 C 824.13 391.28 830.74 391.29 837.35 391.26 C 837.35 392.91 837.35 394.57 837.37 396.23 C 832.48 396.25 827.60 396.25 822.72 396.23 C 822.72 398.91 822.72 401.58 822.73 404.26 C 827.23 404.28 831.74 404.28 836.24 404.26 C 836.23 405.91 836.23 407.57 836.23 409.23 C 831.72 409.25 827.22 409.24 822.72 409.23 C 822.72 413.17 822.72 417.10 822.73 421.04 C 827.69 421.02 832.65 421.03 837.62 421.03 C 837.60 422.64 837.60 424.25 837.62 425.87 C 830.91 425.83 824.21 425.84 817.51 425.86 C 817.52 414.33 817.50 402.79 817.52 391.26 Z" />
<path fill="#3594b5" opacity="1.00" d=" M 840.27 391.26 C 848.46 391.29 856.66 391.29 864.85 391.26 C 864.84 392.91 864.84 394.57 864.85 396.24 C 861.60 396.24 858.36 396.24 855.12 396.24 C 855.13 406.11 855.11 415.98 855.13 425.85 C 853.37 425.84 851.61 425.84 849.87 425.85 C 849.89 415.98 849.87 406.11 849.88 396.24 C 846.67 396.24 843.47 396.24 840.27 396.24 C 840.26 394.57 840.26 392.91 840.27 391.26 Z" />
<path fill="#3594b5" opacity="1.00" d=" M 868.76 391.27 C 875.37 391.27 881.99 391.29 888.62 391.26 C 888.60 392.91 888.59 394.57 888.61 396.23 C 883.72 396.25 878.84 396.24 873.96 396.24 C 873.96 398.91 873.96 401.59 873.97 404.27 C 878.42 404.28 882.89 404.29 887.35 404.26 C 887.35 405.91 887.35 407.57 887.37 409.23 C 882.90 409.25 878.43 409.24 873.97 409.24 C 873.96 413.17 873.96 417.10 873.97 421.03 C 878.93 421.03 883.90 421.03 888.87 421.03 C 888.85 422.63 888.84 424.25 888.85 425.86 C 882.15 425.83 875.45 425.85 868.75 425.85 C 868.76 414.32 868.75 402.79 868.76 391.27 Z" />
<path fill="#3594b5" opacity="1.00" d=" M 7.01 485.78 C 30.41 515.16 55.39 543.58 84.49 567.48 C 94.89 575.94 105.61 584.11 117.32 590.68 C 151.29 610.37 187.46 626.66 225.55 636.49 C 260.49 645.60 297.08 648.83 333.01 644.65 C 339.93 645.83 346.38 649.21 353.08 651.37 C 308.80 661.52 262.44 664.87 217.55 656.70 C 203.04 654.05 188.72 650.25 174.85 645.21 C 168.66 642.87 162.22 641.25 155.99 639.02 C 120.54 626.80 87.44 608.54 56.52 587.48 C 55.06 586.59 54.19 585.10 53.51 583.59 C 38.09 550.95 22.34 518.46 7.01 485.78 Z" />
<path fill="#3594b5" opacity="1.00" d=" M 371.54 654.44 C 372.86 653.60 374.47 654.11 375.91 654.23 C 384.90 655.63 393.96 656.57 402.92 658.13 C 369.99 676.23 334.54 690.57 297.29 696.58 C 273.78 700.30 249.57 700.40 226.18 695.72 C 191.19 689.16 156.90 677.17 126.71 658.11 C 172.20 672.43 220.04 679.48 267.74 678.55 C 303.36 677.49 340.08 672.17 371.54 654.44 Z" />
</g>
</svg>
