<?xml version="1.0" encoding="UTF-8" ?>
<!DOCTYPE svg PUBLIC "-//W3C//DTD SVG 1.1//EN" "http://www.w3.org/Graphics/SVG/1.1/DTD/svg11.dtd">
<svg width="1232pt" height="287pt" viewBox="0 0 1232 287" version="1.1" xmlns="http://www.w3.org/2000/svg">
<g id="#fdfdfdfe">
<path fill="#fdfdfd" opacity="1.00" d=" M 721.53 1.86 C 731.61 0.19 741.86 1.08 752.03 0.84 C 762.08 0.74 772.75 2.49 780.73 9.06 C 789.85 16.46 793.21 28.71 793.27 40.04 C 793.27 99.00 793.26 157.97 793.27 216.93 C 793.54 226.59 792.29 236.74 786.95 245.02 C 781.83 253.23 772.55 258.12 763.15 259.48 C 753.80 260.77 744.33 259.91 734.93 260.16 C 724.53 260.52 713.43 258.67 705.26 251.77 C 696.63 244.56 693.24 232.93 693.05 222.03 C 693.03 161.36 693.05 100.69 693.04 40.02 C 693.11 31.07 695.06 21.75 700.47 14.44 C 705.40 7.59 713.37 3.44 721.53 1.86 M 730.30 29.43 C 727.37 29.59 724.35 31.04 723.03 33.76 C 720.99 37.17 721.37 41.25 721.36 45.04 C 721.39 103.71 721.34 162.39 721.38 221.06 C 721.44 225.22 723.44 230.06 727.81 231.23 C 732.80 232.30 737.97 231.57 743.04 231.78 C 748.08 231.57 753.21 232.29 758.18 231.25 C 762.95 229.91 765.16 224.57 764.90 219.98 C 764.88 159.99 764.95 100.00 764.87 40.02 C 765.03 34.91 761.32 29.50 755.87 29.43 C 747.35 29.32 738.82 29.32 730.30 29.43 Z" />
<path fill="#fdfdfd" opacity="1.00" d=" M 549.71 3.09 C 582.01 3.09 614.31 3.08 646.61 3.09 C 646.60 88.03 646.60 172.96 646.61 257.90 C 637.16 257.90 627.72 257.91 618.28 257.89 C 618.28 182.45 618.28 107.00 618.28 31.55 C 604.87 31.56 591.46 31.52 578.05 31.58 C 578.14 107.00 578.06 182.43 578.09 257.86 C 568.63 257.96 559.17 257.87 549.71 257.90 C 549.70 172.96 549.71 88.03 549.71 3.09 Z" />
<path fill="#fdfdfd" opacity="1.00" d=" M 852.85 3.14 C 882.10 3.02 911.36 3.11 940.62 3.09 C 940.62 88.03 940.61 172.96 940.62 257.90 C 931.17 257.89 921.72 257.94 912.27 257.87 C 912.32 182.43 912.28 106.99 912.29 31.55 C 901.60 31.55 890.91 31.55 880.22 31.55 C 877.21 96.04 874.55 160.56 871.59 225.06 C 870.79 235.32 868.63 247.28 859.47 253.45 C 848.90 259.86 836.04 257.43 824.32 257.88 C 824.37 248.46 824.32 239.05 824.35 229.63 C 829.42 229.51 834.53 229.94 839.58 229.29 C 843.05 228.82 843.17 224.72 843.40 221.99 C 846.54 149.04 849.83 76.09 852.85 3.14 Z" />
<path fill="#fdfdfd" opacity="1.00" d=" M 991.82 3.13 C 1020.12 3.03 1048.43 3.11 1076.74 3.09 C 1076.73 12.58 1076.74 22.06 1076.73 31.55 C 1057.88 31.55 1039.04 31.55 1020.19 31.55 C 1020.20 49.00 1020.19 66.44 1020.20 83.89 C 1034.38 83.90 1048.56 83.88 1062.74 83.89 C 1062.74 93.45 1062.74 103.01 1062.74 112.58 C 1048.56 112.57 1034.37 112.57 1020.19 112.58 C 1020.20 151.60 1020.19 190.62 1020.20 229.64 C 1039.04 229.64 1057.89 229.63 1076.74 229.64 C 1076.73 239.06 1076.72 248.47 1076.74 257.89 C 1048.44 257.89 1020.13 257.95 991.82 257.86 C 991.83 172.95 991.83 88.04 991.82 3.13 Z" />
<path fill="#fdfdfd" opacity="1.00" d=" M 1109.99 3.09 C 1150.47 3.09 1190.94 3.09 1231.42 3.09 C 1231.42 12.57 1231.42 22.06 1231.42 31.54 C 1215.88 31.57 1200.35 31.52 1184.81 31.57 C 1184.82 107.01 1184.81 182.46 1184.81 257.90 C 1175.39 257.91 1165.97 257.90 1156.54 257.90 C 1156.54 182.45 1156.55 107.00 1156.54 31.55 C 1141.03 31.55 1125.52 31.54 1110.01 31.56 C 1109.97 22.07 1109.99 12.58 1109.99 3.09 Z" />
<path fill="#fdfdfd" opacity="1.00" d=" M 464.96 13.96 C 477.54 11.67 489.99 8.71 502.52 6.18 C 484.70 30.86 466.11 55.00 448.18 79.61 C 450.12 87.59 453.12 95.28 455.41 103.17 C 456.89 109.98 459.82 116.38 461.25 123.21 C 465.91 137.34 470.08 151.61 474.33 165.85 C 476.44 172.75 478.94 179.55 480.62 186.58 C 483.69 195.73 486.49 204.97 489.15 214.24 C 487.67 222.21 485.94 230.16 484.14 238.07 C 481.67 233.34 479.10 228.68 476.93 223.80 C 468.19 207.82 460.26 191.42 451.36 175.53 C 443.45 160.30 436.11 144.64 426.27 130.53 C 401.91 152.07 374.63 170.46 345.06 184.07 C 325.92 192.62 306.20 200.02 285.88 205.23 C 255.94 212.77 224.28 214.89 193.91 208.60 C 179.28 205.45 164.81 200.94 151.53 194.00 C 151.60 193.93 151.75 193.78 151.82 193.71 C 187.19 199.99 224.01 200.47 259.15 192.31 C 289.70 185.22 318.53 170.78 342.31 150.32 C 358.98 136.28 373.00 119.40 385.39 101.54 C 356.28 104.17 327.16 106.76 298.05 109.37 C 304.62 105.21 311.05 100.85 317.62 96.68 C 319.66 95.37 321.59 93.81 323.95 93.11 C 352.30 83.97 380.60 74.70 408.94 65.53 C 411.11 64.67 413.96 64.51 415.26 62.28 C 424.35 48.92 432.19 34.23 444.78 23.72 C 450.61 18.94 457.53 15.37 464.96 13.96 Z" />
<path fill="#fdfdfd" opacity="1.00" d=" M 1.28 32.56 C 3.82 43.80 6.63 55.05 11.46 65.55 C 18.33 83.76 29.01 100.21 39.65 116.41 C 45.50 123.68 50.68 131.45 56.64 138.63 C 65.75 150.95 77.30 161.18 88.97 170.99 C 111.19 190.02 136.12 206.24 163.54 216.71 C 197.51 229.90 235.08 232.89 270.95 227.00 C 256.52 233.87 240.64 237.38 224.83 239.22 C 185.54 243.23 145.46 234.37 110.51 216.33 C 92.44 206.87 75.48 195.08 61.03 180.63 C 54.88 175.49 50.27 168.84 44.76 163.08 C 36.75 151.01 30.69 137.79 24.14 124.91 C 20.45 117.07 16.59 109.24 14.02 100.95 C 5.38 79.29 0.46 55.95 1.28 32.56 Z" />
<path fill="#fdfdfd" opacity="1.00" d=" M 305.38 217.32 C 310.13 215.49 314.82 213.44 319.67 211.84 C 309.96 230.14 298.00 247.65 281.97 261.00 C 272.68 268.74 261.99 274.83 250.45 278.50 C 232.47 284.36 213.31 287.38 194.42 285.46 C 208.79 283.18 222.70 278.58 236.15 273.09 C 251.65 266.55 266.56 258.38 279.63 247.72 C 288.28 240.73 296.06 232.51 301.82 222.96 C 303.01 221.10 303.61 218.75 305.38 217.32 Z" />
<path fill="#fdfdfd" opacity="1.00" d=" M 284.47 223.26 C 288.00 222.32 291.70 222.29 295.25 221.41 C 276.14 240.67 252.77 256.50 226.25 263.27 C 219.59 265.23 212.67 265.88 205.89 267.27 C 184.37 271.30 162.21 270.87 140.58 267.92 C 136.86 266.01 134.01 262.72 130.42 260.56 C 120.83 253.63 111.48 246.37 101.88 239.45 C 97.02 236.37 93.07 231.94 87.85 229.46 C 88.48 229.54 89.74 229.70 90.37 229.79 C 93.53 231.70 96.90 233.25 100.37 234.54 C 117.07 241.66 134.33 247.67 152.16 251.28 C 166.27 254.09 180.76 254.13 195.08 253.54 C 222.27 252.23 249.79 245.81 273.01 231.16 C 277.03 228.82 280.60 225.82 284.47 223.26 Z" />
</g>
</svg>
